<svg id="Capa_1" data-name="Capa 1" xmlns="http://www.w3.org/2000/svg" viewBox="0 0 640.23 671.51"><defs><style>.cls-1{fill:#060605;}.cls-2{fill:#3a3a39;}.cls-3{fill:#5d5d5d;}.cls-4{fill:#5e5d5d;}.cls-5{fill:#5e5e5d;}.cls-6{fill:#5d5d5c;}.cls-7{fill:#5e5d5e;}.cls-8{fill:#888887;}.cls-9{fill:#888787;}.cls-10{fill:#5f5f5f;}.cls-11{fill:#878887;}.cls-12{fill:#898888;}.cls-13{fill:#828282;}.cls-14{fill:#5f5e5f;}.cls-15{fill:#5d5d5e;}.cls-16{fill:#605f60;}.cls-17{fill:#888;}.cls-18{fill:#3b3b3b;}.cls-19{fill:#3a3b3b;}.cls-20{fill:#898988;}.cls-21{fill:#8b8b8b;}.cls-22{fill:#393939;}.cls-23{fill:#3a3939;}.cls-24{fill:#8a8a89;}.cls-25{fill:#8c8b8a;}.cls-26{fill:#5d5b5c;}.cls-27{fill:#3a393a;}.cls-28{fill:#696867;}.cls-29{fill:#696868;}.cls-30{fill:#898989;}.cls-31{fill:#605f5f;}.cls-32{fill:#545353;}.cls-33{fill:#717170;}.cls-34{fill:#777675;}.cls-35{fill:#615f5f;}.cls-36{fill:#10100f;}.cls-37{fill:#898889;}.cls-38{fill:#838181;}.cls-39{fill:#8b8a8a;}.cls-40{fill:#626060;}.cls-41{fill:#545454;}.cls-42{fill:#626261;}.cls-43{fill:#797877;}.cls-44{fill:#7b7b7a;}.cls-45{fill:#5d5c5d;}.cls-46{fill:#090808;}.cls-47{fill:#070706;}.cls-48{fill:#0f0f0e;}.cls-49{fill:#11100f;}.cls-50{fill:#343535;}.cls-51{fill:#0f100f;}.cls-52{fill:#0e0e0d;}.cls-53{fill:#3c3c3d;}.cls-54{fill:#0d0c0c;}.cls-55{fill:#504f4f;}.cls-56{fill:#171616;}.cls-57{fill:#0d0d0c;}.cls-58{fill:#0c0c0b;}.cls-59{fill:#878787;}.cls-60{fill:#080707;}.cls-61{fill:#080807;}.cls-62{fill:#0f0e0e;}.cls-63{fill:#c1c1bf;}.cls-64{fill:#bab9b9;}.cls-65{fill:#666565;}</style></defs><path class="cls-1" d="M116.58,155.25c4.85-.75,9.26-1.68,13.71-2a5.22,5.22,0,0,0,4.88-3.29,55.18,55.18,0,0,1,18.5-21.24c3.57-2.39,7.54-4.19,11.33-6.24,2-1.09,4.88-.88,5.4-4.28.12-.79,2.79-1.52,4.35-1.71a62.51,62.51,0,0,1,27.18,2.15c5,1.61,7.74.44,11.1-3.11,10.25-10.84,23-18.17,36.79-23.34,6.3-2.36,9.82-5.93,11.44-12.26,1.69-6.59,4-13,5.94-19.56a78.41,78.41,0,0,1,20.2-33.41,46,46,0,0,1,64.41-.27C362.32,36.94,369,49.43,373.14,63.39c1.95,6.54,4.1,13,5.87,19.6,1.1,4.08,3.45,6.44,7.37,7.94,11.84,4.53,23.27,9.94,33.22,18a122.27,122.27,0,0,1,9.29,8.34c1.93,1.92,3.55,2.69,6.5,1.78a77.37,77.37,0,0,1,27.67-3,29.17,29.17,0,0,1,4.9.83c.57.14,1.53.78,1.48,1.06-.61,3.52,2.28,3.32,4.23,4.06,13.85,5.27,24,14.77,31,27.66,1.35,2.49,2.76,3.49,5.65,3.65,4.26.25,8.47,1.31,13.07,2.08,1.86-5.11,2-10.77,2.66-16.31,1.51-12.83-2.26-24.69-7.09-36.33-1.06-2.54-2.77-3.5-5.48-3.08-10.15,1.56-18.19-2-24.64-9.91a28.07,28.07,0,0,0-6.52-5.36c-2.94-2-6.05-3.08-9.76-1.43s-6.74.36-9.18-2.83c-3.44-4.49-7-8.88-10.54-13.31-4-5.08-4.33-9.29-.41-14.51,1.52-2,2-3.51.33-5.55a15.26,15.26,0,0,1-1.66-3.06c-4-8-3.26-12.32,3.48-18,10.71-9,22.52-16.52,34.76-23.32,5.44-3,10.66-2.73,16.11.23a167.5,167.5,0,0,1,29.39,20.59c9.83,8.48,19.28,17.41,28.72,26.32a76.07,76.07,0,0,1,7.73,9.14c2.83,3.69,5.33,7.47,9.84,9.59,2.08,1,3.52,3.44,5,5.39a14.55,14.55,0,0,1,2.06,4c5.18,14.5,14.27,26.62,23.36,38.75,8.92,11.89,16.86,24.37,21.72,38.54,9.23,26.88,8.74,54,1.61,81.18-2.53,9.65-5.51,19.18-8.28,28.77-.18.64-.33,1.3-.55,1.92-2.92,8.24-9,10-15.87,4.56-1.55-1.23-3-2.62-4.52-4a49.31,49.31,0,0,1-1.86,4.83c-1.78,3.48-5.21,5-8.3,2.76-10.08-7.47-21.35-5.13-32.31-4.37-8.78.6-17.48,2.34-26.2,3.6-22,3.16-42.34-1.3-61.33-12.58-.85-.51-1.7-1-2.56-1.53a7,7,0,0,0-.85-.25,26.6,26.6,0,0,0-.89,3.1c-4.3,26.19-15.14,48.8-36.08,65.88-2.19,1.79-4.27,3.72-6.43,5.56-5,4.25-7.22,9.72-7.63,16.21-.46,7.14-1.2,14.26-2,21.37a55.11,55.11,0,0,1-1.43,5.8c-.44,2-1.67,4.48-1,6,1.81,4,3.3,8.33,7.88,10.5,7.06,3.34,14.15,6.69,20.84,10.68,14.06,8.38,26,19.15,34.79,33.1,8.41,13.3,13.08,27.6,11.82,43.53-.46,5.82-.67,11.66.94,17.35,3.41,12,1.27,23.75-1.38,35.51a65.07,65.07,0,0,1-23.59,37.79c-8.62,6.82-17.57,13.21-26.2,20s-8.49,5.62-4,15.86a213.39,213.39,0,0,1,10.31,28.6c1.52,5.44,3.61,10.72,5.3,16.11A27.14,27.14,0,0,1,455,659.5c.21,4.38-2.2,7.21-6.46,8.2-.16,0-.34,0-.49,0-2.88,1.09-5.7,2.87-8.63,3.09s-5.94-.42-9.1.33c-2.3.55-5.16-.51-7.56-1.41a6,6,0,0,0-4.16-.33c-8.06,2.2-14.62-1.12-17.55-9a45.76,45.76,0,0,1-2-8.71c-.4-2.42-1.18-4.5-3.25-5.91-10-6.78-16.79-16-21.28-27.06a2.31,2.31,0,0,0-.21-.45c-1.09-1.86-1.79-4.55-3.41-5.32-1.45-.69-3.92.67-5.91,1.26-6.56,1.94-12.78-.36-15.92-6s-2.12-12,3.44-16.49c3.33-2.72,7.16-4.83,10.69-7.32,10.42-7.36,16.18-17.49,17.05-30.15.35-5.12-.19-10.32-.55-15.47-.63-8.94-.42-17.67,5.21-25.12-6.58-3.22-13.08-6.15-19.34-9.52-11.86-6.39-21.84-15.2-30.82-25.14-2.09-2.31-3.89-3.34-7.16-2.17a21.75,21.75,0,0,1-15.21-.1c-3.52-1.36-5.35-.06-7.68,2.19-6.59,6.35-13.13,12.8-20.24,18.53-8.71,7-18.86,11.75-29.22,15.9,1.45,3.51,3.6,6.71,4,10.12.74,6.4.54,12.91.58,19.38,0,4.82-.9,9.78-.08,14.44,2.07,11.72,7.59,21.55,18,28.06a82.23,82.23,0,0,1,9.49,6.42c5.37,4.48,6.69,10.75,3.82,16.08-3.12,5.79-9.53,8.31-16.26,6.35-1.89-.55-4.48-2.27-5.45-1.59-1.86,1.3-3,3.82-4.07,6-3.55,7.35-6.68,14.94-13.13,20.41-2.42,2-4.79,4.15-7.33,6a10.48,10.48,0,0,0-4.36,7.46,34.18,34.18,0,0,1-2.34,9.12,13.5,13.5,0,0,1-16.57,7.59,6.12,6.12,0,0,0-5.51.73,9.87,9.87,0,0,1-8.63.83,8.35,8.35,0,0,0-4.16-.17,10.33,10.33,0,0,1-8.12-1.36,10.81,10.81,0,0,0-3.5-1.47c-4.75-1.07-7.46-4.49-6.91-9.38a37.34,37.34,0,0,1,1.65-6.77c1.95-6.36,3.8-12.75,6-19,2.95-8.28,6.21-16.46,9.38-24.66.59-1.55,1.49-3,2.08-4.53,1.36-3.55,1-5.44-2-7.91-4.12-3.38-8.37-6.59-12.61-9.83-5.29-4-10.63-8-15.93-12-14.21-10.76-22.6-25.09-25.8-42.5-1.35-7.34-3.52-14.64-2.43-22.24.78-5.43,1.78-10.83,2.6-16.26a15.92,15.92,0,0,0,.22-4.46c-3.54-26.42,6.48-47.84,24.42-66.35a113.79,113.79,0,0,1,39.57-26.44c6-2.43,8.37-7.18,11.08-12.06a3.73,3.73,0,0,0,0-2.84c-3.72-9-4.17-18.51-4.35-28-.17-8.68-3.47-15.35-10.32-20.56a124,124,0,0,1-10.19-8.85c-16-15.12-24.19-34.3-28.8-55.35-.57-2.59-.94-5.22-1.46-8.19a27.92,27.92,0,0,0-3.17,1.43c-20.91,13.09-43.51,16.64-67.6,12.24C84.41,271,71.73,269.12,58.81,270c-4,.27-7.83.87-11.31,3.31-6.45,4.51-9.46,3.42-12.24-4-.22-.57-.49-1.12-.81-1.84a75.57,75.57,0,0,1-6.7,5.44c-4.86,3.09-9.34,1.86-12.16-3.16a19.38,19.38,0,0,1-1.67-4.15c-3.41-11.83-7.41-23.52-10-35.52-6.35-29.15-5.62-57.89,7.24-85.49a158.56,158.56,0,0,1,16.68-27.17c3.07-4.15,6.1-8.33,9.24-12.43A87,87,0,0,0,50.29,81.07C52.64,74.45,56,68.67,63,65.92a5.18,5.18,0,0,0,2.13-2C72.75,52.39,82.66,43,92.94,34c12.14-10.66,24.45-21.12,38.44-29.38,1.43-.84,2.88-1.64,4.34-2.44a15,15,0,0,1,15.65.12,247.6,247.6,0,0,1,33.14,22.22,33.23,33.23,0,0,1,4.31,4.16,11.18,11.18,0,0,1,2,11.26,15.73,15.73,0,0,1-2,4.53c-2.39,3.27-2.77,5.9,0,9.55,3,3.84,2.5,8.45-.82,12.43-3.83,4.61-7.61,9.26-11.41,13.89-2.36,2.88-5.3,4.13-8.85,2.63-3.14-1.33-5.93-.52-8.42,1.2a50.53,50.53,0,0,0-8.48,6.9c-5.79,6.29-12.54,9.91-21.23,8.67-5.08-.73-7.34,1.74-9.25,6.06-6.37,14.37-7.65,29.17-4.75,44.48C115.92,151.87,116.24,153.49,116.58,155.25ZM385.32,99.86a22.83,22.83,0,0,1-3.06,13,6.64,6.64,0,0,0-.27,2.49c1.84,6.19,3.89,12.31,5.69,18.5,3.52,12.08,1.53,23.27-5.74,33.53-1.41,2-2.88,3.93-4.84,6.6,8.17-1,15.57-2.46,23.21,1.55l-4.1.41c-2.15,0-4.32-.21-6.46,0-9.29.83-18.35,2-24.68,10.29-2.32,3-5.61,5.33-8.45,8a66.24,66.24,0,0,0,12.9-2c14.46-3.21,28.29-1.72,41.29,5.62a59.28,59.28,0,0,1,5.92,4.36c-2.12-.92-4.26-1.8-6.35-2.79-9.3-4.43-19-7.67-29.37-6.18-8.33,1.21-16.45,3.85-24.66,5.86-5.74,2.11-11.52,4.11-17.2,6.35a49.51,49.51,0,0,1-38.66-.3c-5.93-2.47-12.16-4.18-18.26-6.23-3.77-1.19-7.49-2.53-11.31-3.52-10.18-2.63-20.49-4.13-30.7-.42-5.86,2.14-11.47,5-17.2,7.51,1.88-1.52,3.6-3.32,5.67-4.5,11.77-6.74,24.19-9.71,37.71-6.33,5.7,1.42,11.5,2.45,18.34,3.88-5.07-4.73-9.36-8.88-13.83-12.82a19,19,0,0,0-6.09-4c-6.31-2.11-12.81-3.43-19.55-2.79-1,0-2,0-3-.12-.81-.07-1.61-.25-2.41-.38,7.2-2.94,14.44-3.07,22.19-1.66-.7-1.36-1.09-2.26-1.6-3.09-2.31-3.79-5-7.4-6.92-11.39-3.31-6.85-4.6-14.1-2.39-21.62,1.9-6.47,4-12.89,5.69-19.4.36-1.34,2.28-2.79.45-4.42-2-4.82-3.7-9.68-3.2-15,.16-.89.32-1.78.53-3-15.84,6.36-30.06,14.24-41.62,27.2l4.19,2,11,8.85c1.69,1.83,3.44,3.6,5,5.5,2.21,2.58,4.67,5.07,5,9.29l-4-2.86-4.07-4.9c-1.08-1.22-2.07-2.53-3.25-3.63-13.55-12.55-30.11-16.62-48-17,.24,3.31.26,3.41-2.74,4.09a53.8,53.8,0,0,0-21.93,10.11c-5.94,4.69-10.5,10.56-14.6,16.85-1.07,1.65-.94,2.78,1.42,2.67,13.84,4.35,19.35,7.17,22.48,11.56l-7.36-2.67c-10.06-4.38-20.39-6.6-31.4-4.24-7.5,1.61-7.53,1.5-6.27,9.05,2.67,15.31,2.1,30.37-3.32,45.08-1,2.07-2,4.11-2.84,6.22-2.18,5.46-2,5.75,3.81,6.79.16,0,.34,0,.5,0l16.3,2.65c-4.72.42-8.8,1-12.89,1.07a68.52,68.52,0,0,1-9.35-.76,6.27,6.27,0,0,0-6.66,3.18c-1.33,2.07-3.35,3.7-5.07,5.52a26.6,26.6,0,0,1,3.32-7.23c5-8.61,9.08-17.57,10.85-27.45.68-4.91,1.83-9.81,2-14.73.37-14.37-3.44-28.22-5.89-42.24,0-2.48.07-5,0-7.45-.25-7.45-.12-14.9,2.13-22.06,1.56-5,3.65-9.78,5.48-14.62-4.16,1.37-8.25,3-12.47,4-3.13.77-10.12-1.11-11.91-2.47l9.87-1.33c3.13-.9,6.55-1.28,9.34-2.81,7-3.86,10.26-10.48,8.55-18.2a20.82,20.82,0,0,1-.13-10.13c.21-1,1.74-1.81,0-2.89a21.59,21.59,0,0,1-2.56-2.25,5,5,0,0,1,3.26-.39c3.69.61,3.73.57,2.28-3.41.11-.88.22-1.76.45-3.68,3.27,6.52,9.41,7.84,15,11.42h-7.33c.46,1.08.89,1.93,1.18,2.82s.48,1.89.71,2.84a13.31,13.31,0,0,1-3.4-3.2c-1-1-2.73-2.75-3.21-2.48a7.25,7.25,0,0,0-3.06,3.62c-1.32,3.66-.11,5.91,3.66,7.4a58,58,0,0,0,5.69,1.83c3.79,1.05,7.59.59,10.2-2.28,3.76-4.14,6.92-8.81,10.34-13.25,2.12-3.12.9-5.62-1.51-7.85-5.48-5-11-10.06-16.47-15.13a17.87,17.87,0,0,1-1.79-2.32l.46-.36,4.22,2.61c4.72,3.85,9.54,7.58,14.13,11.59,7,6.12,7.12,7.08,3.37,15.67,0,.07.19.25.63.81,3.65-3.56,7.45-6.94,10.81-10.7,1.17-1.32,1.29-3.58,1.89-5.4.27-2.73-1.64-4.26-3.35-5.79-2.86-2.54-5.9-4.88-8.79-7.39-4.56-3.94-9.06-8-13.59-11.92,4.92,1.54,24.26,15.77,27.17,19.09a9.56,9.56,0,0,1,2.42,8.45,34.94,34.94,0,0,0,4.51-4.51,23.4,23.4,0,0,0,2.31-3.26c2.48-4.19,2.06-7-1.68-10.05s-7.32-5.77-11-8.68c-4.6-3.69-9.16-7.41-13.73-11.12,5.07,1.22,26.51,16.49,31.28,21.56,3.49-6.46,3.15-8.78-1.93-13.4a17.21,17.21,0,0,0-1.89-1.64c-10.51-7-21-14.14-31.61-20.92-4.85-3.09-6.58-2.58-11.05,1.22l4.39,1.58c-6.81,1.1-7.73,2-9.48,9.18-.15.61-.88,1.46-1.42,1.51-6,.63-7.92,4.75-8.58,10-2.17-5.61-.26-9.95,5-11.66,1.12-.36,2.66-.78,3.07-1.63,1.09-2.25,1.67-4.75,2.84-8.32l-8.84,6.74a18.42,18.42,0,0,0-1.73,1C103.1,30.66,84.2,47.11,68.18,66.69c-1.05,1.28-2,2.86-3.4,3.58-5.12,2.67-7.66,7.23-9.56,12.29C51,93.72,44.83,103.69,37.6,113.11c-4.25,5.53-8.24,11.27-12.14,17.07a116.17,116.17,0,0,0-20.1,67.7c.1,7.94,1.32,15.87,2,23.81a21.17,21.17,0,0,0,.32,3.92c3.4,12.59,6.76,25.2,10.36,37.74,2.26,7.91,4.8,8.4,10.76,2.47,2.3-2.28,4.58-4.58,7.48-7.48,1.08,3.63,1.81,6.29,2.66,8.92,1.35,4.14,1.66,4.09,5.43,2.21A35,35,0,0,1,53.61,266a79.88,79.88,0,0,1,26.72-.23c8.81,1.39,17.75,1.87,26.55,3.31,11.4,1.87,22.46.52,33.34-2.7,12.82-3.79,24.39-10.25,35.57-17.46,4.44-2.86,9.06-5.45,14.62-5.45-6.21,2.27-11.15,6.44-16.24,10.4-1.34,1-1.93,1.92-1.61,3.72,2.78,15.42,7.06,30.38,15.13,43.89a109.6,109.6,0,0,0,13,16.9,195.43,195.43,0,0,0,15.51,14.8c5.91,5.26,8,11.9,8.12,19.51.1,4.79.71,9.58.88,14.38.33,9.8,5,17.7,10.85,25.07,2.78,3.49,5.76,6.82,8.65,10.22l-.81.76L227.34,388c-2.2,3.16-4.18,6-6.17,8.84-3.68,1.71-7.4,3.34-11,5.15-3,1.52-6,3.26-8.93,4.9-4.71,3.07-9.62,5.88-14.1,9.26C174,426,163.76,438.24,157.32,453.38a56.23,56.23,0,0,0-4.38,30.14c.95,6.85-.67,13.52-1.84,20.2-.23,3.36-.47,6.72-.7,10.07-.06,6.26,2.72,11.55,6.06,16.5,2.42,3.56,5.42,6.74,8.15,10.09l-.55.56-11.85-10c2.3,14.67,9.62,25.75,19.75,34.88,7.23,6.51,15.39,12,23,18,3.77,3,7.24,6.32,11,9.26,3.61,2.8,3.64,6.41,2.95,10.3-.2,1.14-.57,2.24-.87,3.35-6.17,10.67-9.9,22.26-12.89,34.13-1.26,3.25-2.58,6.47-3.75,9.76a58.23,58.23,0,0,0-2.29,7.6c-.44,2.09-.34,4.28,2.22,5.43,2.18-9.43,3.38-12.13,7.14-15.5-1,3.63-2,6.78-2.88,9.94a7,7,0,0,0,1.71,7.37,5.1,5.1,0,0,0,3.57,1c.45,0,1.14-1.77,1.11-2.71-.24-7,3.76-12.47,6.54-18.39a103.79,103.79,0,0,1-2.22,10.6,23.18,23.18,0,0,0-.88,6.36c.19,3.29,2.33,4.73,5.86,4.52s3.6-.64,3.92-4.83A52.8,52.8,0,0,1,221,642.24a28,28,0,0,1-.21,6.35c-.51,4.11-1.06,8.21-1.59,12.31,0,2.75,1.81,3.71,4.12,4.1,4.45.75,8.43-1,10.39-5.09a35.11,35.11,0,0,0,2.61-8.49c.83-4.4,2.39-8,6.33-10.73a43.23,43.23,0,0,0,15.6-18.39,94.08,94.08,0,0,1,5.07-9.7c1.32-2.27,2.3-4.32.35-6.77-.4-.51-.06-1.62-.06-2.88,1.87,1.41,3.3,2.54,4.77,3.6a17.73,17.73,0,0,0,12.7,3.39c5-.6,7.67-5.06,6.18-10.07-.48-3.08-2.86-4.7-5.11-6.28-3.49-2.44-7.13-4.64-10.71-7l-5.2-4.77c-.38-.54-.74-1.09-1.14-1.61-4.76-6.23-9.5-12.55-10-20.72-.42-6.58-.27-13.19-.27-19.79,0-3.82.65-7.69.2-11.43s-1.46-7.49-4.24-10.42c-1.5-1.58-3-2.35-5.28-1.65-6,1.81-12.08,3.4-18.14,5a15.2,15.2,0,0,1-2.44.29l-.34-1.1c6.81-2.89,13.53-6,20.45-8.63,21.13-7.93,40-19.32,55.54-35.84,3-3.15,2.87-2.93-.25-5.78S293.71,464.56,291,460c3.88,2.75,6.86,5.1,10.07,7.09,5.71,3.54,11.86,5.85,18.73,5.8,7.77,0,14.52-3,20.82-7.19,2.44-1.63,4.75-3.45,7.11-5.18l.22.34-12,12.51c5,4.62,9.88,9.14,14.81,13.56,10.52,9.44,23,15.65,35.81,21.19,9.29,4,18.49,8.19,27.72,12.34a14.43,14.43,0,0,1,2.41,1.7c-7.61-1.64-14.95-3.51-22.16-5.81-3-1-5.14,0-6.32,2.32-1.39,2.73-2.72,5.83-2.84,8.82-.35,9.28.09,18.59-.22,27.87a28,28,0,0,1-2.3,11c-2.63,5.46-6.25,10.44-9.45,15.63l-5.31,4.68c-3.39,2.23-6.9,4.3-10.13,6.74-1.88,1.42-3.31,3.44-4.95,5.18-3.28,5.8,2.18,12.61,8.12,11.33a48.82,48.82,0,0,0,8.4-2.67,54.49,54.49,0,0,0,6.08-3.42c-2,4.23-.54,7.35,1.67,10.42a17.1,17.1,0,0,1,1.87,3.51c4,9.82,10.59,17.56,19.08,23.77,2.87,2.1,4.11,5.12,4.83,8.43.49,2.26.72,4.59,1.37,6.8,1.3,4.43,4.07,7.61,8.67,8.79a6.86,6.86,0,0,0,6.84-2c1.43-1.44,1.86-3.11.51-4.9q-.46-2.7-.95-5.4c-.34-2-.76-3.92-1-5.89-.2-1.61-.2-3.24-.29-4.86,3.26,6.63,6.24,13.12,6.21,20.45,0,3.39.58,3.88,4.12,3.93,4.3.05,5.86-1.37,5.8-5.61a23.38,23.38,0,0,0-.82-4.88c-.78-3.32-1.64-6.61-2.47-9.92,3.81,6.12,7.55,12.2,6.81,19.71,4.39.52,6.14-.57,6.35-4.47a25.56,25.56,0,0,0-.77-6.36c-.46-2.27-1.17-4.49-1.77-6.73l1.13-.4c2,4.91,4,9.81,6.1,14.79,2.4-3.21,2.63-4.34,1.16-8.31-1.85-5-3.86-9.89-5.8-14.84a19.43,19.43,0,0,0-.63-3.35c-3.83-10.19-7.73-20.35-11.6-30.52-3.09-5.67-2.1-10.43,3-14.43,5.72-4.47,11.27-9.17,17-13.58,8.94-6.81,18.29-13.17,25-22.46A59.88,59.88,0,0,0,488,530.29c-4.06,2.29-5.85,6.9-10.39,8a5.35,5.35,0,0,1,1.1-2.21c2.28-3,4.93-5.85,6.76-9.12s4.12-6.86,3.68-11.1l-.66-13.14c-.45-6.6-.94-13.2-1.34-19.8-.11-1.82,0-3.65.06-5.48a60.12,60.12,0,0,0-5.64-26c-9.07-20-24.35-34.05-43.23-44.57q-9-4.5-18-9l-8.17-9.21-16.88,14.26A76.84,76.84,0,0,1,403,392.59c5.24-6.3,9.9-13,11.09-21.32,1.1-7.69,1.62-15.47,2-23.23.29-5.23,1.89-9.62,5.69-13.3,5.62-5.45,11.13-11,16.66-16.56,2.36-2.36,5-4.54,7-7.17,11.84-15.7,18.15-33.69,21.48-52.86a4.13,4.13,0,0,0-1-3.07c-4-4.24-8.38-8.06-13.94-10.23a16.7,16.7,0,0,1-2.16-1.24c4.44-.07,8.07,1.86,11.55,4,8.9,5.5,17.77,11,27.45,15.09a82.71,82.71,0,0,0,30.29,7,151.68,151.68,0,0,0,26.2-2.07c10.34-1.57,20.61-3.1,31.11-2.78,6.58.19,12.81,1.31,18.66,4.45,4.07,2.18,4.79,1.8,6.31-2.61.78-2.24,1.54-4.49,2.45-7.14,3.71,3.14,6.8,5.86,10,8.45,3.48,2.83,4.79,2,7.27-2.11a12.7,12.7,0,0,0,1-2.81c2.34-7.76,4.83-15.47,7-23.3,1.33-4.91,2.08-10,3.1-15,.47-3.12.9-6.24,1.42-9.35,2.3-13.94,1.58-27.78-.83-41.65-3.23-18.58-11.34-35-22.22-50.1-10.07-14-20.88-27.54-26.85-44.13-1.16-3.21-4.34-5.74-6.75-8.44-1.86-2.08-4.06-3.85-6-5.9s-3.59-4.37-5.48-6.47a298.39,298.39,0,0,0-40.76-37.4c-5.32-4.08-11-7.73-17.07-12,.88,4.93,1.19,9,6.75,9.25,1.28.05,2.49,1.54,3.73,2.37.33,2.44.71,4.88,1,7.34.14,1.21,0,2.39-1.69,2.39-.82-8.29-2.58-10.17-10.58-11.09.91-2.93.44-5.88-2.09-7.41-2.16-1.29-5-1.42-8.55-2.31l8.06-1.59c-5-4.14-10-4.33-15.41-.56-10.25,7.12-20.78,13.83-30.94,21.06-5.64,4-5.89,7.49-2.18,13.6,4.1-4.68,25.17-19.91,31.37-22.23a124,124,0,0,1-9.49,8.41c-4.93,4-10,7.75-14.89,11.77-3.55,2.92-4.31,5.75-2.52,9.17a22.12,22.12,0,0,0,8,8.28c-.72-4.87,1.23-7.91,4.57-10.36,7-5.11,13.9-10.31,20.88-15.43a9.5,9.5,0,0,1,2.3-.9,60.19,60.19,0,0,1-8.53,8.58c-4.28,3.71-8.61,7.35-12.89,11-1.54,1.34-2.9,2.83-2.27,5.16.8,5.67,4.48,10.46,11.7,15.19-3-8.39-2.48-10.21,4.63-16,.76-.62,1.65-1.1,2.41-1.74,1.74-1.47,3.45-3,5.17-4.51,3.63-2,6.32-5.56,10.78-6.42A16,16,0,0,1,503.51,46c-4.36,3.84-8.76,7.63-13,11.57-2.12,2-5,3.66-4.19,7.33,1.56,6.24,6,10.46,10.25,14.89,3,3.13,6.58,3.67,10.49,2.9a42.34,42.34,0,0,0,6.65-2c5.18-1.94,5.06-6.15,2-9.92-1.33-1.66-2.71-1.8-4,0s-2.44,3.38-3.65,5.07l-.8-.39,1.3-5.24-6.35-.31L517.13,60l.24,1.92c-1.07,3.59-1.07,3.59,2.2,4,.85.1,1.7.22,3.58.48-2.93,1.81-4.7,3.31-2,5.57a19.07,19.07,0,0,1-.62,9.72,12.61,12.61,0,0,0,.91,9.68c3.44,7,9.22,10.14,16.72,10.64l10.4,1.39c-8.78,4-17,2.9-25.14-2.33,1.9,5.36,3.78,9.94,5.12,14.67,2.56,9,3.76,18.05,1.9,27.4-.77,3.86-.77,7.87-1.12,11.82-1.14,6.82-2.4,13.62-3.39,20.46-1.39,9.56-1.23,19.08,1.47,28.45a7.24,7.24,0,0,0,0,2c2.51,8.42,5.5,16.64,10.23,24.12,1.27,2,2.34,4.13,3.5,6.2a18.43,18.43,0,0,1-5.85-5.35c-1.64-2.33-3.28-2.72-6.24-2.49-7.23.57-14.54.18-21.41.18,5.77-1.15,11.92-2.27,18-3.63,3.86-.87,4.13-1.63,2.56-5.06-1.24-2.69-2.51-5.36-3.77-8-3-10-4.85-20.22-4.11-30.72.38-5.4,1.19-10.78,1.8-16.16.78-2.87.12-4.4-3.17-5.32-13.21-3.7-25.55-1.33-37.51,4.6l-4.67,1.45a14.2,14.2,0,0,1,4.46-4.12A65.58,65.58,0,0,1,499.37,154c1.61-.05,2.11-.59,1.16-2.14-7.59-12.51-17.57-22.1-32-26.16-2.93-.82-5.91-1.46-8.86-2.19l1.28-3.08c-20.3-.16-37.74,5.74-51.52,20.65l-4.11,3.84-5,3.57-.9-1.08,13-14.36,10.81-8.19,3.72-2.26c-12-12.7-26.43-20.51-42.3-26.76Zm-113.07-39L263.43,84.6c4.72,1.81,4.69,1.8,6.53-1.9a32.26,32.26,0,0,1,2-2.92c.21,1.55.31,2.34.42,3.14q-1.12,4.92-2.24,9.82c-.82,2.13-1.73,4.23-2.44,6.4-4,12.21-8.23,24.37-11.81,36.71-1.21,4.14-1.23,8.8-.95,13.17.5,7.72,4.6,14,9.39,19.8a103.48,103.48,0,0,0,26.52,26.31,42.33,42.33,0,0,0-2.78-5c-3.16-5.38-5.82-11.14-4.66-17.42a49.31,49.31,0,0,1,5.06-13.89c2.94-5.54,2.06-10.21-1.6-14.73-2.39-3-4.93-5.82-7.53-8.61-4.54-4.88-6.91-10.45-6-17.23.41-3.1.57-6.24.84-9.36,2.51-6.86,6-12.69,14-14.08,6.65-.09,13.25.1,19.69,2,10.69,3.24,21.1,1.47,31.4-1.89,2.5-.07,5,0,7.49-.25,7.19-.68,12.28,2.94,15.78,8.53,1.95,3.1,2.47,7.1,3.64,10.69,0,2.83-.14,5.67.1,8.48a12.33,12.33,0,0,1-2.35,8c-1.43,2.21-3.36,4.09-4.91,6.23-3.18,4.42-6.28,8.9-9.36,13.38-1.58,2.29-1.64,4.38.33,6.73,1.45,1.73,2.25,4,3.2,6.15,3,6.54,4.33,13.25,1.41,20.15-1.75,4.16-3.8,8.18-5.81,12.47a136.7,136.7,0,0,0,27.4-27.59C382,160.27,386.29,152,385,142.17a101.6,101.6,0,0,0-4.19-17.84c-3.68-11.35-7.89-22.52-11.73-33.82-1.24-3.62-2.55-7.31-2-11.39a8.78,8.78,0,0,1,2.58,3.38c1.12,3.22,3.22,3.81,6.07,2.93-1.61-5-3.09-9.89-4.77-14.71-1.4-4-3-8-4.55-12C362.56,46.07,355,35.86,345,27.57c-14.39-11.89-35.91-12.13-50.22-.5A65.79,65.79,0,0,0,272.25,60.88Zm22,90a51.08,51.08,0,0,1-2.32,6.85c-3.49,7-7.23,13.85-5.58,22.12,3.83,12.15,11.29,21,23.85,24.36,3.91,1.06,8.23.57,12.36.76,9.38.43,16.81-3.61,22.46-10.7,3.33-4.19,7.06-8.46,7.24-14.36a10.43,10.43,0,0,0,.42-9.06c-1.94-5.19-4.38-10.2-6.61-15.28-.58-1.32-1.15-2.64-1.72-4,.61-.93,1.22-1.86,1.84-2.79,1.18-2.34,2-4.93,3.61-7,2.73-3.54,5.92-6.71,8.87-10.08s5.13-7.24,3.86-12.24c-.51-2-.16-4.29-.14-6.45.13-10.52-8.33-17.8-18.62-15.85-4.55.86-9.05,2-13.54,3.14-6.37,1.6-12.73,2.18-19.19.54-5-1.27-10-2.49-15-3.59-11-2.4-19.09,4.33-18.84,15.54,0,1,0,2,.05,3.08-2.28,6.82,0,12.34,4.81,17.18a39.46,39.46,0,0,1,4.7,5.16c2.31,3.37,4.33,6.95,6.47,10.45Zm-171.88-56c3.75,0,7.37-.16,11,0A15.23,15.23,0,0,0,144,91.33c5.54-4.38,11-8.87,16.59-13.42l-3.1-3.43c-3.51,2.68-7,5.11-10.26,7.88-4.63,4-9.67,5.67-15.66,3.82A24,24,0,0,0,126.73,85a2.58,2.58,0,0,0-2.16,1.23C123.73,88.9,123.18,91.65,122.41,94.9ZM456.65,54.55c-3.2,4.65-3.26,5.58-.12,9.65s6.38,8.07,9.66,12a7.81,7.81,0,0,0,3,2.46c1.77.65,5.78-2.36,7.13-4.65,1.63-2.77-.47-4-2-5.3C468.54,64,462.71,59.41,456.65,54.55Zm-273.11-.38c-2.74,2.4-5.42,4.85-8.2,7.17-3.68,3.08-7.43,6.09-11.19,9.09-1.67,1.34-1.65,2.86-.3,4.23a14.3,14.3,0,0,0,4,2.93c3.4,1.6,3.75,1.37,6.16-1.6,3.24-4,6.57-7.92,9.86-11.87S187.1,59,183.54,54.17Zm298.33,20c-.35,2.21-2.88,3.54-.49,4.8,6.13,3.24,10.78,8.26,16.05,12.54A13.65,13.65,0,0,0,504,94.69c4.58.5,9.24.15,14,.15-.91-3.51-1.71-6.62-2.57-9.92-2,.47-3.93.91-5.84,1.37-6.36,1.53-12,.72-17-4.14C489.63,79.2,485.84,77,481.87,74.14ZM259.77,109.5c2.69-6.67,5-12.31,7.2-18,.25-.65.16-2-.23-2.22A3.37,3.37,0,0,0,264,89a8.42,8.42,0,0,0-2.92,2.59C257.22,96.89,257.13,102.59,259.77,109.5ZM379.65,109a33.8,33.8,0,0,0,1.49-4.26,15.32,15.32,0,0,0-4.51-14.48c-.79-.78-2.38-.76-3.6-1.11-.08,1.21-.58,2.58-.18,3.6C374.86,97.93,377.11,103,379.65,109Z"/><path class="cls-2" d="M221.17,396.8l6.17-8.84,16.52,15.15.81-.76c-2.89-3.4-5.87-6.73-8.65-10.22-5.84-7.37-10.52-15.27-10.85-25.07-.17-4.8-.78-9.59-.88-14.38-.15-7.61-2.21-14.25-8.12-19.51a195.43,195.43,0,0,1-15.51-14.8,109.6,109.6,0,0,1-13-16.9C179.62,288,175.34,273,172.56,257.58c-.32-1.8.27-2.68,1.61-3.72,5.09-4,10-8.13,16.24-10.4-5.56,0-10.18,2.59-14.62,5.45-11.18,7.21-22.75,13.67-35.57,17.46-10.88,3.22-21.94,4.57-33.34,2.7-8.8-1.44-17.74-1.92-26.55-3.31a79.88,79.88,0,0,0-26.72.23,35,35,0,0,0-9.22,3.48c-3.77,1.88-4.08,1.93-5.43-2.21-.85-2.63-1.58-5.29-2.66-8.92-2.9,2.9-5.18,5.2-7.48,7.48-6,5.93-8.5,5.44-10.76-2.47-3.6-12.54-7-25.15-10.36-37.74a21.17,21.17,0,0,1-.32-3.92q1-7.38,2-14.75c.23-.23.58-.44.65-.72,2.91-10.18,8.34-19,14.39-27.57a22.69,22.69,0,0,1,2.18-2.32,5.83,5.83,0,0,1-.72,3.37C20,193.14,15.28,206.87,16.3,221.84A32.71,32.71,0,0,0,17.94,230c1.08,3.21,2.08,3.33,4.52,1.13,1.12-1,2.12-2.14,3.32-3,4.71-3.45,5.44-3.25,8,1.89.38.74.73,1.49,1.13,2.22,3.6,6.53,8.74,10.25,16.55,10.84,4,.31,7.82-.4,11.74-.25a29.77,29.77,0,0,0,19.87-6.55,99.52,99.52,0,0,0,16.25-16.63c4.54-5.65,9.2-11.21,13.8-16.81-1.77,9.88-5.86,18.84-10.85,27.45A26.6,26.6,0,0,0,99,237.53c1.72-1.82,3.74-3.45,5.07-5.52a6.27,6.27,0,0,1,6.66-3.18,68.52,68.52,0,0,0,9.35.76c4.09-.09,8.17-.65,12.89-1.07l-16.3-2.65c-.16,0-.34,0-.5,0-5.8-1-6-1.33-3.81-6.79.84-2.11,1.89-4.15,2.84-6.22.42.64.75,1.77,1.27,1.86a75.09,75.09,0,0,0,9.32,1.16c12.81.57,25.49-.2,37.83-4,6.65-2.05,13.32-4.09,19.08-8.2,2.82-2,4.38-6.13,3.15-9.25-1.4-3.53-3.14-6.93-4.88-10.3-1.46-2.83-3.14-5.55-4.72-8.32a16.47,16.47,0,0,1,5.91,3.08,79,79,0,0,1,22.11,23.91c2.06,3.53,4.62,6.76,6.95,10.13.88,5.25,5.84,7.54,8.63,11.57l-12.54-2.52c-1.33,2.4-3,4.33-6.09,3.95-1.92-5.23-3.8-10.48-5.78-15.68s-3.71-10.54-7.71-14.73a60.8,60.8,0,0,0,2,6.44c1.86,5.5,1.7,6.21-2.78,9.54-7.59,5.63-15.32,11-24.48,13.9a8.29,8.29,0,0,0-1.61,1c11.64-1.81,21.91-6.77,31.85-14,1.18,3.31,2.31,6,3.11,8.81,3.45,12.13,7.52,23.95,14.75,34.52,6.71,9.8,14.42,18.54,24.12,25.46s20.93,8.9,32.37,9.64a99.49,99.49,0,0,0,35.31-4.2c4.58-1.38,9.87-2.08,12.89-6.73,3-3.11,6-2,9,0-1,1.72.6,1.73,1.43,2.18,11.63,6.36,24.45,8,37.34,8.72a103.29,103.29,0,0,0,18.83-.95c7.58-1,14.93-3.11,21.39-7.39,13-8.62,22.83-20.3,30-34,4.26-8.15,6.92-17.14,10.2-25.79,1.31-3.47,2.36-7,3.56-10.67,13.78,9.65,25.46,14.93,31.62,14.3a9.85,9.85,0,0,0-1.33-.82,90.94,90.94,0,0,1-26.06-15.22c-3.17-2.6-3.27-3-1.62-7.16.48-1.23,1-2.46,1.37-3.72s.62-2.49.92-3.74l-1.17-.36c-2.47,5.92-5,11.82-7.37,17.78-1.81,4.56-3.41,9.21-5.11,13.82-1-.66-2-1.35-3-2-.65-.4-1.36-.7-2-1,.23-2-1.1-2.23-2.48-1.91-1.74.4-3.39,1.16-5.1,1.68-1.56.47-3.14.81-4.71,1.21,2.9-4.18,5.57-8,8.25-11.87,4.48-7.31,8.59-14.85,14.23-21.41a77.67,77.67,0,0,1,20.94-17.08c-.88,1.81-1.24,2.67-1.7,3.48-2.2,3.88-4.6,7.66-6.62,11.63-3.89,7.66-1.74,12.78,5.15,16.37,16.7,8.71,34.55,10.74,53,9.84a37.5,37.5,0,0,0,8.63-2c.71-.21,1.15-1.35,1.71-2.07,1.26,2.68,2.53,5.35,3.77,8,1.57,3.43,1.3,4.19-2.56,5.06-6.09,1.36-12.24,2.48-18,3.63,6.87,0,14.18.39,21.41-.18,3-.23,4.6.16,6.24,2.49a18.43,18.43,0,0,0,5.85,5.35c-1.16-2.07-2.23-4.2-3.5-6.2-4.73-7.48-7.72-15.7-10.23-24.12a7.24,7.24,0,0,1,0-2,17.16,17.16,0,0,1,2.47,2.42,172.83,172.83,0,0,0,22.21,26c5,4.86,10.72,8.54,17.61,9.53a148.79,148.79,0,0,0,18.3,1,16.53,16.53,0,0,0,13.3-5.63c2.23-2.59,3.85-5.73,5.64-8.69s2.77-3.34,5.48-1.47c1.9,1.31,3.42,3.15,5.19,4.64,2.13,1.79,2.76,1.6,3.8-1a34.7,34.7,0,0,0,2-19.86c-1.5-8-2.67-15.91-5.87-23.42-1.51-3.54-2.76-7.18-4.43-11.56a11.81,11.81,0,0,1,1.93,1.48c5.41,7.91,11.35,15.53,13.91,25a16.67,16.67,0,0,0,1.18,2.63c.39,6.06.76,12.13,1.2,18.18a5.06,5.06,0,0,0,.81,1.65c-1,5-1.77,10.07-3.1,15-2.12,7.83-4.61,15.54-7,23.3a12.7,12.7,0,0,1-1,2.81c-2.48,4.14-3.79,4.94-7.27,2.11-3.19-2.59-6.28-5.31-10-8.45-.91,2.65-1.67,4.9-2.45,7.14-1.52,4.41-2.24,4.79-6.31,2.61-5.85-3.14-12.08-4.26-18.66-4.45-10.5-.32-20.77,1.21-31.11,2.78a151.68,151.68,0,0,1-26.2,2.07,82.71,82.71,0,0,1-30.29-7c-9.68-4.08-18.55-9.59-27.45-15.09-3.48-2.15-7.11-4.08-11.55-4a16.7,16.7,0,0,0,2.16,1.24c5.56,2.17,9.92,6,13.94,10.23a4.13,4.13,0,0,1,1,3.07c-3.33,19.17-9.64,37.16-21.48,52.86-2,2.63-4.59,4.81-7,7.17-5.53,5.54-11,11.11-16.66,16.56-3.8,3.68-5.4,8.07-5.69,13.3-.42,7.76-.94,15.54-2,23.23-1.19,8.28-5.85,15-11.09,21.32a76.84,76.84,0,0,0-7.77,10.27l16.88-14.26,8.17,9.21c-2.86.76-5.9,1.12-8.52,2.37-5.55,2.62-11,5.49-16.26,8.65-8.67,5.21-17,11-24,18.33-6.71,7-9.11,14.75-5.59,24.5a78.6,78.6,0,0,0,18.45,29.71c5.75,5.71,12,10.91,18.14,16.25,9.51,8.29,19.43,16,31,21.36,4.34,2,4.11,1.94,7.07-1.59,3.79-4.51,7.66-9.08,13.78-10.24-2.67,4.16-5.44,8.2-7.9,12.44-1.52,2.62-1.14,3.86,1.6,5.13,5.17,2.39,10.62,3.9,16.39,2.94a48.78,48.78,0,0,0,24.71-11.83c.44,4.24-1.77,7.71-3.68,11.1s-4.48,6.09-6.76,9.12a5.35,5.35,0,0,0-1.1,2.21c4.54-1.07,6.33-5.68,10.39-8a59.88,59.88,0,0,1-10.92,25.25c-6.68,9.29-16,15.65-25,22.46-5.77,4.41-11.32,9.11-17,13.58-5.13,4-6.12,8.76-3,14.43-4.78,1.06-9.45.36-14-1.07-5.18-1.63-10.3-3.48-15.4-5.35-6-2.19-9.6-.33-10.22,5.86-.33,3.22.35,6.55.54,9.83.06,1,0,2,0,3.71-3.87-4.07-5.85-8.19-7.69-12.43-1.25-2.86-2.29-6.09-4.36-8.25a22.52,22.52,0,0,1-5.15-9.39c-.72-2.32-1.56-4.6-2.35-6.89,3.2-5.19,6.82-10.17,9.45-15.63a28,28,0,0,0,2.3-11c.31-9.28-.13-18.59.22-27.87.12-3,1.45-6.09,2.84-8.82,1.18-2.33,3.29-3.28,6.32-2.32,7.21,2.3,14.55,4.17,22.16,5.81a14.43,14.43,0,0,0-2.41-1.7c-9.23-4.15-18.43-8.34-27.72-12.34-12.85-5.54-25.29-11.75-35.81-21.19-4.93-4.42-9.77-8.94-14.81-13.56l12-12.51-.22-.34c-2.36,1.73-4.67,3.55-7.11,5.18-6.3,4.21-13.05,7.14-20.82,7.19-6.87.05-13-2.26-18.73-5.8-3.21-2-6.19-4.34-10.07-7.09,2.71,4.55,6.14,7.31,9.32,10.21s3.22,2.63.25,5.78C285,492.52,266.16,503.91,245,511.84c-6.92,2.6-13.64,5.74-20.45,8.63l.34,1.1a15.2,15.2,0,0,0,2.44-.29c6.06-1.63,12.13-3.22,18.14-5,2.32-.7,3.78.07,5.28,1.65,2.78,2.93,3.78,6.7,4.24,10.42s-.2,7.61-.2,11.43c0,6.6-.15,13.21.27,19.79.52,8.17,5.26,14.49,10,20.72.4.52.76,1.07,1.14,1.61-.24.22-.64.4-.7.66a43.75,43.75,0,0,1-7.9,17.45,18.71,18.71,0,0,0-2.42,5.33A37.09,37.09,0,0,1,247.28,619v-7.27c0-2.17.12-4.35-.06-6.5-.4-5.07-3.69-7.39-8.56-6.06A38.79,38.79,0,0,0,234,601c-8.29,3.48-16.7,6.44-25.91,5.77.3-1.11.67-2.21.87-3.35.69-3.89.66-7.5-2.95-10.3-3.78-2.94-7.25-6.29-11-9.26-7.66-6.05-15.82-11.52-23-18-10.13-9.13-17.45-20.21-19.75-34.88l11.85,10,.55-.56c-2.73-3.35-5.73-6.53-8.15-10.09-3.34-4.95-6.12-10.24-6.06-16.5,3.82,3.07,7.31,6.72,11.53,9.08,9.34,5.24,19.18,7.07,29.25,1.57,3.46-1.89,3.8-2.36,1.92-5.76-2.18-3.93-4.76-7.64-7.61-12.17,8.36,2.59,12.58,8.57,16.49,15.59,7-4.37,13.79-8.23,20.17-12.65,5.28-3.66,10-8.07,15.17-12,9.12-7,17.63-14.63,24.57-23.81a70.29,70.29,0,0,0,12.52-25.16,19.86,19.86,0,0,0-3-16.94c-4.8-7.24-11.85-11.91-18.65-16.92C243,407.39,232,402.24,221.17,396.8Zm175.24-89.65-.86-.91,5.44-5.82c-4.57-3.1-9.74-2.91-14.54-3.39-8.4-.84-16.89-1-25.34-1.09a91.12,91.12,0,0,1-21.1-2.7,77,77,0,0,0-34.43-.93,208,208,0,0,1-40.32,4.57c-4,0-8-.27-12,.08-5,.43-10.09.56-14.76,3.49l5.4,5.79-.79.9c-2.73-2-5.52-4-8.18-6.07s-6-1.76-7.22,1.26a16.14,16.14,0,0,0-1.18,7.7c1.37,10.36,7.7,17.62,16.33,22.55,9.66,5.52,16.07,13.7,21.58,23-8.69-6.41-19.34-7.86-29.23-13,.22,1.69.12,2.41.4,2.92,4.28,7.77,9.36,14.93,16.52,20.32,6.45,4.85,11.7,10.44,14.81,18.15,2.77,6.88,6.08,13.59,12.74,18,12.36,8.12,27.23,7.25,37.5-3.48.35-.37.73-.69,1.06-1.07,1.43-1.64,2.53-1.58,3.93.27a26.43,26.43,0,0,0,28.44,8.63c10.21-3.39,17.24-10.14,20.72-20,3.27-9.26,9.65-15.8,16.86-21.6A65.45,65.45,0,0,0,403,347.44c1.14-1.86,2.17-3.78,3.5-6.13l-31.69,13.56c4.06-5.18,7.47-9.52,10.87-13.88,3.58-4.6,9-6.71,13.5-10.06,7.9-5.88,13.28-13.37,15-23.23a6.46,6.46,0,0,0-3-6.84c-2.82-1.64-4.63-1.26-7.58,1.14C401.29,303.85,398.81,305.45,396.41,307.15Zm21.65,14.64a32.31,32.31,0,0,0,3.34-1.64c5.15-3.27,9.2-7.12,7.58-14.12a4.48,4.48,0,0,1,.93-3.15c2.53-3.47,2.57-7.29,2.13-11.72-1.8,3.78-3,7.46-5.11,10.39s-5.34,5.19-8.08,7.74l.35.45,7.87-3.55C427.33,313.58,421.12,316.61,418.06,321.79ZM208,291.55c-1.4,4.24-.36,7.92,1.88,11.42a5,5,0,0,1,.79,3c-.84,7.41,3.39,13.37,11.43,15.48-3.72-4.84-9.77-8-9.48-15.16l6.81,2.76.59-.83C214,304.13,209.31,299.08,208,291.55Z"/><path class="cls-3" d="M113.17,202.85c-4.6,5.6-9.26,11.16-13.8,16.81a99.52,99.52,0,0,1-16.25,16.63,29.77,29.77,0,0,1-19.87,6.55c-3.92-.15-7.74.56-11.74.25-7.81-.59-12.95-4.31-16.55-10.84-.4-.73-.75-1.48-1.13-2.22-2.61-5.14-3.34-5.34-8-1.89-1.2.88-2.2,2-3.32,3C20,233.36,19,233.24,17.94,230a32.71,32.71,0,0,1-1.64-8.19c-1-15,3.68-28.7,9.54-42.14a5.83,5.83,0,0,0,.72-3.37,22.69,22.69,0,0,0-2.18,2.32C18.33,187.18,12.9,196,10,206.22c-.07.28-.42.49-.65.72a161.4,161.4,0,0,1,1.72-29.68,98.25,98.25,0,0,1,9.27-29.14,240.2,240.2,0,0,1,20.38-32.29c5.87-8,11.3-16.3,15-25.63a67,67,0,0,1,7.82-14.85C67.48,70,72.3,65.35,77,60.68c8-8,16.07-15.88,24.45-23.44,7.11-6.43,14.71-12.32,22.07-18.48,1.18-1,2.86-1.85,1.7-3.91l8.84-6.74c-1.17,3.57-1.75,6.07-2.84,8.32-.41.85-1.95,1.27-3.07,1.63-5.3,1.71-7.21,6.05-5,11.66l.23,1.93-1,.11c-8.1.66-9.8,6.18-9,12.76.06.48,1.12.83,1.72,1.24-1,2-2,4-2.85,6-.67,1.64-.88,3.48-1.6,5.1a29.47,29.47,0,0,1-12.63,14c-4.09,2.31-8.51,4-12.79,6,2.15-1.74,4.12-3.78,6.47-5.17A49.49,49.49,0,0,0,105.9,59.43a23.87,23.87,0,0,0,4.18-10.35c.71-4.2.17-8.61.17-13.78-2.13,3.69-5.77,5.37-6.06,9.73-.61,9.26-5.06,16.37-12.31,22.2-4.27,3.43-9.21,6.69-10.64,12.67-.81,1.63-1.75,3.22-2.41,4.91-1.93,4.92,1,13.23,5.49,13.77,5.3.65,10.74,1.15,15.92-2,7.49-4.5,12.08-11,15.26-18.9,1-2.51,3-4.61,4.58-6.9A20.82,20.82,0,0,0,120.21,81c1.71,7.72-1.54,14.34-8.55,18.2-2.79,1.53-6.21,1.91-9.34,2.81H86.72A20.37,20.37,0,0,0,89,105.1c4.37,3.63,6.88,8.37,8.75,13.63,2.66,7.48,5.53,14.89,8.46,22.27a31.45,31.45,0,0,0,3,4.88c2.45,14,6.26,27.87,5.89,42.24C115,193,113.85,197.94,113.17,202.85Z"/><path class="cls-4" d="M630.16,204.94a16.67,16.67,0,0,1-1.18-2.63c-2.56-9.5-8.5-17.12-13.91-25a11.81,11.81,0,0,0-1.93-1.48c1.67,4.38,2.92,8,4.43,11.56,3.2,7.51,4.37,15.46,5.87,23.42a34.7,34.7,0,0,1-2,19.86c-1,2.63-1.67,2.82-3.8,1-1.77-1.49-3.29-3.33-5.19-4.64-2.71-1.87-3.74-1.41-5.48,1.47s-3.41,6.1-5.64,8.69a16.53,16.53,0,0,1-13.3,5.63,148.79,148.79,0,0,1-18.3-1c-6.89-1-12.59-4.67-17.61-9.53a172.83,172.83,0,0,1-22.21-26,17.16,17.16,0,0,0-2.47-2.42c-2.7-9.37-2.86-18.89-1.47-28.45,1-6.84,2.25-13.64,3.39-20.46,3.58-9.92,7.3-19.79,10.71-29.77,2.85-8.33,6.18-16.3,13.84-23.18H538.17c-7.5-.5-13.28-3.68-16.72-10.64a12.61,12.61,0,0,1-.91-9.68,19.07,19.07,0,0,0,.62-9.72,26.18,26.18,0,0,1,2.89,3.81c1.44,2.78,2.39,5.84,4,8.55,5.61,9.74,13.34,15.89,25.4,14.62a9.68,9.68,0,0,0,8.91-9c.45-5-2.24-8.46-5.13-11.93-.25-1.11-.16-2.53-.83-3.28a46,46,0,0,0-6.16-5.76c-3.84-2.93-7.87-5.7-9.55-10.46a59.66,59.66,0,0,1-3.28-11.91c-.65-4.94-3.42-7.95-7.44-10.94.45,3.75,1.47,7,1.09,10.16-.83,6.74,1.66,12.06,6.2,16.44,3.68,3.54,8,6.43,12,9.63,2,1.63,4.07,3.3,6.1,5a46.39,46.39,0,0,1-15.49-7.58C534,65,529.62,59.86,528.19,52.56a40.63,40.63,0,0,0-2.13-5.88c2.73-8.35-.62-14-8.89-14.95l.28-1.05c1.69,0,1.83-1.18,1.69-2.39-.28-2.46-.66-4.9-1-7.34a13,13,0,0,1,2.68,1c10.48,6.86,19.37,15.58,28.3,24.26,3.69,3.58,7.75,6.8,11.28,10.52,4.34,4.57,8,9.76,12.49,14.17a42.68,42.68,0,0,1,9.91,15.36c4.51,11.75,11.44,22,18.6,32.19,7.28,10.3,14.36,20.7,19.73,32.16a103.12,103.12,0,0,1,9,33.85C630.76,191.23,630.18,198.12,630.16,204.94Z"/><path class="cls-5" d="M489.12,515.83a48.78,48.78,0,0,1-24.71,11.83c-5.77,1-11.22-.55-16.39-2.94-2.74-1.27-3.12-2.51-1.6-5.13,2.46-4.24,5.23-8.28,7.9-12.44-6.12,1.16-10,5.73-13.78,10.24-3,3.53-2.73,3.6-7.07,1.59-11.54-5.36-21.46-13.07-31-21.36-6.12-5.34-12.39-10.54-18.14-16.25a78.6,78.6,0,0,1-18.45-29.71c-3.52-9.75-1.12-17.48,5.59-24.5,7.05-7.36,15.37-13.12,24-18.33,5.26-3.16,10.71-6,16.26-8.65,2.62-1.25,5.66-1.61,8.52-2.37q9,4.51,18,9c.12.6,0,1.49.4,1.76a127.31,127.31,0,0,1,25,23.17,80.22,80.22,0,0,1,14.63,28.9c2.62,9.27,2.07,18.63,1.5,28a6.3,6.3,0,0,0,.46,3.25c2,3.61,4.15,7.13,6.36,10.62.19.3,1.17.1,1.78.13Z"/><path class="cls-3" d="M221.17,396.8c10.82,5.44,21.78,10.59,31.6,17.83,6.8,5,13.85,9.68,18.65,16.92a19.86,19.86,0,0,1,3,16.94,70.29,70.29,0,0,1-12.52,25.16c-6.94,9.18-15.45,16.83-24.57,23.81-5.12,3.92-9.89,8.33-15.17,12-6.38,4.42-13.14,8.28-20.17,12.65-3.91-7-8.13-13-16.49-15.59,2.85,4.53,5.43,8.24,7.61,12.17,1.88,3.4,1.54,3.87-1.92,5.76-10.07,5.5-19.91,3.67-29.25-1.57-4.22-2.36-7.71-6-11.53-9.08.23-3.35.47-6.71.7-10.07l1.11.86c2.22-4.26,4.56-8.45,6.6-12.79.8-1.69,1.64-3.89,1.21-5.53-1.91-7.18-.67-14.28.46-21.24,2.74-17,12-30.71,24-42.6,4.91-4.89,10.69-8.89,16-13.38.51-.43.53-1.45.77-2.19,3-1.64,5.9-3.38,8.93-4.9C213.77,400.14,217.49,398.51,221.17,396.8Z"/><path class="cls-6" d="M524.42,211.72c-.56.72-1,1.86-1.71,2.07a37.5,37.5,0,0,1-8.63,2c-18.4.9-36.25-1.13-53-9.84-6.89-3.59-9-8.71-5.15-16.37,2-4,4.42-7.75,6.62-11.63.46-.81.82-1.67,1.7-3.48a77.67,77.67,0,0,0-20.94,17.08c-5.64,6.56-9.75,14.1-14.23,21.41-1-.87-1.94-1.74-2.92-2.59l-9.48-8.15a59.28,59.28,0,0,0-5.92-4.36c-13-7.34-26.83-8.83-41.29-5.62a66.24,66.24,0,0,1-12.9,2c2.84-2.64,6.13-4.93,8.45-8,6.33-8.29,15.39-9.46,24.68-10.29,2.14-.19,4.31,0,6.46,0a27.62,27.62,0,0,0,4.58,2.56,74.11,74.11,0,0,0,7.43,1.65,7.65,7.65,0,0,0-1-1.76c-3.85-3.49-5-7.92-5-13a45.17,45.17,0,0,1,3.1-16.9c.42-1.05,0-2.42,0-3.64l4.11-3.84a5.28,5.28,0,0,0,2.06,0c7.45-3.1,14.79-6.48,22.32-9.37a44.52,44.52,0,0,1,24.45-2.5,64.51,64.51,0,0,1,38.29,23.06c.67.81,1.9,1.16,2.86,1.73a65.58,65.58,0,0,0-18.15,7.46,14.2,14.2,0,0,0-4.46,4.12l4.67-1.45a19.87,19.87,0,0,0,3.67.25c3.57-.41,7.11-1.15,10.69-1.45a52.41,52.41,0,0,1,22.77,3.26c2,.75,2.6-.31,3.55-1.34-.61,5.38-1.42,10.76-1.8,16.16C519.57,191.5,521.43,201.7,524.42,211.72Z"/><path class="cls-3" d="M211.22,212.88c-2.33-3.37-4.89-6.6-6.95-10.13a79,79,0,0,0-22.11-23.91,16.47,16.47,0,0,0-5.91-3.08c1.58,2.77,3.26,5.49,4.72,8.32,1.74,3.37,3.48,6.77,4.88,10.3,1.23,3.12-.33,7.24-3.15,9.25-5.76,4.11-12.43,6.15-19.08,8.2-12.34,3.82-25,4.59-37.83,4a75.09,75.09,0,0,1-9.32-1.16c-.52-.09-.85-1.22-1.27-1.86,5.42-14.71,6-29.77,3.32-45.08a4,4,0,0,0,1-.1c10.36-4,20.89-6.27,32.06-3.9,1.42.31,3.07-.51,4.62-.81l7.36,2.67c-3.13-4.39-8.64-7.21-22.48-11.56a6.75,6.75,0,0,0,2.07-1.2c5.24-6.53,11.74-11.58,18.73-16.06,10.44-6.68,22-9.44,34.08-7.64a81.09,81.09,0,0,1,30.86,11.42c.87.54,2.23.29,3.36.41l4.07,4.9c.84,3.68,2,7.32,2.45,11,1,7.89,2.22,15.92-4.88,22.08-.23.2-.14.78-.24,1.49l13.7-4.54c6.74-.64,13.24.68,19.55,2.79a19,19,0,0,1,6.09,4c4.47,3.94,8.76,8.09,13.83,12.82-6.84-1.43-12.64-2.46-18.34-3.88-13.52-3.38-25.94-.41-37.71,6.33-2.07,1.18-3.79,3-5.67,4.5Z"/><path class="cls-7" d="M366.4,58.71c1.53,4,3.15,8,4.55,12,1.68,4.82,3.16,9.71,4.77,14.71-2.85.88-5,.29-6.07-2.93a8.78,8.78,0,0,0-2.58-3.38c-.54,4.08.77,7.77,2,11.39,3.84,11.3,8.05,22.47,11.73,33.82A101.6,101.6,0,0,1,385,142.17c1.29,9.84-3,18.1-8.79,25.68-1.84,1-3.73,2-5.51,3.09-2.35,1.5-4.52,3.31-7,4.65s-3.29.86-3.45-1.89.51-5.81-.25-8.42c-2-6.79.42-12.68,3-18.56,1.46-3.32,3.35-6.46,5.14-9.63,3.07-5.43,2.67-11.15,1.2-16.83-.58-2.25-.51-5.07-3.19-6.36-1.17-3.59-1.69-7.59-3.64-10.69-3.5-5.59-8.59-9.21-15.78-8.53-2.48.24-5,.18-7.49.25-4.37-.48-5.21-1.94-3.06-5.52a41.35,41.35,0,0,1,2.59-3.63c1.61-2.12,3.25-4.23,5.17-6.72l-7.84,1.72c1.59-2.43,2.78-4.23,4-6.13-13.35,6-26.38,5.35-40.54.17l4.6,6.29-8.15-2.43a3.82,3.82,0,0,0,1,2.53C299,83.49,301,85.69,302.86,88c2.32,3,2,4.16-1.62,4.94-2.4.53-4.9.53-7.35.85-1.9.25-3.79.62-5.69.94-8,1.39-11.53,7.22-14,14.08a91.94,91.94,0,0,1-3.36,9.71c-3.67,7.81-2.15,15,1.9,22.12,1.64,2.87,3.56,5.67,4.67,8.75a44.32,44.32,0,0,1,2.69,11.47c.29,3.9-.57,7.88-.82,11.83-.27,4.35-1.44,5-5.12,2.62-3.29-2.14-6.53-4.35-9.8-6.53-4.79-5.81-8.89-12.08-9.39-19.8-.28-4.37-.26-9,.95-13.17,3.58-12.34,7.8-24.5,11.81-36.71.71-2.17,1.62-4.27,2.44-6.4l.2,1c.38-.1,1-.09,1.11-.33a33.78,33.78,0,0,0,3.86-14.23,133.09,133.09,0,0,1,1.13-14.82A48.93,48.93,0,0,1,279.72,53c3.63-8.67,10-15.19,17.59-20.47,9.3-6.49,19.61-8.36,30.75-5.87,14.3,3.2,24,12.1,30.82,24.57,3.66,6.7,4.49,14.09,4.43,21.62,0,2.15-.65,4.57,1.6,6.24C365.41,72.22,365.9,65.47,366.4,58.71Zm-69.12,10c1.09-.21,1.66-.15,2-.41,2.42-1.71,4.78-3.53,7.2-5.24,11.27-8,15.23-8.38,27.44.81,2.33,1.76,4.28,4.66,8.25,4.62a16.84,16.84,0,0,0-.66-3,34.22,34.22,0,0,0-11.28-13.67c-4.95-3.75-10.38-5.49-16.27-2.75-7.14,3.32-12.35,8.87-16.13,15.71C297.3,65.84,297.48,67.23,297.28,68.73Z"/><path class="cls-8" d="M416.73,202.22l9.48,8.15c1,.85,1.94,1.72,2.92,2.59-2.68,3.84-5.35,7.69-8.25,11.87,1.57-.4,3.15-.74,4.71-1.21,1.71-.52,3.36-1.28,5.1-1.68,1.38-.32,2.71-.1,2.48,1.91-3.49,6.38-6.75,12.9-10.54,19.1a64.76,64.76,0,0,1-22.2,22.28c-8.3,5-17.36,8-26.81,10.07a65.3,65.3,0,0,1-31.92-.54c-9.5-2.6-16.7-7.82-19.11-18.15-1.66-7.14-.22-10.45,5.94-12.23-7.18-4.53-7.78-9.89-1.34-15.89,5.45-5.07,11.31-9.71,16.95-14.58a49.54,49.54,0,0,0,12.21-14.8c8.21-2,16.33-4.65,24.66-5.86,10.33-1.49,20.07,1.75,29.37,6.18C412.47,200.42,414.61,201.3,416.73,202.22Z"/><path class="cls-9" d="M211.22,212.88,223,202.5c5.73-2.53,11.34-5.37,17.2-7.51,10.21-3.71,20.52-2.21,30.7.42,3.82,1,7.54,2.33,11.31,3.52,3.2,4,6,8.36,9.68,11.91,5.09,5,10.78,9.31,16.18,14,2.36,2,5,3.93,6.86,6.38,3.51,4.57,1.47,10.29-3.83,11.88a15.36,15.36,0,0,0-2.74,1.66c1.45.09,2.11.07,2.75.19,4.73.86,6.11,2.53,6.14,7.36.06,9.28-4.41,15.65-12.49,19.86-10.67,5.55-22.18,5.52-33.58,4.42a74.48,74.48,0,0,1-23.75-6.75c-8.37-3.83-16.11-8.66-22.25-15.6-6.65-7.5-11.32-16.33-15.82-25.2-1.09-2.16-1.4-4.7-2.07-7.07l12.54,2.52C217.06,220.42,212.1,218.13,211.22,212.88Z"/><path class="cls-10" d="M207.31,221.93c.67,2.37,1,4.91,2.07,7.07,4.5,8.87,9.17,17.7,15.82,25.2,6.14,6.94,13.88,11.77,22.25,15.6a74.48,74.48,0,0,0,23.75,6.75c11.4,1.1,22.91,1.13,33.58-4.42,8.08-4.21,12.55-10.58,12.49-19.86,0-4.83-1.41-6.5-6.14-7.36-.64-.12-1.3-.1-2.75-.19a15.36,15.36,0,0,1,2.74-1.66c5.3-1.59,7.34-7.31,3.83-11.88-1.87-2.45-4.5-4.33-6.86-6.38-5.4-4.65-11.09-9-16.18-14-3.63-3.55-6.48-7.91-9.68-11.91,6.1,2,12.33,3.76,18.26,6.23a49.51,49.51,0,0,0,38.66.3c5.68-2.24,11.46-4.24,17.2-6.35a49.54,49.54,0,0,1-12.21,14.8c-5.64,4.87-11.5,9.51-16.95,14.58-6.44,6-5.84,11.36,1.34,15.89-6.16,1.78-7.6,5.09-5.94,12.23,2.41,10.33,9.61,15.55,19.11,18.15a65.3,65.3,0,0,0,31.92.54c9.45-2.1,18.51-5.11,26.81-10.07A64.76,64.76,0,0,0,422.63,243c3.79-6.2,7.05-12.72,10.54-19.1.68.34,1.39.64,2,1,1,.62,2,1.31,3,2a15,15,0,0,1-.44,1.93,112.74,112.74,0,0,1-20.12,34.71c-12.46,15-28,22.8-47.45,23.43a126.28,126.28,0,0,1-46-7.09c-3-2-6-3.11-9,0-18,6.2-36.34,8.89-55.32,6.08-8-1.18-15.62-3.41-22.22-8.12a93.47,93.47,0,0,1-36.49-51.92C204.35,226.26,206,224.33,207.31,221.93Z"/><path class="cls-11" d="M123.34,31.65l-.23-1.93c.66-5.21,2.54-9.33,8.58-10,.54-.05,1.27-.9,1.42-1.51,1.75-7.2,2.67-8.08,9.48-9.18L138.2,7.49c4.47-3.8,6.2-4.31,11.05-1.22,10.66,6.78,21.1,13.91,31.61,20.92a17.21,17.21,0,0,1,1.89,1.64c5.08,4.62,5.42,6.94,1.93,13.4-4.77-5.07-26.21-20.34-31.28-21.56,4.57,3.71,9.13,7.43,13.73,11.12,3.63,2.91,7.36,5.71,11,8.68s4.16,5.86,1.68,10.05a23.4,23.4,0,0,1-2.31,3.26,34.94,34.94,0,0,1-4.51,4.51,9.56,9.56,0,0,0-2.42-8.45c-2.91-3.32-22.25-17.55-27.17-19.09,4.53,4,9,8,13.59,11.92,2.89,2.51,5.93,4.85,8.79,7.39,1.71,1.53,3.62,3.06,3.35,5.79-5,3.63-6,3.67-10.82.44s-9.54-6.44-14.38-9.54a60.76,60.76,0,0,0-5.63-2.87L134,41.27l-.46.36A17.87,17.87,0,0,0,135.36,44c5.47,5.07,11,10.08,16.47,15.13,2.41,2.23,3.63,4.73,1.51,7.85a5.76,5.76,0,0,0-2,.1c-4,1.66-7.73,1-11.32-1.19-2.81-1.7-5.69-3.28-8.44-5.07-3.06-2-6-4.16-9.88-6.87.57,3.31,1,5.65,1.37,8,1.45,4,1.41,4-2.28,3.41a5,5,0,0,0-3.26.39,21.59,21.59,0,0,0,2.56,2.25c1.69,1.08.16,1.94,0,2.89-1.55,2.29-3.57,4.39-4.58,6.9-3.18,7.91-7.77,14.4-15.26,18.9-5.18,3.1-10.62,2.6-15.92,2-4.45-.54-7.42-8.85-5.49-13.77.66-1.69,1.6-3.28,2.41-4.91q2-1.49,4-3c4.28-2,8.7-3.73,12.79-6a29.47,29.47,0,0,0,12.63-14c.72-1.62.93-3.46,1.6-5.1.83-2,1.89-4,2.85-6-.26-6,1.54-10.55,8.11-12C124.66,33.43,124.28,32.4,123.34,31.65Z"/><path class="cls-12" d="M557.18,78c2.89,3.47,5.58,7,5.13,11.93a9.68,9.68,0,0,1-8.91,9C541.34,100.17,533.61,94,528,84.28c-1.56-2.71-2.51-5.77-4-8.55a26.18,26.18,0,0,0-2.89-3.81c-2.71-2.26-.94-3.76,2-5.57-1.88-.26-2.73-.38-3.58-.48-3.27-.39-3.27-.39-2.2-4,.36-1.82.73-3.63,1.28-6.39-2.21,1-3.4,1.48-4.5,2.11-5.27,3-10.49,6.19-15.78,9.22a8.22,8.22,0,0,1-8.54-.12c-1.16-.65-2.35-1.23-3.53-1.84-.77-3.67,2.07-5.37,4.19-7.33,4.26-3.94,8.66-7.73,13-11.57a16,16,0,0,0,3.43-3.57c-4.46.86-7.15,4.4-10.78,6.42a18.87,18.87,0,0,0-3.57,1.27A93.78,93.78,0,0,0,484,55.62c-3.93,3-7.74,2.93-11.7.26-.63-2.33.73-3.82,2.27-5.16,4.28-3.7,8.61-7.34,12.89-11a60.19,60.19,0,0,0,8.53-8.58,9.5,9.5,0,0,0-2.3.9c-7,5.12-13.9,10.32-20.88,15.43-3.34,2.45-5.29,5.49-4.57,10.36a22.12,22.12,0,0,1-8-8.28c-1.79-3.42-1-6.25,2.52-9.17,4.89-4,10-7.81,14.89-11.77a124,124,0,0,0,9.49-8.41c-6.2,2.32-27.27,17.55-31.37,22.23-3.71-6.11-3.46-9.59,2.18-13.6,10.16-7.23,20.69-13.94,30.94-21.06,5.42-3.77,10.4-3.58,15.41.56l-8.06,1.59c3.54.89,6.39,1,8.55,2.31,2.53,1.53,3,4.48,2.09,7.41,8,.92,9.76,2.8,10.58,11.09l-.28,1.05c-1,.6-3.3,1.34-.34,2.15,6.08,1.67,8.28,5.84,8.46,11.66,0,.38.5.76.77,1.14a40.63,40.63,0,0,1,2.13,5.88C529.62,59.86,534,65,539.8,69.22a46.39,46.39,0,0,0,15.49,7.58Z"/><path class="cls-13" d="M277.27,112.86c-.25-11.21,7.87-17.94,18.84-15.54,5,1.1,10,2.32,15,3.59,6.46,1.64,12.82,1.06,19.19-.54,4.49-1.13,9-2.28,13.54-3.14,10.29-2,18.75,5.33,18.62,15.85,0,2.16-.37,4.42.14,6.45,1.27,5-.81,8.74-3.86,12.24s-6.14,6.54-8.87,10.08c-1.57,2-2.43,4.63-3.61,7-2.74-4.24-5.08-8.8-8.3-12.64-3.74-4.46-9.21-4.45-13.76-.76a27.31,27.31,0,0,0-2.54,2.39c-1.31,1.38-2.49,1.39-3.8,0a23,23,0,0,0-3.3-3c-3.69-2.65-8.34-2.77-11.57,0-3.54,3-6.81,6.36-8,11.19a10.25,10.25,0,0,1-1.7,2.79c-2.14-3.5-4.16-7.08-6.47-10.45a39.46,39.46,0,0,0-4.7-5.16c-4.8-4.84-7.09-10.36-4.81-17.18,1.87,1.61,3.69,3.27,5.62,4.8,6.06,4.84,13.17,5.55,20.56,5.11L301,129l4.43-.77-8,6.21c.41.25.58.43.68.4a6.58,6.58,0,0,0,1.37-.49c4.43-2.39,8.29-5.57,10.54-10.06,1.25-2.5,2.6-1.66,4.24-1.32l-.07-.07a7.89,7.89,0,0,0,11.34.85c2-1.32,2.94-.55,3.75,1.21-5.81,2.84-11.68,3.41-17.64.42,5.12,5.26,11.78,5.07,17.57-.5,4,4.62,7.92,9.25,14.34,10.64l-8.84-6.8.35-.45,5.58,1.8c.06-.21.12-.42.17-.63L334,125c3.48,0,5.95.09,8.41,0a8.59,8.59,0,0,0,7.43-4.33c1-1.79.78-4.39,2-6s3.57-2.55,5.41-3.78c.16-2-.26-3.82-2.69-3.91-3.61-.12-7.23-.66-10.75,1-4.87,2.33-9.88,4.39-15.26,6.75.17-1.68.3-3,.56-5.57L326.31,113c-.48,1.37-.87,2.79-1.46,4.11-.77,1.75-2.46,1.93-3.3.23a51.06,51.06,0,0,1-2.08-6.3,11.29,11.29,0,0,1-.43,3c-.76,1.56-1.49,4-2.65,4.3-2.57.59-1.62-2.63-2.78-3.84a4.28,4.28,0,0,1-.58-1.34l-1.32-2.75-.92,4.42c-2.8-1.29-5.29-2.55-7.87-3.6-4.11-1.66-8.27-3.17-12.41-4.74-3.6-1.37-6.3-.27-8.66,2.71C280.67,110.7,278.82,111.66,277.27,112.86Z"/><path class="cls-14" d="M373.39,582c.79,2.29,1.63,4.57,2.35,6.89a22.52,22.52,0,0,0,5.15,9.39c2.07,2.16,3.11,5.39,4.36,8.25,1.84,4.24,3.82,8.36,7.69,12.43,0-1.72.05-2.72,0-3.71-.19-3.28-.87-6.61-.54-9.83.62-6.19,4.26-8.05,10.22-5.86,5.1,1.87,10.22,3.72,15.4,5.35,4.55,1.43,9.22,2.13,14,1.07,3.87,10.17,7.77,20.33,11.6,30.52a19.43,19.43,0,0,1,.63,3.35,22.47,22.47,0,0,1-3.68-2.28c-6.43-6-13.68-10.44-22.37-12.27-5.35-1.11-10.68-2.49-16.11-.33-4.55,1.81-5.85,4.81-3.06,8.92,3.14,4.62,4.89,9.73,6.71,14.87a48.54,48.54,0,0,0,2.47,6,11.36,11.36,0,0,0,8.58,6.1c1.76.31,3.4.15,3.66-2.18,1.35,1.79.92,3.46-.51,4.9a6.86,6.86,0,0,1-6.84,2c-4.6-1.18-7.37-4.36-8.67-8.79-.65-2.21-.88-4.54-1.37-6.8-.72-3.31-2-6.33-4.83-8.43-8.49-6.21-15.08-14-19.08-23.77a17.1,17.1,0,0,0-1.87-3.51c-2.21-3.07-3.63-6.19-1.67-10.42a54.49,54.49,0,0,1-6.08,3.42,48.82,48.82,0,0,1-8.4,2.67c-5.94,1.28-11.4-5.53-8.12-11.33.4,2.38,1.81,3.67,4.14,4.39,4.13,1.29,13.85-1.5,16.28-4.95.33-.47.64-1.36.42-1.75-1.85-3.24-3.83-6.42-5.76-9.61Z"/><path class="cls-15" d="M208.11,606.74c9.21.67,17.62-2.29,25.91-5.77a38.79,38.79,0,0,1,4.64-1.76c4.87-1.33,8.16,1,8.56,6.06.18,2.15.05,4.33.06,6.5V619a37.09,37.09,0,0,0,7.95-13.73,18.71,18.71,0,0,1,2.42-5.33,43.75,43.75,0,0,0,7.9-17.45c.06-.26.46-.44.7-.66l5.2,4.77-5.74,9.93c6.94,7.42,14.77,8.59,21.56,3.3,1.49,5-1.2,9.47-6.18,10.07a17.73,17.73,0,0,1-12.7-3.39c-1.47-1.06-2.9-2.19-4.77-3.6,0,1.26-.34,2.37.06,2.88,1.95,2.45,1,4.5-.35,6.77a94.08,94.08,0,0,0-5.07,9.7,43.23,43.23,0,0,1-15.6,18.39c-3.94,2.72-5.5,6.33-6.33,10.73a35.11,35.11,0,0,1-2.61,8.49c-2,4.1-5.94,5.84-10.39,5.09-2.31-.39-4.12-1.35-4.12-4.1,7.72.05,10.6-2.12,13.27-9.31,1.77-4.8,3.91-9.47,6-14.13.81-1.8,2.14-3.36,3-5.15,1.38-3,1-4.85-1.93-6.18a19.39,19.39,0,0,0-8-2.12c-8.37.14-16.46,2-23.49,6.75-4.49,3-8.55,6.72-12.81,10.11C198.21,629,201.94,617.41,208.11,606.74Z"/><path class="cls-13" d="M286.39,179.85c-1.65-8.27,2.09-15.14,5.58-22.12a51.08,51.08,0,0,0,2.32-6.85c.11-.11.21-.29.34-.32a.56.56,0,0,1,.43.16c1,1.29,2,2.62,3.1,3.87,1.45,1.71,3,3.36,4.46,5l.88-.74c-1.42-2.2-2.91-4.35-4.24-6.6-2.6-4.4-2.19-7.51,1.32-11.22,1.13-1.2,2.24-2.44,3.3-3.71,2.42-2.89,4.52-3.41,7.77-1.61a35.42,35.42,0,0,1,4,2.94c3.73,2.84,4.67,2.93,8.19-.14,6.88-6,9.05-4.26,13.52.85,5.69,6.52,5.9,8,1.12,15.14-1.21,1.8-2.24,3.71-3.36,5.57l.76.44,8.51-8.94c.57,1.32,1.14,2.64,1.72,4,2.23,5.08,4.67,10.09,6.61,15.28a10.43,10.43,0,0,1-.42,9.06c-1.48-.09-3-.09-4.44-.29-6.66-.88-13.29-2.44-20-2.58-10.21-.22-20.44.52-30.66.9a18.85,18.85,0,0,0-2.38.6C292,179,289.21,179.41,286.39,179.85Zm2.84-3.64a34.07,34.07,0,0,0,3.2-1.75,14.7,14.7,0,0,1,9.36-2.71c10.8.16,21.61.27,32.42,0,4.93-.1,9.58,0,13.54,3.44.08.07.53-.28,1.11-.61-2.68-4.7-7.25-5.5-11.84-5.5-12.46,0-24.92.34-37.37.55a7.2,7.2,0,0,0-2.47.23C294.28,171.05,290.91,171.63,289.23,176.21Zm45.11-25.76c2.6-3.23,2.69-4.42.52-6.66s-3.75-2.41-6.57-.48c-1.36.94-2.57,2.09-3.88,3.1-3.73,2.87-4.24,5.49-1.47,10.31-.79-4.26,2-5.45,4.86-6.64.61-.25,1.18-.6,1.78-.88C332.36,147.9,332.37,147.9,334.34,150.45Zm-29.94-.22c1.13-.8,2.46-2.21,2.91-2,3.71,2,9.14,2.08,9.19,8.82,2.3-6.62,2-7.87-2.58-11.1q-1.82-1.29-3.66-2.55c-2.8-1.9-4.29-1.78-6.33.52S302.1,147.41,304.4,150.23Z"/><path class="cls-16" d="M286.39,179.85c2.82-.44,5.65-.85,8.47-1.31a18.85,18.85,0,0,1,2.38-.6c10.22-.38,20.45-1.12,30.66-.9,6.67.14,13.3,1.7,20,2.58,1.47.2,3,.2,4.44.29-.18,5.9-3.91,10.17-7.24,14.36C339.41,201.36,332,205.4,322.6,205c-4.13-.19-8.45.3-12.36-.76C297.68,200.8,290.22,192,286.39,179.85Z"/><path class="cls-17" d="M420.44,658.67c-.26,2.33-1.9,2.49-3.66,2.18a11.36,11.36,0,0,1-8.58-6.1,48.54,48.54,0,0,1-2.47-6c-1.82-5.14-3.57-10.25-6.71-14.87-2.79-4.11-1.49-7.11,3.06-8.92,5.43-2.16,10.76-.78,16.11.33,8.69,1.83,15.94,6.29,22.37,12.27a22.47,22.47,0,0,0,3.68,2.28c1.94,5,3.95,9.87,5.8,14.84,1.47,4,1.24,5.1-1.16,8.31-2.06-5-4.08-9.88-6.1-14.79l-1.13.4c.6,2.24,1.31,4.46,1.77,6.73a25.56,25.56,0,0,1,.77,6.36c-.21,3.9-2,5-6.35,4.47.74-7.51-3-13.59-6.81-19.71.83,3.31,1.69,6.6,2.47,9.92a23.38,23.38,0,0,1,.82,4.88c.06,4.24-1.5,5.66-5.8,5.61-3.54,0-4.14-.54-4.12-3.93,0-7.33-2.95-13.82-6.21-20.45.09,1.62.09,3.25.29,4.86.25,2,.67,3.93,1,5.89Q420,656,420.44,658.67Z"/><path class="cls-9" d="M195.22,640.87c4.26-3.39,8.32-7.07,12.81-10.11,7-4.75,15.12-6.61,23.49-6.75a19.39,19.39,0,0,1,8,2.12c2.89,1.33,3.31,3.19,1.93,6.18-.83,1.79-2.16,3.35-3,5.15-2.11,4.66-4.25,9.33-6,14.13-2.67,7.19-5.55,9.36-13.27,9.31.53-4.1,1.08-8.2,1.59-12.31a28,28,0,0,0,.21-6.35A52.8,52.8,0,0,0,215.27,662c-.32,4.19-.53,4.63-3.92,4.83s-5.67-1.23-5.86-4.52a23.18,23.18,0,0,1,.88-6.36,103.79,103.79,0,0,0,2.22-10.6c-2.78,5.92-6.78,11.37-6.54,18.39,0,.94-.66,2.67-1.11,2.71a5.1,5.1,0,0,1-3.57-1,7,7,0,0,1-1.71-7.37c.91-3.16,1.83-6.31,2.88-9.94-3.76,3.37-5,6.07-7.14,15.5-2.56-1.15-2.66-3.34-2.22-5.43a58.23,58.23,0,0,1,2.29-7.6C192.64,647.34,194,644.12,195.22,640.87Z"/><path class="cls-18" d="M405.28,144.91c0,1.22.42,2.59,0,3.64a45.17,45.17,0,0,0-3.1,16.9c0,5,1.17,9.47,5,13a7.65,7.65,0,0,1,1,1.76,74.11,74.11,0,0,1-7.43-1.65,27.62,27.62,0,0,1-4.58-2.56l4.1-.41c-7.64-4-15-2.54-23.21-1.55,2-2.67,3.43-4.61,4.84-6.6,7.27-10.26,9.26-21.45,5.74-33.53-1.8-6.19-3.85-12.31-5.69-18.5a6.64,6.64,0,0,1,.27-2.49,19.58,19.58,0,0,1,2.3,1.82c7.82,8.34,17.93,13.18,27.84,18.34l-13,14.36.9,1.08Z"/><path class="cls-19" d="M245.27,176l-13.7,4.54c.1-.71,0-1.29.24-1.49,7.1-6.16,5.91-14.19,4.88-22.08-.49-3.72-1.61-7.36-2.45-11l4,2.86c-.31-4.22-2.77-6.71-5-9.29-1.6-1.9-3.35-3.67-5-5.5,3.89-2.45,7.65-5.12,11.69-7.3,6.43-3.46,12-8,17.43-12.78,1.83,1.63-.09,3.08-.45,4.42-1.71,6.51-3.79,12.93-5.69,19.4-2.21,7.52-.92,14.77,2.39,21.62,1.92,4,4.61,7.6,6.92,11.39.51.83.9,1.73,1.6,3.09-7.75-1.41-15-1.28-22.19,1.66.8.13,1.6.31,2.41.38C243.28,175.92,244.28,175.91,245.27,176Z"/><path class="cls-20" d="M630.16,204.94c0-6.82.6-13.71-.07-20.46a103.12,103.12,0,0,0-9-33.85c-5.37-11.46-12.45-21.86-19.73-32.16-7.16-10.15-14.09-20.44-18.6-32.19a42.68,42.68,0,0,0-9.91-15.36c-4.47-4.41-8.15-9.6-12.49-14.17-3.53-3.72-7.59-6.94-11.28-10.52-8.93-8.68-17.82-17.4-28.3-24.26a13,13,0,0,0-2.68-1c-1.24-.83-2.45-2.32-3.73-2.37-5.56-.25-5.87-4.32-6.75-9.25,6.1,4.27,11.75,7.92,17.07,12a298.39,298.39,0,0,1,40.76,37.4c1.89,2.1,3.56,4.4,5.48,6.47s4.1,3.82,6,5.9c2.41,2.7,5.59,5.23,6.75,8.44,6,16.59,16.78,30.1,26.85,44.13,10.88,15.15,19,31.52,22.22,50.1,2.41,13.87,3.13,27.71.83,41.65-.52,3.11-1,6.23-1.42,9.35a5.06,5.06,0,0,1-.81-1.65C630.92,217.07,630.55,211,630.16,204.94Z"/><path class="cls-21" d="M125.22,14.85c1.16,2.06-.52,2.92-1.7,3.91-7.36,6.16-15,12-22.07,18.48C93.07,44.8,85,52.73,77,60.68,72.3,65.35,67.48,70,63.58,75.35A67,67,0,0,0,55.76,90.2c-3.75,9.33-9.18,17.62-15,25.63a240.2,240.2,0,0,0-20.38,32.29,98.25,98.25,0,0,0-9.27,29.14,161.4,161.4,0,0,0-1.72,29.68q-1,7.38-2,14.75c-.7-7.94-1.92-15.87-2-23.81a116.17,116.17,0,0,1,20.1-67.7c3.9-5.8,7.89-11.54,12.14-17.07C44.83,103.69,51,93.72,55.22,82.56c1.9-5.06,4.44-9.62,9.56-12.29,1.39-.72,2.35-2.3,3.4-3.58,16-19.58,34.92-36,55.31-50.85A18.42,18.42,0,0,1,125.22,14.85Z"/><path class="cls-21" d="M366.4,58.71c-.5,6.76-1,13.51-1.49,20.38-2.25-1.67-1.61-4.09-1.6-6.24.06-7.53-.77-14.92-4.43-21.62-6.8-12.47-16.52-21.37-30.82-24.57-11.14-2.49-21.45-.62-30.75,5.87-7.57,5.28-14,11.8-17.59,20.47a48.93,48.93,0,0,0-3.29,11.34,133.09,133.09,0,0,0-1.13,14.82,33.78,33.78,0,0,1-3.86,14.23c-.12.24-.73.23-1.11.33l-.2-1q1.11-4.9,2.24-9.82c1.6-7.35,1.22-14.7-.12-22a65.79,65.79,0,0,1,22.54-33.81c14.31-11.63,35.83-11.39,50.22.5C355,35.86,362.56,46.07,366.4,58.71Z"/><path class="cls-22" d="M288.2,94.77c1.9-.32,3.79-.69,5.69-.94,2.45-.32,4.95-.32,7.35-.85,3.59-.78,3.94-1.94,1.62-4.94-1.83-2.35-3.84-4.55-5.76-6.83a3.82,3.82,0,0,1-1-2.53l8.15,2.43-4.6-6.29c14.16,5.18,27.19,5.82,40.54-.17-1.25,1.9-2.44,3.7-4,6.13L344,79.06c-1.92,2.49-3.56,4.6-5.17,6.72a41.35,41.35,0,0,0-2.59,3.63c-2.15,3.58-1.31,5,3.06,5.52-10.3,3.36-20.71,5.13-31.4,1.89C301.45,94.87,294.85,94.68,288.2,94.77Z"/><path class="cls-18" d="M264.32,168.82c3.27,2.18,6.51,4.39,9.8,6.53,3.68,2.39,4.85,1.73,5.12-2.62.25-3.95,1.11-7.93.82-11.83a44.32,44.32,0,0,0-2.69-11.47c-1.11-3.08-3-5.88-4.67-8.75-4.05-7.09-5.57-14.31-1.9-22.12a91.94,91.94,0,0,0,3.36-9.71c-.27,3.12-.43,6.26-.84,9.36-.9,6.78,1.47,12.35,6,17.23,2.6,2.79,5.14,5.65,7.53,8.61,3.66,4.52,4.54,9.19,1.6,14.73a49.31,49.31,0,0,0-5.06,13.89c-1.16,6.28,1.5,12,4.66,17.42a42.33,42.33,0,0,1,2.78,5A103.48,103.48,0,0,1,264.32,168.82Z"/><path class="cls-23" d="M366.2,113.9c2.68,1.29,2.61,4.11,3.19,6.36,1.47,5.68,1.87,11.4-1.2,16.83-1.79,3.17-3.68,6.31-5.14,9.63-2.59,5.88-5,11.77-3,18.56.76,2.61.08,5.61.25,8.42s1,3.25,3.45,1.89,4.61-3.15,7-4.65c1.78-1.12,3.67-2.07,5.51-3.09a136.7,136.7,0,0,1-27.4,27.59c2-4.29,4.06-8.31,5.81-12.47,2.92-6.9,1.56-13.61-1.41-20.15-.95-2.11-1.75-4.42-3.2-6.15-2-2.35-1.91-4.44-.33-6.73,3.08-4.48,6.18-9,9.36-13.38,1.55-2.14,3.48-4,4.91-6.23a12.33,12.33,0,0,0,2.35-8C366.06,119.57,366.22,116.73,366.2,113.9Z"/><path class="cls-20" d="M499.37,154c-1-.57-2.19-.92-2.86-1.73a64.51,64.51,0,0,0-38.29-23.06,44.52,44.52,0,0,0-24.45,2.5c-7.53,2.89-14.87,6.27-22.32,9.37a5.28,5.28,0,0,1-2.06,0c13.78-14.91,31.22-20.81,51.52-20.65l-1.28,3.08c2.95.73,5.93,1.37,8.86,2.19,14.47,4.06,24.45,13.65,32,26.16C501.48,153.4,501,153.94,499.37,154Z"/><path class="cls-24" d="M230.17,141c-1.13-.12-2.49.13-3.36-.41A81.09,81.09,0,0,0,196,129.15c-12.11-1.8-23.64,1-34.08,7.64-7,4.48-13.49,9.53-18.73,16.06a6.75,6.75,0,0,1-2.07,1.2c-2.36.11-2.49-1-1.42-2.67,4.1-6.29,8.66-12.16,14.6-16.85a53.8,53.8,0,0,1,21.93-10.11c3-.68,3-.78,2.74-4.09,17.89.4,34.45,4.47,48,17C228.1,138.45,229.09,139.76,230.17,141Z"/><path class="cls-12" d="M488.46,502.69c-.61,0-1.59.17-1.78-.13-2.21-3.49-4.37-7-6.36-10.62a6.3,6.3,0,0,1-.46-3.25c.57-9.41,1.12-18.77-1.5-28a80.22,80.22,0,0,0-14.63-28.9,127.31,127.31,0,0,0-25-23.17c-.36-.27-.28-1.16-.4-1.76,18.88,10.52,34.16,24.54,43.23,44.57a60.12,60.12,0,0,1,5.64,26c0,1.83-.17,3.66-.06,5.48C487.52,489.49,488,496.09,488.46,502.69Z"/><path class="cls-25" d="M201.21,406.85c-.24.74-.26,1.76-.77,2.19-5.32,4.49-11.1,8.49-16,13.38-11.94,11.89-21.21,25.57-24,42.6-1.13,7-2.37,14.06-.46,21.24.43,1.64-.41,3.84-1.21,5.53-2,4.34-4.38,8.53-6.6,12.79l-1.11-.86c1.17-6.68,2.79-13.35,1.84-20.2a56.23,56.23,0,0,1,4.38-30.14c6.44-15.14,16.72-27.4,29.79-37.27C191.59,412.73,196.5,409.92,201.21,406.85Z"/><path class="cls-26" d="M257.3,113.87c-5.46,4.74-11,9.32-17.43,12.78-4,2.18-7.8,4.85-11.69,7.3l-11-8.85c1.06-1.24,1.89-2.9,3.22-3.65,9.35-5.25,18.23-11.46,28.62-14.59,3.16-1,4.93-2.26,4.26-5.81-.13-.66.52-1.47.8-2.21C253.6,104.19,255.34,109.05,257.3,113.87Z"/><path class="cls-4" d="M412.4,133c-9.91-5.16-20-10-27.84-18.34a19.58,19.58,0,0,0-2.3-1.82,22.83,22.83,0,0,0,3.06-13c.91,3.13,2.14,5.6,5.7,7a127.69,127.69,0,0,1,32.19,18Z"/><path class="cls-27" d="M538.17,102h15.71c-7.66,6.88-11,14.85-13.84,23.18-3.41,10-7.13,19.85-10.71,29.77.35-3.95.35-8,1.12-11.82,1.86-9.35.66-18.43-1.9-27.4-1.34-4.73-3.22-9.31-5.12-14.67,8.13,5.23,16.36,6.28,25.14,2.33Z"/><path class="cls-23" d="M109.23,145.88a31.45,31.45,0,0,1-3-4.88c-2.93-7.38-5.8-14.79-8.46-22.27-1.87-5.26-4.38-10-8.75-13.63A20.37,20.37,0,0,1,86.72,102h15.6l-9.87,1.33c1.79,1.36,8.78,3.24,11.91,2.47,4.22-1,8.31-2.65,12.47-4-1.83,4.84-3.92,9.65-5.48,14.62-2.25,7.16-2.38,14.61-2.13,22.06C109.3,140.91,109.23,143.4,109.23,145.88Z"/><path class="cls-28" d="M123.11,61.89c-.4-2.34-.8-4.68-1.37-8,3.88,2.71,6.82,4.88,9.88,6.87,2.75,1.79,5.63,3.37,8.44,5.07,3.59,2.17,7.31,2.85,11.32,1.19a5.76,5.76,0,0,1,2-.1C149.92,71.37,146.76,76,143,80.18c-2.61,2.87-6.41,3.33-10.2,2.28a58,58,0,0,1-5.69-1.83c-3.77-1.49-5-3.74-3.66-7.4a7.25,7.25,0,0,1,3.06-3.62c.48-.27,2.23,1.47,3.21,2.48a13.31,13.31,0,0,0,3.4,3.2c-.23-1-.41-1.92-.71-2.84s-.72-1.74-1.18-2.82h7.33c-5.59-3.58-11.73-4.9-15-11.42C123.33,60.13,123.22,61,123.11,61.89Z"/><path class="cls-29" d="M486.3,64.87c1.18.61,2.37,1.19,3.53,1.84a8.22,8.22,0,0,0,8.54.12c5.29-3,10.51-6.17,15.78-9.22,1.1-.63,2.29-1.08,4.5-2.11-.55,2.76-.92,4.57-1.28,6.39L517.13,60,502.2,69.86l6.35.31-1.3,5.24.8.39c1.21-1.69,2.4-3.4,3.65-5.07s2.7-1.65,4,0c3,3.77,3.14,8-2,9.92a42.34,42.34,0,0,1-6.65,2c-3.91.77-7.53.23-10.49-2.9C492.34,75.33,487.86,71.11,486.3,64.87Z"/><path class="cls-12" d="M423.21,124.85a127.69,127.69,0,0,0-32.19-18c-3.56-1.37-4.79-3.84-5.7-7l-.69-4c15.87,6.25,30.34,14.06,42.3,26.76Z"/><path class="cls-30" d="M254.1,98.84c-.28.74-.93,1.55-.8,2.21.67,3.55-1.1,4.86-4.26,5.81-10.39,3.13-19.27,9.34-28.62,14.59-1.33.75-2.16,2.41-3.22,3.65l-4.19-2c11.56-13,25.78-20.84,41.62-27.2C254.42,97.06,254.26,98,254.1,98.84Z"/><path class="cls-31" d="M122.41,94.9c.77-3.25,1.32-6,2.16-8.65A2.58,2.58,0,0,1,126.73,85a24,24,0,0,1,4.82,1.16c6,1.85,11,.17,15.66-3.82,3.22-2.77,6.75-5.2,10.26-7.88l3.1,3.43c-5.6,4.55-11,9-16.59,13.42a15.23,15.23,0,0,1-10.6,3.61C129.78,94.74,126.16,94.9,122.41,94.9Z"/><path class="cls-32" d="M303.5,125.85c-7.39.44-14.5-.27-20.56-5.11-1.93-1.53-3.75-3.19-5.62-4.8,0-1,0-2.06-.05-3.08,1.55-1.2,3.4-2.16,4.58-3.65,2.36-3,5.06-4.08,8.66-2.71,4.14,1.57,8.3,3.08,12.41,4.74,2.58,1.05,5.07,2.31,7.87,3.6l.92-4.42,1.32,2.75c-.2.25-.52.47-.57.75-.9,4.56-1,4.76-5.26,3.06-4-1.6-7.86-3.48-11.74-5.33a16,16,0,0,0-13-.86c1.64.69,2.22.92,2.79,1.17a6.11,6.11,0,0,1,1.78.85,4.6,4.6,0,0,1,1.58,2.17c1.08,6.71,4.49,9.74,11.11,10C300.93,125,302.68,123.76,303.5,125.85Z"/><path class="cls-33" d="M456.65,54.55c6.06,4.86,11.89,9.46,17.62,14.19,1.57,1.29,3.67,2.53,2,5.3-1.35,2.29-5.36,5.3-7.13,4.65a7.81,7.81,0,0,1-3-2.46q-4.92-5.94-9.66-12C453.39,60.13,453.45,59.2,456.65,54.55Z"/><path class="cls-34" d="M183.54,54.17c3.56,4.81,3.58,6,.28,10S177.2,72,174,76c-2.41,3-2.76,3.2-6.16,1.6a14.3,14.3,0,0,1-4-2.93c-1.35-1.37-1.37-2.89.3-4.23,3.76-3,7.51-6,11.19-9.09C178.12,59,180.8,56.57,183.54,54.17Z"/><path class="cls-35" d="M481.87,74.14c4,2.9,7.76,5.06,10.78,8,5,4.86,10.62,5.67,17,4.14,1.91-.46,3.83-.9,5.84-1.37.86,3.3,1.66,6.41,2.57,9.92-4.8,0-9.46.35-14-.15a13.65,13.65,0,0,1-6.57-3.21c-5.27-4.28-9.92-9.3-16.05-12.54C479,77.68,481.52,76.35,481.87,74.14Z"/><path class="cls-36" d="M344.39,151.61l-8.51,8.94-.76-.44c1.12-1.86,2.15-3.77,3.36-5.57,4.78-7.11,4.57-8.62-1.12-15.14-4.47-5.11-6.64-6.88-13.52-.85-3.52,3.07-4.46,3-8.19.14a35.42,35.42,0,0,0-4-2.94c-3.25-1.8-5.35-1.28-7.77,1.61-1.06,1.27-2.17,2.51-3.3,3.71-3.51,3.71-3.92,6.82-1.32,11.22,1.33,2.25,2.82,4.4,4.24,6.6l-.88.74c-1.49-1.68-3-3.33-4.46-5-1.07-1.25-2.06-2.58-3.1-3.87a.56.56,0,0,0-.43-.16c-.13,0-.23.21-.34.32l-1-2.15a10.25,10.25,0,0,0,1.7-2.79c1.15-4.83,4.42-8.15,8-11.19,3.23-2.76,7.88-2.64,11.57,0a23,23,0,0,1,3.3,3c1.31,1.41,2.49,1.4,3.8,0a27.31,27.31,0,0,1,2.54-2.39c4.55-3.69,10-3.7,13.76.76,3.22,3.84,5.56,8.4,8.3,12.64C345.61,149.75,345,150.68,344.39,151.61Z"/><path class="cls-37" d="M368.08,586.71c1.93,3.19,3.91,6.37,5.76,9.61.22.39-.09,1.28-.42,1.75-2.43,3.45-12.15,6.24-16.28,4.95-2.33-.72-3.74-2-4.14-4.39,1.64-1.74,3.07-3.76,4.95-5.18C361.18,591,364.69,588.94,368.08,586.71Z"/><path class="cls-38" d="M287.27,599.87c-6.79,5.29-14.62,4.12-21.56-3.3l5.74-9.93c3.58,2.31,7.22,4.51,10.71,7C284.41,595.17,286.79,596.79,287.27,599.87Z"/><path class="cls-21" d="M156.19,162.94c-1.55.3-3.2,1.12-4.62.81-11.17-2.37-21.7-.06-32.06,3.9a4,4,0,0,1-1,.1c-1.26-7.55-1.23-7.44,6.27-9.05C135.8,156.34,146.13,158.56,156.19,162.94Z"/><path class="cls-39" d="M522.11,164.84c-1,1-1.51,2.09-3.55,1.34a52.41,52.41,0,0,0-22.77-3.26c-3.58.3-7.12,1-10.69,1.45a19.87,19.87,0,0,1-3.67-.25c12-5.93,24.3-8.3,37.51-4.6C522.23,160.44,522.89,162,522.11,164.84Z"/><path class="cls-40" d="M138.25,43.88a60.76,60.76,0,0,1,5.63,2.87c4.84,3.1,9.59,6.34,14.38,9.54s5.84,3.19,10.82-.44c-.6,1.82-.72,4.08-1.89,5.4C163.83,65,160,68.39,156.38,72c-.44-.56-.66-.74-.63-.81,3.75-8.59,3.64-9.55-3.37-15.67C147.79,51.46,143,47.73,138.25,43.88Z"/><path class="cls-41" d="M272.25,60.88c1.34,7.34,1.72,14.69.12,22-.11-.8-.21-1.59-.42-3.14a32.26,32.26,0,0,0-2,2.92c-1.84,3.7-1.81,3.71-6.53,1.9Z"/><path class="cls-42" d="M472.25,55.88c4,2.67,7.77,2.7,11.7-.26a93.78,93.78,0,0,1,8.64-5.53,18.87,18.87,0,0,1,3.57-1.27c-1.72,1.51-3.43,3-5.17,4.51-.76.64-1.65,1.12-2.41,1.74-7.11,5.79-7.63,7.61-4.63,16C476.73,66.34,473.05,61.55,472.25,55.88Z"/><path class="cls-43" d="M259.77,109.5c-2.64-6.91-2.55-12.61,1.32-17.93A8.42,8.42,0,0,1,264,89a3.37,3.37,0,0,1,2.73.31c.39.23.48,1.57.23,2.22C264.77,97.19,262.46,102.83,259.77,109.5Z"/><path class="cls-44" d="M379.65,109c-2.54-6-4.79-11.08-6.8-16.25-.4-1,.1-2.39.18-3.6,1.22.35,2.81.33,3.6,1.11a15.32,15.32,0,0,1,4.51,14.48A33.8,33.8,0,0,1,379.65,109Z"/><path class="cls-45" d="M396.41,307.15c2.4-1.7,4.88-3.3,7.16-5.15,2.95-2.4,4.76-2.78,7.58-1.14a6.46,6.46,0,0,1,3,6.84c-1.69,9.86-7.07,17.35-15,23.23-4.5,3.35-9.92,5.46-13.5,10.06-3.4,4.36-6.81,8.7-10.87,13.88l31.69-13.56c-1.33,2.35-2.36,4.27-3.5,6.13a65.45,65.45,0,0,1-14.77,17.25c-7.21,5.8-13.59,12.34-16.86,21.6-3.48,9.83-10.51,16.58-20.72,20a26.43,26.43,0,0,1-28.44-8.63c-1.4-1.85-2.5-1.91-3.93-.27-.33.38-.71.7-1.06,1.07-10.27,10.73-25.14,11.6-37.5,3.48-6.66-4.38-10-11.09-12.74-18-3.11-7.71-8.36-13.3-14.81-18.15-7.16-5.39-12.24-12.55-16.52-20.32-.28-.51-.18-1.23-.4-2.92,9.89,5.17,20.54,6.62,29.23,13-5.51-9.3-11.92-17.48-21.58-23-8.63-4.93-15-12.19-16.33-22.55a16.14,16.14,0,0,1,1.18-7.7c1.18-3,4.61-3.33,7.22-1.26s5.45,4.06,8.18,6.07l.79-.9-5.4-5.79c4.67-2.93,9.8-3.06,14.76-3.49,4-.35,8-.06,12-.08a208,208,0,0,0,40.32-4.57,77,77,0,0,1,34.43.93,91.12,91.12,0,0,0,21.1,2.7c8.45.07,16.94.25,25.34,1.09,4.8.48,10,.29,14.54,3.39l-5.44,5.82ZM363.32,357l-.27-4.63c-1.85.42-3.43.78-5,1.12-9.2,2-18.35,2.39-27.47-.6-5.12-1.69-8,.21-8.27,5.56a119.76,119.76,0,0,0,0,13A10.8,10.8,0,0,0,332,381.81c5.33.52,10.65.15,15.48-2.54,4.3-2.4,8.53-4.93,12.78-7.41-1.19,6.4-5.58,10.57-10.17,14.79a13.53,13.53,0,0,0,4.9-1.88c7-4.66,10.12-11.79,11.23-19.72,1.5-10.76,3.77-21.19,9.72-30.5.54-.84.9-1.78,1.38-2.66,1.54-2.82,1.44-5.37-1.1-7.62-2-1.76-3.79-3.77-5.93-5.32C358,310.1,344.15,305.35,329.39,303c-1.59-.25-3.53-.69-5.51,1.34,1.87.63,3.21,1.12,4.58,1.54,7.75,2.34,15.66,4.26,23.23,7.1,7.41,2.78,14.69,6.13,20.4,12a38.16,38.16,0,0,1-6.29-1.16c-8.56-3-17-6.37-25.59-9.33a55.29,55.29,0,0,0-11-2.48,5.16,5.16,0,0,0-4.18,1.89,17,17,0,0,0-2.66,7.28c-.39,5.45-.09,11-.13,16.44a8.29,8.29,0,0,0,5.28,8.27,36.16,36.16,0,0,0,10.91,2.91c9.6.66,19.17.38,27.78-4.93Q364.75,350.41,363.32,357Zm-83.94,14.85a15.39,15.39,0,0,1,2.57,1.37c7.48,6,15.72,9.85,25.6,8.69,5.89-.69,9.08-3.57,9.62-9.49a114.88,114.88,0,0,0,0-15c-.16-4.08-3.07-5.88-7.15-5a110.84,110.84,0,0,1-13.59,2.41c-6.11.5-12.27.31-18.1-2.05-1.49-.6-2.14-.23-2.3,1.28q-1.43-5.57-2.84-11.14c3.19,2.77,6.76,4.81,11.06,5.12,4.94.37,9.92,1,14.84.75a40.25,40.25,0,0,0,12-2.54c2.28-.86,5.14-3,5.66-5.14,1.14-4.58,1.07-9.48,1.23-14.26.07-2.11-.65-4.24-.74-6.37-.29-6.48-4.34-9.87-10.52-8.24-4.95,1.3-9.82,2.95-14.62,4.72-8.69,3.19-17.31,6.59-25.95,9.9,2.11-2,4-4.49,6.37-6.09a89.82,89.82,0,0,1,26.75-11.91c5.51-1.47,11-3.15,17.57-5.07a14,14,0,0,0-2.42-.8,24,24,0,0,0-3.5,0,96.27,96.27,0,0,0-26.32,7.14c-7.42,3.1-14.28,7.11-20,12.87-4,4.05-4.33,5.46-1.3,10.45a71.15,71.15,0,0,1,10,31,30.4,30.4,0,0,0,7.83,17.44c1.92,2.19,4.23,4.27,8.16,4.68C284.76,381.92,280.42,377.94,279.38,371.81Zm24.38,17.95.26,1.13c4.11-.73,8.29-1.16,12.29-2.28a12.33,12.33,0,0,1,7.22.08c3.89,1.1,8,1.62,11.93,2.38.1-.33.19-.66.29-1a11.75,11.75,0,0,0-2-1.08c-3.29-1.07-6.8-1.67-9.85-3.2s-5.65-1.7-8.59.3c-1.58,1.07-3.71,1.31-5.61,1.89S305.74,389.17,303.76,389.76Z"/><path class="cls-46" d="M324.27,279.84a126.28,126.28,0,0,0,46,7.09c19.47-.63,35-8.42,47.45-23.43a112.74,112.74,0,0,0,20.12-34.71,15,15,0,0,0,.44-1.93c1.7-4.61,3.3-9.26,5.11-13.82,2.37-6,4.9-11.86,7.37-17.78l1.17.36c-.3,1.25-.55,2.51-.92,3.74s-.89,2.49-1.37,3.72c-1.65,4.18-1.55,4.56,1.62,7.16a90.94,90.94,0,0,0,26.06,15.22,9.85,9.85,0,0,1,1.33.82c-6.16.63-17.84-4.65-31.62-14.3-1.2,3.63-2.25,7.2-3.56,10.67-3.28,8.65-5.94,17.64-10.2,25.79-7.13,13.66-17,25.34-30,34-6.46,4.28-13.81,6.43-21.39,7.39a103.29,103.29,0,0,1-18.83.95c-12.89-.75-25.71-2.36-37.34-8.72C324.87,281.57,323.23,281.56,324.27,279.84Z"/><path class="cls-47" d="M201.22,225.88a93.47,93.47,0,0,0,36.49,51.92c6.6,4.71,14.23,6.94,22.22,8.12,19,2.81,37.34.12,55.32-6.08-3,4.65-8.31,5.35-12.89,6.73a99.49,99.49,0,0,1-35.31,4.2c-11.44-.74-22.67-2.71-32.37-9.64s-17.41-15.66-24.12-25.46c-7.23-10.57-11.3-22.39-14.75-34.52-.8-2.8-1.93-5.5-3.11-8.81-9.94,7.19-20.21,12.15-31.85,14a8.29,8.29,0,0,1,1.61-1c9.16-2.88,16.89-8.27,24.48-13.9,4.48-3.33,4.64-4,2.78-9.54a60.8,60.8,0,0,1-2-6.44c4,4.19,5.73,9.54,7.71,14.73S199.3,220.65,201.22,225.88Z"/><path class="cls-48" d="M418.06,321.79c3.06-5.18,9.27-8.21,9-15.6l-7.87,3.55-.35-.45c2.74-2.55,5.91-4.78,8.08-7.74s3.31-6.61,5.11-10.39c.44,4.43.4,8.25-2.13,11.72A4.48,4.48,0,0,0,429,306c1.62,7-2.43,10.85-7.58,14.12A32.31,32.31,0,0,1,418.06,321.79Z"/><path class="cls-49" d="M208,291.55c1.35,7.53,6,12.58,12,16.7l-.59.83-6.81-2.76c-.29,7.19,5.76,10.32,9.48,15.16-8-2.11-12.27-8.07-11.43-15.48a5,5,0,0,0-.79-3C207.6,299.47,206.56,295.79,208,291.55Z"/><path class="cls-50" d="M85.27,76.91q-2,1.5-4,3c1.43-6,6.37-9.24,10.64-12.67,7.25-5.83,11.7-12.94,12.31-22.2.29-4.36,3.93-6,6.06-9.73,0,5.17.54,9.58-.17,13.78a23.87,23.87,0,0,1-4.18,10.35A49.49,49.49,0,0,1,91.74,71.74C89.39,73.13,87.42,75.17,85.27,76.91Z"/><path class="cls-51" d="M123.34,31.65c.94.75,1.32,1.78-.09,2.09-6.57,1.47-8.37,6-8.11,12-.6-.41-1.66-.76-1.72-1.24-.85-6.58.85-12.1,9-12.76Z"/><path class="cls-22" d="M557.18,78l-1.89-1.16c-2-1.66-4-3.33-6.1-5-4-3.2-8.3-6.09-12-9.63-4.54-4.38-7-9.7-6.2-16.44.38-3.12-.64-6.41-1.09-10.16,4,3,6.79,6,7.44,10.94a59.66,59.66,0,0,0,3.28,11.91c1.68,4.76,5.71,7.53,9.55,10.46a46,46,0,0,1,6.16,5.76C557,75.43,556.93,76.85,557.18,78Z"/><path class="cls-52" d="M526.06,46.68c-.27-.38-.76-.76-.77-1.14-.18-5.82-2.38-10-8.46-11.66-3-.81-.67-1.55.34-2.15C525.44,32.7,528.79,38.33,526.06,46.68Z"/><path class="cls-53" d="M297.28,68.73c.2-1.5,0-2.89.57-3.89,3.78-6.84,9-12.39,16.13-15.71,5.89-2.74,11.32-1,16.27,2.75a34.22,34.22,0,0,1,11.28,13.67,16.84,16.84,0,0,1,.66,3c-4,0-5.92-2.86-8.25-4.62-12.21-9.19-16.17-8.81-27.44-.81-2.42,1.71-4.78,3.53-7.2,5.24C298.94,68.58,298.37,68.52,297.28,68.73Z"/><path class="cls-54" d="M303.5,125.85c-.82-2.09-2.57-.83-3.8-.88-6.62-.25-10-3.28-11.11-10a4.6,4.6,0,0,0-1.58-2.17,6.11,6.11,0,0,0-1.78-.85c-.57-.25-1.15-.48-2.79-1.17a16,16,0,0,1,13,.86c3.88,1.85,7.75,3.73,11.74,5.33,4.21,1.7,4.36,1.5,5.26-3.06.05-.28.37-.5.57-.75a4.28,4.28,0,0,0,.58,1.34c1.16,1.21.21,4.43,2.78,3.84,1.16-.26,1.89-2.74,2.65-4.3a11.29,11.29,0,0,0,.43-3,51.06,51.06,0,0,0,2.08,6.3c.84,1.7,2.53,1.52,3.3-.23.59-1.32,1-2.74,1.46-4.11.29.37.73.7.84,1.11,1.12,4.24,1.29,4.39,5.24,2.71s7.58-3.39,11.35-5.11c4.39-2,8.85-2.74,13.46-.79-1.84,1.23-4.15,2.11-5.41,3.78s-1,4.18-2,6a8.59,8.59,0,0,1-7.43,4.33c-2.46.11-4.93,0-8.41,0l6.85,4.39c-.05.21-.11.42-.17.63l-5.58-1.8-.35.45,8.84,6.8c-6.42-1.39-10.38-6-14.34-10.64l.07.08c-.81-1.76-1.73-2.53-3.75-1.21a7.89,7.89,0,0,1-11.34-.85c3.94.62,8,2.3,12-1.92-4.18,0-7.62,0-11.06,0-1.89,0-.92,1.18-.89,2-1.64-.34-3-1.18-4.24,1.32-2.25,4.49-6.11,7.67-10.54,10.06a6.58,6.58,0,0,1-1.37.49c-.1,0-.27-.15-.68-.4l8-6.21L301,129Zm43.42-11.23L334.2,119C340.86,123.84,346.07,122.07,346.92,114.62Zm-54.63-.12c0,4.23,2,6.13,4.8,7a7,7,0,0,0,8.16-2.38Z"/><path class="cls-55" d="M357.2,110.91c-4.61-2-9.07-1.2-13.46.79-3.77,1.72-7.53,3.48-11.35,5.11s-4.12,1.53-5.24-2.71c-.11-.41-.55-.74-.84-1.11l2.75-3.79c-.26,2.53-.39,3.89-.56,5.57,5.38-2.36,10.39-4.42,15.26-6.75,3.52-1.68,7.14-1.14,10.75-1C356.94,107.09,357.36,108.88,357.2,110.91Z"/><path class="cls-54" d="M329.22,124.84c-5.79,5.57-12.45,5.76-17.57.5,6,3,11.83,2.42,17.64-.42Z"/><path class="cls-56" d="M289.23,176.21c1.68-4.58,5-5.16,7.95-6.31a7.2,7.2,0,0,1,2.47-.23c12.45-.21,24.91-.54,37.37-.55,4.59,0,9.16.8,11.84,5.5-.58.33-1,.68-1.11.61-4-3.42-8.61-3.54-13.54-3.44-10.81.23-21.62.12-32.42,0a14.7,14.7,0,0,0-9.36,2.71A34.07,34.07,0,0,1,289.23,176.21Z"/><path class="cls-57" d="M334.34,150.45c-2-2.55-2-2.55-4.76-1.25-.6.28-1.17.63-1.78.88-2.84,1.19-5.65,2.38-4.86,6.64-2.77-4.82-2.26-7.44,1.47-10.31,1.31-1,2.52-2.16,3.88-3.1,2.82-1.93,4.39-1.77,6.57.48S336.94,147.22,334.34,150.45Z"/><path class="cls-58" d="M304.4,150.23c-2.3-2.82-2.39-4.11-.47-6.28s3.53-2.42,6.33-.52q1.85,1.26,3.66,2.55c4.54,3.23,4.88,4.48,2.58,11.1-.05-6.74-5.48-6.85-9.19-8.82C306.86,148,305.53,149.43,304.4,150.23Z"/><path class="cls-59" d="M266.2,326.84c8.64-3.31,17.26-6.71,25.95-9.9,4.8-1.77,9.67-3.42,14.62-4.72,6.18-1.63,10.23,1.76,10.52,8.24.09,2.13.81,4.26.74,6.37-.16,4.78-.09,9.68-1.23,14.26-.52,2.1-3.38,4.28-5.66,5.14a40.25,40.25,0,0,1-12,2.54c-4.92.26-9.9-.38-14.84-.75-4.3-.31-7.87-2.35-11.06-5.12-1.79-3.33-3.73-6.59-5.32-10A36.81,36.81,0,0,1,266.2,326.84Z"/><path class="cls-59" d="M366.19,343.85c-8.61,5.31-18.18,5.59-27.78,4.93a36.16,36.16,0,0,1-10.91-2.91,8.29,8.29,0,0,1-5.28-8.27c0-5.48-.26-11,.13-16.44a17,17,0,0,1,2.66-7.28,5.16,5.16,0,0,1,4.18-1.89,55.29,55.29,0,0,1,11,2.48c8.58,3,17,6.3,25.59,9.33a38.16,38.16,0,0,0,6.29,1.16,3.79,3.79,0,0,1,1,5.24C370.75,334.72,368.49,339.3,366.19,343.85Z"/><path class="cls-17" d="M276.06,354c.16-1.51.81-1.88,2.3-1.28,5.83,2.36,12,2.55,18.1,2.05a110.84,110.84,0,0,0,13.59-2.41c4.08-.86,7,.94,7.15,5a114.88,114.88,0,0,1,0,15c-.54,5.92-3.73,8.8-9.62,9.49-9.88,1.16-18.12-2.69-25.6-8.69a15.39,15.39,0,0,0-2.57-1.37Q277.71,362.93,276.06,354Z"/><path class="cls-17" d="M360.21,371.86c-4.25,2.48-8.48,5-12.78,7.41-4.83,2.69-10.15,3.06-15.48,2.54a10.8,10.8,0,0,1-9.67-10.41,119.76,119.76,0,0,1,0-13c.28-5.35,3.15-7.25,8.27-5.56,9.12,3,18.27,2.57,27.47.6,1.58-.34,3.16-.7,5-1.12l.27,4.63Q361.78,364.42,360.21,371.86Z"/><path class="cls-60" d="M360.21,371.86q1.56-7.46,3.11-14.9,1.44-6.56,2.87-13.11c2.3-4.55,4.56-9.13,6.93-13.65a3.79,3.79,0,0,0-1-5.24c-5.71-5.85-13-9.2-20.4-12-7.57-2.84-15.48-4.76-23.23-7.1-1.37-.42-2.71-.91-4.58-1.54,2-2,3.92-1.59,5.51-1.34,14.76,2.35,28.63,7.1,40.85,15.95,2.14,1.55,3.94,3.56,5.93,5.32,2.54,2.25,2.64,4.8,1.1,7.62-.48.88-.84,1.82-1.38,2.66-5.95,9.31-8.22,19.74-9.72,30.5-1.11,7.93-4.19,15.06-11.23,19.72a13.53,13.53,0,0,1-4.9,1.88C354.63,382.43,359,378.26,360.21,371.86Z"/><path class="cls-61" d="M276.06,354q1.65,8.9,3.32,17.77c1,6.13,5.38,10.11,9.93,14.77-3.93-.41-6.24-2.49-8.16-4.68a30.4,30.4,0,0,1-7.83-17.44,71.15,71.15,0,0,0-10-31c-3-5-2.71-6.4,1.3-10.45,5.71-5.76,12.57-9.77,20-12.87A96.27,96.27,0,0,1,311,303a24,24,0,0,1,3.5,0,14,14,0,0,1,2.42.8c-6.61,1.92-12.06,3.6-17.57,5.07a89.82,89.82,0,0,0-26.75,11.91c-2.41,1.6-4.26,4-6.37,6.09a36.81,36.81,0,0,0,1.7,6.05c1.59,3.42,3.53,6.68,5.32,10Q274.63,348.47,276.06,354Z"/><path class="cls-62" d="M303.76,389.76c2-.59,4-1.16,5.94-1.77s4-.82,5.61-1.89c2.94-2,5.44-1.88,8.59-.3s6.56,2.13,9.85,3.2a11.75,11.75,0,0,1,2,1.08c-.1.33-.19.66-.29,1-4-.76-8-1.28-11.93-2.38a12.33,12.33,0,0,0-7.22-.08c-4,1.12-8.18,1.55-12.29,2.28Z"/><path class="cls-63" d="M346.92,114.62c-.85,7.45-6.06,9.22-12.72,4.42Z"/><path class="cls-64" d="M292.29,114.5l13,4.65a7,7,0,0,1-8.16,2.38C294.3,120.63,292.28,118.73,292.29,114.5Z"/><path class="cls-65" d="M314.27,122.93c0-.82-1-2,.89-2,3.44,0,6.88,0,11.06,0-4,4.22-8.08,2.54-12,1.92Z"/></svg>