<svg id="Capa_1" data-name="Capa 1" xmlns="http://www.w3.org/2000/svg" viewBox="0 0 465.32 878.37"><defs><style>.cls-1{fill:#050505;}.cls-2{fill:#6b6a6a;}.cls-3{fill:#6a6a69;}.cls-4{fill:#696a69;}.cls-5{fill:#6a6a6a;}.cls-6{fill:#545453;}.cls-7{fill:#515151;}.cls-8{fill:#535454;}.cls-9{fill:#545454;}.cls-10{fill:#b0afae;}.cls-11{fill:#afb0af;}.cls-12{fill:#6c6c6c;}.cls-13{fill:#b2b2b3;}.cls-14{fill:#b0b0b1;}.cls-15{fill:#b2b1b1;}.cls-16{fill:#b4b3b3;}.cls-17{fill:#848584;}.cls-18{fill:#a4a4a3;}.cls-19{fill:#a6a5a4;}.cls-20{fill:#696969;}.cls-21{fill:#b5b1ae;}.cls-22{fill:#b5b2ae;}.cls-23{fill:#999;}.cls-24{fill:#b8b3b0;}.cls-25{fill:#b4b0ad;}.cls-26{fill:#a19f9f;}.cls-27{fill:#9d9c9c;}.cls-28{fill:#9c9c9b;}.cls-29{fill:#9e9e9d;}.cls-30{fill:#989797;}.cls-31{fill:#666565;}.cls-32{fill:#646463;}.cls-33{fill:#908e90;}.cls-34{fill:#878787;}.cls-35{fill:#060606;}.cls-36{fill:#080807;}.cls-37{fill:#0d0d0e;}.cls-38{fill:#080808;}.cls-39{fill:#070807;}.cls-40{fill:#111211;}.cls-41{fill:#0d0c0c;}.cls-42{fill:#171617;}.cls-43{fill:#0a0b0a;}.cls-44{fill:#0a0a0a;}.cls-45{fill:#171616;}.cls-46{fill:#0e0d0c;}.cls-47{fill:#b0b0b0;}.cls-48{fill:#070707;}.cls-49{fill:#0c0b0b;}.cls-50{fill:#0a0a09;}.cls-51{fill:#aeaeae;}.cls-52{fill:#afafaf;}.cls-53{fill:#4f4f50;}.cls-54{fill:#0b0b0a;}.cls-55{fill:#4a4a4a;}.cls-56{fill:#0a0909;}.cls-57{fill:#0c0c0c;}.cls-58{fill:#0b0a0a;}.cls-59{fill:#0d0d0c;}.cls-60{fill:#0b0c0a;}.cls-61{fill:#121211;}.cls-62{fill:#191a1a;}.cls-63{fill:#121312;}.cls-64{fill:#1f201e;}.cls-65{fill:#131313;}.cls-66{fill:#0e0f0e;}.cls-67{fill:#0f0e0f;}.cls-68{fill:#100f10;}.cls-69{fill:#11100f;}.cls-70{fill:#0f100f;}.cls-71{fill:#434243;}.cls-72{fill:#91918f;}.cls-73{fill:#848383;}.cls-74{fill:#9d9c9b;}.cls-75{fill:#a9a7a8;}.cls-76{fill:#b7b6b8;}</style></defs><path class="cls-1" d="M8.89,211.51,4.7,217.19C4,210.42,5,204.47,6.11,198.54a113.42,113.42,0,0,1,17-41.23c11-16.65,22.5-33,33.79-49.48,1.5-2.19,3-4.44,4.57-6.55A29.53,29.53,0,0,0,68,84c.32-6.29,2.59-12.71,5.11-18.61,4.45-10.39,9-20.69,12.31-31.55,2.58-8.52,8.27-15.12,14.74-21,2.46-2.25,5.47-3.45,8.7-1.69,2,1.11,2.9.14,4-1.3a38.33,38.33,0,0,1,3.94-4.51c4.92-4.77,9.4-4.52,14.1.66a8.87,8.87,0,0,0,1.2,1c1-1.23,1.84-2.43,2.77-3.6a7.93,7.93,0,0,1,8.44-3A8.57,8.57,0,0,1,150,7c1,3.8.11,7.31-1.53,10.64-1.91,3.87-4.16,7.57-6.2,11.38a18.37,18.37,0,0,0-2.19,6.18c.66-.67,1.37-1.3,2-2,3.38-4.12,6.6-8.38,10.15-12.34,3.41-3.81,6.72-4.54,10.17-2.83,3.82,1.89,5.76,5.7,4.34,10.57a36.54,36.54,0,0,1-5.14,10.67A125.38,125.38,0,0,0,143,77.66a4.3,4.3,0,0,0,.11,3c1.2-.9,2.44-1.75,3.58-2.72a19.4,19.4,0,0,1,14.78-4.8,13.15,13.15,0,0,1,8.79,4.22c3.43,3.73,2.82,7.77-1.5,10.41-3.11,1.91-6.61,3.36-9.32,5.73a92.5,92.5,0,0,0-10.2,10.91c-2.86,3.48-6.11,6-10.6,6.93-4.73,1-9.42,2.12-14.15,3a11.25,11.25,0,0,0-8,6,63.26,63.26,0,0,0-8.83,29.37c-.44,11.3-.13,22.63-.08,33.94,0,4.17.28,8.33.37,12.49.19,10-3.6,18.48-10.31,25.75-.56.61-1.1,1.23-1.64,1.86-.09.11-.08.3-.23.86,1.82.47,3.66.95,5.51,1.4,14.48,3.51,25.26,11.87,31.64,25.28,2.83,6,4.6,12.45,6.48,18.8.57,1.92,1.13,2.75,3.14,3a41.59,41.59,0,0,1,22.58,9.78c2.69,2.26,4.46.89,6.65-.12s4.22-2,4-5.34c-.38-5.6,1.56-10.37,6.57-13.67,1.14-.75,1.82-2.61,2.15-4.08,1.16-5.19,2-10.45,3.09-15.67a38.35,38.35,0,0,1,6.06-14.11c5-7.31,10.58-14.16,17.53-19.73,13.72-11,31.15-10.62,44.22,1.17A83.5,83.5,0,0,1,272.47,232a61.19,61.19,0,0,1,4.82,12.48c1.14,3.81,1.65,7.81,2.43,11.73.7,3.53,1.31,6.65,4.88,9.13,3.78,2.61,5,7.48,4.69,12.1-.2,2.65.48,4,2.81,4.84a7.49,7.49,0,0,1,2.17,1.22c2,1.65,3.42,1.37,5.45-.41a40.49,40.49,0,0,1,22-9.86c2.86-.35,3.75-1.41,4.35-4.15a83,83,0,0,1,4.25-13.79c6.66-16.31,18.67-26.35,36-30,.93-.2,1.85-.45,3.28-.8-1.64-2.14-3-3.94-4.4-5.71a34.64,34.64,0,0,1-7.87-23.14c.21-7,.44-14,.82-21,.7-12.53.49-25-2.57-37.25-1.41-5.58-4-10.87-6.13-16.27-1.54-3.95-4.66-5.82-8.68-6.63-4.72-1-9.4-2.14-14.11-3.18a17,17,0,0,1-10.23-6.66,57.31,57.31,0,0,0-19.12-16.49c-6.07-3.24-6.06-9.06-.29-12.91s13.55-3.17,20.12,1.55c1.57,1.13,3.08,2.33,5.44,4.13-.49-2.28-.66-3.55-1-4.76C317.35,63.12,312,50.7,303.8,39.52A41.53,41.53,0,0,1,298.21,28a8.41,8.41,0,0,1,4-9.86c3.34-1.92,6.79-1.46,9.86,1.89,4.49,4.89,8.72,10,13.71,14.8-1.34-2.66-2.66-5.34-4-8-1.81-3.55-4-7-5.38-10.66a21.5,21.5,0,0,1-1.19-8.25C315.38,4,318,1.5,321.58.41a7.81,7.81,0,0,1,8.91,2.87c.83,1,1.66,2.07,2.68,3.36.59-.67,1.08-1.25,1.61-1.79,3.85-4,8.8-4.3,12.8-.51,2.28,2.17,4.22,4.7,6.59,7.37.56-.2,1.31-.41,2-.73,3.49-1.65,6.58-.83,9.12,1.79,6.76,7,12.5,14.53,15.52,24.07a256.6,256.6,0,0,0,9.45,24.63c3.93,9.09,7.29,18.19,7.41,28.28,0,2.11,1.29,4.44,2.55,6.28,8.61,12.67,17.5,25.14,26,37.85,7,10.35,13.87,20.76,20.23,31.49,9.33,15.75,14,33,14.69,52.22l-4.8-6.23c1.42,12.5,6.46,24,8.93,36.67-1.7.15-3.12.33-4.55.39a28,28,0,0,0-19.23,8.32,52.46,52.46,0,0,0-13,21c-2.64,7.89-5,15.87-7.55,23.79-5.33,16.53-15.17,29.87-28.81,40.47-4.6,3.57-9.4,6.89-14.13,10.3a66,66,0,0,1-5.75,4c-6,3.44-7.31,8.4-6.42,15.15,2.63,20.09,1.22,39.88-6.25,59a124.57,124.57,0,0,1-22.45,36.36c-4,4.65-8.17,9.23-12.15,13.94-5.73,6.79-8.07,14.62-7.78,23.57a232,232,0,0,1-.62,25.43c-.31,4-1.84,8.08-3.28,11.94-.81,2.17-1.16,3.91-.23,6.13A74.73,74.73,0,0,1,318,568.09a55.44,55.44,0,0,0,4.07,14.3c5.47,13.2,11.63,26.12,16.9,39.4a96.59,96.59,0,0,1,6.61,35.15,87.34,87.34,0,0,1-3.6,24.61,36.46,36.46,0,0,0,1.82,25.72c9.32,20.51,8.35,40.79-1.74,60.65-4.28,8.45-9.17,16.6-14,24.76a17.77,17.77,0,0,0-2.64,9.38c-.09,12.49-.08,25-.9,37.45-.43,6.39-2.37,12.72-3.93,19-1.21,4.82-4.13,8.24-9.27,9.46a6.47,6.47,0,0,0-3.1,2.11,11.29,11.29,0,0,1-9.12,4.34,8.24,8.24,0,0,0-4.41,1.49c-3.28,2.28-6.72,3-10.37,1.49-2-.86-3.61-.54-5.57.21-4.27,1.64-8.2.53-11.52-2.52s-3.88-7-2.43-11a75.73,75.73,0,0,1,4.83-10.94c2.28-4.17,1.78-8.36.85-12.61-.65-3-3.38-4-5.77-5-.5-.22-1.69.64-2.29,1.26-1.63,1.67-3,3.64-4.67,5.2-7,6.36-17,3.65-20.18-5.32a7.8,7.8,0,0,1,1.24-8c1.79-2.19,3.85-4.16,5.63-6.35,2.31-2.83,4.42-5.81,6.7-8.66a65.9,65.9,0,0,1,6.44-7.55,45.37,45.37,0,0,1,9.51-7.25c6.91-3.56,9.56-9.6,11.6-16.51,2.12-7.18,2.26-14.05-1.06-20.87-1.68-3.44-3.17-7-5-10.34-5.51-10.31-5.77-20.87-.62-31.17,2.68-5.37,3.43-9.74-.21-15-1.89-2.73-2.05-6.62-3.23-9.9a33.21,33.21,0,0,0-3.28-7.1c-2.38-3.61-5.17-7-7.75-10.42a108,108,0,0,1-19.21-43.46c-1-4.84-1-4.83-5.84-4.88a9.36,9.36,0,0,1-2-.09c-2.55-.62-3.05.94-3.53,2.94-1.22,5.17-2.43,10.37-4,15.45-4.13,13.58-11.57,25.39-20.29,36.42a34.39,34.39,0,0,0-7.35,15,33.17,33.17,0,0,1-4.22,10c-1.37,2.33-1.48,4-.2,6.38a74,74,0,0,1,4,9.13,28.44,28.44,0,0,1-.77,22.36c-2.14,4.87-4.41,9.68-6.7,14.48a25.05,25.05,0,0,0-1.28,19.41c.47,1.42,1,2.84,1.33,4.29a20.73,20.73,0,0,0,10.06,13.54,52.64,52.64,0,0,1,17.13,16.48c2.72,4.12,6.49,7.56,9.85,11.25,4.74,5.19,5.1,8.72,1.26,13.68-4,5.19-10.39,7-15.45,4-2.51-1.52-4.48-3.93-6.77-5.83-1-.87-2.69-2.37-3.37-2.06-2,.92-4.61,2.27-5.2,4-1.37,4.19-2.31,8.62.4,13,1.9,3.08,3.05,6.63,4.5,10,1.9,4.37,1.77,8.57-1.89,11.93s-7.87,4.39-12.41,2a4,4,0,0,0-4.11,0c-3.8,1.82-7.38,1.1-10.86-1.19a8.69,8.69,0,0,0-4.42-1.47,11.53,11.53,0,0,1-8.79-4,8.22,8.22,0,0,0-3.56-2.3,12.47,12.47,0,0,1-9.09-9.13c-1.72-6.23-3.62-12.57-4.09-19-.87-11.61-.95-23.3-.93-35a27.45,27.45,0,0,0-4.1-15,252.37,252.37,0,0,1-15.32-28.52c-8.1-18.4-7.39-37,1.56-55a31.78,31.78,0,0,0,1.9-23.25c-3.64-13-5.14-26.09-3.15-39.51a129.1,129.1,0,0,1,9.52-32.46c4.09-9.47,8.38-18.84,12.78-28.17a59.4,59.4,0,0,0,4.82-18.21,97.26,97.26,0,0,1,4.13-16.87c.69-2.21,1.1-3.91,0-6.07a40.75,40.75,0,0,1-4.11-18.37c-.11-6.66,0-13.33.31-20a29.57,29.57,0,0,0-6-20.13c-3.55-4.62-7.32-9.09-11.26-13.37-16.91-18.35-28.07-39.5-31.65-64.38a118.94,118.94,0,0,1,0-34.38c1-6.65-.71-11.16-6.21-14.84-6.36-4.25-12.52-8.83-18.64-13.43-15.88-11.9-26.28-27.57-31.86-46.54q-2.8-9.58-5.85-19.08a50.41,50.41,0,0,0-12.45-20.22,29.23,29.23,0,0,0-19.52-8.9C0,248-.9,248.93.79,242.71c2.53-9.3,5.5-18.49,8.26-27.73.32-1.07.47-2.19.7-3.29ZM190.58,348.23a24.07,24.07,0,0,0-2.66-2.22c-12.22-7.59-25.08-13.69-39.16-17a8.08,8.08,0,0,1,2.77-.6,62.91,62.91,0,0,1,8.75,1.7c6.91,2,13.76,4.28,20.67,6.46-1.17-1.63-2.28-3.27-3.47-4.86-4.42-5.89-6.25-12.22-4.23-19.62,1.41-5.14.64-10.11-3.57-14-6.2-10.92-15.85-16.78-27.93-19.08-2.28-1.2-2,.62-2.07,1.82-.39,4.88-.73,9.77-1.16,15.68l-1.82-3.43a107.12,107.12,0,0,0-4.45-27.45c-5.47-19.3-18-31.13-37.67-35.73-5-1.16-8.76-.56-12,3.35l-4.2,2.86a6.66,6.66,0,0,1,1.52-3.71c3.4-3.88,6.75-7.81,10.36-11.48,8-8.11,12.37-17.34,11.48-29.1-.84-11.09-1.06-22.26-1-33.39a100.23,100.23,0,0,1,5.77-31.69c3.8-11.15,10.61-18.57,23-19.62,2.28-.19,4.47-1.28,6.75-1.61a13.5,13.5,0,0,0,8.71-5.31c1.86-2.31,3.62-4.71,5.43-7.06l16-11.64c-2.71-3.43-6.52-4.13-10.54-2.63a20.9,20.9,0,0,0-6.52,4.36c-3.83,3.54-8,4.28-12.47,1.74-.72-.42-1.4-.91-2.13-1.31-8.44-4.63-17.23-3.72-24.56,2.54-.74.63-1.5,1.24-3.11,2.57,2.79-5.39,5-7.66,8.74-9.45,6.86-3.28,13.74-2.48,20.15.26,3-7.81,5.7-15.3,8.76-22.63,1.27-3.07,2.88-5.79-1.74-8.84,3.16.3,5.45,2.29,6.65-.9,1.3-3.47,6.68-6.17,1.31-10.75,2,.18,3.61.77,4.81.33,2.57-.94,6.39-8.9,5.92-11.57-.44-2.49-2.3-3.24-4.28-1.64A13.43,13.43,0,0,0,155,26.08q-10.68,14.13-21.29,28.3c-1.25,1.65-1,2.9.52,4.24a40.55,40.55,0,0,1,3.34,3.7c-14-10.23-30-12-47.18-12.34,2.75-2.6,7.68-.21,7.48-5.84s.46-5.59-3.47-8.76c2.56-.43,5.14.2,6.35-2.93,1-2.48,1.11-4.27-1.21-6.1,5-.69,7.76-3,8.32-7a4,4,0,0,0-1.16-3.3c-.66-.43-2.51.13-3.27.85A49.32,49.32,0,0,0,89.76,38.07c-1.25,4-2.24,8-3.35,12-1.74,3.74-3.54,7.45-5.2,11.22-3.79,8.67-7.55,17.36-7.92,27-.2,5.33-2.51,9.78-5.5,14.1Q49.34,129.08,31.17,155.9a134.85,134.85,0,0,0-16.53,34.37q-1.7,5.26-3.4,10.53l.84.32,5.69-4.4c-.32,2.5-.52,4.11-.74,5.72-1.55,11.9-4.8,23.4-8.46,34.79A31.45,31.45,0,0,0,7,241.13c-.07.23,1,.79,1.51,1.19a85.13,85.13,0,0,1,9.19,3.47C29.5,251.85,37,261.8,41.56,274c2.62,7,4.49,14.22,7.17,21.16,2.73,7.1,5.51,14.26,9.2,20.88,6.1,10.93,15.42,19,25.54,26.17,5.37,3.79,10.85,7.43,16.86,11.54.6-7.48-1.86-13.55-3.08-19.84,3.39,4.82,6.2,10,7.25,15.66a81.75,81.75,0,0,1,1.11,15.33c0,7.78-.56,15.57-.88,23.35.25,5.28.15,10.6.82,15.82,2.8,22.05,12.08,41.18,26.32,58.12,6.08,7.24,11.86,14.75,17.46,22.36a24.06,24.06,0,0,1,4.37,14.57c0,6.16-.2,12.32.1,18.47.22,4.58,1.09,9.13,1.67,13.7.16,6.43,3.85,11.32,7.71,15.8,6.3,7.3,13.15,14.12,19.78,21.14l3.21,3.41c-10.71-4.94-19.4-12.48-28.11-21-3.45,6.6-4,13.11-4.34,19.68a57.93,57.93,0,0,1-1.9,7.1c-2.79,6.91-5.52,13.85-8.74,20.56C135,614.75,128,631.87,126.2,650.67c-1.17,12.1.26,23.77,5.45,34.89,1.49,3.19,2.82,6.46,4.22,9.7l-.84.5-4.18-3.34a48.77,48.77,0,0,0-1,5.76c-.23,5.42-.6,10.89,1.65,16.08,2.17,5.8,4.35,11.6,6.63,17.69-6.42-4.65-9.81-11-12.11-18.87a42,42,0,0,0-5.19,21.57,66,66,0,0,0,8,32c4.92,8.85,9.91,17.67,14.75,26.56,1.47,2.69,4,5.36,1.21,8.76-.34.39-.07,1.29-.08,2,0,5.82,0,11.65,0,17.48a8,8,0,0,0,.71,3.8c1.6,2.67,3.52,5.14,5.45,7.88,1.69-1.18,3.27-2.33,4.9-3.41,2.85-1.89,3.15,2.18,5.23,2.39,2.11-2,4.14-4.24,7.18-1.3.36.35,1.89-.12,2.58-.62a14.57,14.57,0,0,0,2.29-2.75l6.43,5.51c.4-8.13.74-15,1.08-22.15a6,6,0,0,1,.88,1.75c.47,3.6.84,7.2,1.25,10.81-.21,4.27-.62,8.49-2.67,12.72l-6.37-5.77-4.39,3.81c-3.7-2.77-3.7-2.77-7.42-.13-.13.09-.27.19-.4.3-1.47,1.23-2.62,1.27-3.36-.8a7.22,7.22,0,0,0-1.29-1.63l-6.57,4.81-4.15-5.47c-.91,6.64,1.71,23.08,4.46,28a30,30,0,0,0,2.95,3.75l.62-.35-2-10.91,1.06-.34c.81,1.75,1.58,3.53,2.45,5.25,1.58,3.11,3.11,6.25,4.85,9.27,1.29,2.22,3.08,3.85,6.17,2.89-1.65-5.64-4.3-10.85-3.68-16.8a35.86,35.86,0,0,1,2.6,4.73c2.07,4.17,4,8.42,6.31,12.45,2.14,3.73,3.79,4,8.44,2.46-1.28-3.4-2.66-6.76-3.84-10.19-2.13-6.21-2.24-7.32-1.54-10.6,2.36,4.78,4.64,9.57,7.1,14.26a31.15,31.15,0,0,0,3.83,5.8c2.18,2.55,4.91,2.76,7.59,1,2.28-1.51,2.79-3.32,1.44-6.54-1.66-4-3.66-7.83-5.26-11.84a15.88,15.88,0,0,1-1.34-6.24,50.21,50.21,0,0,1,4.27-18.35,22,22,0,0,1,2.12-3.27l.59.39c-.14,1.94-.27,3.88-.42,6a19.41,19.41,0,0,0,2.65-1c4.41-2.42,4.51-2.44,7.87.89.94.93,1.77,2,2.72,2.92a34.32,34.32,0,0,0,4,3.7c3,2.15,6.57,1.4,9.18-1.73,2.18-2.63,1.87-3.87-1.08-7.24-4.48-5.12-8.84-10.35-13.16-15.62-4.7-5.73-10.81-9.54-17.33-13.78,0,7.18-1.18,13.33-4.31,19,.52-3.29,1-6.59,1.59-9.86a22.7,22.7,0,0,0-1.48-14.5,121.51,121.51,0,0,1-5.71-15.33,26.36,26.36,0,0,1,1.39-19.36c2.21-4.82,4.43-9.62,6.72-14.4,4.92-10.29,2.52-19.74-2.87-29.11-4.77,3.46-8.82,7.27-14.29,9A143.82,143.82,0,0,1,180,713.35c4.43-5.39,9-10.72,9.62-18.1a82.33,82.33,0,0,0,3.95-22.38c.67-14.94-1-29.78-2.14-44.64l.21-17h1c0,1.3-.1,2.61,0,3.9s.51,2.83.78,4.25q.66,8.66,1.32,17.31,1.46,19.29,2.89,38.58c.1,1.4,0,2.82,0,4.23l1.06.39,4-6.53c1.3-1.89,2.63-3.77,3.88-5.69a105.15,105.15,0,0,0,14.82-37.18,6.35,6.35,0,0,0-1.62-5.87,88.07,88.07,0,0,1-8.81-12c-3.15-5.32-5.68-11-8.48-16.55A4,4,0,0,1,205,598c5.19,6.67,10.37,13.36,15.6,20,6.58,8.33,21.41,5.58,26.13-1.81,3.84-6,8.33-11.59,12.54-17.35.81-1.1,1.67-2.17,2.51-3.25-3.32,9.34-6.63,18.89-13.43,25.83-5.2,5.31-5.07,10.11-3.18,16,.2.63.25,1.3.43,1.93,3.62,12.35,8.78,23.93,16.89,34l4.23,6.45a26.32,26.32,0,0,0,.88-7.26c.42-7.64.82-15.27,1.41-22.9.81-10.43,1.79-20.85,2.69-31.28.46-3.09.93-6.18,1.39-9.28h.61v21.1c-.1,1.82-.07,3.65-.33,5.45a190.3,190.3,0,0,0-1.69,39.54c.44,6.37,2,12.67,3,19a34.34,34.34,0,0,0,6.84,15.26c2.23,2.9,4.83,5.5,7.12,8.34,1.75,2.18,4,4.12,4,7.68L280,717.18c-5.64,10.62-7.73,21-1.59,31.92a114.47,114.47,0,0,1,6.29,13.52,21.57,21.57,0,0,1,1.58,12.17c-1.3,6.85-2.93,13.6-6.22,19.84-3,5.71-3.09,11.72-1.89,17.89a8,8,0,0,1-.45,2.65c-.95-4.79-1.89-9.58-2.89-14.65-3,2-6.11,3.87-9,6.07s-5.89,4.13-7.78,6.92a104.78,104.78,0,0,1-13.85,17,5.07,5.07,0,0,0-1.58,3.4c.22,4.34,6,7.47,9.65,5.14,2.05-1.31,3.59-3.4,5.43-5.07,2.07-1.89,4.15-3.78,6.38-5.47.42-.32,2.28.35,2.27.51-.14,2.9,2.47,2,4.06,3.45-.11-2.44-.19-4.28-.32-7.25,4.37,5.9,5.48,11.74,6.54,17.56a18.34,18.34,0,0,1-1.82,12.11,113.62,113.62,0,0,0-4.87,10.93c-1.08,2.76-.34,4.6,1.92,6s5.15,1.48,6.94-.29a15.45,15.45,0,0,0,2.55-3.67c2.48-4.7,4.87-9.46,7.31-14.18.56-1.07,1.21-2.1,1.81-3.16l1,.37c-.9,3.47-1.65,7-2.75,10.38-1.14,3.56-2.64,7-4,10.51,4.71,1.6,6.15,1.35,8.18-2.29,2.44-4.34,4.47-8.91,6.68-13.38l2.33-4.74,1,.34c-.61,2.9-1.11,5.83-1.86,8.69s-1.69,5.51-2.63,8.52c4.25.39,6-2,7.33-4.73,2.17-4.44,4.19-8.94,6.28-13.41l1,.26L310.81,863c5.43-4,10.1-23.11,7.91-32.15-1.14,1.53-2.15,2.77-3,4.1-1.13,1.74-2.22,1.63-3.59.25s-2.81-2.54-4.34-3.9c-2.21,4.73-2.22,4.73-5.41,2.14-3-2.43-3-2.43-6.32.74l-4.5-4.17-7,6.5c-.82-5.39-1.48-9.77-2.15-14.15.66-3.43-.77-7.24,1.72-10.3.57,6.33,1.14,12.67,1.79,19.82,1.41-1.18,2-1.65,2.61-2.18,2.81-2.58,2.81-2.59,5.77,0,1.1,1,2,2.4,3.58.33.39-.52,2.14-.37,3.07,0a22.19,22.19,0,0,1,3.71,2.24c2-3.4,2.5-3.59,5.19-1.86,1.34.87,2.56,1.9,3.66,2.73a22.31,22.31,0,0,0,7-19.61,84.16,84.16,0,0,1-.08-9c0-1,.35-2.4-.17-2.92-2.65-2.71-.5-4.84.66-7,5.21-9.65,10.64-19.18,15.74-28.88a64.88,64.88,0,0,0,6.82-40.49c-.6-4.08-1.45-8.27-4.18-12.32-2.85,7.54-5.74,14.36-12.53,19.12l6.67-16.84c2.53-7.37,2.26-14.92,1.85-23.19-1.23.77-1.9,1.18-2.54,1.61s-1.21.85-2,1.42c.08-3.35,0-3.38,2.22-7.75a64.46,64.46,0,0,0,6.32-34.39,124,124,0,0,0-10.83-41.21c-3.08-6.82-6.31-13.57-9.28-20.43s-6.63-13.43-7.67-21A35,35,0,0,0,307.37,551c-9.06,8-17.53,16-28.43,20.56,1.07-1.8,2.74-2.94,4.1-4.36,6-6.21,12.15-12.26,17.71-18.83s10.41-13.81,9.84-23.15c.29-8.29.68-16.58.86-24.88a32.28,32.28,0,0,1,5.94-18.67c3-4.17,6.13-8.26,9.47-12.17,9-10.51,17.6-21.22,23.42-33.89,5-10.9,8.91-22.12,9.39-34.27.25-.59.75-1.2.73-1.78-.4-10.11-.43-20.26-1.41-30.32-1.21-12.49,1.37-23.82,8.52-35.19-.89,6.91-3.59,12.61-2.76,18.78.64,0,1.06.13,1.26,0,8.91-6.63,18.53-12.22,26.74-19.87,8.52-7.95,15.76-16.65,19.86-27.6,3.24-8.68,6-17.55,8.94-26.34,2.57-7.6,5.91-14.78,11.12-21,5.76-6.88,12.27-12.62,21.29-14.78a22.48,22.48,0,0,0,3.33-1c1.87-.77,1.4-1.88.3-3-4.88-13.54-8.78-27.31-10-42.6l6.38,5.45.8-.44q-2.1-5.2-4.21-10.39a54.6,54.6,0,0,0-1.4-5.74c-4.44-12.46-11.28-23.69-18.56-34.6-11.72-17.56-23.85-34.84-35.69-52.32a17.4,17.4,0,0,1-2.47-6.3c-.73-3.72-.7-7.61-1.53-11.3-2.45-10.91-7.53-20.83-12.16-30.91-1.2-4.32-2.22-8.7-3.65-13-2.71-8-7.62-14.73-13.57-20.64a3.93,3.93,0,0,0-3.43-.68c-1.63.63-1.69,2.22-1,3.82,1.6,3.67,3.24,7.26,8.75,6.57-3.51,2.63-3.1,2.48-1.7,6.2,1.19,3.16,4.52,1.27,6,3.27-4.26,2-4.26,2-3.46,7.68.6,4.24.6,4.24,7.16,5.78a45.26,45.26,0,0,1-8.59,1.07A63.5,63.5,0,0,0,331,60.69a27.3,27.3,0,0,1-2.74,1.42,9.54,9.54,0,0,1,2.45-3.39c1.5-1.37,1.47-2.63.4-4.34-6.74-10.73-14-21.05-22.84-30.18-.78-.8-2.18-1-3.29-1.49-.55,1.3-1.78,2.78-1.51,3.88a31.56,31.56,0,0,0,3.07,7.22c1.3,2.4,3.14,3.92,6,2,.22-.15.74.17,1.65.42-1.42,1.24-2.48,2.15-3.63,3.14,1.4,2.35,2.85,4.4,3.9,6.63,1.38,3,3.27,3.89,6.25,2.43.07,0,.39.42.59.65-3.08,3.79-2.89,3.71-.92,8.47,2.54,6.13,4.79,12.37,7,18.61,1.14,3.16,1,3.25,4.33,2.17,7.26-2.36,14.12-1.8,20.39,2.8a10.82,10.82,0,0,1,4.67,6.13c-10.39-8.19-17.52-8.71-28.54-2.57-4.21,2.34-8.28,2-11.95-1.11-1-.85-1.86-1.91-2.92-2.71-4.19-3.17-9.87-3.53-13.53-.95-2,1.42-2.08,2.6.18,3.49,6.5,2.6,11.54,7.12,16.4,11.93,3.77,7,9.94,10.4,17.51,11.74,1.79.31,3.55.89,5.35,1.09,8.45,1,13.65,5.77,17.15,13.32,5.43,11.69,7.55,24.1,7.86,36.73s-.47,25.28-.85,37.92a27.59,27.59,0,0,0,6.8,19.29c4.52,5.33,9.21,10.51,13.77,15.81,1.15,1.34,2.11,2.85,3.15,4.28l-.66.43-2.91-1.78c-3.83-5-8.69-6.25-14.52-3.92a3.54,3.54,0,0,1-.49.1c-16.42,4.27-28.13,13.92-34,30.05a112.67,112.67,0,0,0-6.14,27.69c-.47,2.77-.93,5.54-1.4,8.31a51.07,51.07,0,0,1-1.6-10c-.24-2.34-.62-4.68-.94-7a27.57,27.57,0,0,0-3.88.41c-12.27,3-21.15,10.33-27.09,21.37-3,3.27-2.18,7.11-1.43,10.82,1.32,6.47.87,12.46-3.46,17.84-1.7,2.11-3,4.49-4.53,6.73,7.72-2.33,15.23-4.71,22.83-6.79,1.68-.45,3.66.2,5.51.34-13.34,3.45-25.47,9.53-37,16.95a22.92,22.92,0,0,0-2.86,2c-6.63,6.07-13.29,12.1-19.79,18.31a16.06,16.06,0,0,1-11.09,4.95c-6,.1-11.94.07-17.92,0-4.74,0-8.29-2.23-11.78-5.52C205.17,360.27,197.76,354.38,190.58,348.23Zm2.79-104a55.66,55.66,0,0,0-3.06,16.4l2.75-3.08a14.49,14.49,0,0,1-.95,5.4,419.55,419.55,0,0,0-13.2,47.39c-1.38,6.64-1.63,12.79,3,18.34,3.27,4,6.23,8.27,9.82,11.93,7.34,7.49,15.07,14.59,22.51,22a15.19,15.19,0,0,0,10.72,4.56c4.83.14,9.67.2,14.49,0,3.83-.16,7.61-.88,10.56-3.72,7.21-6.92,14.76-13.52,21.52-20.85,5.26-5.7,9.6-12.27,14.23-18.54,2.11-2.85,2.17-6.18,1.45-9.56-3.82-18-9.07-35.64-14.69-53.16-.58-1.83-1.31-3.61-2-5.41l.69-.31,3.61,5.18.84-.43q-2-8.11-3.95-16.21c-3.91-12.28-11.9-21.77-21.58-29.7-7.72-6.33-16.84-8.33-26.63-4.79C211.82,213.86,196.05,232,193.37,244.23ZM338.77,37.14c-.49.75-.6,1.09-.84,1.26-4.09,2.86-4.1,2.86-2.35,7.51.24.62.51,1.22.75,1.84,2.22,5.87,2.22,5.87,8.21,3.54,4-1.55,3.89-1.53,3-5.6-2.29-10.84-8.32-19.82-14.29-28.82-2.2-3.32-4.53-6.57-7-9.68-.7-.88-2.5-1.87-3.22-1.54a5.4,5.4,0,0,0-2.55,3.26,7.71,7.71,0,0,0,.42,4.38A60.11,60.11,0,0,0,324,19.52a3,3,0,0,0,3.66,1.8,22.27,22.27,0,0,1,3.65,0l-4.67,3.37c1.27,2.67,2.41,5.06,3.57,7.45C332.79,37.46,332.79,37.46,338.77,37.14Zm-212.51-.27a14.31,14.31,0,0,1,1.87.32c2.8.86,4.31-.42,5.4-2.89,1.4-3.17,3-6.24,4.57-9.36l-4.18-3.31c2.15-.1,4.58.52,5.5-.39,3.23-3.18,5.62-7.1,5.35-11.89A4.48,4.48,0,0,0,142.53,6c-.9-.34-2.79.6-3.55,1.53a118.37,118.37,0,0,0-8,10.84c-4.47,7-9.53,13.65-11.78,21.82-.87,3.15-1.67,6.31-2.5,9.47,2.91,1.14,5.82,2.29,8.74,3.4.25.1.6-.08,1.22-.19.63-1.87,1.29-3.9,2-5.92C130.73,41,130.73,41,126.26,36.87ZM344.33,23.69c1.44,2.87,2.85,5.51,4.08,8.23.69,1.53,1.43,2.53,3.34,2.12a8,8,0,0,1,2.49.29c-2.93,1.48-3.93,3.06-3.07,6.44,2.06,8.13,1.83,8.19,10.18,7.42a5.81,5.81,0,0,0,1.47-.65,67.36,67.36,0,0,0-1.48-6.84,115.65,115.65,0,0,0-4.27-11.59,84.71,84.71,0,0,0-5.5-10A94,94,0,0,0,344.47,9a5,5,0,0,0-4.28-1.42c-2.1.58-2.24,2.93-1.6,4.65a20.88,20.88,0,0,0,3.73,6.91c1.19,1.27,3.61,1.4,5.89,2.17ZM110.48,34.63c4,.37,6-1.26,7-4.58a16.52,16.52,0,0,1,1.09-2.24c.56-1.19,1.74-2.54,1.49-3.53s-1.87-1.79-3-2.76c1.9-.3,4.37,0,4.94-.91a47.66,47.66,0,0,0,4.46-9.83c.25-.74-1-2.44-2-3a3.23,3.23,0,0,0-3,.7,86.45,86.45,0,0,0-7.65,9.76c-2.13,3.31-3.41,7.16-5.51,10.49-3.72,5.92-5,12.43-6,19.39l9,.78c.64-2.3,1.19-4.53,1.88-6.72C114.09,39.19,114.89,36.33,110.48,34.63ZM279.1,267.51c-.09.69-.42,1.42-.19,1.86.8,1.52,2.17,2.82,2.61,4.41.51,1.83.13,3.88.38,5.81a19.46,19.46,0,0,0,1.34,3.65C286.16,276.21,284.53,270.31,279.1,267.51Zm8.71,19.09c-1.74,4-1.41,6.19,1.42,10.82C293.4,289.81,293.4,289.81,287.81,286.6ZM176.26,297.77c.93-3.27,1.68-5.6,2.21-8a2.58,2.58,0,0,0-.64-2.19,2.44,2.44,0,0,0-2.18.18,40.33,40.33,0,0,0-3.73,2.84Zm5.45-14.6c1.22-3.71,2.77-6.31,1.34-9.41-.15-.33.37-1.18.79-1.52,1.73-1.37,1.76-1.33.94-3.92C180.43,271.84,179.34,276.18,181.71,283.17Z"/><path class="cls-2" d="M14.64,190.27A134.85,134.85,0,0,1,31.17,155.9q18.22-26.79,36.62-53.46c3-4.32,5.3-8.77,5.5-14.1.37-9.68,4.13-18.37,7.92-27,1.66-3.77,3.46-7.48,5.2-11.22-.55,2.56-1,5.13-1.65,7.67-2.29,9.46-5,18.83-6.82,28.38-1.58,8.43,3.9,14.86,11.59,14.12,2.14-.21,4.31,0,6.47-.08A24.29,24.29,0,0,1,106.65,102a24.44,24.44,0,0,0,10,2.15c10.89-.23,21.25-2.68,30.35-9.13a32,32,0,0,1,3.41-1.85c-1.81,2.35-3.57,4.75-5.43,7.06a13.5,13.5,0,0,1-8.71,5.31c-2.28.33-4.47,1.42-6.75,1.61-12.41,1-19.22,8.47-23,19.62a100.23,100.23,0,0,0-5.77,31.69c-.08,11.13.14,22.3,1,33.39.89,11.76-3.53,21-11.48,29.1-3.61,3.67-7,7.6-10.36,11.48a6.66,6.66,0,0,0-1.52,3.71l4.2-2.86a17.06,17.06,0,0,0,3.65,1.92c10.81,2.58,20.69,7,28.61,14.94,9,9,14.1,20.23,17.71,32.22,1.14,3.78,2,7.63,3,11.44,0,.14.67.31.74.23a3.26,3.26,0,0,0,.35-.92l1.82,3.43c.43-5.91.77-10.8,1.16-15.68.09-1.2-.21-3,2.07-1.82-1.64,3.78-1.54,3.9,1.91,5.32a56.55,56.55,0,0,1,16.16,9.56c3,2.68,6.19,5.24,9.58,8.1l.28-3.9c4.21,3.89,5,8.86,3.57,14-2,7.4-.19,13.73,4.23,19.62,1.19,1.59,2.3,3.23,3.47,4.86-6.91-2.18-13.76-4.43-20.67-6.46a62.91,62.91,0,0,0-8.75-1.7,8.08,8.08,0,0,0-2.77.6c-2.21-.27-4.42-.57-6.63-.82s-2.74,1.09-2.51,3l-.18,5.21c-.6-4.54-1.08-9.09-1.83-13.6-.84-5.08-1.91-10.11-2.88-15.16l-.9.15-.36,3.4c-1.15,2.77-3.29,1.13-5.06,1.13A60.31,60.31,0,0,1,109,305.17c-18.63-10.7-28.22-27.72-33.5-47.77.08-1.42.41-3-1.21-3.49a43.93,43.93,0,0,0,.08,28.49C62,275,54.1,264,43.71,255.84c-3.77-3-7.21-6.42-11.23-9-7.31-4.62-15.16-7.57-24-4.55-.53-.4-1.58-1-1.51-1.19a31.45,31.45,0,0,1,1.62-3.9c.2,1,.57,2.38,1.54.67,3-5.28,6.12-10.55,8.62-16.08,5.88-13,4.26-27.13,5.49-41a45.28,45.28,0,0,0-4.79,6.56C18.31,189.28,16.91,190.44,14.64,190.27ZM63.36,231.7c9.82-1.81,20-17.42,18.9-31.43C79.37,206.13,77,211.79,73.88,217S66.85,226.89,63.36,231.7ZM97.61,117.52l.84.62c3-4,6-7.92,9-11.94.23-.32-.2-1.13-.52-2.62C102.24,107.87,99.79,112.6,97.61,117.52Z"/><path class="cls-3" d="M324.5,279.39c.32,2.34.7,4.68.94,7a51.07,51.07,0,0,0,1.6,10c.47-2.77.93-5.54,1.4-8.31.12,1.46.24,2.92.36,4.4,2.61-7.34,4.81-14.77,7.85-21.83,7.62-17.72,20.15-30.09,39.52-34.5,2.5-.57,5-1.32,7.46-2l2.91,1.78.66-.43c-1-1.43-2-2.94-3.15-4.28-4.56-5.3-9.25-10.48-13.77-15.81a27.59,27.59,0,0,1-6.8-19.29c.38-12.64,1.16-25.29.85-37.92s-2.43-25-7.86-36.73c-3.5-7.55-8.7-12.36-17.15-13.32-1.8-.2-3.56-.78-5.35-1.09-7.57-1.34-13.74-4.75-17.51-11.74.33,0,.76-.16,1,0,6.12,4.24,13.18,5.9,20.28,7.49,8.06,1.8,16,2.66,23.59-1.86,1.86-1.1,4.41-1.33,6.65-1.38a85.59,85.59,0,0,1,8.87.67c3.93.33,6.7-1.67,8.78-4.67,2.21-3.18,2.38-6.92,1.67-10.53-1.17-6-2.69-11.89-4.14-17.81-1.4-5.74-2.91-11.45-4.37-17.18,4.63,10.08,9.71,20,12.16,30.91.83,3.69.8,7.58,1.53,11.3a17.4,17.4,0,0,0,2.47,6.3c11.84,17.48,24,34.76,35.69,52.32,7.28,10.91,14.12,22.14,18.56,34.6a54.6,54.6,0,0,1,1.4,5.74l-10.12-9.92c.4,6.37.66,12,1.13,17.58a109.54,109.54,0,0,0,1.56,12.26c2.19,10.72,7.14,20.22,13.42,29.09-3.12.22-6.33.06-9.36.73-14.63,3.25-25.24,12.67-34.68,23.54-5.81,6.7-12.76,11.79-20.89,17.29,1.17-10.12,1.83-19.26-1.74-28.15-.07,1.25-.14,2.51-.22,3.76-1.71,8-5.2,15.27-9,22.47-9.2,17.62-23.88,27.87-42.89,32.48l-6.26,1.87c-.53-1.84.63-4.11-1.59-6.25-.87,4.85-1.72,9-2.38,13.26-.72,4.7-1.27,9.43-1.9,14.14l-1.05-6.18c-2.23-1.79-4.65-.94-7-.45-1.74.36-3.45.89-5.17,1.35-1.85-.14-3.83-.79-5.51-.34-7.6,2.08-15.11,4.46-22.83,6.79,1.49-2.24,2.83-4.62,4.53-6.73,4.33-5.38,4.78-11.37,3.46-17.84-.75-3.71-1.56-7.55,1.43-10.82.55.55,1.36,1.67,1.62,1.56a8.11,8.11,0,0,0,2.25-1.87c6.77-6.85,14.34-12.58,23.56-15.68C324.1,284.12,325,282.36,324.5,279.39Zm57.93-80.59c1.36,14.07,4.43,27.14,19.8,33.67-4.15-5.81-8.27-10.8-11.5-16.31S385.16,204.61,382.43,198.8Zm-24.38-93.68c2.32,5.44,6.44,9.71,9.9,14.41C365.36,111.49,362.36,106.93,358.05,105.12Z"/><path class="cls-4" d="M131.53,714.26c-2.25-5.19-1.88-10.66-1.65-16.08a48.77,48.77,0,0,1,1-5.76l4.18,3.34.84-.5c-1.4-3.24-2.73-6.51-4.22-9.7-5.19-11.12-6.62-22.79-5.45-34.89,1.83-18.8,8.81-35.92,16.88-52.73,3.22-6.71,5.95-13.65,8.74-20.56a57.93,57.93,0,0,0,1.9-7.1c2.08.37,4.36.35,6.22,1.21a82.32,82.32,0,0,1,12.6,6.84c5.76,4.06,10.62,9.21,12.9,16.06,3.09,9.27,5.94,18.63,5.18,28.64-.12,1.71.54,3.47.84,5.2,1.11,14.86,2.81,29.7,2.14,44.64a82.33,82.33,0,0,1-3.95,22.38c-1.1,1.15-2.28,2.24-3.3,3.48-4.51,5.5-10,8.79-17.38,7.52-2.86-.5-5.67-1.3-8.5-2-3.26-3.92-4.87-8.61-5.86-13.48-1.05-5.17-1.77-10.41-2.64-15.61A35,35,0,0,0,166.69,714l-.12,3.21-2,2a53.49,53.49,0,0,1-22.21-1.89C138.76,716.24,135.14,715.28,131.53,714.26Zm21.52-75.74q3.66-18.75,7.31-37.5A82.41,82.41,0,0,0,153.05,638.52Z"/><path class="cls-5" d="M311.51,570.26c1,7.54,4.7,14.14,7.67,21s6.2,13.61,9.28,20.43a124,124,0,0,1,10.83,41.21A64.46,64.46,0,0,1,333,687.26c-2.18,4.37-2.14,4.4-2.22,7.75.81-.57,1.4-1,2-1.42s1.31-.84,2.54-1.61c.41,8.27.68,15.82-1.85,23.19-1.53-1-2.95-.66-4.68-.18-7.44,2.07-14.71,5.11-22.73,4.33-1.4-.14-2.89.55-4.33.87L297.63,716v-1.49c14.55-10,19.71-23.54,15.32-40.63-.47,4-.94,7.7-1.33,11.44-.78,7.43-3.19,14.18-8.09,19.93a12.69,12.69,0,0,0-3,.19c-7.36,2.28-13.63.38-19.11-4.78l-6.79-6.41c-1-6.33-2.55-12.63-3-19a190.3,190.3,0,0,1,1.69-39.54c.26-1.8.23-3.63.33-5.45.31-4.23.61-8.47.94-12.7a38.62,38.62,0,0,1,.57-5.39c.65-2.88,1.82-5.66,2.29-8.56,2.65-16.21,12.74-26.11,27.23-32.19C306.78,570.52,309.24,570.61,311.51,570.26Zm-6,32.88,6.57,35.21A73.58,73.58,0,0,0,305.52,603.14Z"/><path class="cls-6" d="M311.51,570.26c-2.27.35-4.73.26-6.79,1.13-14.49,6.08-24.58,16-27.23,32.19-.47,2.9-1.64,5.68-2.29,8.56a38.62,38.62,0,0,0-.57,5.39c-.33,4.23-.63,8.47-.94,12.7v-21.1h-.61c-.46,3.1-.93,6.19-1.39,9.28l-.36-7.51-1.05-.18c-1.9,4.18-4,8.28-5.67,12.54-4.36,10.94-6.43,22.16-4.23,34,1,5.33,1.42,10.77,2.1,16.16-8.11-10.11-13.27-21.69-16.89-34-.18-.63-.23-1.3-.43-1.93-1.89-5.93-2-10.73,3.18-16,6.8-6.94,10.11-16.49,13.43-25.83-.84,1.08-1.7,2.15-2.51,3.25-4.21,5.76-8.7,11.35-12.54,17.35-4.72,7.39-19.55,10.14-26.13,1.81-5.23-6.64-10.41-13.33-15.6-20a4,4,0,0,0-2.52-1.85c2.8,5.54,5.33,11.23,8.48,16.55a88.07,88.07,0,0,0,8.81,12,6.35,6.35,0,0,1,1.62,5.87,105.15,105.15,0,0,1-14.82,37.18c-1.25,1.92-2.58,3.8-3.88,5.69-1.58-3.47-.25-6.68.71-10a58.72,58.72,0,0,0,.67-30.38c-1.69-7-4.7-13.43-8-19.75a21.16,21.16,0,0,0-1.84-2.53l-.76.25v8.45c-.27-1.42-.63-2.82-.78-4.25s0-2.6,0-3.9h-1l-.21,17c-.3-1.73-1-3.49-.84-5.2.76-10-2.09-19.37-5.18-28.64-2.28-6.85-7.14-12-12.9-16.06a82.32,82.32,0,0,0-12.6-6.84c-1.86-.86-4.14-.84-6.22-1.21.32-6.57.89-13.08,4.34-19.68,8.71,8.56,17.4,16.1,28.11,21L183,568.23c-6.63-7-13.48-13.84-19.78-21.14-3.86-4.48-7.55-9.37-7.71-15.8.87.62,2,1.05,2.55,1.88,4,6.59,9.62,11.75,15.06,17.05,7.51,7.34,16.75,12.15,25.84,17.17,2.72,1.5,2.65-.31,2.64-2.12,2.24,1.36,4.46,2.76,6.72,4.08A20.07,20.07,0,0,0,222,572.1c1-.15,3,.2,2.46-2.05,4.29-2.12,8.68-2.82,13.27-1a1.91,1.91,0,0,0-.33.37c-.07.14-.12.43-.07.46,6.48,3.44,12.92,3.48,19.28-.32,1.7-1,3.37-2.07,5.05-3.1.57,3,2.26,1.55,3.67.89a114.07,114.07,0,0,0,24.59-15.64c8.09-6.77,15.19-14.15,18.8-24.33.29-.83,1.24-1.42,1.89-2.12.57,9.34-4.25,16.55-9.84,23.15S289,561,283,567.22c-1.36,1.42-3,2.56-4.1,4.36,10.9-4.61,19.37-12.52,28.43-20.56A35,35,0,0,1,311.51,570.26Z"/><path class="cls-7" d="M128.41,312.33c1.77,0,3.91,1.64,5.06-1.13.06,6.81-.2,13.65.25,20.44.45,6.62,1.21,13.2.62,21.1-9.24-16.31-21.8-26.9-38.11-33a4.21,4.21,0,0,0,1.16,1.64c6.85,6.28,13.94,12.32,20.5,18.88a59.06,59.06,0,0,1,11.94,18.19c5.33,12,9.24,24.44,13,37,3,10.19,7.34,19.83,14.46,28-2.26.93-1.28,2.5-.78,4-.45,1.47-.89,2.94-1.37,4.51-9.29-3.14-14.19-10.14-16.74-19.3l-1,.45v7.29c-6.72-4.81-13.73-9.23-18.59-16.23-3.57-5.15-7.57-10-11.27-15.08-.86-1.19-1.56-1.6-2.78-.74.32-7.78.84-15.57.88-23.35a81.75,81.75,0,0,0-1.11-15.33c-1-5.7-3.86-10.84-7.25-15.66,1.22,6.29,3.68,12.36,3.08,19.84-6-4.11-11.49-7.75-16.86-11.54C73.35,335.07,64,327,57.93,316c-3.69-6.62-6.47-13.78-9.2-20.88-2.68-6.94-4.55-14.2-7.17-21.16C37,261.8,29.5,251.85,17.65,245.79a85.13,85.13,0,0,0-9.19-3.47c8.86-3,16.71-.07,24,4.55,4,2.55,7.46,6,11.23,9C54.1,264,62,275,74.36,282.4a43.93,43.93,0,0,1-.08-28.49c1.62.53,1.29,2.07,1.21,3.49-.12,1.67-.59,3.41-.29,5a75.64,75.64,0,0,0,9.07,23.43c8.06,14.17,19.6,23.5,35.62,26.94C122.68,313.38,125.67,314.19,128.41,312.33Z"/><path class="cls-7" d="M389.67,257.42c.08-1.25.15-2.51.22-3.76,3.57,8.89,2.91,18,1.74,28.15,8.13-5.5,15.08-10.59,20.89-17.29C422,253.65,432.57,244.23,447.2,241c3-.67,6.24-.51,9.36-.73.34-.35.69-.69,1-1,1.1,1.13,1.57,2.24-.3,3a22.48,22.48,0,0,1-3.33,1c-9,2.16-15.53,7.9-21.29,14.78-5.21,6.21-8.55,13.39-11.12,21-3,8.79-5.7,17.66-8.94,26.34-4.1,10.95-11.34,19.65-19.86,27.6-8.21,7.65-17.83,13.24-26.74,19.87-.2.15-.62,0-1.26,0-.83-6.17,1.87-11.87,2.76-18.78-7.15,11.37-9.73,22.7-8.52,35.19,1,10.06,1,20.21,1.41,30.32,0,.58-.48,1.19-.73,1.78V386.88c-.6.3-.95.37-1.12.59-.69.92-1.38,1.85-2,2.83a117.59,117.59,0,0,1-20.67,25.1c-3,2.71-6.08,5.27-9.13,7.9.38-3.38.77-6.76,1.15-10.14l-.78-.06-1.69,2.14-12.66,2.12c3.13-7.11,6.6-14.08,9.3-21.35,3.74-10.07,6.73-20.42,10.36-30.54,2.69-7.51,6.13-14.71,11.27-20.94,6.9-8.34,14.34-16.12,23.14-22.52a31.83,31.83,0,0,0,2.83-2.8c-17.55,6.38-29.63,17.7-38.55,32.77l-.95-.49,1.38-37.25,6.26-1.87c2.05.18,4.21.89,6.12.47,12.46-2.75,23.32-8.13,31.31-18.65,7.56-10,12.85-20.82,15.06-33.13C390.51,259.92,389.9,258.64,389.67,257.42Z"/><path class="cls-8" d="M301.72,720.19c1.44-.32,2.93-1,4.33-.87,8,.78,15.29-2.26,22.73-4.33,1.73-.48,3.15-.8,4.68.18L326.79,732c6.79-4.76,9.68-11.58,12.53-19.12,2.73,4.05,3.58,8.24,4.18,12.32a64.88,64.88,0,0,1-6.82,40.49c-5.1,9.7-10.53,19.23-15.74,28.88-1.16,2.15-3.31,4.28-.66,7,.52.52.16,1.92.17,2.92a84.16,84.16,0,0,0,.08,9,22.31,22.31,0,0,1-7,19.61c-1.1-.83-2.32-1.86-3.66-2.73-2.69-1.73-3.19-1.54-5.19,1.86A22.19,22.19,0,0,0,301,830c-.93-.35-2.68-.5-3.07,0-1.57,2.07-2.48.63-3.58-.33-3-2.59-3-2.58-5.77,0-.57.53-1.2,1-2.61,2.18-.65-7.15-1.22-13.49-1.79-19.82-2.49,3.06-1.06,6.87-1.72,10.3-1.45-2.49-5.14-3.47-4.77-7.16a8,8,0,0,0,.45-2.65c-1.2-6.17-1.13-12.18,1.89-17.89,3.29-6.24,4.92-13,6.22-19.84a21.57,21.57,0,0,0-1.58-12.17,114.47,114.47,0,0,0-6.29-13.52c-6.14-10.94-4.05-21.3,1.59-31.92l12.71,8.32c-.07-3.56-2.29-5.5-4-7.68-2.29-2.84-4.89-5.44-7.12-8.34a34.34,34.34,0,0,1-6.84-15.26l6.79,6.41c5.48,5.16,11.75,7.06,19.11,4.78a12.69,12.69,0,0,1,3-.19c-1.82,2.32-3.69,4.61-5.41,7a5.91,5.91,0,0,0-.49,2.26V716c-.15.86-.72,2-.38,2.52,2.2,3.66,4.46,7.3,7,10.72,1.35,1.82,3.07,3.61,6.38,3.68Z"/><path class="cls-9" d="M166.57,717.21l.12-3.21c1.63-1.3-.07-1.88-.63-2.61-1.82-2.4-3.72-4.74-5.59-7.1,2.83.66,5.64,1.46,8.5,2,7.39,1.27,12.87-2,17.38-7.52,1-1.24,2.2-2.33,3.3-3.48-.66,7.38-5.19,12.71-9.62,18.1a143.82,143.82,0,0,0-9.24,12.22c5.47-1.73,9.52-5.54,14.29-9,5.39,9.37,7.79,18.82,2.87,29.11-2.29,4.78-4.51,9.58-6.72,14.4a26.36,26.36,0,0,0-1.39,19.36,121.51,121.51,0,0,0,5.71,15.33,22.7,22.7,0,0,1,1.48,14.5c-.63,3.27-1.07,6.57-1.59,9.86l-2.72,4.21c-.41-3.61-.78-7.21-1.25-10.81a6,6,0,0,0-.88-1.75c-.34,7.1-.68,14-1.08,22.15l-6.43-5.51a14.57,14.57,0,0,1-2.29,2.75c-.69.5-2.22,1-2.58.62-3-2.94-5.07-.67-7.18,1.3-2.08-.21-2.38-4.28-5.23-2.39-1.63,1.08-3.21,2.23-4.9,3.41-1.93-2.74-3.85-5.21-5.45-7.88a8,8,0,0,1-.71-3.8c-.06-5.83,0-11.66,0-17.48,0-.67-.26-1.57.08-2,2.83-3.4.26-6.07-1.21-8.76-4.84-8.89-9.83-17.71-14.75-26.56a66,66,0,0,1-8-32,42,42,0,0,1,5.19-21.57c2.3,7.83,5.69,14.22,12.11,18.87-2.28-6.09-4.46-11.89-6.63-17.69,3.61,1,7.23,2,10.82,3.08a53.49,53.49,0,0,0,22.21,1.89l-9.86,13.09c.54.39.69.58.8.56a4.61,4.61,0,0,0,1.38-.42c5.22-3,8.33-7.79,10.52-13.23C167.59,718.75,166.87,717.89,166.57,717.21Z"/><path class="cls-4" d="M271.68,244.13q2,8.1,3.95,16.21l-.84.43-3.61-5.18-.69.31c.67,1.8,1.4,3.58,2,5.41,5.62,17.52,10.87,35.14,14.69,53.16.72,3.38.66,6.71-1.45,9.56-4.63,6.27-9,12.84-14.23,18.54-6.76,7.33-14.31,13.93-21.52,20.85-3,2.84-6.73,3.56-10.56,3.72-4.82.21-9.66.15-14.49,0a15.19,15.19,0,0,1-10.72-4.56c-7.44-7.39-15.17-14.49-22.51-22-3.59-3.66-6.55-7.95-9.82-11.93-4.58-5.55-4.33-11.7-3-18.34A419.55,419.55,0,0,1,192.11,263a14.49,14.49,0,0,0,.95-5.4l-2.75,3.08a55.66,55.66,0,0,1,3.06-16.4,13.16,13.16,0,0,0,1.57-1.79,70.2,70.2,0,0,1,22.53-23.52c9.55-6.18,19-7.48,29.15-.79a69.85,69.85,0,0,1,23.1,24.26C270.09,243,269.85,244.92,271.68,244.13Zm-70,92.2a11.47,11.47,0,0,0,.05,3.47c1,2.93,1.86,6,3.55,8.55,1.22,1.8,1-.44,1.27-1.09,4.94,6.14,10.25,11.86,18.54,13.14a52.61,52.61,0,0,0,11.81.7c7.5-.57,14.16-3.19,18.66-9.75a17.51,17.51,0,0,1,2-2.13c.77,0,2,.28,2.26-.1,3-4,4.74-8.36,3.38-13.41-.67-2.53-1.67-5-2.52-7.47-1.68-4.93-4.92-9.44-4-15.06l1.86-2c.45,2.15.89,4.31,1.36,6.59,3.08-4,5.45-8.07,8.83-11.06,4.13-3.65,4.75-7.84,3.65-12.54a11.14,11.14,0,0,1,.43-5.72c.58-2.33,1.15-5,.5-7.22-2.07-6.94-9.4-11.17-16.79-10.27l-10.84,1.32c-1.18-.26-2.68-.49-1.25-2.09a9.12,9.12,0,0,1,2.94-1.8c3.22-1.55,6.46-3,10.41-4.9-4.33-.71-7.27.83-10.28,2.17-1.6.71-3.36,1.06-4.41-.76-1.15-2,.36-2.9,1.89-3.82,2.51-1.52,4.91-3.2,7.78-5.09-2-.32-3.57-.12-4.53-.81-2.64-1.9-4.89-4.33-7.5-6.27-6.9-5.13-5.92-7.34-15.32-1-1.5,1-3,2-4.48,3.13-1,.78-2.78,1.64-2.83,2.55-.18,2.72-2.7,2.23-4.54,3.31,2.21,1.36,3.9,2.34,5.54,3.41,3.54,2.32,3.52,2.34,1.82,6.54-4-1.3-7.64-4.6-12.37-3.44,4.08,2.18,8.08,4.12,11.85,6.43,1.83,1.12,1,2.14-.85,2.4-4.94-.4-9.9-1.22-14.83-1.11-9.29.21-15.33,9.78-12,18.33a11.35,11.35,0,0,1,.57,4.27c-.07,2.78-.36,5.56-.55,8.33-.17,3.13-.57,6.27,1.43,9.1C199.47,318.71,201.53,327.24,201.67,336.33Z"/><path class="cls-10" d="M312.45,330.11c1.72-.46,3.43-1,5.17-1.35,2.37-.49,4.79-1.34,7,.45a52.71,52.71,0,0,1-.71,5.36c-1.76,7.51-3.17,15.14-5.55,22.46-4.57,14.08-8.51,28.45-15.94,41.42-1.61,2.8-3.89,5.2-5.86,7.78-3.67-1.83-6.66-.4-9.21,2.17-2.32,2.32-2.8,5.05-.84,7.93a21.27,21.27,0,0,1-3.2,3A67.6,67.6,0,0,1,259.2,428a24.59,24.59,0,0,1-12.2-1c-5.59-2.12-11.48-4.78-12.6-12,0-3,.28-6,.1-8.92s1-4.85,3.73-6.2c4.44-2.22,8.73-4.75,13.08-7.14-.14-.33-.29-.65-.44-1l-15.3,6.42c0-.5,0-1,0-1.5-.07-7,.09-6.7,6.45-9.78,6.65-3.23,13.42-6.54,17.62-13.19s8.4-13,12.46-19.64a72.15,72.15,0,0,0,3.38-7C287,339.64,299.11,333.56,312.45,330.11Z"/><path class="cls-11" d="M139.62,331.2c-.23-1.9.2-3.26,2.51-3s4.42.55,6.63.82c14.08,3.29,26.94,9.39,39.16,17a24.07,24.07,0,0,1,2.66,2.22,8.72,8.72,0,0,0,.55,2.87c4,6.82,8,13.68,12.3,20.29,1.76,2.7,4.42,4.81,6.7,7.16,4.38,4.51,10.27,6.54,15.66,9.39,2.93,1.56,4.11,6,2.56,9.48L211.51,391l-.12.48q9.08,5.43,18.14,10.87c0,4,.13,8,0,11.93-.05,1.61-.14,3.49-1,4.75-3.37,5.16-7.86,8.74-14.37,9.28-12.42,1-23.32-3.47-33.87-9.21-.82-.45-1.16-1.79-1.73-2.72a5.33,5.33,0,0,0-.4-7.51c-2.61-2.74-5.74-4.27-9.63-2.6-4.46-2.54-6.6-7-8.49-11.31-7.11-16-12.14-32.72-16.63-49.61C142.22,340.6,140.91,335.9,139.62,331.2Z"/><path class="cls-5" d="M104.73,388.25c1.22-.86,1.92-.45,2.78.74,3.7,5.07,7.7,9.93,11.27,15.08,4.86,7,11.87,11.42,18.59,16.23,1.54,6.52,5.59,11.4,11.94,12.56,6.05,1.11,9.48,4.21,12,9.24a16.78,16.78,0,0,0,1.38,2,45.1,45.1,0,0,0-6.16.17c-.74.11-1.33,1.29-2,2-1.33-2.56-2.67-5.11-4.45-8.51-.4,2.78-.66,4.56-1,6.57-5.36-1.83-7.74-6-10-10.33-.5,7.2,1.92,10.92,8.16,13.25,2.15.81,4.6,1.23,5,4.12a25.73,25.73,0,0,0,.07,4.48c.64,3.45,1.5,6.87,2.27,10.3-7.62-3.05-10.17-10.52-14.17-17.67-1.4,7.89,1.76,13.49,9.14,17.72-.56.55-1.71,1.36-1.6,1.6,3.07,6.75,6.37,13.36,11.44,18.93,1.43,1.56,2.82,1.23,4.41.75,1.66.54,3.38,1.63,5,1.5,4.06-.34,8.08-1.24,11.51-1.81,2.26,4.87,4.62,9.92,6.94,15a5.47,5.47,0,0,1,.81,2.66c-.64,4.84-1.44,9.67-2.22,14.73a111.47,111.47,0,0,0-21.52-22c1.81,2.55,4.15,4.6,6.12,7,4.55,5.49,9.38,10.83,13.25,16.78,4.65,7.14,9.62,14.27,9.84,23.47a32.69,32.69,0,0,0,8,20.48c0,1.81.08,3.62-2.64,2.12-9.09-5-18.33-9.83-25.84-17.17-5.44-5.3-11.05-10.46-15.06-17.05-.51-.83-1.68-1.26-2.55-1.88-.58-4.57-1.45-9.12-1.67-13.7-.3-6.15-.11-12.31-.1-18.47a24.06,24.06,0,0,0-4.37-14.57c-5.6-7.61-11.38-15.12-17.46-22.36-14.24-16.94-23.52-36.07-26.32-58.12C104.88,398.85,105,393.53,104.73,388.25Z"/><path class="cls-12" d="M326.76,423.3c3.05-2.63,6.15-5.19,9.13-7.9a117.59,117.59,0,0,0,20.67-25.1c.61-1,1.3-1.91,2-2.83.17-.22.52-.29,1.12-.59v14.48c-.48,12.15-4.38,23.37-9.39,34.27-5.82,12.67-14.46,23.38-23.42,33.89-3.34,3.91-6.47,8-9.47,12.17a32.28,32.28,0,0,0-5.94,18.67c-.18,8.3-.57,16.59-.86,24.88-.65.7-1.6,1.29-1.89,2.12-3.61,10.18-10.71,17.56-18.8,24.33a114.07,114.07,0,0,1-24.59,15.64c-1.41.66-3.1,2.09-3.67-.89,6.95-5.73,8.78-13.75,10-22.09.47-3.25.63-6.77,2.06-9.6,6.24-12.38,13.77-23.9,24-33.43a37.6,37.6,0,0,0,2.73-3.15c-8.7,5.64-15.34,13.24-21.25,21.46-.76-4.81-1.5-9.21-2.15-13.61a5.58,5.58,0,0,1,.08-2.85c2.42-5.55,5-11.05,7.52-16.68a17.7,17.7,0,0,0,3,1.12c4.67.94,9.37,1.78,14-.4,2.59,1.68,4-.2,5.23-1.92a107.85,107.85,0,0,0,6.87-10.86c1.34-2.55,1.94-5.5,2.87-8.27,5.69-3.88,9.43-8.69,7.61-17-2.89,7.66-6.47,13.88-13.5,17.22.82-3.1,1.83-6.18,2.37-9.33.27-1.55-.36-3.25-.59-4.89a9.36,9.36,0,0,1,6.57-6c5.28-1.62,7-5,6.1-10.85-2.22,4-4.23,7.83-9.15,8.8-.26-1.86-.49-3.45-.81-5.76-1.39,2.48-2.34,4.17-3.28,5.87-2.08.16-4.16.41-6.24.44a32.44,32.44,0,0,1-4.13-.47c1.74-2.41,3.54-4.78,5.19-7.24a6,6,0,0,1,4.37-2.74C317.89,433,323.39,429.6,326.76,423.3Z"/><path class="cls-13" d="M378.76,50.07c1.46,5.73,3,11.44,4.37,17.18,1.45,5.92,3,11.83,4.14,17.81.71,3.61.54,7.35-1.67,10.53-2.08,3-4.85,5-8.78,4.67a85.59,85.59,0,0,0-8.87-.67c-2.24,0-4.79.28-6.65,1.38-7.64,4.52-15.53,3.66-23.59,1.86-7.1-1.59-14.16-3.25-20.28-7.49-.21-.15-.64,0-1,0-4.86-4.81-9.9-9.33-16.4-11.93-2.26-.89-2.2-2.07-.18-3.49,3.66-2.58,9.34-2.22,13.53.95,1.06.8,1.91,1.86,2.92,2.71,3.67,3.09,7.74,3.45,11.95,1.11,11-6.14,18.15-5.62,28.54,2.57a10.82,10.82,0,0,0-4.67-6.13c-6.27-4.6-13.13-5.16-20.39-2.8-3.32,1.08-3.19,1-4.33-2.17-2.24-6.24-4.49-12.48-7-18.61-2-4.76-2.16-4.68.92-8.47-.2-.23-.52-.69-.59-.65-3,1.46-4.87.52-6.25-2.43-1.05-2.23-2.5-4.28-3.9-6.63,1.15-1,2.21-1.9,3.63-3.14-.91-.25-1.43-.57-1.65-.42-2.88,1.91-4.72.39-6-2a31.56,31.56,0,0,1-3.07-7.22c-.27-1.1,1-2.58,1.51-3.88,1.11.48,2.51.69,3.29,1.49,8.83,9.13,16.1,19.45,22.84,30.18,1.07,1.71,1.1,3-.4,4.34a9.54,9.54,0,0,0-2.45,3.39A27.3,27.3,0,0,0,331,60.69a63.5,63.5,0,0,1,34.32-10.5,45.26,45.26,0,0,0,8.59-1.07c-6.56-1.54-6.56-1.54-7.16-5.78-.8-5.64-.8-5.64,3.46-7.68-1.53-2-4.86-.11-6-3.27-1.4-3.72-1.81-3.57,1.7-6.2-5.51.69-7.15-2.9-8.75-6.57-.69-1.6-.63-3.19,1-3.82a3.93,3.93,0,0,1,3.43.68c5.95,5.91,10.86,12.6,13.57,20.64C376.54,41.37,377.56,45.75,378.76,50.07ZM332.5,69.78c16.81-.57,28.14-2.77,34.81-8.19C360.14,61.56,337,66.83,332.5,69.78Zm34.37-1.86c-5.17,3.45-7.41,10.33-5.65,18Z"/><path class="cls-14" d="M150.46,93.16A32,32,0,0,0,147.05,95c-9.1,6.45-19.46,8.9-30.35,9.13a24.44,24.44,0,0,1-10-2.15A24.29,24.29,0,0,0,96,100.17c-2.16,0-4.33-.13-6.47.08-7.69.74-13.17-5.69-11.59-14.12,1.8-9.55,4.53-18.92,6.82-28.38.62-2.54,1.1-5.11,1.65-7.67,1.11-4,2.1-8,3.35-12a49.32,49.32,0,0,1,13.68-21.14c.76-.72,2.61-1.28,3.27-.85a4,4,0,0,1,1.16,3.3c-.56,4-3.3,6.28-8.32,7,2.32,1.83,2.18,3.62,1.21,6.1C99.55,35.58,97,35,94.41,35.38c3.93,3.17,3.26,3.2,3.47,8.76S93.15,47.38,90.4,50c17.16.33,33.16,2.11,47.18,12.34a40.55,40.55,0,0,0-3.34-3.7c-1.54-1.34-1.77-2.59-.52-4.24Q144.37,40.25,155,26.08a13.43,13.43,0,0,1,2.46-2.48c2-1.6,3.84-.85,4.28,1.64.47,2.67-3.35,10.63-5.92,11.57-1.2.44-2.78-.15-4.81-.33,5.37,4.58,0,7.28-1.31,10.75-1.2,3.19-3.49,1.2-6.65.9,4.62,3,3,5.77,1.74,8.84C141.74,64.3,139,71.79,136,79.6c-6.41-2.74-13.29-3.54-20.15-.26-3.76,1.79-6,4.06-8.74,9.45,1.61-1.33,2.37-1.94,3.11-2.57,7.33-6.26,16.12-7.17,24.56-2.54.73.4,1.41.89,2.13,1.31,4.47,2.54,8.64,1.8,12.47-1.74a20.9,20.9,0,0,1,6.52-4.36c4-1.5,7.83-.8,10.54,2.63ZM96.19,60.52c6.63,6,23.76,9.86,35.62,8C119.66,63.93,107.43,64.41,96.19,60.52Zm1.88,6.81c1.86,6.57,3.64,12.85,5.25,18.55C106.08,80.32,103.91,71.77,98.07,67.33Z"/><path class="cls-15" d="M277.67,815.17c-.37,3.69,3.32,4.67,4.77,7.16.67,4.38,1.33,8.76,2.15,14.15l7-6.5,4.5,4.17c3.32-3.17,3.32-3.17,6.32-.74,3.19,2.59,3.2,2.59,5.41-2.14,1.53,1.36,3,2.55,4.34,3.9s2.46,1.49,3.59-.25c.87-1.33,1.88-2.57,3-4.1,2.19,9-2.48,28.19-7.91,32.15l2.09-11.9-1-.26c-2.09,4.47-4.11,9-6.28,13.41-1.34,2.74-3.08,5.12-7.33,4.73.94-3,1.91-5.73,2.63-8.52s1.25-5.79,1.86-8.69l-1-.34-2.33,4.74c-2.21,4.47-4.24,9-6.68,13.38-2,3.64-3.47,3.89-8.18,2.29,1.34-3.5,2.84-6.95,4-10.51,1.1-3.4,1.85-6.91,2.75-10.38l-1-.37c-.6,1.06-1.25,2.09-1.81,3.16-2.44,4.72-4.83,9.48-7.31,14.18a15.45,15.45,0,0,1-2.55,3.67c-1.79,1.77-4.58,1.78-6.94.29s-3-3.27-1.92-6a113.62,113.62,0,0,1,4.87-10.93,18.34,18.34,0,0,0,1.82-12.11c-1.06-5.82-2.17-11.66-6.54-17.56.13,3,.21,4.81.32,7.25-1.59-1.41-4.2-.55-4.06-3.45,0-.16-1.85-.83-2.27-.51-2.23,1.69-4.31,3.58-6.38,5.47-1.84,1.67-3.38,3.76-5.43,5.07-3.64,2.33-9.43-.8-9.65-5.14a5.07,5.07,0,0,1,1.58-3.4,104.78,104.78,0,0,0,13.85-17c1.89-2.79,5-4.82,7.78-6.92s6-4.08,9-6.07C275.78,805.59,276.72,810.38,277.67,815.17Z"/><path class="cls-16" d="M182.72,823.34l2.72-4.21c3.13-5.67,4.3-11.82,4.31-19,6.52,4.24,12.63,8,17.33,13.78,4.32,5.27,8.68,10.5,13.16,15.62,2.95,3.37,3.26,4.61,1.08,7.24-2.61,3.13-6.16,3.88-9.18,1.73a34.32,34.32,0,0,1-4-3.7c-1-.94-1.78-2-2.72-2.92-3.36-3.33-3.46-3.31-7.87-.89a19.41,19.41,0,0,1-2.65,1c.15-2.09.28-4,.42-6l-.59-.39a22,22,0,0,0-2.12,3.27,50.21,50.21,0,0,0-4.27,18.35,15.88,15.88,0,0,0,1.34,6.24c1.6,4,3.6,7.85,5.26,11.84,1.35,3.22.84,5-1.44,6.54-2.68,1.78-5.41,1.57-7.59-1a31.15,31.15,0,0,1-3.83-5.8c-2.46-4.69-4.74-9.48-7.1-14.26-.7,3.28-.59,4.39,1.54,10.6,1.18,3.43,2.56,6.79,3.84,10.19-4.65,1.59-6.3,1.27-8.44-2.46-2.32-4-4.24-8.28-6.31-12.45a35.86,35.86,0,0,0-2.6-4.73c-.62,5.95,2,11.16,3.68,16.8-3.09,1-4.88-.67-6.17-2.89-1.74-3-3.27-6.16-4.85-9.27-.87-1.72-1.64-3.5-2.45-5.25l-1.06.34,2,10.91-.62.35a30,30,0,0,1-2.95-3.75c-2.75-4.92-5.37-21.36-4.46-28l4.15,5.47,6.57-4.81a7.22,7.22,0,0,1,1.29,1.63c.74,2.07,1.89,2,3.36.8.13-.11.27-.21.4-.3,3.72-2.64,3.72-2.64,7.42.13l4.39-3.81,6.37,5.77C182.1,831.83,182.51,827.61,182.72,823.34Z"/><path class="cls-17" d="M228.35,397.42c1.55-3.45.37-7.92-2.56-9.48-5.39-2.85-11.28-4.88-15.66-9.39-2.28-2.35-4.94-4.46-6.7-7.16-4.34-6.61-8.28-13.47-12.3-20.29a8.72,8.72,0,0,1-.55-2.87c7.18,6.15,14.59,12,21.44,18.54,3.49,3.29,7,5.48,11.78,5.52,6,.06,11.95.09,17.92,0a16.06,16.06,0,0,0,11.09-4.95c6.5-6.21,13.16-12.24,19.79-18.31a22.92,22.92,0,0,1,2.86-2,72.15,72.15,0,0,1-3.38,7c-4.06,6.61-8.33,13.08-12.46,19.64s-11,10-17.62,13.19c-6.36,3.08-6.52,2.77-6.45,9.78,0,.5,0,1,0,1.5a4,4,0,0,1-.76.1c-.07,0-.17-.27-.18-.42-.34-4.8-.63-9.6-1-14.4a29.45,29.45,0,0,0-.82-3.79,2.67,2.67,0,0,0-1.18,2.12c-.36,4.81-.72,9.61-1,14.43C230.48,398,230.13,399,228.35,397.42Z"/><path class="cls-18" d="M136.7,293.1a3.26,3.26,0,0,1-.35.92c-.07.08-.7-.09-.74-.23-1-3.81-1.9-7.66-3-11.44-3.61-12-8.73-23.25-17.71-32.22-7.92-7.91-17.8-12.36-28.61-14.94a17.06,17.06,0,0,1-3.65-1.92c3.22-3.91,7-4.51,12-3.35,19.63,4.6,32.2,16.43,37.67,35.73A107.12,107.12,0,0,1,136.7,293.1Z"/><path class="cls-19" d="M383.63,234.18c-2.49.67-5,1.42-7.46,2-19.37,4.41-31.9,16.78-39.52,34.5-3,7.06-5.24,14.49-7.85,21.83-.12-1.48-.24-2.94-.36-4.4a112.67,112.67,0,0,1,6.14-27.69c5.91-16.13,17.62-25.78,34-30.05a3.54,3.54,0,0,0,.49-.1C374.94,227.93,379.8,229.15,383.63,234.18Z"/><path class="cls-20" d="M193.45,619.42V611l.76-.25a21.16,21.16,0,0,1,1.84,2.53c3.31,6.32,6.32,12.71,8,19.75a58.72,58.72,0,0,1-.67,30.38c-1,3.34-2.29,6.55-.71,10l-4,6.53-1.06-.39c0-1.41.09-2.83,0-4.23q-1.41-19.29-2.89-38.58Q194.13,628.08,193.45,619.42Z"/><path class="cls-20" d="M262.48,673.39c-.68-5.39-1.1-10.83-2.1-16.16-2.2-11.82-.13-23,4.23-34,1.69-4.26,3.77-8.36,5.67-12.54l1.05.18.36,7.51c-.9,10.43-1.88,20.85-2.69,31.28-.59,7.63-1,15.26-1.41,22.9a26.32,26.32,0,0,1-.88,7.26Z"/><path class="cls-21" d="M338.77,37.14c-6,.32-6,.32-8.56-5-1.16-2.39-2.3-4.78-3.57-7.45l4.67-3.37a22.27,22.27,0,0,0-3.65,0,3,3,0,0,1-3.66-1.8,60.11,60.11,0,0,1-3.09-6.23,7.71,7.71,0,0,1-.42-4.38A5.4,5.4,0,0,1,323,5.65c.72-.33,2.52.66,3.22,1.54,2.49,3.11,4.82,6.36,7,9.68,6,9,12,18,14.29,28.82.86,4.07.95,4.05-3,5.6-6,2.33-6,2.33-8.21-3.54-.24-.62-.51-1.22-.75-1.84-1.75-4.65-1.74-4.65,2.35-7.51C338.17,38.23,338.28,37.89,338.77,37.14Z"/><path class="cls-22" d="M126.26,36.87C130.73,41,130.73,41,128.67,47c-.69,2-1.35,4-2,5.92-.62.11-1,.29-1.22.19-2.92-1.11-5.83-2.26-8.74-3.4.83-3.16,1.63-6.32,2.5-9.47C121.48,32,126.54,25.33,131,18.37a118.37,118.37,0,0,1,8-10.84c.76-.93,2.65-1.87,3.55-1.53a4.48,4.48,0,0,1,2.24,3.35c.27,4.79-2.12,8.71-5.35,11.89-.92.91-3.35.29-5.5.39l4.18,3.31c-1.53,3.12-3.17,6.19-4.57,9.36-1.09,2.47-2.6,3.75-5.4,2.89A14.31,14.31,0,0,0,126.26,36.87Z"/><path class="cls-23" d="M271.68,244.13c-1.83.79-1.59-1.09-2-1.74a69.85,69.85,0,0,0-23.1-24.26c-10.12-6.69-19.6-5.39-29.15.79a70.2,70.2,0,0,0-22.53,23.52,13.16,13.16,0,0,1-1.57,1.79c2.68-12.25,18.45-30.37,30.1-34.59,9.79-3.54,18.91-1.54,26.63,4.79C259.78,222.36,267.77,231.85,271.68,244.13Z"/><path class="cls-24" d="M344.33,23.69l3.88-2.42c-2.28-.77-4.7-.9-5.89-2.17a20.88,20.88,0,0,1-3.73-6.91c-.64-1.72-.5-4.07,1.6-4.65A5,5,0,0,1,344.47,9a94,94,0,0,1,7.1,10.14,84.71,84.71,0,0,1,5.5,10,115.65,115.65,0,0,1,4.27,11.59,67.36,67.36,0,0,1,1.48,6.84,5.81,5.81,0,0,1-1.47.65c-8.35.77-8.12.71-10.18-7.42-.86-3.38.14-5,3.07-6.44a8,8,0,0,0-2.49-.29c-1.91.41-2.65-.59-3.34-2.12C347.18,29.2,345.77,26.56,344.33,23.69Z"/><path class="cls-25" d="M110.48,34.63c4.41,1.7,3.61,4.56,2.68,7.53-.69,2.19-1.24,4.42-1.88,6.72l-9-.78c1-7,2.31-13.47,6-19.39,2.1-3.33,3.38-7.18,5.51-10.49a86.45,86.45,0,0,1,7.65-9.76,3.23,3.23,0,0,1,3-.7c1,.58,2.25,2.28,2,3A47.66,47.66,0,0,1,122,20.61c-.57.9-3,.61-4.94.91,1.15,1,2.76,1.7,3,2.76s-.93,2.34-1.49,3.53a16.52,16.52,0,0,0-1.09,2.24C116.5,33.37,114.44,35,110.48,34.63Z"/><path class="cls-26" d="M457.59,239.22c-.34.34-.69.68-1,1-6.28-8.87-11.23-18.37-13.42-29.09a109.54,109.54,0,0,1-1.56-12.26c-.47-5.6-.73-11.21-1.13-17.58l10.12,9.92q2.1,5.19,4.21,10.39l-.8.44-6.38-5.45C448.81,211.91,452.71,225.68,457.59,239.22Z"/><path class="cls-27" d="M14.64,190.27c2.27.17,3.67-1,4.79-2.85a45.28,45.28,0,0,1,4.79-6.56c-1.23,13.83.39,28-5.49,41-2.5,5.53-5.6,10.8-8.62,16.08-1,1.71-1.34.32-1.54-.67,3.66-11.39,6.91-22.89,8.46-34.79.22-1.61.42-3.22.74-5.72l-5.69,4.4-.84-.32Q13,195.53,14.64,190.27Z"/><path class="cls-28" d="M324.5,279.39c.51,3-.4,4.73-3.54,5.79-9.22,3.1-16.79,8.83-23.56,15.68a8.11,8.11,0,0,1-2.25,1.87c-.26.11-1.07-1-1.62-1.56,5.94-11,14.82-18.38,27.09-21.37A27.57,27.57,0,0,1,324.5,279.39Z"/><path class="cls-29" d="M169.68,298.11l-.28,3.9c-3.39-2.86-6.54-5.42-9.58-8.1a56.55,56.55,0,0,0-16.16-9.56c-3.45-1.42-3.55-1.54-1.91-5.32C153.83,281.33,163.48,287.19,169.68,298.11Z"/><path class="cls-30" d="M279.1,267.51c5.43,2.8,7.06,8.7,4.14,15.73a19.46,19.46,0,0,1-1.34-3.65c-.25-1.93.13-4-.38-5.81-.44-1.59-1.81-2.89-2.61-4.41C278.68,268.93,279,268.2,279.1,267.51Z"/><path class="cls-31" d="M287.81,286.6c5.59,3.21,5.59,3.21,1.42,10.82C286.4,292.79,286.07,290.61,287.81,286.6Z"/><path class="cls-32" d="M176.26,297.77l-4.34-7.14a40.33,40.33,0,0,1,3.73-2.84,2.44,2.44,0,0,1,2.18-.18,2.58,2.58,0,0,1,.64,2.19C177.94,292.17,177.19,294.5,176.26,297.77Z"/><path class="cls-33" d="M181.71,283.17c-2.37-7-1.28-11.33,3.07-14.85.82,2.59.79,2.55-.94,3.92-.42.34-.94,1.19-.79,1.52C184.48,276.86,182.93,279.46,181.71,283.17Z"/><path class="cls-34" d="M139.62,331.2c1.29,4.7,2.6,9.4,3.85,14.12,4.49,16.89,9.52,33.62,16.63,49.61,1.89,4.27,4,8.77,8.49,11.31-1.87,2.65-1.65,5.33.52,7.53,2.58,2.61,5.54,4.7,9.51,2.58.57.93.91,2.27,1.73,2.72,10.55,5.74,21.45,10.23,33.87,9.21,6.51-.54,11-4.12,14.37-9.28.82-1.26.91-3.14,1-4.75.11-4,0-7.95,0-11.93a43.54,43.54,0,0,1,.92,5c.35,5.38-.44,10.89,2.3,16.14L234.4,415c1.12,7.2,7,9.86,12.6,12a24.59,24.59,0,0,0,12.2,1,67.6,67.6,0,0,0,24.13-8.68,21.27,21.27,0,0,0,3.2-3c3.9,1.87,7,.44,9.68-2.44,2.17-2.37,2.17-5,.37-7.66,2-2.58,4.25-5,5.86-7.78,7.43-13,11.37-27.34,15.94-41.42,2.38-7.32,3.79-14.95,5.55-22.46a52.71,52.71,0,0,0,.71-5.36l1.05,6.18c-1.57,12.68-3,25.38-4.77,38a132.39,132.39,0,0,1-8.88,32,45,45,0,0,1-17.72,21c-9.56,6.13-20.13,9.32-31.27,10.73-9.21,1.17-18,.12-25.17-6.58-.16-.14-.56,0-1.29,0,2.86,6,7.73,9,13.61,10.63,6.24,1.72,12.52,1,18.79,0,17.41-2.79,33-9,43.79-23.87l12.66-2.12c-2.22,8.67-7.45,14.34-16.18,16.79l-1.16-3.81c-3.7,7-6.7,13.53-12.44,18.14a21.43,21.43,0,0,0-3.6-1.06c-1.81-.22-3.65-.16-5.48-.22-7.12-.26-14.24-.61-21.36-.72-2.29,0-4.7,1.12-6.84.7-5.16-1-10.19-2.65-15.28-4-3.49-.94-6.94-2.1-10.48-2.74-4.16-.75-7.75,1.52-11.33,3.12-6.82,3-14,4.93-21.25,3.58-8.87-1.63-17.51-.22-26.23.43-1.15.09-2.21,1.26-3.31,1.92-2-2.11-4.43-4-6-6.4-2.91-4.37-5.34-9-8-13.59-.5-1.47-1.48-3,.78-4a14.36,14.36,0,0,0,1.32,1.48c11.81,9.93,25.64,15.21,40.76,17.15,7.84,1,15.67.7,22.58-4,2.4-1.63,4.66-3.44,5.46-6.54a6.72,6.72,0,0,0-3.06,1.22,26.25,26.25,0,0,1-21.72,4.73,184.32,184.32,0,0,1-19.71-5.07c-15.64-5.25-26-15.78-31.64-31.49-7.44-20.9-10.13-42.56-11.83-64.46Z"/><path class="cls-35" d="M139.44,336.41c1.7,21.9,4.39,43.56,11.83,64.46,5.6,15.71,16,26.24,31.64,31.49a184.32,184.32,0,0,0,19.71,5.07,26.25,26.25,0,0,0,21.72-4.73,6.72,6.72,0,0,1,3.06-1.22c-.8,3.1-3.06,4.91-5.46,6.54-6.91,4.69-14.74,5-22.58,4-15.12-1.94-29-7.22-40.76-17.15a14.36,14.36,0,0,1-1.32-1.48c-7.12-8.13-11.42-17.77-14.46-28-3.75-12.54-7.66-25-13-37a59.06,59.06,0,0,0-11.94-18.19c-6.56-6.56-13.65-12.6-20.5-18.88a4.21,4.21,0,0,1-1.16-1.64c16.31,6.11,28.87,16.7,38.11,33,.59-7.9-.17-14.48-.62-21.1-.45-6.79-.19-13.63-.25-20.44l.36-3.4.9-.15c1,5.05,2,10.08,2.88,15.16C138.36,327.32,138.84,331.87,139.44,336.41Z"/><path class="cls-36" d="M128.41,312.33c-2.74,1.86-5.73,1.05-8.52.45-16-3.44-27.56-12.77-35.62-26.94a75.64,75.64,0,0,1-9.07-23.43c-.3-1.6.17-3.34.29-5,5.28,20.05,14.87,37.07,33.5,47.77A60.31,60.31,0,0,0,128.41,312.33Z"/><path class="cls-35" d="M63.36,231.7c3.49-4.81,7.39-9.52,10.52-14.71s5.49-10.86,8.38-16.72C83.31,214.28,73.18,229.89,63.36,231.7Z"/><path class="cls-37" d="M97.61,117.52c2.18-4.92,4.63-9.65,9.27-13.94.32,1.49.75,2.3.52,2.62-2.93,4-6,8-9,11.94Z"/><path class="cls-35" d="M312.78,417.36C302,432.27,286.4,438.44,269,441.23c-6.27,1-12.55,1.69-18.79,0-5.88-1.63-10.75-4.63-13.61-10.63.73,0,1.13-.12,1.29,0,7.21,6.7,16,7.75,25.17,6.58,11.14-1.41,21.71-4.6,31.27-10.73a45,45,0,0,0,17.72-21,132.39,132.39,0,0,0,8.88-32c1.81-12.64,3.2-25.34,4.77-38,.63-4.71,1.18-9.44,1.9-14.14.66-4.22,1.51-8.41,2.38-13.26,2.22,2.14,1.06,4.41,1.59,6.25l-1.38,37.25.95.49c8.92-15.07,21-26.39,38.55-32.77a31.83,31.83,0,0,1-2.83,2.8c-8.8,6.4-16.24,14.18-23.14,22.52-5.14,6.23-8.58,13.43-11.27,20.94-3.63,10.12-6.62,20.47-10.36,30.54C319.38,403.28,315.91,410.25,312.78,417.36Z"/><path class="cls-38" d="M389.67,257.42c.23,1.22.84,2.5.64,3.64-2.21,12.31-7.5,23.17-15.06,33.13-8,10.52-18.85,15.9-31.31,18.65-1.91.42-4.07-.29-6.12-.47,19-4.61,33.69-14.86,42.89-32.48C384.47,272.69,388,265.42,389.67,257.42Z"/><path class="cls-39" d="M382.43,198.8c2.73,5.81,5.07,11.84,8.3,17.36s7.35,10.5,11.5,16.31C386.86,225.94,383.79,212.87,382.43,198.8Z"/><path class="cls-40" d="M358.05,105.12c4.31,1.81,7.31,6.37,9.9,14.41C364.49,114.83,360.37,110.56,358.05,105.12Z"/><path class="cls-41" d="M160.47,704.29c1.87,2.36,3.77,4.7,5.59,7.1.56.73,2.26,1.31.63,2.61A35,35,0,0,1,152,675.2c.87,5.2,1.59,10.44,2.64,15.61C155.6,695.68,157.21,700.37,160.47,704.29Z"/><path class="cls-42" d="M153.05,638.52a82.41,82.41,0,0,1,7.31-37.5Q156.7,619.77,153.05,638.52Z"/><path class="cls-43" d="M166.57,717.21c.3.68,1,1.54.83,2-2.19,5.44-5.3,10.19-10.52,13.23a4.61,4.61,0,0,1-1.38.42c-.11,0-.26-.17-.8-.56l9.86-13.09Z"/><path class="cls-44" d="M297.63,714.48a5.91,5.91,0,0,1,.49-2.26c1.72-2.39,3.59-4.68,5.41-7,4.9-5.75,7.31-12.5,8.09-19.93.39-3.74.86-7.48,1.33-11.44C317.34,690.94,312.18,704.51,297.63,714.48Z"/><path class="cls-45" d="M305.52,603.14a73.58,73.58,0,0,1,6.57,35.21Z"/><path class="cls-46" d="M301.72,720.19l8.9,12.7c-3.31-.07-5-1.86-6.38-3.68-2.53-3.42-4.79-7.06-7-10.72-.34-.56.23-1.66.38-2.52Z"/><path class="cls-47" d="M170.5,447.34c1.1-.66,2.16-1.83,3.31-1.92,8.72-.65,17.36-2.06,26.23-.43,7.29,1.35,14.43-.53,21.25-3.58,3.58-1.6,7.17-3.87,11.33-3.12,3.54.64,7,1.8,10.48,2.74,5.09,1.38,10.12,3,15.28,4,2.14.42,4.55-.74,6.84-.7,7.12.11,14.24.46,21.36.72,1.83.06,3.67,0,5.48.22a21.43,21.43,0,0,1,3.6,1.06c-.15.28-.48.63-.41.81s.67.66.78.6c1.86-1.16,3.67-2.38,5.5-3.58a32.44,32.44,0,0,0,4.13.47c2.08,0,4.16-.28,6.24-.44-2.1,5.86-6.53,9.95-11.91,14.67a24.07,24.07,0,0,0,12.48-6.77c.23,1.64.86,3.34.59,4.89-.54,3.15-1.55,6.23-2.37,9.33.58.33,1.21,1,1.74.91a34.28,34.28,0,0,0,4.15-1.09c-.93,2.77-1.53,5.72-2.87,8.27a107.85,107.85,0,0,1-6.87,10.86c-1.19,1.72-2.64,3.6-5.23,1.92a17.54,17.54,0,0,0-2.43-.59,25.19,25.19,0,0,1-19.07-11.34c-.57-.82-1.27-1.54-1.9-2.32-8.75-10.73-20.19-16.56-33.76-18.44a39.62,39.62,0,0,0-5.34,0,2.63,2.63,0,0,0,1.76,1.54c16.43,3.64,28.92,13,38.51,26.53a4,4,0,0,1,.83,3c-1.54,4.2-3.27,8.35-5.11,12.43a5.22,5.22,0,0,1-6.17,3.12q-3.68-.66-7.33-1.44c-7.36-1.55-14.73-2.84-22.34-1.49a101.1,101.1,0,0,0,12.3,3.4c6.8,1.49,13.33,4.4,20.49,3.93,2.23-.15,2.32,1.25,2.5,2.83A37.16,37.16,0,0,1,270.19,531a11.37,11.37,0,0,1-5.82,5.15,30.32,30.32,0,0,1-17.63,1.63c-3.1-.56-6.22-1-9.33-1.52,9.59,5.29,19.43,8.07,30.48,2.27-.19,6.28.11,11.75-1.46,17.05a12.14,12.14,0,0,1-3.06,5.56c-7.31,6.44-15.13,11.72-25.66,7.88-4.59-1.8-9-1.1-13.27,1-16.89,1.56-30.34-10.13-26.64-31,10.42,5,20.32,3.3,29.83-2.32a12.37,12.37,0,0,0-3.44.09c-4.62.52-9.25,1.51-13.86,1.43-8.05-.15-14.24-3.39-17.59-11.47-2.54-6.14-2.53-12.29-2.1-18.63.13-2,.87-3,3.11-2.84a22.49,22.49,0,0,0,6.46-.31c8.27-1.89,16.48-4,24.7-6,.39-.1.69-.57,1.45-1.23-7.65-.61-14.6.62-21.54,1.94-2.78.52-5.55,1.06-8.35,1.45a6.06,6.06,0,0,1-6.65-3.38c-1.31-2.5-2.42-5.1-3.65-7.65-1.72-3.58-2.15-6.88,1.65-9.57a10.57,10.57,0,0,0,2.23-2.67c8.09-11.44,19.56-17.72,32.69-21.5,1-.3,2-.74,3.06-1.11a5.26,5.26,0,0,0-3.37-.68c-14.85,1.75-27.57,7.5-36.51,20-4.69,6.55-10.63,10.89-18.71,12.09a27.06,27.06,0,0,0-3.36.93c-1.59.48-3,.81-4.41-.75-5.07-5.57-8.37-12.18-11.44-18.93-.11-.24,1-1.05,1.6-1.6,1.5.35,3,.73,4.51,1,.1,0,.34-.69.52-1.06-.77-3.43-1.63-6.85-2.27-10.3a25.73,25.73,0,0,1-.07-4.48c3,4,6.72,6.53,11.45,7.08-3.13-4.15-6.17-8.17-9.21-12.18.66-.7,1.25-1.88,2-2a45.1,45.1,0,0,1,6.16-.17c2,1.22,3.89,2.51,5.92,3.61C169,448,169.85,447.49,170.5,447.34Zm61.74,48.19c3-9.51,2.55-19-.09-28.48C230.13,476.55,229.83,486.05,232.24,495.53Zm.08,35.9c2.05-8.4,2.79-16.87-.13-26.41A54.65,54.65,0,0,0,232.32,531.43Zm-.14,23.85c3.55-4,3.81-5.32,1.75-7.91-1.39-1.74-2.69-1.65-3.87.27C228.61,550,229.07,551.77,232.18,555.28Z"/><path class="cls-48" d="M237.71,569c10.53,3.84,18.35-1.44,25.66-7.88a12.14,12.14,0,0,0,3.06-5.56c1.57-5.3,1.27-10.77,1.46-17.05-11.05,5.8-20.89,3-30.48-2.27,3.11.5,6.23,1,9.33,1.52a30.32,30.32,0,0,0,17.63-1.63,11.37,11.37,0,0,0,5.82-5.15,37.16,37.16,0,0,0,4.36-22.65c-.18-1.58-.27-3-2.5-2.83-7.16.47-13.69-2.44-20.49-3.93a101.1,101.1,0,0,1-12.3-3.4c7.61-1.35,15-.06,22.34,1.49q3.66.78,7.33,1.44A5.22,5.22,0,0,0,275.1,498c1.84-4.08,3.57-8.23,5.11-12.43a4,4,0,0,0-.83-3C269.79,469,257.3,459.67,240.87,456a2.63,2.63,0,0,1-1.76-1.54,39.62,39.62,0,0,1,5.34,0c13.57,1.88,25,7.71,33.76,18.44.63.78,1.33,1.5,1.9,2.32a25.19,25.19,0,0,0,19.07,11.34,17.54,17.54,0,0,1,2.43.59c-4.59,2.18-9.29,1.34-14,.4a17.7,17.7,0,0,1-3-1.12c-2.55,5.63-5.1,11.13-7.52,16.68a5.58,5.58,0,0,0-.08,2.85c.65,4.4,1.39,8.8,2.15,13.61,5.91-8.22,12.55-15.82,21.25-21.46a37.6,37.6,0,0,1-2.73,3.15c-10.27,9.53-17.8,21.05-24,33.43-1.43,2.83-1.59,6.35-2.06,9.6-1.21,8.34-3,16.36-10,22.09-1.68,1-3.35,2.09-5.05,3.1-6.36,3.8-12.8,3.76-19.28.32-.05,0,0-.32.07-.46A1.91,1.91,0,0,1,237.71,569Z"/><path class="cls-48" d="M163.85,487.49a27.06,27.06,0,0,1,3.36-.93c8.08-1.2,14-5.54,18.71-12.09,8.94-12.46,21.66-18.21,36.51-20a5.26,5.26,0,0,1,3.37.68c-1,.37-2,.81-3.06,1.11-13.13,3.78-24.6,10.06-32.69,21.5a10.57,10.57,0,0,1-2.23,2.67c-3.8,2.69-3.37,6-1.65,9.57,1.23,2.55,2.34,5.15,3.65,7.65a6.06,6.06,0,0,0,6.65,3.38c2.8-.39,5.57-.93,8.35-1.45,6.94-1.32,13.89-2.55,21.54-1.94-.76.66-1.06,1.13-1.45,1.23-8.22,2.06-16.43,4.15-24.7,6a22.49,22.49,0,0,1-6.46.31c-2.24-.16-3,.89-3.11,2.84-.43,6.34-.44,12.49,2.1,18.63,3.35,8.08,9.54,11.32,17.59,11.47,4.61.08,9.24-.91,13.86-1.43a12.37,12.37,0,0,1,3.44-.09c-9.51,5.62-19.41,7.32-29.83,2.32-3.7,20.92,9.75,32.61,26.64,31,.52,2.25-1.51,1.9-2.46,2.05a20.07,20.07,0,0,1-13.7-2.75c-2.26-1.32-4.48-2.72-6.72-4.08a32.69,32.69,0,0,1-8-20.48c-.22-9.2-5.19-16.33-9.84-23.47-3.87-6-8.7-11.29-13.25-16.78-2-2.36-4.31-4.41-6.12-7a111.47,111.47,0,0,1,21.52,22c.78-5.06,1.58-9.89,2.22-14.73a5.47,5.47,0,0,0-.81-2.66c-2.32-5.07-4.68-10.12-6.94-15-3.43.57-7.45,1.47-11.51,1.81C167.23,489.12,165.51,488,163.85,487.49Z"/><path class="cls-49" d="M170.5,447.34c-.65.15-1.47.63-1.9.39-2-1.1-4-2.39-5.92-3.61a16.78,16.78,0,0,1-1.38-2c-2.51-5-5.94-8.13-12-9.24-6.35-1.16-10.4-6-11.94-12.56V413l1-.45c2.55,9.16,7.45,16.16,16.74,19.3.48-1.57.92-3,1.37-4.51,2.63,4.55,5.06,9.22,8,13.59C166.07,443.35,168.46,445.23,170.5,447.34Z"/><path class="cls-50" d="M301.53,444.19c-1.83,1.2-3.64,2.42-5.5,3.58-.11.06-.66-.33-.78-.6s.26-.53.41-.81c5.74-4.61,8.74-11.15,12.44-18.14l1.16,3.81c8.73-2.45,14-8.12,16.18-16.79l1.69-2.14.78.06c-.38,3.38-.77,6.76-1.15,10.14-3.37,6.3-8.87,9.66-15.67,10.91a6,6,0,0,0-4.37,2.74C305.07,439.41,303.27,441.78,301.53,444.19Z"/><path class="cls-51" d="M257.56,349.22a17.51,17.51,0,0,0-2,2.13c-4.5,6.56-11.16,9.18-18.66,9.75a52.61,52.61,0,0,1-11.81-.7c-8.29-1.28-13.6-7-18.54-13.14-2.45-3.83-3.57-7.93-1.87-12.31,1.93-5,4.11-9.92,6.26-15.06,4.63,4.28,4.63,4.28,7.51,4.67L217.11,323c-7.38-8.85-7.3-9.91,1.32-17.71,3.13-2.83,4.3-2.9,7.86-.54,2.06,1.37,4.18,3.85,6.2,3.77,2.27-.09,4.48-2.45,6.67-3.89,4-2.63,4-2.66,7.75.7.87.78,1.76,1.53,2.58,2.35,4.17,4.19,4.45,7,1.21,11.9-1,1.5-2,3-3,4.46l.7.54,5.95-4.14c1.76,4,3.41,7.64,4.92,11.32C261.74,337.83,261.56,343.72,257.56,349.22Zm-.42-10.46c.2-.42.4-.84.59-1.26a51.8,51.8,0,0,0-6.32-3.36,49.1,49.1,0,0,0-23.07-2.47,109.67,109.67,0,0,0-16,3.23c-3.15.85-3.09,1.3-4.55,3.93A66.43,66.43,0,0,1,257.14,338.76Zm-27.08-19c1.79-2.35,1.38-4.29-1-5.91a59.46,59.46,0,0,1-5.31-3.66,3.5,3.5,0,0,0-5.29.2,5,5,0,0,0-1.37,3.75c.4,2.36,2,2.53,4,1.24.31-.21,1.2.38,1.79.68C225.17,317.22,227.45,318.42,230.06,319.76Zm5.73,0c2-1.16,3.74-2.31,5.61-3.29a3.37,3.37,0,0,1,2.15-.25c2.22.48,3.79-.26,4.43-2.28.57-1.79-1.14-4.23-3.31-4.73-3.42-.78-10.43,6-9.8,9.48C234.92,318.94,235.28,319.16,235.79,319.74ZM222.52,339.5c5.39,2.21,16.66,2.26,20.32,0Z"/><path class="cls-52" d="M258.51,311.19l-1.86,2c-2.3-5.53-7.33-8.73-11.11-13l9.28,3.1c-1.86-2.6-5.53-2.43-6.68-5.79,1,0,1.82,0,2.66,0,6.08-.18,8.36-2.18,9.86-8.28a3.68,3.68,0,0,1,2.08-2.07,15,15,0,0,1,3.87-.37c-3.06-3.4-4.22-4-8-2.61-5.6,2.06-11,4.57-16.56,6.84-3.94,1.63-5.37.68-5.68-3.69,0-.77,0-1.55,0-2.32l-.64-.14c-.9,2.49-1.81,5-3.11,8.56l-2.47-7.87a4.87,4.87,0,0,0-.83,2.48c-.59,3.75-1.65,4.46-5.29,3.29-2.85-.92-5.64-2-8.41-3.11-3.08-1.24-6.09-2.66-9.18-3.86-3.36-1.3-6.13-.67-7.77,2.86-1.11,3.74-.16,5.91,2.84,7.06a19.16,19.16,0,0,1,3,2.05c1,.65,2.08,1.23,3.13,1.84l5.92,1.46-3.47,3,6.29-1.44,1.09,1q-4.44,5.1-8.9,10.18l-1.92-1.31c-2.85-2.74-5.6-5.6-8.58-8.19-2.47-2.14-3.77-4.33-2.91-7.8a11.39,11.39,0,0,0-.47-5.7c-2.76-9.16,5.29-18.1,14.6-16a108.56,108.56,0,0,1,11.46,3.29c8,2.79,15.95,2.42,23.93-.07,4.11-1.29,8.22-2.62,12.42-3.52,7.57-1.63,15.42,7.14,13.4,14.59a20.05,20.05,0,0,0-.76,7.24c.43,3.91-.84,6.59-3.92,9C263.2,306,261,308.75,258.51,311.19Z"/><path class="cls-53" d="M219.52,272.27c1.85-.26,2.68-1.28.85-2.4-3.77-2.31-7.77-4.25-11.85-6.43,4.73-1.16,8.32,2.14,12.37,3.44,1.7-4.2,1.72-4.22-1.82-6.54-1.64-1.07-3.33-2-5.54-3.41,1.84-1.08,4.36-.59,4.54-3.31.05-.91,1.79-1.77,2.83-2.55,1.46-1.09,3-2.11,4.48-3.13,9.4-6.36,8.42-4.15,15.32,1,2.61,1.94,4.86,4.37,7.5,6.27,1,.69,2.55.49,4.53.81-2.87,1.89-5.27,3.57-7.78,5.09-1.53.92-3,1.82-1.89,3.82,1.05,1.82,2.81,1.47,4.41.76,3-1.34,5.95-2.88,10.28-2.17-3.95,1.85-7.19,3.35-10.41,4.9a9.12,9.12,0,0,0-2.94,1.8c-1.43,1.6.07,1.83,1.25,2.09C236.94,275.58,228.23,275.31,219.52,272.27Z"/><path class="cls-35" d="M219.52,272.27c8.71,3,17.42,3.31,26.13,0L256.49,271c7.39-.9,14.72,3.33,16.79,10.27.65,2.18.08,4.89-.5,7.22a11.14,11.14,0,0,0-.43,5.72c1.1,4.7.48,8.89-3.65,12.54-3.38,3-5.75,7.1-8.83,11.06-.47-2.28-.91-4.44-1.36-6.59,2.45-2.44,4.69-5.15,7.4-7.25,3.08-2.39,4.35-5.07,3.92-9a20.05,20.05,0,0,1,.76-7.24c2-7.45-5.83-16.22-13.4-14.59-4.2.9-8.31,2.23-12.42,3.52-8,2.49-15.91,2.86-23.93.07a108.56,108.56,0,0,0-11.46-3.29c-9.31-2.14-17.36,6.8-14.6,16a11.39,11.39,0,0,1,.47,5.7c-.86,3.47.44,5.66,2.91,7.8,3,2.59,5.73,5.45,8.58,8.19.15,2.23.3,4.46.5,7.31l-14.54-16.3c.19-2.77.48-5.55.55-8.33a11.35,11.35,0,0,0-.57-4.27c-3.32-8.55,2.72-18.12,12-18.33C209.62,271.05,214.58,271.87,219.52,272.27Z"/><path class="cls-54" d="M208.66,312.39q4.46-5.08,8.9-10.18c2.77-1.43,5.5-.77,8,.48a24.26,24.26,0,0,1,5.24,3.65c1.48,1.29,2.55,1.12,3.72-.26,2.91-3.42,6.87-4.89,11.1-5.81l-.1-.09c3.78,4.27,8.81,7.47,11.11,13-.89,5.62,2.35,10.13,4,15.06.85,2.49,1.85,4.94,2.52,7.47,1.36,5.05-.37,9.44-3.38,13.41-.3.38-1.49.08-2.26.1,4-5.5,4.18-11.39,1.67-17.49-1.51-3.68-3.16-7.3-4.92-11.32l-5.95,4.14-.7-.54c1-1.49,2.05-3,3-4.46,3.24-4.9,3-7.71-1.21-11.9-.82-.82-1.71-1.57-2.58-2.35-3.75-3.36-3.74-3.33-7.75-.7-2.19,1.44-4.4,3.8-6.67,3.89-2,.08-4.14-2.4-6.2-3.77-3.56-2.36-4.73-2.29-7.86.54-8.62,7.8-8.7,8.86-1.32,17.71l1.33,1.59c-2.88-.39-2.88-.39-7.51-4.67-2.15,5.14-4.33,10.05-6.26,15.06-1.7,4.38-.58,8.48,1.87,12.31-.24.65,0,2.89-1.27,1.09-1.69-2.51-2.56-5.62-3.55-8.55a11.47,11.47,0,0,1-.05-3.47c1.46-4,2.63-8.1,4.45-11.92S209.94,316.86,208.66,312.39Z"/><path class="cls-55" d="M208.66,312.39c1.28,4.47-.7,8.15-2.54,12s-3,7.94-4.45,11.92c-.14-9.09-2.2-17.62-7.54-25.14-2-2.83-1.6-6-1.43-9.1l14.54,16.3c-.2-2.85-.35-5.08-.5-7.31Z"/><path class="cls-56" d="M234.4,415l-1.65,8.47c-2.74-5.25-1.95-10.76-2.3-16.14a43.54,43.54,0,0,0-.92-5q-9.06-5.44-18.14-10.87l.12-.48,16.84,6.45c1.78,1.56,2.13.56,2.24-1.18.3-4.82.66-9.62,1-14.43a2.67,2.67,0,0,1,1.18-2.12,29.45,29.45,0,0,1,.82,3.79c.39,4.8.68,9.6,1,14.4,0,.15.11.41.18.42a4,4,0,0,0,.76-.1l15.3-6.42c.15.33.3.65.44,1-4.35,2.39-8.64,4.92-13.08,7.14-2.7,1.35-3.93,3.14-3.73,6.2S234.45,412.05,234.4,415Z"/><path class="cls-57" d="M296.58,406.23c1.8,2.65,1.8,5.29-.37,7.66-2.64,2.88-5.78,4.31-9.68,2.44-2-2.88-1.48-5.61.84-7.93C289.92,405.83,292.91,404.4,296.58,406.23Zm-1.92,2.92c-.36-.28-.88-1-1.49-1.1-2-.29-5.23,2.53-5.11,4.54a2.26,2.26,0,0,0,1.45,1.57C291.45,414.5,294.58,411.6,294.66,409.15Z"/><path class="cls-57" d="M178.62,416.35c-4,2.12-6.93,0-9.51-2.58-2.17-2.2-2.39-4.88-.52-7.53,3.89-1.67,7-.14,9.63,2.6A5.33,5.33,0,0,1,178.62,416.35Zm-7-8.27c-.28.33-1.06.83-1.15,1.43-.35,2.1,3.33,5.25,5.35,4.56a2.24,2.24,0,0,0,1.09-1.81C176.84,410.26,174.08,408,171.67,408.08Z"/><path class="cls-58" d="M154.53,446.28c3,4,6.08,8,9.21,12.18-4.73-.55-8.49-3.1-11.45-7.08-.44-2.89-2.89-3.31-5-4.12-6.24-2.33-8.66-6.05-8.16-13.25,2.29,4.29,4.67,8.5,10,10.33.3-2,.56-3.79,1-6.57C151.86,441.17,153.2,443.72,154.53,446.28Z"/><path class="cls-59" d="M154.63,466.16c-.18.37-.42,1.08-.52,1.06-1.51-.28-3-.66-4.51-1-7.38-4.23-10.54-9.83-9.14-17.72C144.46,455.64,147,463.11,154.63,466.16Z"/><path class="cls-60" d="M312.47,452.12A24.07,24.07,0,0,1,300,458.89c5.38-4.72,9.81-8.81,11.91-14.67.94-1.7,1.89-3.39,3.28-5.87.32,2.31.55,3.9.81,5.76,4.92-1,6.93-4.81,9.15-8.8.9,5.86-.82,9.23-6.1,10.85A9.36,9.36,0,0,0,312.47,452.12Z"/><path class="cls-57" d="M316.58,466.16a34.28,34.28,0,0,1-4.15,1.09c-.53.07-1.16-.58-1.74-.91,7-3.34,10.61-9.56,13.5-17.22C326,457.47,322.27,462.28,316.58,466.16Z"/><path class="cls-61" d="M332.5,69.78c4.49-3,27.64-8.22,34.81-8.19C360.64,67,349.31,69.21,332.5,69.78Z"/><path class="cls-62" d="M366.87,67.92l-5.65,18C359.46,78.25,361.7,71.37,366.87,67.92Z"/><path class="cls-63" d="M96.19,60.52c11.24,3.89,23.47,3.41,35.62,8C120,70.38,102.82,66.5,96.19,60.52Z"/><path class="cls-64" d="M98.07,67.33c5.84,4.44,8,13,5.25,18.55C101.71,80.18,99.93,73.9,98.07,67.33Z"/><path class="cls-65" d="M232.24,495.53c-2.41-9.48-2.11-19-.09-28.48C234.79,476.53,235.28,486,232.24,495.53Z"/><path class="cls-66" d="M232.32,531.43a54.65,54.65,0,0,1-.13-26.41C235.11,514.56,234.37,523,232.32,531.43Z"/><path class="cls-67" d="M232.18,555.28c-3.11-3.51-3.57-5.29-2.12-7.64,1.18-1.92,2.48-2,3.87-.27C236,550,235.73,551.26,232.18,555.28Z"/><path class="cls-68" d="M257.14,338.76a66.43,66.43,0,0,0-49.36.07c1.46-2.63,1.4-3.08,4.55-3.93a109.67,109.67,0,0,1,16-3.23,49.1,49.1,0,0,1,23.07,2.47,51.8,51.8,0,0,1,6.32,3.36C257.54,337.92,257.34,338.34,257.14,338.76Z"/><path class="cls-69" d="M230.06,319.76c-2.61-1.34-4.89-2.54-7.19-3.7-.59-.3-1.48-.89-1.79-.68-2,1.29-3.56,1.12-4-1.24a5,5,0,0,1,1.37-3.75,3.5,3.5,0,0,1,5.29-.2,59.46,59.46,0,0,0,5.31,3.66C231.44,315.47,231.85,317.41,230.06,319.76Z"/><path class="cls-70" d="M235.79,319.74c-.51-.58-.87-.8-.92-1.07-.63-3.5,6.38-10.26,9.8-9.48,2.17.5,3.88,2.94,3.31,4.73-.64,2-2.21,2.76-4.43,2.28a3.37,3.37,0,0,0-2.15.25C239.53,317.43,237.74,318.58,235.79,319.74Z"/><path class="cls-71" d="M222.52,339.5h20.32C239.18,341.76,227.91,341.71,222.52,339.5Z"/><path class="cls-54" d="M216.47,301.16l-6.29,1.44,3.47-3-5.92-1.46,5.24-1.41c-4.8-1-7.3-2.9-7.69-7.06-.08-.88-1.58-1.95-2.64-2.33s-2.61-.13-3.93-.15c1.64-3.53,4.41-4.16,7.77-2.86,3.09,1.2,6.1,2.62,9.18,3.86,2.77,1.11,5.56,2.19,8.41,3.11,3.64,1.17,4.7.46,5.29-3.29a4.87,4.87,0,0,1,.83-2.48l2.47,7.87c1.3-3.59,2.21-6.07,3.11-8.56l.64.14c0,.77,0,1.55,0,2.32.31,4.37,1.74,5.32,5.68,3.69,5.52-2.27,11-4.78,16.56-6.84,3.74-1.38,4.9-.79,8,2.61a15,15,0,0,0-3.87.37,3.68,3.68,0,0,0-2.08,2.07c-1.5,6.1-3.78,8.1-9.86,8.28-.84,0-1.67,0-2.66,0,1.15,3.36,4.82,3.19,6.68,5.79l-9.28-3.1.1.09c-2.38-.73-3.9-4.36-7.16-2.14a3.91,3.91,0,0,0-.22-1.06c-.39-.72-.7-1.78-1.31-2-4.61-1.88-9.24-.78-13.07,1.59C221.44,298.15,219.23,300.09,216.47,301.16Zm31.34-8.64c4.71,2.35,5.37,2.09,7.73-2.6Zm-31.08,2,.5-1.43c-2-.87-3.94-1.81-6-2.56-.38-.14-1,.45-1.54.7.28.55.43,1.45.85,1.59C212.59,293.46,214.67,293.93,216.73,294.48Z"/><path class="cls-72" d="M216.47,301.16c2.76-1.07,5-3,7.41-4.53,3.83-2.37,8.46-3.47,13.07-1.59.61.25.92,1.31,1.31,2a3.91,3.91,0,0,1,.22,1.06c3.26-2.22,4.78,1.41,7.16,2.14-4.23.92-8.19,2.39-11.1,5.81-1.17,1.38-2.24,1.55-3.72.26a24.26,24.26,0,0,0-5.24-3.65c-2.52-1.25-5.25-1.91-8-.48Z"/><path class="cls-73" d="M198.71,287.2c1.32,0,2.75-.26,3.93.15s2.56,1.45,2.64,2.33c.39,4.16,2.89,6.05,7.69,7.06l-5.24,1.41c-1-.61-2.11-1.19-3.13-1.84a19.16,19.16,0,0,0-3-2.05C198.55,293.11,197.6,290.94,198.71,287.2Z"/><path class="cls-74" d="M294.66,409.15c-.08,2.45-3.21,5.35-5.15,5a2.26,2.26,0,0,1-1.45-1.57c-.12-2,3.07-4.83,5.11-4.54C293.78,408.14,294.3,408.87,294.66,409.15Z"/><path class="cls-75" d="M171.67,408.08c2.41-.07,5.17,2.18,5.29,4.18a2.24,2.24,0,0,1-1.09,1.81c-2,.69-5.7-2.46-5.35-4.56C170.61,408.91,171.39,408.41,171.67,408.08Z"/><path class="cls-16" d="M247.81,292.52l7.73-2.6C253.18,294.61,252.52,294.87,247.81,292.52Z"/><path class="cls-76" d="M216.73,294.48c-2.06-.55-4.14-1-6.15-1.7-.42-.14-.57-1-.85-1.59.52-.25,1.16-.84,1.54-.7,2,.75,4,1.69,6,2.56Z"/></svg>