<svg id="Capa_1" data-name="Capa 1" xmlns="http://www.w3.org/2000/svg" viewBox="0 0 635.07 552.62"><defs><style>.cls-1{fill:#070606;}.cls-2{fill:#5e5e5d;}.cls-3{fill:#3a3a3a;}.cls-4{fill:#5e5d5d;}.cls-5{fill:#5d5d5d;}.cls-6{fill:#393939;}.cls-7{fill:#898888;}.cls-8{fill:#888;}.cls-9{fill:#616161;}.cls-10{fill:#5f5f61;}.cls-11{fill:#5e5e5e;}.cls-12{fill:#8b8a8a;}.cls-13{fill:#8d8c8b;}.cls-14{fill:#8c8c8c;}.cls-15{fill:#8b8b8a;}.cls-16{fill:#8b8988;}.cls-17{fill:#878585;}.cls-18{fill:#878687;}.cls-19{fill:#8b8b8b;}.cls-20{fill:#898887;}.cls-21{fill:#8e8d8d;}.cls-22{fill:#8c8b8b;}.cls-23{fill:#888786;}.cls-24{fill:#8a8989;}.cls-25{fill:#8a8a8a;}.cls-26{fill:#878685;}.cls-27{fill:#373737;}.cls-28{fill:#3a393a;}.cls-29{fill:#5c5b5b;}.cls-30{fill:#080808;}.cls-31{fill:#0c0b0b;}.cls-32{fill:#090908;}.cls-33{fill:#5b5c5b;}.cls-34{fill:#868786;}.cls-35{fill:#616061;}.cls-36{fill:#858484;}.cls-37{fill:#7c7b7a;}.cls-38{fill:#535251;}.cls-39{fill:#787775;}.cls-40{fill:#767573;}.cls-41{fill:#888788;}.cls-42{fill:#121312;}.cls-43{fill:#0b0b0a;}.cls-44{fill:#070706;}.cls-45{fill:#090808;}.cls-46{fill:#535252;}.cls-47{fill:#9d9b9a;}.cls-48{fill:#a09e9b;}</style></defs><path class="cls-1" d="M431.69,497.49c9.44,8.61,17.55,17.44,27.63,24.09a51.62,51.62,0,0,1,8.31,6.33c3.95,4,3.32,7.55-1.33,10.6a15.3,15.3,0,0,0-2.2,1.91c-.59.57-1,1.65-1.66,1.78-5.33,1-9.47,5.38-15.19,5.4a6.85,6.85,0,0,0-3.95,1.23c-5.91,4.58-12.81,5.11-18.94.91a41.06,41.06,0,0,1-6.66-6,8.49,8.49,0,0,0-6-3.08,49.75,49.75,0,0,1-29.3-11.3c-.91-.72-2-1.24-2.95-1.87-3.76-2.4-6.87-3.7-11.28,0-6.17,5.25-14.18,4-19.31-1.63-3.28-3.6-3.67-6.82-.79-10.8,2.43-3.36,5.39-6.34,7.86-9.68a9.11,9.11,0,0,0,1.91-4.89A27.64,27.64,0,0,1,366.74,480c7.5-7.07,10.69-15.79,11.5-25.78a46.59,46.59,0,0,1,6-20.2c-4.08-.73-7.67-1.21-11.18-2a113,113,0,0,1-34.89-14.4q-5.72-3.57-11.55-6.94c-5.88-3.39-11.58-3.18-17.42.45-9.74,6.06-19.26,12.66-30.33,16.14-8.53,2.68-17.25,4.81-25.77,7.16,1.28,4.13,3,8.77,4.12,13.55.9,3.69,1.11,7.56,1.72,11.33,1.19,7.25,3.89,13.76,9.41,18.85,6.3,5.79,10,12.84,10.16,21.49a11,11,0,0,0,3,7.17c2.18,2.52,4.51,4.92,6.51,7.58,3.37,4.46,2.88,8.57-1.22,12.39-5.51,5.12-13.28,5.56-19.5.22-3.23-2.78-5.65-2.51-8.71-.52-2.64,1.72-5.49,3.17-8,5.08a45,45,0,0,1-24,8.89c-3.71.31-6.52,1.43-9,4.45-3.91,4.81-8.87,8.07-15.5,7.65a5.26,5.26,0,0,1-2-.18c-3.05-1.57-5.88-4-9.09-4.67s-7-.06-9.79-2.75c-.24-.23-.5-.63-.75-.63-4.72,0-7.51-3.38-10.84-6-3.76-2.94-4.68-6.65-1.35-10.12a41.15,41.15,0,0,1,7.88-6c10.72-6.68,19-16,28.73-24.84-1.89-1.4-3.39-2.59-5-3.65-12-8.09-23.84-16.48-34.05-26.89-11-11.17-18.22-24.07-19.25-40-.21-3.29-1.36-6.53-1.6-9.82a42.65,42.65,0,0,1,7.27-28c5.17-7.49,9-15.35,10.7-24.43,2-10.46,8.88-18.09,16.71-24.8,13.12-11.25,28.47-17.59,45.46-20.18l2.77-.41c-.25-1.29-.49-2.35-.65-3.43-.84-5.42-2.13-10.82-2.35-16.27a16.53,16.53,0,0,0-6.23-12.91,130.94,130.94,0,0,1-11.4-11.2,66.8,66.8,0,0,1-13.66-22.45c-.51-1.38-1.19-2.71-1.93-4.37-2.54,3-4.73,5.91-7.18,8.54-11.32,12.21-25.29,19.85-41.38,23.78-4.88,1.19-4.81,1.24-4.55,6.19.44,8.67.62,17.33-1,25.91a59.49,59.49,0,0,1-17.28,32c-5.82,5.71-12.16,10.89-18,16.56a202.72,202.72,0,0,0-14.83,15.5,42.29,42.29,0,0,0-10.09,25.05c-.19,3.11.49,5.56,3.21,7.29,1,.62,1.82,1.47,2.79,2.11,5.42,3.56,8.31,8.51,10,14.86,1.6,6,4.62,11.71,7.48,17.31,3.64,7.12,2.55,11.88-4.29,15.89S84,462.16,80,455.62c-1-1.7-1.84-3.54-2.79-5.28a47.7,47.7,0,0,0-3.24-5.6c-3.1-4.16-4.47-4-7,.6-4.95,8.89-6,18.67-5.79,28.52.09,3.64,2.36,7.21,3.46,10.86,1.35,4.45,3,8.88,3.62,13.44a10,10,0,0,1-11,11.18c-2.45-.27-4.74-2-7.14-3,0,.44-.06,1.25-.16,2.06-.56,4.6-3.16,7.49-7.73,8.61-4,1-7.4-.2-9.82-4.1-1.34-2.16-2.48-3.48-5.34-3.21-3.22.31-5.72-1.63-7.51-4.2-1.31-1.9-2.2-4.11-3.49-6a7.77,7.77,0,0,0-3-2.93,13.17,13.17,0,0,1-6.67-6.46C2.82,482.83,0,475.25,0,467.16c0-14.48.26-29,1-43.44.35-6.6,2.2-13.11,3.24-19.68.22-1.36.36-3.16-.34-4.16-2.75-4-2.88-8.27-1.54-12.46,3.84-12,3.68-24.25,3.15-36.61-.9-21,1.22-41.58,8.52-61.44a73.48,73.48,0,0,1,16.14-26.14c.57-.59,1.09-1.23,1.81-2.05a12.2,12.2,0,0,0-1.49-1.34c-2.23-1.38-2-2.89-.13-4.28,4-3,7.89-6.12,12.12-8.72,7.36-4.54,14.94-8.7,22.41-13A44.26,44.26,0,0,0,83.61,213c1.76-3.95,3.69-7.83,5.26-11.85a80.06,80.06,0,0,1,35-41c4.62-2.71,6.77-5.67,7.64-11.38,3.32-21.67,15-38.41,32.91-50.89,1.64-1.14,3.7-1.72,2.3-4.5-.2-.38,1.32-2.2,2.31-2.52,4.89-1.56,9.81-3.6,14.85-4.07,9.42-.89,18.93-1,28.4-1,2.23,0,3.74-.38,5.22-2A105.74,105.74,0,0,1,256.6,57.65c4.64-1.81,7.22-4.68,8.38-9.48,3.14-13,10.48-23.53,19.24-33.37C302.77-6,336.29-4.07,352.8,15.62c8.14,9.7,14.92,20,17.94,32.45,1.22,5,3.92,7.89,8.7,9.86,14.92,6.12,28.64,14.2,39.52,26.41,1.47,1.66,3,1.46,4.91,1.35,13.2-.79,26.32-.45,39.07,3.66,1.57.51,3.11,1.16,4.63,1.82s2.62,1.39,1.5,3.37c-1,1.78.77,2.22,1.81,2.9,14.34,9.33,24.05,22.42,30,38.23,2.07,5.54,2.92,11.6,3.77,17.49.35,2.49,1.17,3.9,3.25,5,1.91,1,3.71,2.22,5.55,3.36a75.6,75.6,0,0,1,30.68,35.19c2.23,5.2,4.6,10.33,6.86,15.51a45.2,45.2,0,0,0,19.24,21.63q11.67,6.74,23.23,13.65c4.7,2.81,9.47,5.57,12.78,10.38-1.15,1.06-2.21,2-3.38,3.12,1.85,2.15,3.6,4.14,5.31,6.18,9.67,11.56,14.39,25.34,17.75,39.72,3.21,13.72,3.77,27.67,3.59,41.71-.11,8.64,0,17.31.46,25.94.23,3.93,1.54,7.82,2.5,11.69,1.08,4.34,1.13,8.48-1,12.61a7.33,7.33,0,0,0-.49,4.67,171,171,0,0,1,3.79,46.67c-.21,4.14.26,8.32.33,12.48.15,9-2.21,17.45-6,25.55-1.59,3.41-3.73,6.21-7.67,7.31-1,.29-1.9,1.62-2.56,2.65-1.25,1.95-2.21,4.1-3.45,6.06a9.24,9.24,0,0,1-8.81,4.66,3.26,3.26,0,0,0-3.53,1.83c-3.31,5.09-6.47,6.5-11.08,5.21-4-1.12-8-4.3-7.31-11.21a9.83,9.83,0,0,0-1.75,1.08c-3.34,3.29-7.12,3.32-11,1.32a10.38,10.38,0,0,1-5.38-10.94,78.85,78.85,0,0,1,4.22-13.8c5.65-13.24,2.52-25.76-2.74-38.09-2-4.58-4.08-4.66-7.16-.7a51.26,51.26,0,0,0-3.67,5.92c-.83,1.44-1.49,3-2.31,4.42-2.52,4.39-6.11,7.13-11.39,6.51a13.19,13.19,0,0,1-11.54-9,9,9,0,0,1,.12-5.22c.56-1.87,2-3.48,2.74-5.3,2.35-5.48,5.13-10.85,6.72-16.55s4.17-10.37,9.09-13.18c7-4,7.57-9.71,5.83-16.62a45.93,45.93,0,0,0-11.25-20.86c-6.19-6.5-12.9-12.52-19.4-18.72-4.58-4.37-9.45-8.46-13.74-13.09-10.52-11.34-15.73-24.92-15.93-40.38-.06-5.17.07-10.33.18-15.5.09-4.41.15-4.48-4.31-5.52a74.91,74.91,0,0,1-32.7-16.37c-4-3.48-7.53-7.51-11.22-11.34-1.12-1.15-2.08-2.46-3.38-4-1.18,2.76-2.11,5-3.12,7.27-4.74,10.49-11.94,19.17-20.22,27-.48.46-1,.89-1.48,1.35-9.71,9.19-7.64,6.23-8.84,18.28-.27,2.65-.66,5.29-1.16,7.9s-1.19,5.16-1.89,8.12c1.13.3,2.15.67,3.21.84,19.48,3.07,36.5,11.1,50.53,25.11,6.52,6.51,11.08,14.11,12.48,23.38,1,6.78,4.41,12.48,8.23,18a47.77,47.77,0,0,1,8,17.59,49.23,49.23,0,0,1,.28,19.83c-.89,4.4-1.21,8.91-2.11,13.3-2.45,11.84-9.12,21.29-17.35,29.8-10.13,10.49-21.94,18.88-33.91,27.07Zm-80.93,20.75c-.2.75-.75,1.64-.53,2.24,1.59,4.32,7.63,7,12,5.37A22.15,22.15,0,0,0,373,517.4c1-1.51,2.11-3,3.17-4.46l1,.57c-.62,2.13-1.24,4.27-1.8,6.17,4.72,3.06,9.43,5.83,13.83,9a36.6,36.6,0,0,0,18.92,6.77c5.22.47,10,1.71,13.53,6.19a20.15,20.15,0,0,0,6.73,5c4.6,2.29,10.54,1.16,13.25-2.3.52-.66.26-1.93.36-2.92l-10.94-13.36.84-.73c4.7,4.95,11.54,7.73,14.18,14.77.16.42.63,1.13.78,1.09,2-.59,4.24-.89,5.86-2.05,1.88-1.35,1.63-3.59.07-5.27-2-2.19-4.27-4.18-6.4-6.28-1.15-1.13-2.26-2.32-3.39-3.48l.8-.77c2.8,2,5.75,3.86,8.36,6.11a30,30,0,0,1,4.76,5.63c.58.83.11,2.5,1.94,2.16s2.72-1.76,2.19-3.28a16.78,16.78,0,0,0-3.1-5.37,40.78,40.78,0,0,0-5.06-4.35c5.28,1.18,9,4.52,12.39,8.86,1.84-4.42-1.06-6-3.15-7.45-5.53-4-11.27-7.62-16.92-11.4-5.36-5.12-10.74-10.22-16.07-15.37-1.18-1.14-2.32-1.67-4-1-5.54,2.19-11.35,1.68-17.11,1.5-1.09-1.71-.11-1.86,1.32-1.88,8.57-.08,16.17-3,23.16-7.81,10.36-7.16,20.23-14.92,30-22.93A73.83,73.83,0,0,0,483,441.59c1.77-3.9,2.83-9.75,2.29-12.6-3.06,2.13-5,5.56-9.16,7.8,2-3.33,3.49-5.79,5-8.26a24.33,24.33,0,0,0,5.47-16.6c-.52-10.78-4.78-20.18-11.48-28.53a44.61,44.61,0,0,1-5.68-15.23c-1.3-7.79-5.31-14.11-10.67-19.76-7.78-8.22-17.13-14-27.56-18.11-7.35-3.91-15.44-5.35-23.49-6.8-1.44-.26-3.08.67-4.63,1.05-2.26-2.63.31-4.89.66-7.28,1-6.53,2.15-13,3.29-19.51.35-2-.41-2.95-3.56-2.63l17.91-18.54c8.19-8.46,14.08-18.37,18.58-29.19a7.72,7.72,0,0,0-.36-7c-3-6.09-5.61-12.38-8.37-18.58-.44-1-.84-2-1.34-3.15-5.1,7.47-9.75,14.73-14.89,21.63a73.28,73.28,0,0,1-11.23,12.59c-12.16,10.21-26.65,14.42-42.34,14.55a136.54,136.54,0,0,1-20.83-1.12c-5.15-.76-10.08-3-15.08-4.68-.26-.08-.29-.81-.43-1.24a100.25,100.25,0,0,0,49.58,2c10.2-2.13,19.58-6.2,27.27-13.47,10.23-9.66,17.88-21.31,24.94-33.35,2.9-5,1.84-7.08-3.85-9l-13.38-5.69.11-.55L420,201.51l8.37,3.41c.46-2.08.77-3.51,1.09-4.93l1.06,0c.83,3.47,1.87,6.89,2.45,10.4,2.73,16.24,10.71,29.8,21.44,41.88,9.6,10.81,21.65,17.9,35.37,22.25,6.13,1.95,12.3,3.81,18.4,5.86a14.39,14.39,0,0,1,8.45,7.23c-3.81-1.37-7.31-3.2-10.94-4.7-2.75-1.14-3.66-.47-3.68,2.53-.05,5.92-.35,11.81-.18,17.76a51.34,51.34,0,0,0,14.57,34.93c7.3,7.72,15.07,15.05,23.08,22A73.88,73.88,0,0,1,559,386.74c3.18,7.33,4.14,14.95,2,22.79l-5.21,4.82c-3.76,2.21-7.63,4.49-8.75,9a74.43,74.43,0,0,1-10,23.75c-.56.85-1,2.42-.59,3.17a9.37,9.37,0,0,0,7,5.06A6.23,6.23,0,0,0,550.2,452c1.34-2.29,2.53-4.67,3.72-7a19.74,19.74,0,0,1,7-8.23c2.94-1.86,5.23-2.1,7.7.27a26.92,26.92,0,0,1,5.48,7.52c3.85,7.94,4.18,16.67,4.7,25.27A24.05,24.05,0,0,1,577.6,478c-1.82,6-4.1,11.92-6,17.94-.94,3,.77,5.95,3.73,7.18,2.48,1,4.43.45,6.18-2.56,2.68-4.58,5-9.35,7.49-14a37.3,37.3,0,0,0,4.19-17.7c0-4.41,1.21-8.82,1.88-13.23l1.79-.06c0,2,0,4,.11,6,.69,10.71.07,21.18-4.09,31.32-1.62,3.93-2.25,8.31-2.9,12.56-.47,3.09,1,5.14,3.51,5.79,2.79.72,4.42-.83,5.5-3.13,2.06-4.36,4-8.75,6.08-13.11,3.28-7,5.64-14.21,4.89-22.11a17.79,17.79,0,0,1,.21-4.49c.5-3.05,1.17-6.08,1.77-9.11l1.15.17c0,4-.39,8,.08,11.95,1.1,9.24-1.25,17.77-4.57,26.17-.82,2.08-1.64,4.16-2.57,6.54a5.29,5.29,0,0,0,5.71-3.06c5.1-9.27,11-18.26,10.47-29.6a52.6,52.6,0,0,1,.9-9.41c.12-.92.79-1.76,1.45-3.17v27.3c4.92-8.78,5.88-18.06,5.22-27.65,0-3.33.14-6.67-.14-10s-1.54-4-4.27-2.56c-3.22,1.76-5.83.93-8.21-1-1.91-1.53-3.21-1.66-5.21-.15-2.93,2.22-6.36,2.54-9.1-.18-2.34-2.33-3.93-1.81-6.29-.08-4.19,3.09-7.24,2.63-11.06-1a20.19,20.19,0,0,1-5.59-9.26c-1.75-6-.88-12.08-.39-18.15a42.75,42.75,0,0,1,.5,6.38c.5,6.53,1.64,12.88,6.36,17.91,3.65,3.9,6,4.33,10.45,1.34,2.55-1.7,4.4-1.55,6.66.34a5.83,5.83,0,0,0,7.82.11c2.45-2,4.2-1.86,6.44.27,1.1,1,3,2,4.39,1.84a27.36,27.36,0,0,0,7.21-2.56c.43-.2.53-1.51.49-2.29-.19-3.31-.71-6.62-.71-9.93,0-9.36-2-18.43-3.7-27.56a10.07,10.07,0,0,1,.82-6.13,11.69,11.69,0,0,0,.75-10,62,62,0,0,1-3.25-21.55c.14-7.65.05-15.31.06-23a135,135,0,0,0-6.45-44.14c-3.25-10.36-7.57-20.23-14.91-28.47-2.1-2.36-4.29-4.64-6.48-6.92-1.29-1.33-1.64-2.47.26-3.55a25.83,25.83,0,0,0,2.38-1.84l-23.52-13.13c-7.43-4.78-15-9.32-21-16a36.67,36.67,0,0,1-2.43-3.69c-4.42-8.75-8.93-17.47-13.12-26.34a68.12,68.12,0,0,0-21.86-26.78c-3.84-2.77-7.78-5.42-12.34-8.6-.21,3.8-.36,6.59-.51,9.38-.27,1.08-.55,2.16-.81,3.24-1.32,5.47-1.7,11.3-5.85,15.72.18-1.45.26-2.92.58-4.33,2.6-11.47,3.78-23.23,1.85-34.69-4.09-24.18-16.73-42.7-39.31-53.64a6.81,6.81,0,0,1-1.09-.84l2.89-3.43a144.38,144.38,0,0,0-36.63-3.49c-.76,0-2,.37-2.16.85-.72,2.23-1.82,1.18-2.84.48a16.76,16.76,0,0,1-2.29-1.92A135.54,135.54,0,0,0,377.5,62.65a31.6,31.6,0,0,0-3.18-1c.66,2.6,1.18,4.69,1.71,6.78l-.88,1.21c-.39-.91-.79-1.82-1.19-2.73l-7.8-17.65c-.31-1.46-.5-2.95-.94-4.36a64.8,64.8,0,0,0-20.65-30.56c-9.92-8.32-21.51-11.56-34.41-8.88-7.63,1.58-14.5,4.7-20.12,10.28C280.74,25,272.65,35,269.8,48.28c-2,5-3.8,10.09-5.95,15a45.71,45.71,0,0,1-3.8,6.09c.59-2.7,1.18-5.39,1.84-8.37C243.32,68.13,228,79.32,214.61,92.15c-1.94-1-3.2-2.31-4.49-2.33-11.66-.25-23.28.21-34.64,3.3a4.07,4.07,0,0,0-1.07.73L176.73,97c-10.12,4.88-15.55,8.66-23,17a70.08,70.08,0,0,0-18,40.78c-1.08,11.1.38,21.9,2.39,32.71-.14.78-.29,1.56-.44,2.34A66.41,66.41,0,0,1,133,176.89c-.82-3.14-1.26-6.38-1.87-9.58-.13-1.57-.26-3.13-.39-4.61-.63,0-.82-.12-1-.06-.45.22-.88.47-1.3.72-16.2,9.69-28.13,23-35.25,40.64-2.84,7.05-6.82,13.64-10.29,20.43-4.56,5.53-9.49,10.64-15.67,14.42-2.81,1.73-5.55,3.56-8.32,5.35L35.89,256.47c4.84,3.54,4.86,3.56,1.32,7.17-6.1,6.22-11.42,13-15,21C14.13,303,10.86,322.37,11.1,342.38c0,3.66-.16,7.33,0,11,.43,12,.38,23.94-3.76,35.46a7.72,7.72,0,0,0,1.31,7.55c1.45,1.91,1.42,3.85,1,6.12Q8,410.77,6.92,419.15c-.74,5.76-1.2,11.55-1.74,17.33-.39,4.15-.3,4.26,4.17,6.32a2,2,0,0,1,.81.56c2,2.59,4,1.76,5.94.08,2.78-2.41,5.58-2.69,8.61-.52a4.75,4.75,0,0,0,6.37-.21c2.1-1.75,4.12-1.53,6.41-.22,5.57,3.21,9.32,2.47,12.36-3.08A51.36,51.36,0,0,0,54,427.82c.81-3.09.86-6.39,1.25-9.59.68,4.66,1.25,9.39.5,13.89a21.45,21.45,0,0,1-4.47,10.3c-5.55,6.26-8.85,6.39-14.11,2.44-1.54-1.15-2.63-1.56-4.32-.17a7.44,7.44,0,0,1-9.67.35,4,4,0,0,0-5.4.19c-2.78,2.17-5.54,3.45-9,.83-1.8-1.36-2.79-.51-3,2.06-.24,2.8-.44,5.6-.65,8.39-1.27,12.21.45,23.79,7.29,34.34-4.92-9.72-2.15-19.88-1.79-29.92a26.83,26.83,0,0,1,1.42,8.54c-.13,12.17,5.18,22.48,10.85,32.69a5,5,0,0,0,5,2.94c-2.37-7.5-4.93-14.61-6.8-21.89-1.26-4.86.17-19.88,1.89-23.46.43,5.42,1.15,9.85,1.07,14.28-.22,13.27,6.16,24.26,11.79,35.54a5.22,5.22,0,0,0,.92,1.18c2,2.07,3.79,2.13,6.14.38,2.86-2.13,2.33-5,1.55-7.71-2.1-7.33-4.38-14.62-6.59-21.93,0-7.32,0-14.64.14-22a19.2,19.2,0,0,1,1-4.06c.73,4.74,1.95,9.47,2.08,14.22.34,12.43,6.34,22.52,12.56,32.59a4.56,4.56,0,0,0,5.6,2.11,5.29,5.29,0,0,0,4-5.64,18.9,18.9,0,0,0-.93-4.87c-1.71-5.38-3.55-10.72-5.33-16.08-.37-1.1-1-2.24-1-3.32.69-10.09.49-20.37,5.15-29.75a23.32,23.32,0,0,1,4-5.66c3.3-3.48,6.14-3.75,9.49-.44C77,441,78.86,444.1,80.79,447c1.65,2.47,3,5.18,4.6,7.66,1.94,2.92,6.35,2.58,9.87,0,3.3-2.41,3.71-4.38,1.5-8.07-3.53-5.88-6.66-12-8-18.7a17,17,0,0,0-9.68-12.46l-5.93-5.07c-.35-3.11-1.31-6.3-.94-9.33,1.6-13.29,7.72-24.6,16.92-34.06,9.5-9.76,19.63-18.91,29.31-28.5a47.84,47.84,0,0,0,11.88-19.24c3.78-11.44,3.43-23.08,2.72-34.8-.11-1.87-1.24-2.24-2.75-1.6-3.64,1.52-7.25,3.12-10.86,4.72-1.27.57-2.51,1.23-3.37,1.65-1.51-7-2.93-13.64-4.4-20.5,4.78,4.5,5.46,10.48,6.61,16.3,3.21-1.81,6.09-3.86,9.27-5.13,3.35-1.34,7-1.95,10.5-2.85,17.51-4.5,33.09-12.11,45.22-26.12a88.88,88.88,0,0,0,18.69-35.21c1.35-4.92,2.29-9.95,3.48-14.92.08-.33.73-.53,1.18-.85.34,1.51.65,2.89.89,4,3.58-.55,6.84-.93,10.05-1.59a27.15,27.15,0,0,0,4.5-1.78h3.36l.1.49L214,205.54c-7.61,2.58-8.45,4.36-4.26,10.94,4.73,7.42,9.39,15,14.93,21.77,6.49,8,13.64,15.48,23.4,19.81a78.1,78.1,0,0,0,26.48,6.29,98,98,0,0,0,36.42-3.9c1.06,2.5-1.51,2.31-2.37,2.55-6,1.65-12.09,3.89-18.25,4.25a166.22,166.22,0,0,1-26.29-.83c-17.51-1.75-31.09-10.67-41.39-24.64-5.3-7.17-10.11-14.7-15.16-22.05a6.79,6.79,0,0,0-1.38-1.08c-.45,1-.87,1.85-1.22,2.72-2.23,5.51-3.92,11.33-6.84,16.45-2.37,4.15-2.25,7.59-.62,11.71a87.51,87.51,0,0,0,19.71,29.55q7.89,8,15.77,16c.23.24.24.69.45,1.36l-4-1.92a10.32,10.32,0,0,0-.32,2.3c1,8.34,1.51,16.78,4.74,24.71.47,1.16.12,2.65.16,4-1.59-1.18-3.09-2.51-5.35-2-7.06,1.51-14.31,2.32-20.83,5.79a78.25,78.25,0,0,0-23.73,13.17c-7.23,6-13.78,12.67-16,22.13-1.62,6.94-3.36,13.72-7.18,19.82-2.45,4.1-5.41,8-7.27,12.34-4.61,10.87-6,21.75,2.3,31.8l4.54,7.4-.65.66-8.53-8.18a10.75,10.75,0,0,0-.26,2.23,55.73,55.73,0,0,0,16.85,31.92c9,8.47,19,16,28.73,23.63,9.55,7.5,19.83,13.59,33.16,13.41l-1.92,1.71c-5.28.35-10.51.25-15.61-1.53a4.45,4.45,0,0,0-5,1c-5,5-10.12,9.85-15.19,14.77-5.06,3.46-10.16,6.86-15.15,10.42a52.55,52.55,0,0,0-6,5.13c-1,1-1.2,2.33.61,3.57,3.59-4.29,7.62-8,13.1-9.69-2.38,2.52-5,4.73-7.49,7.1-1.64,1.56-2.63,3.49-1.6,5.82.73,1.64,2.55,1.9,3.33.44,2.77-5.19,7.33-8.46,12.13-11.47a16.56,16.56,0,0,1,2.62-1.13,84.13,84.13,0,0,0-9.81,10.22c-1,1.14-2,2.16-1.08,3.94a6,6,0,0,0,5,3.51c1.94.22,2.42-1.06,3.18-2.43,3.38-6.07,9.32-9.29,14.65-13.22a6.28,6.28,0,0,1-1.52,2.53l-9.22,11c-.05.89-.43,1.94-.09,2.63,1.55,3.09,6.52,4.91,10.35,4a21.64,21.64,0,0,0,11.09-7.19c2.26-2.54,4.58-4.72,8.35-4.58,1.46.06,2.92-.51,4.4-.66,7.05-.75,13.55-2.86,19.14-7.43a50.1,50.1,0,0,1,5.74-3.92c2.12-1.28,5.31-1.89,6.26-3.71s-.24-4.85-.58-8.25c1.7,2.33,3,4,4.17,5.75a21.18,21.18,0,0,0,10.52,8c4.94,1.87,10.36-1.25,11.72-6.49a34,34,0,0,0-2.33-4.13c-2.79-3.65-5.72-7.19-8.6-10.78l-1-3c.56-7.44-2.41-13.48-7.21-18.93-4.37-5-9.12-9.79-10.76-16.47a120.7,120.7,0,0,1-2.87-15.52c-1-9.24-5-16.68-12.4-22.24-2.94-2.2-6-4.25-9-6.37,5.33.57,9.76,3,14.09,5.76a6.44,6.44,0,0,0,3,1.27,31.15,31.15,0,0,0,6.39-.59c13.37-2.61,26.37-6.32,38.13-13.49,4.1-2.5,8.15-5.08,12.3-7.49,7.47-4.33,15.14-5.77,23.08-1.16,2.86,1.66,5.8,3.23,8.59,5,8.56,5.46,17.49,10.23,27.24,13.1,6.61,1.95,13.51,2.89,20.22,4.56a7.38,7.38,0,0,0,6.86-1.34,33.16,33.16,0,0,1,12.84-5.8,36.75,36.75,0,0,1-6.12,4.82c-9.75,6.37-14.74,15.51-15.21,27-.44,10.95-4.24,20.49-12,28.05-6.31,6.13-8.72,13.43-9,21.82a5,5,0,0,0-.1.95Z"/><path class="cls-2" d="M5.15,456.51c.21-2.79.41-5.59.65-8.39.22-2.57,1.21-3.42,3-2.06,3.45,2.62,6.21,1.34,9-.83a4,4,0,0,1,5.4-.19,7.44,7.44,0,0,0,9.67-.35c1.69-1.39,2.78-1,4.32.17,5.26,3.95,8.56,3.82,14.11-2.44a21.45,21.45,0,0,0,4.47-10.3c.75-4.5.18-9.23-.5-13.89-.39,3.2-.44,6.5-1.25,9.59a51.36,51.36,0,0,1-4.17,11.59c-3,5.55-6.79,6.29-12.36,3.08-2.29-1.31-4.31-1.53-6.41.22a4.75,4.75,0,0,1-6.37.21c-3-2.17-5.83-1.89-8.61.52-1.93,1.68-4,2.51-5.94-.08a2,2,0,0,0-.81-.56c-4.47-2.06-4.56-2.17-4.17-6.32.54-5.78,1-11.57,1.74-17.33Q8,410.78,9.6,402.49c.44-2.27.47-4.21-1-6.12a7.72,7.72,0,0,1-1.31-7.55c4.14-11.52,4.19-23.45,3.76-35.46-.13-3.65,0-7.32,0-11a16,16,0,0,0,1.81-3.7c1.4-6.94,2.12-14.06,4-20.85a239.82,239.82,0,0,1,9.41-27.68c4.11-9.8,9.27-19.16,18.6-25.29,1.48-1,2.61-2.23,1.11-4.13-1.71-2.17-.57-3.63,1.29-4.9a35.44,35.44,0,0,0,5.24-3.74c2.37-2.39,5.93-3.91,6.36-7.89,2.77-1.79,5.51-3.62,8.32-5.35C73.46,235.07,78.39,230,83,224.43c2.29-.48,3.88-1.56,5.87-4.69,3-4.75,6-9.56,8.75-14.47a82.74,82.74,0,0,1,28.71-29.76c3.4-2.12,5.28-4.24,4.85-8.2.61,3.2,1.05,6.44,1.87,9.58a66.41,66.41,0,0,0,4.67,12.89c.15-.78.3-1.56.44-2.34L140,193a18.63,18.63,0,0,0,.92-7.14A135.57,135.57,0,0,1,145,151.42c2.7-11.09,7.39-21.41,14.8-30.12C169.6,109.82,182,101.87,196.22,97c4.56-1.57,9.28-2.3,14.16-.92a5.87,5.87,0,0,0,4.11-.71c4.71-2.78,9.32-5.73,13.87-8.76a135,135,0,0,1,24.06-12.95c2.66-1.09,6-1.14,7.63-4.21a45.71,45.71,0,0,0,3.8-6.09c2.15-5,4-10,5.95-15q.7,8.64,1.39,17.29A20.8,20.8,0,0,0,273,57.85c.71-9,1.95-17.82,8.12-25,2.26-2.65,4.46-5.36,6.91-7.83,9-9.12,19.62-14.61,32.89-13.54,8.5.69,16.18,3.47,22.61,9.14a96.49,96.49,0,0,1,9.09,9.11c5.44,6.28,9,13.4,9.43,21.93.22,4.69.89,9.35,1.36,14l.85.11,1.89-16.47L374,66.94c.4.91.8,1.82,1.19,2.73l.88-1.21a8.82,8.82,0,0,0,4.09,3.76c8,3.87,16,7.92,23.78,12.28,6.06,3.4,11.76,7.41,17.71,11a7.81,7.81,0,0,0,3.89.88c2.73,0,5.52-.84,8.17-.46,7.08,1,13.56,3.82,19.86,7.26a72.57,72.57,0,0,1,34.68,40.4c4.92,13.57,5.91,27.67,6.76,41.83.17,2.73,0,5.47,0,8.21l.72.15,1.47-3.51c4.15-4.42,4.53-10.25,5.85-15.72.26-1.08.54-2.16.81-3.24a20.59,20.59,0,0,0,3.37,3.18,82.74,82.74,0,0,1,18.64,14.56c5.94,6.42,10.5,13.87,14.8,21.53,3.05,5.42,6.92,10.4,10.57,15.47.53.74,1.11,2.72,2.88,1.29,6,6.67,13.59,11.21,21,16-2,1.24-.62,2.31.33,3.07,3.85,3.12,7.77,6.16,11.72,9.15,3.1,2.36,3.17,2.47,1.18,6-.3.54-.65,1-.94,1.52,2.44,1.84,4.8,3.36,6.86,5.22,7,6.25,11.21,14.27,14.58,22.82,6.07,15.38,11.47,30.95,13.24,47.55.1.95,1.15,1.81,1.75,2.72,0,7.65.08,15.31-.06,23A62,62,0,0,0,627,385.89a11.69,11.69,0,0,1-.75,10,10.07,10.07,0,0,0-.82,6.13c1.71,9.13,3.69,18.2,3.7,27.56,0,3.31.52,6.62.71,9.93,0,.78-.06,2.09-.49,2.29a27.36,27.36,0,0,1-7.21,2.56c-1.38.19-3.29-.79-4.39-1.84-2.24-2.13-4-2.28-6.44-.27a5.83,5.83,0,0,1-7.82-.11c-2.26-1.89-4.11-2-6.66-.34-4.47,3-6.8,2.56-10.45-1.34-4.72-5-5.86-11.38-6.36-17.91a42.75,42.75,0,0,0-.5-6.38c-.49,6.07-1.36,12.12.39,18.15a20.19,20.19,0,0,0,5.59,9.26c3.82,3.6,6.87,4.06,11.06,1,2.36-1.73,3.95-2.25,6.29.08,2.74,2.72,6.17,2.4,9.1.18,2-1.51,3.3-1.38,5.21.15,2.38,1.92,5,2.75,8.21,1,2.73-1.49,4-.6,4.27,2.56s.11,6.64.14,10c-.47-1.51-1-3-1.55-4.93-3.22,1.68-7.18-.16-10.2,2.7-.39.37-1.91-.13-2.69-.59a7.36,7.36,0,0,0-7-.46c-2.39,1-4.83,1.67-7.44-.1-.84-.58-2.63.25-4,.43l-1.79.06c-.34-2.78-2.49-2.19-4.2-2.14-6,.19-10-2.3-12.45-7.87-2.66-6-5.62-12-8.82-17.75s-6.87-11.39-13.79-13.5l5.21-4.82c6.15-2.88,9.22-8.21,9.8-14.5,1.33-14.21-3.75-26.41-13.49-36.61-7.44-7.79-15.36-15.13-22.78-22.94a68.33,68.33,0,0,1-13.21-20.34,79.49,79.49,0,0,1-2.67-8.82l1-.35c1.63,3.21,3.14,6.51,5,9.62a50.21,50.21,0,0,0,5.79,8.65c2.29,2.54,3.63,6.13,7.22,7.62-1.7-3.82-3.42-7.37-4.89-11-3.35-8.3-5.93-16.88-6.68-25.81-.79-9.46.68-18.8,2.55-28.09.28-1.37,2.16-4.33-1.89-4.12a6.24,6.24,0,0,1-.09-1.6c.31-1.79.78-3.55,1.05-5.33a17.91,17.91,0,0,0-.51-9.06,59.18,59.18,0,0,1-4,5.17c-4.3,4.34-8.64,8.65-13.13,12.79-1.44,1.32-3.24,1.51-5.51,1.15-9.86-1.57-18.74-5.59-27.23-10.45-9-5.15-16.93-11.53-22.64-20.48a56.55,56.55,0,0,1-8.5-22.56,11.79,11.79,0,0,1,8.76-12.8c6.85-1.66,13.85-1.32,20.81-1,4.46.18,8.91.8,13.37.82s6.66-4,4.31-7.68a29.44,29.44,0,0,0-6.6-7.26c-6.66-5.24-14.69-6.8-22.88-6.94-9.62-.16-19.18-.3-28.7-2-9.93-1.81-19.32-5.11-27.28-11.2-10.18-7.79-14.53-13.54-10.86-28.85,1.35-5.63,4.69-10.89,7.66-16,2.2-3.78,5.26-7.06,8.21-10.94-10.15-5.28-20.44-9.65-28.83-17.12,0-5.41-2.39-9.89-5.67-14-1.61-2-3.51-3.58-6.38-3-1.65.32-2.85,0-3.49-1.84-.34-1-1.19-1.72-2.22-3.12a95.46,95.46,0,0,0,8.12,30.69,109.18,109.18,0,0,1,9,29.28,28.79,28.79,0,0,1-6.38,23.15c-6.46,3.27-10.46,10-18.14,13.11,0-4.75.17-8.86,0-12.95-.26-5.24,1.49-9.71,4.26-14,2.23-3.49,4.19-7.16,6.07-10.85a15.51,15.51,0,0,0,.73-13c-1.41-3.71-2.63-7.5-4.07-11.19a9,9,0,0,0-1.84-2.21l-2.35-3.8c-3.72-6-8.87-9.24-16.19-8.31-1.47.19-3,.15-4.47.22l-8-.32c1.94-6.86,6.51-11.38,11.07-17l-9.22,2.74c1.71-2.82,2.86-4.69,4.2-6.9-3.21,1.63-5.81,3.82-8.67,4.22a126,126,0,0,1-18.84,1c-3.72,0-7.54-.82-10.63-3.41a13.77,13.77,0,0,0-2.3-1.26l-.68.71,4.5,5.79-8.59-2.76c3.26,5.12,6.3,9.81,9.26,14.54,1.62,2.59.49,3.65-2.24,3.64-4.77-.39-9.53-.84-14.31-1.16a9,9,0,0,0-7.62,3,121.51,121.51,0,0,0-7.11,10.07c-1.44,3.28-3,6.51-4.29,9.85-3,7.81-2.21,15.21,2.75,22,6.17,8.51,9,17.92,7.64,28.45-.34,2.73-1.2,3.25-3.37,1.67-1.86-1.36-3.58-2.91-5.41-4.31-3.39-2.6-6.82-5.14-10.24-7.7a25.69,25.69,0,0,1-6.43-18.81c.35-8.5,2.6-16.68,5.63-24.62s6.35-16,9-24.22c1.43-4.37,2.39-9,1.22-14-1.22,2.84-3,4-6.08,3.69-1.22-.14-2.84.88-3.85,1.82a20.34,20.34,0,0,0-6.55,15.1c-8.1,7.52-18.62,11.11-28.07,16.92,1.33,1.88,2.4,3.54,3.6,5.09,6.13,7.89,11.61,15.9,12.95,26.34a21.32,21.32,0,0,1-2.87,14.64c-6.66,10.68-17.4,15.57-28.84,19s-23.06,4.27-34.87,4a50.55,50.55,0,0,0-18,3.17,23.83,23.83,0,0,0-13.24,10.78c-2.78,4.92-.45,9.17,5.1,9a87.61,87.61,0,0,0,13.84-1.15,49,49,0,0,1,17.74.13c8.56,1.5,11.5,6.62,10.37,14.7-1.9,13.61-8.89,25-19.63,33.59a90.21,90.21,0,0,1-37.21,18.13c-4.36.95-7.4.09-10.44-2.5-1.14-1-2.16-2.08-3.2-3.15-3.9-4-7.79-8-11.93-12.27v11c0,.77.34,1.82,0,2.26-2.18,2.53-1.22,5.32-.82,8,.81,5.54,2,11.05,2.52,16.61.87,9.08-1.22,17.79-4.25,26.28-2.36,6.62-4.83,13.21-7.49,20.47,9.4-7.93,13.76-18.26,18.31-28.58a31.24,31.24,0,0,1-1.7,9.63A88.84,88.84,0,0,1,87.74,349C75.57,359.1,66,370.56,63.57,387c-1.3,8.84,1.93,18,9.55,23.37l5.93,5.07c-3.48.81-6.7,2.3-8.61,5.37-3.73,6-7.23,12.15-10.68,18.32-1.28,2.29-2,4.89-3.23,7.2-2.37,4.4-5.33,7.79-11.17,7.27-2-.18-4.24,1.21-6.37,1.88a19.2,19.2,0,0,0-1,4.06c-.13,7.32-.11,14.64-.14,22a16,16,0,0,1-.91-3.7c-.08-5.82,0-11.64,0-17.46,0-3.86-.59-4.42-4.34-3.75a6.81,6.81,0,0,1-5.05-.5,7.6,7.6,0,0,0-8,.44,3.23,3.23,0,0,1-4,.1A10.75,10.75,0,0,0,5.15,456.51ZM343,57.77c-3.63-9-10.18-14.94-18.24-19.11A15.73,15.73,0,0,0,310.3,39c-6.86,3.47-11.62,9.2-15.35,15.78-.45.78-.06,2-.06,3.07,1-.22,2.19-.17,2.94-.72,3.32-2.46,6.41-5.23,9.77-7.64,5.84-4.18,12.09-5.56,18.51-1.36,3.86,2.53,7.51,5.38,11.15,8.23C338.83,57.55,340.08,59.24,343,57.77Z"/><path class="cls-3" d="M362,503.49c.3-8.39,2.71-15.69,9-21.82,7.76-7.56,11.56-17.1,12-28.05.47-11.49,5.46-20.63,15.21-27a36.75,36.75,0,0,0,6.12-4.82,33.16,33.16,0,0,0-12.84,5.8,7.38,7.38,0,0,1-6.86,1.34c-6.71-1.67-13.61-2.61-20.22-4.56-9.75-2.87-18.68-7.64-27.24-13.1-2.79-1.77-5.73-3.34-8.59-5-7.94-4.61-15.61-3.17-23.08,1.16-4.15,2.41-8.2,5-12.3,7.49-11.76,7.17-24.76,10.88-38.13,13.49a31.15,31.15,0,0,1-6.39.59,6.44,6.44,0,0,1-3-1.27c-4.33-2.72-8.76-5.19-14.09-5.76,3,2.12,6.05,4.17,9,6.37,7.44,5.56,11.39,13,12.4,22.24a120.7,120.7,0,0,0,2.87,15.52c1.64,6.68,6.39,11.51,10.76,16.47,4.8,5.45,7.77,11.49,7.21,18.93-6.19-2-11.94-2.17-16.8,3.25-3.32,3.71-6.91,7.21-10.57,10.59-2.3,2.14-4.69,4.42-8.44,4.83,2.18-3.61,4.29-6.72,6-10,1.39-2.73,1.73-5.68-.35-8.4-2.2-2.88-5.18-2.5-8.17-2-2.57.47-5.13,1-7.7,1.53l1.92-1.71c-13.33.18-23.61-5.91-33.16-13.41-9.76-7.65-19.71-15.16-28.73-23.63A55.73,55.73,0,0,1,151,430.63a10.75,10.75,0,0,1,.26-2.23l8.53,8.18.65-.66-4.54-7.4c2.58,1.09,5.23,2.05,7.73,3.3a33.79,33.79,0,0,0,18.8,3.6c5.4-.56,10.08-3,12.1-8.29,3.78-9.83,4.29-19.81-1.44-29.18-2.12-3.47-5.1-6.42-7.69-9.6-.64-.79-1.29-1.56-1.94-2.34,17.14,6.71,21,20.47,19.71,36.28,5.89-2.23,11.63-4.81,17.62-6.55,6.31-1.84,12.91-2.69,19.3-4.32,14.84-3.78,29.09-8.81,40.89-19.25,5.36-4.74,5.72-4.51,2.45-10.71-2.7-5.12-5.22-10.53-10.25-13.85-6.45-4.27-6.05-4.95-11.18,1.65-7.19,9.25-17.38,13.18-28.06,18.68,4.58-4.93,8.46-8.91,12.1-13.1,4.3-4.95,7.56-10.65,8.61-17.11,1.19-7.35,1-14.63-5.8-19.93-5.09-3.94-9.94-8.19-14.89-12.3,0-1.34.31-2.83-.16-4-3.23-7.93-3.72-16.37-4.74-24.71a10.32,10.32,0,0,1,.32-2.3l4,1.92c-.21-.67-.22-1.12-.45-1.36q-7.86-8-15.77-16a87.51,87.51,0,0,1-19.71-29.55c-1.63-4.12-1.75-7.56.62-11.71,2.92-5.12,4.61-10.94,6.84-16.45.35-.87.77-1.71,1.22-2.72a6.79,6.79,0,0,1,1.38,1.08c5,7.35,9.86,14.88,15.16,22.05,10.3,14,23.88,22.89,41.39,24.64a166.22,166.22,0,0,0,26.29.83c6.16-.36,12.22-2.6,18.25-4.25.86-.24,3.43-.05,2.37-2.55,4.67-3.35,9.35-3.88,14-.07.14.43.17,1.16.43,1.24,5,1.66,9.93,3.92,15.08,4.68a136.54,136.54,0,0,0,20.83,1.12c15.69-.13,30.18-4.34,42.34-14.55a73.28,73.28,0,0,0,11.23-12.59c5.14-6.9,9.79-14.16,14.89-21.63.5,1.17.9,2.16,1.34,3.15,2.76,6.2,5.35,12.49,8.37,18.58a7.72,7.72,0,0,1,.36,7c-4.5,10.82-10.39,20.73-18.58,29.19l-17.91,18.54c3.15-.32,3.91.63,3.56,2.63-1.14,6.5-2.33,13-3.29,19.51-.35,2.39-2.92,4.65-.66,7.28-5.08,4.22-10.17,8.42-15.23,12.66-5.38,4.51-7.8,10.33-6.69,17.24a43,43,0,0,0,3.14,10.4c2.9,6.62,7.48,12.09,12.68,17.07,1.29,1.23,2.46,2.58,3.68,3.88a22.17,22.17,0,0,1-7.44-2.45c-7.36-4.14-14.73-8.26-19.64-15.6-2.81-4.21-5.5-4.26-9.49-.82a47.07,47.07,0,0,0-12.21,16.78c-1.11,2.5-1.13,4.52,1.1,6.17,5.32,3.91,10.45,8.16,16.12,11.49,9.64,5.65,20.39,8.52,31.19,11.13S422.42,416,433,422.88c-.46-8,.27-15.28,3.38-21.87s7.28-12.35,15.57-14.92c-3,4.08-5.54,7.29-7.77,10.71-6,9.29-6.86,19.25-2.69,29.39,2.05,5,6.16,8.57,11.61,9.14,5.21.56,10.59.74,15.66-1.66,4-1.91,8.21-3.44,12.33-5.14-1.49,2.47-3,4.93-5,8.26,4.15-2.24,6.1-5.67,9.16-7.8.54,2.85-.52,8.7-2.29,12.6a73.83,73.83,0,0,1-20.42,27.16c-9.73,8-19.6,15.77-30,22.93-7,4.83-14.59,7.73-23.16,7.81-1.43,0-2.41.17-1.32,1.88-2.4-.49-4.79-1.14-7.21-1.41a11.56,11.56,0,0,0-5.25.3c-4,1.54-5.19,6.47-2.64,11,1.44,2.56,3.57,4.72,5.33,7.1a22.1,22.1,0,0,1,1.4,2.53l-.87.73c-3.24-2.49-6.62-4.8-9.66-7.51-3.46-3.09-6.52-6.62-9.91-9.8C374,499.29,366.6,499,362,503.49Zm-8-223c-6.25-2.11-12.43-4.45-18.76-6.25a74.41,74.41,0,0,0-14-2.7c-10.44-.88-20.22,2.19-29.86,5.8-3.08,1.16-6.23,2.14-9.35,3.19-.1-2.25-1.77-2.09-3.25-2-4.29.28-8.57.83-12.86.94-6.83.16-13.66,0-20.49.07-4.76.06-6.87,3-4.63,7.15a31.06,31.06,0,0,0,7,8.87c6.25,5.28,12.24,10.67,16.65,17.66,2.92,4.62,6.33,8.93,9.09,13.63a34.14,34.14,0,0,0,18.21,15.48c6.68,2.42,13.5,4.19,20.85,2.55a23.08,23.08,0,0,1,10.39-.08c5.95,1.55,11.55.3,17.12-1,3.44-.82,6.6-2.8,9.89-4.26,2.32-1.5,5.16-2.56,6.85-4.58a145.31,145.31,0,0,0,9.74-13.68c5.7-8.72,11.05-17.63,19.83-23.84a34.39,34.39,0,0,0,7.34-7.41,12.74,12.74,0,0,0,2.14-6.34c.29-3.46-.48-4.08-3.92-4.17-3.65-.09-7.31,0-11,0-4.48-.05-8.95-.11-13.43-.29-3.78-.15-7.56-.58-11.35-.61C355.5,278.56,354.75,279.8,354,280.46Zm58.75-16.16c.48,6-3.88,8.85-6,12.88a12,12,0,0,0,4.23-2.4c2.75-2.92,5.26-6.28,4.71-10.46a5.3,5.3,0,0,1,1.22-4.35c1.61-2.31,3.57-4.66,2.8-8L407.4,266.55ZM217.71,253c.4,1.91.45,3.6,1.12,5a20.12,20.12,0,0,1,2.28,8.46,10.25,10.25,0,0,0,7.95,9.37c-2.37-3.85-5.51-7.11-6-12.06l6.53,2.77C225.52,261.88,221.88,257.73,217.71,253Z"/><path class="cls-4" d="M481.06,428.53c-4.12,1.7-8.31,3.23-12.33,5.14-5.07,2.4-10.45,2.22-15.66,1.66-5.45-.57-9.56-4.16-11.61-9.14-4.17-10.14-3.35-20.1,2.69-29.39,2.23-3.42,4.8-6.63,7.77-10.71-8.29,2.57-12.48,8.37-15.57,14.92s-3.84,13.83-3.38,21.87c-10.55-6.85-21.9-7.76-32.74-10.38S378.68,407,369,401.37c-5.67-3.33-10.8-7.58-16.12-11.49-2.23-1.65-2.21-3.67-1.1-6.17A47.07,47.07,0,0,1,364,366.93c4-3.44,6.68-3.39,9.49.82,4.91,7.34,12.28,11.46,19.64,15.6a22.17,22.17,0,0,0,7.44,2.45c-1.22-1.3-2.39-2.65-3.68-3.88-5.2-5-9.78-10.45-12.68-17.07a43,43,0,0,1-3.14-10.4c-1.11-6.91,1.31-12.73,6.69-17.24,5.06-4.24,10.15-8.44,15.23-12.66,1.55-.38,3.19-1.31,4.63-1.05,8.05,1.45,16.14,2.89,23.49,6.8a1.66,1.66,0,0,0-.38.31.89.89,0,0,0-.15.44c1.35.92,2.68,1.84,4.06,2.69,8.17,5.07,15.93,10.62,21.64,18.55,4.83,6.71,9.44,13.51,9.76,22.23a4.43,4.43,0,0,0,1.15,2.63c2.15,2.3,4.43,4.47,6.71,6.63.14.13.74-.24,1.12-.38,6.7,8.35,11,17.75,11.48,28.53A24.33,24.33,0,0,1,481.06,428.53Z"/><path class="cls-5" d="M234,325.5c5,4.11,9.8,8.36,14.89,12.3,6.83,5.3,7,12.58,5.8,19.93-1,6.46-4.31,12.16-8.61,17.11-3.64,4.19-7.52,8.17-12.1,13.1,10.68-5.5,20.87-9.43,28.06-18.68,5.13-6.6,4.73-5.92,11.18-1.65,5,3.32,7.55,8.73,10.25,13.85,3.27,6.2,2.91,6-2.45,10.71-11.8,10.44-26.05,15.47-40.89,19.25-6.39,1.63-13,2.48-19.3,4.32-6,1.74-11.73,4.32-17.62,6.55,1.26-15.81-2.57-29.57-19.71-36.28.65.78,1.3,1.55,1.94,2.34,2.59,3.18,5.57,6.13,7.69,9.6,5.73,9.37,5.22,19.35,1.44,29.18-2,5.25-6.7,7.73-12.1,8.29a33.79,33.79,0,0,1-18.8-3.6c-2.5-1.25-5.15-2.21-7.73-3.3-8.27-10-6.91-20.93-2.3-31.8,1.86-4.36,4.82-8.24,7.27-12.34.4.11,1,.44,1.16.29,1.57-1.42,3-2.95,4.59-4.41a10.43,10.43,0,0,0,3.55-6.19,48.65,48.65,0,0,1,13.58-25.94,83.24,83.24,0,0,1,23-17.13c.47-.23,2.48-.14,1-1.74,6.52-3.47,13.77-4.28,20.83-5.79C230.89,323,232.39,324.32,234,325.5Z"/><path class="cls-6" d="M73.12,410.36C65.5,405,62.27,395.83,63.57,387c2.41-16.43,12-27.89,24.17-38a88.84,88.84,0,0,0,26.05-35.37,31.24,31.24,0,0,0,1.7-9.63c-4.55,10.32-8.91,20.65-18.31,28.58,2.66-7.26,5.13-13.85,7.49-20.47,3-8.49,5.12-17.2,4.25-26.28-.53-5.56-1.71-11.07-2.52-16.61-.4-2.71-1.36-5.5.82-8,.37-.44,0-1.49,0-2.26v-11c4.14,4.26,8,8.27,11.93,12.27,1,1.07,2.06,2.19,3.2,3.15,3,2.59,6.08,3.45,10.44,2.5A90.21,90.21,0,0,0,170,247.69c10.74-8.57,17.73-20,19.63-33.59,1.13-8.08-1.81-13.2-10.37-14.7a49,49,0,0,0-17.74-.13,87.61,87.61,0,0,1-13.84,1.15c-5.55.16-7.88-4.09-5.1-9a23.83,23.83,0,0,1,13.24-10.78,50.55,50.55,0,0,1,18-3.17c11.81.23,23.53-.64,34.87-4s22.18-8.32,28.84-19a21.32,21.32,0,0,0,2.87-14.64c-1.34-10.44-6.82-18.45-12.95-26.34-1.2-1.55-2.27-3.21-3.6-5.09,9.45-5.81,20-9.4,28.07-16.92,1.1,3.46,2.36,6.88,3.23,10.4a10.32,10.32,0,0,1-.06,5.15c-1.36,4.6-3.39,9-4.56,13.65-1.76,7-3.95,14.11-1.54,21.45.92,2.81,2,5.56,3,8.33a49.94,49.94,0,0,0-11.79,13.28c-3.88,6.13-8.43,11.83-12.67,17.73-1.9,2.65-3.77,5.32-5.65,8-3.33,3.26-6.43,6.66-7.5,11.12H222a27.15,27.15,0,0,1-4.5,1.78c-3.21.66-6.47,1-10.05,1.59-.24-1.09-.55-2.47-.89-4-.45.32-1.1.52-1.18.85-1.19,5-2.13,10-3.48,14.92a88.88,88.88,0,0,1-18.69,35.21c-12.13,14-27.71,21.62-45.22,26.12-3.51.9-7.15,1.51-10.5,2.85-3.18,1.27-6.06,3.32-9.27,5.13-1.15-5.82-1.83-11.8-6.61-16.3,1.47,6.86,2.89,13.47,4.4,20.5.86-.42,2.1-1.08,3.37-1.65,3.61-1.6,7.22-3.2,10.86-4.72,1.51-.64,2.64-.27,2.75,1.6.71,11.72,1.06,23.36-2.72,34.8a47.84,47.84,0,0,1-11.88,19.24c-9.68,9.59-19.81,18.74-29.31,28.5-9.2,9.46-15.32,20.77-16.92,34.06C71.81,404.06,72.77,407.25,73.12,410.36Z"/><path class="cls-6" d="M384.12,91.39c8.39,7.47,18.68,11.84,28.83,17.12-2.95,3.88-6,7.16-8.21,10.94-3,5.12-6.31,10.38-7.66,16-3.67,15.31.68,21.06,10.86,28.85,8,6.09,17.35,9.39,27.28,11.2,9.52,1.74,19.08,1.88,28.7,2,8.19.14,16.22,1.7,22.88,6.94a29.44,29.44,0,0,1,6.6,7.26c2.35,3.69,0,7.7-4.31,7.68s-8.91-.64-13.37-.82c-7-.28-14-.62-20.81,1a11.79,11.79,0,0,0-8.76,12.8,56.55,56.55,0,0,0,8.5,22.56c5.71,9,13.67,15.33,22.64,20.48,8.49,4.86,17.37,8.88,27.23,10.45,2.27.36,4.07.17,5.51-1.15,4.49-4.14,8.83-8.45,13.13-12.79a59.18,59.18,0,0,0,4-5.17,17.91,17.91,0,0,1,.51,9.06c-.27,1.78-.74,3.54-1.05,5.33a6.24,6.24,0,0,0,.09,1.6c4-.21,2.17,2.75,1.89,4.12-1.87,9.29-3.34,18.63-2.55,28.09.75,8.93,3.33,17.51,6.68,25.81,1.47,3.65,3.19,7.2,4.89,11-3.59-1.49-4.93-5.08-7.22-7.62a50.21,50.21,0,0,1-5.79-8.65c-1.81-3.11-3.32-6.41-5-9.62l-1,.35a79.49,79.49,0,0,0,2.67,8.82,68.33,68.33,0,0,0,13.21,20.34c7.42,7.81,15.34,15.15,22.78,22.94,9.74,10.2,14.82,22.4,13.49,36.61-.58,6.29-3.65,11.62-9.8,14.5,2.12-7.84,1.16-15.46-2-22.79a73.88,73.88,0,0,0-19.6-26.56c-8-7-15.78-14.31-23.08-22a51.34,51.34,0,0,1-14.57-34.93c-.17-6,.13-11.84.18-17.76,0-3,.93-3.67,3.68-2.53,3.63,1.5,7.13,3.33,10.94,4.7a14.39,14.39,0,0,0-8.45-7.23c-6.1-2-12.27-3.91-18.4-5.86C476,270.19,464,263.1,454.37,252.29c-10.73-12.08-18.71-25.64-21.44-41.88-.58-3.51-1.62-6.93-2.45-10.4l-1.06,0c-.32,1.42-.63,2.85-1.09,4.93L420,201.51c1.28-.24,2.36-.69,1.38-2.23-2.08-3.29-4.24-6.54-6.36-9.8a12.91,12.91,0,0,0-1.52-3,169.29,169.29,0,0,1-18.53-24.87c-2.77-4.5-5.47-9.61-11.85-10.12a29.66,29.66,0,0,0,5-17.36c-.28-7.91-2.53-15.35-5.27-22.61-1.94-5.12-3.58-9.82,0-14.92C383.72,95.24,383.69,93.16,384.12,91.39Z"/><path class="cls-7" d="M222,200.53h-7.59c1.07-4.46,4.17-7.86,7.5-11.12,1.28-.7,2.59-1.35,3.83-2.11,3.36-2.06,6.68-4.17,10-6.25,1.68-.69,3.36-1.38,5.05-2.05a47.65,47.65,0,0,1,23.78-3.56c5.06.62,10.23,1.2,14.35,4.77,2.37,2.06,4.71,4.14,7.06,6.21.08.82-.12,1.83.29,2.43,5.33,8,10.25,16.32,18.35,22,2.44,1.71,4.86,3.45,7.28,5.18a6.53,6.53,0,0,1,3,6.87,6.41,6.41,0,0,1-4.61,5.36c-1.56.5-3.2.79-4.78,1.25a21,21,0,0,0-2.26.92l.18,1.1c2.11,0,4.23-.13,6.33,0,3.4.25,4.66,1.26,5.5,4.63,1,4.16,0,8.2-1.74,11.92a12.74,12.74,0,0,1-4.2,4.66c-5.2,3.7-11.4,4.2-17.47,4.65-6.62.48-13.13-.49-19.7-1.79-25.26-5-43.69-19.05-56.11-41.26-1.42-2.54-3.34-5.43-2.07-8.81L225.48,201l-.1-.49Z"/><path class="cls-8" d="M415,189.48c2.12,3.26,4.28,6.51,6.36,9.8,1,1.54-.1,2-1.38,2.23l-10.26-1.25-.11.55L423,206.5c-3.07,11.22-10.3,19.89-17.86,28.21a56.74,56.74,0,0,1-20.42,13.87c-15.26,6.41-30.85,10.63-47.68,7.91-10.81-1.75-16.87-8.88-16-19.53.33-4.17,1.68-5.38,5.94-5.5,2.12-.06,4.33.33,6.38-.72a82.77,82.77,0,0,0-7.8-3.07,5.09,5.09,0,0,1-3.58-5.35c.05-2.76,0-5.32,3-6.79,10.81-5.39,17.79-14.56,24-24.49a14,14,0,0,0,1.06-3.67c2-2,4-4,6.07-5.88a21.09,21.09,0,0,1,10-5.18c11.36-2.52,22-.58,32.44,4.12,1.94.88,4,1.55,6,2.32Z"/><path class="cls-9" d="M349.91,187.37a14,14,0,0,1-1.06,3.67c-6.16,9.93-13.14,19.1-24,24.49-2.95,1.47-2.91,4-3,6.79a5.09,5.09,0,0,0,3.58,5.35,82.77,82.77,0,0,1,7.8,3.07c-2.05,1-4.26.66-6.38.72-4.26.12-5.61,1.33-5.94,5.5-.86,10.65,5.2,17.78,16,19.53,16.83,2.72,32.42-1.5,47.68-7.91a56.74,56.74,0,0,0,20.42-13.87c7.56-8.32,14.79-17,17.86-28.21,5.69,1.95,6.75,4.07,3.85,9-7.06,12-14.71,23.69-24.94,33.35-7.69,7.27-17.07,11.34-27.27,13.47a100.25,100.25,0,0,1-49.58-2c-4.7-3.81-9.38-3.28-14,.07a98,98,0,0,1-36.42,3.9,78.1,78.1,0,0,1-26.48-6.29c-9.76-4.33-16.91-11.83-23.4-19.81-5.54-6.8-10.2-14.35-14.93-21.77-4.19-6.58-3.35-8.36,4.26-10.94-1.27,3.38.65,6.27,2.07,8.81,12.42,22.21,30.85,36.27,56.11,41.26,6.57,1.3,13.08,2.27,19.7,1.79,6.07-.45,12.27-.95,17.47-4.65a12.74,12.74,0,0,0,4.2-4.66c1.71-3.72,2.78-7.76,1.74-11.92-.84-3.37-2.1-4.38-5.5-4.63-2.1-.16-4.22,0-6.33,0l-.18-1.1a21,21,0,0,1,2.26-.92c1.58-.46,3.22-.75,4.78-1.25a6.41,6.41,0,0,0,4.61-5.36,6.53,6.53,0,0,0-3-6.87c-2.42-1.73-4.84-3.47-7.28-5.18-8.1-5.66-13-14-18.35-22-.41-.6-.21-1.61-.29-2.43,1.51,1,3.07,2,4.5,3.06,6,4.58,12,9,19.83,9.57,4.29.34,8.61.41,12.92.35a29.59,29.59,0,0,0,16.38-5.05C343.09,192.05,346.49,189.7,349.91,187.37Z"/><path class="cls-10" d="M227.84,501.3c2.57-.51,5.13-1.06,7.7-1.53,3-.54,6-.92,8.17,2,2.08,2.72,1.74,5.67.35,8.4-1.69,3.33-3.8,6.44-6,10,3.75-.41,6.14-2.69,8.44-4.83,3.66-3.38,7.25-6.88,10.57-10.59,4.86-5.42,10.61-5.22,16.8-3.25l1,3-9.38,2.72c-2.18.63-2.33,1.95-1.34,3.74,3.85,7,10.52,12.07,21.65,8.45-1.36,5.24-6.78,8.36-11.72,6.49a21.18,21.18,0,0,1-10.52-8c-1.17-1.76-2.47-3.42-4.17-5.75.34,3.4,1.54,6.38.58,8.25s-4.14,2.43-6.26,3.71A50.1,50.1,0,0,0,248,528c-5.59,4.57-12.09,6.68-19.14,7.43-1.48.15-2.94.72-4.4.66-3.77-.14-6.09,2-8.35,4.58A21.64,21.64,0,0,1,205,547.89c-3.83.93-8.8-.89-10.35-4-.34-.69,0-1.74.09-2.63,6,3.42,12.49,2.49,17.89-3a44.22,44.22,0,0,1,14-10.18c4.66-2,4.72-5.85.42-8.53-7.23-4.5-15.38-4.16-23.42-4.45-3.89-.15-7.68,2-11.61.42,5.07-4.92,10.18-9.8,15.19-14.77a4.45,4.45,0,0,1,5-1C217.33,501.55,222.56,501.65,227.84,501.3Z"/><path class="cls-11" d="M362,503.49c4.56-4.48,11.92-4.2,17.24.81,3.39,3.18,6.45,6.71,9.91,9.8,3,2.71,6.42,5,9.66,7.51l.87-.73a22.1,22.1,0,0,0-1.4-2.53c-1.76-2.38-3.89-4.54-5.33-7.1-2.55-4.52-1.32-9.45,2.64-11a11.56,11.56,0,0,1,5.25-.3c2.42.27,4.81.92,7.21,1.41,5.76.18,11.57.69,17.11-1.5,1.65-.66,2.79-.13,4,1,5.33,5.15,10.71,10.25,16.07,15.37a20.33,20.33,0,0,1-3.92-.19,48.37,48.37,0,0,0-23.37.36,31.69,31.69,0,0,0-8.62,3.55c-3.61,2.16-3.39,6.95.5,8.19,5.05,1.61,8.54,5,11.89,8.61s7.87,5.44,12.54,6.5c2.66.6,5.66.77,7.77-1.85-.1,1,.16,2.26-.36,2.92-2.71,3.46-8.65,4.59-13.25,2.3a20.15,20.15,0,0,1-6.73-5c-3.57-4.48-8.31-5.72-13.53-6.19a36.6,36.6,0,0,1-18.92-6.77c-4.4-3.21-9.11-6-13.83-9,.56-1.9,1.18-4,1.8-6.17l-1-.57c-1.06,1.48-2.14,2.95-3.17,4.46a22.15,22.15,0,0,1-10.82,8.45c-4.35,1.61-10.39-1.05-12-5.37-.22-.6.33-1.49.53-2.24.57.72,1,1.9,1.74,2.09a16.71,16.71,0,0,0,19.54-9c1.42-2.81,1-3.76-2-4.69-2.68-.8-5.4-1.47-8.1-2.2A5,5,0,0,1,362,503.49Z"/><path class="cls-12" d="M39,455.47c2.13-.67,4.32-2.06,6.37-1.88,5.84.52,8.8-2.87,11.17-7.27,1.25-2.31,1.95-4.91,3.23-7.2,3.45-6.17,6.95-12.32,10.68-18.32,1.91-3.07,5.13-4.56,8.61-5.37a17,17,0,0,1,9.68,12.46c1.37,6.74,4.5,12.82,8,18.7,2.21,3.69,1.8,5.66-1.5,8.07-3.52,2.56-7.93,2.9-9.87,0-1.64-2.48-3-5.19-4.6-7.66-1.93-2.88-3.75-5.94-6.18-8.35-3.35-3.31-6.19-3-9.49.44a23.32,23.32,0,0,0-4,5.66c-4.66,9.38-4.46,19.66-5.15,29.75-.08,1.08.58,2.22,1,3.32,1.78,5.36,3.62,10.7,5.33,16.08a18.9,18.9,0,0,1,.93,4.87,5.29,5.29,0,0,1-4,5.64,4.56,4.56,0,0,1-5.6-2.11c-6.22-10.07-12.22-20.16-12.56-32.59C40.94,464.94,39.72,460.21,39,455.47Z"/><path class="cls-13" d="M555.85,414.35c6.92,2.11,10.57,7.7,13.79,13.5s6.16,11.71,8.82,17.75c2.47,5.57,6.49,8.06,12.45,7.87,1.71-.05,3.86-.64,4.2,2.14-.67,4.41-1.87,8.82-1.88,13.23a37.3,37.3,0,0,1-4.19,17.7c-2.47,4.7-4.81,9.47-7.49,14-1.75,3-3.7,3.59-6.18,2.56-3-1.23-4.67-4.13-3.73-7.18,1.86-6,4.14-11.91,6-17.94a24.05,24.05,0,0,0,1.22-8.25c-.52-8.6-.85-17.33-4.7-25.27a26.92,26.92,0,0,0-5.48-7.52c-2.47-2.37-4.76-2.13-7.7-.27a19.74,19.74,0,0,0-7,8.23c-1.19,2.37-2.38,4.75-3.72,7a6.23,6.23,0,0,1-6.66,3.39,9.37,9.37,0,0,1-7-5.06c-.4-.75,0-2.32.59-3.17a74.43,74.43,0,0,0,10-23.75C548.22,418.84,552.09,416.56,555.85,414.35Z"/><path class="cls-14" d="M260.05,69.41c-1.61,3.07-5,3.12-7.63,4.21a135,135,0,0,0-24.06,12.95c-4.55,3-9.16,6-13.87,8.76a5.87,5.87,0,0,1-4.11.71c-4.88-1.38-9.6-.65-14.16.92-14.24,4.91-26.62,12.86-36.39,24.34-7.41,8.71-12.1,19-14.8,30.12A135.57,135.57,0,0,0,141,185.83,18.63,18.63,0,0,1,140,193l-1.92-5.53c-2-10.81-3.47-21.61-2.39-32.71a70.08,70.08,0,0,1,18-40.78c7.42-8.32,12.85-12.1,23-17l-2.32-3.12a4.07,4.07,0,0,1,1.07-.73c11.36-3.09,23-3.55,34.64-3.3,1.29,0,2.55,1.29,4.49,2.33C228,79.32,243.32,68.13,261.89,61,261.23,64,260.64,66.71,260.05,69.41Z"/><path class="cls-15" d="M497.19,190.27l-1.47,3.51-.72-.15c0-2.74.14-5.48,0-8.21-.85-14.16-1.84-28.26-6.76-41.83a72.57,72.57,0,0,0-34.68-40.4c-6.3-3.44-12.78-6.25-19.86-7.26-2.65-.38-5.44.43-8.17.46a7.81,7.81,0,0,1-3.89-.88c-5.95-3.6-11.65-7.61-17.71-11-7.78-4.36-15.74-8.41-23.78-12.28A8.82,8.82,0,0,1,376,68.46c-.53-2.09-1-4.18-1.71-6.78a31.6,31.6,0,0,1,3.18,1,135.54,135.54,0,0,1,40.69,26.61,16.76,16.76,0,0,0,2.29,1.92c1,.7,2.12,1.75,2.84-.48.15-.48,1.4-.82,2.16-.85a144.38,144.38,0,0,1,36.63,3.49l-2.89,3.43a6.81,6.81,0,0,0,1.09.84c22.58,10.94,35.22,29.46,39.31,53.64,1.93,11.46.75,23.22-1.85,34.69C497.45,187.35,497.37,188.82,497.19,190.27Z"/><path class="cls-16" d="M596.9,455.55c1.36-.18,3.15-1,4-.43,2.61,1.77,5.05,1.08,7.44.1a7.36,7.36,0,0,1,7,.46c.78.46,2.3,1,2.69.59,3-2.86,7-1,10.2-2.7.6,1.9,1.08,3.42,1.55,4.93.66,9.59-.3,18.87-5.22,27.65v-27.3c-.66,1.41-1.33,2.25-1.45,3.17a52.6,52.6,0,0,0-.9,9.41c.54,11.34-5.37,20.33-10.47,29.6a5.29,5.29,0,0,1-5.71,3.06c.93-2.38,1.75-4.46,2.57-6.54,3.32-8.4,5.67-16.93,4.57-26.17-.47-3.93-.08-8-.08-11.95l-1.15-.17c-.6,3-1.27,6.06-1.77,9.11a17.79,17.79,0,0,0-.21,4.49c.75,7.9-1.61,15.1-4.89,22.11-2,4.36-4,8.75-6.08,13.11-1.08,2.3-2.71,3.85-5.5,3.13-2.48-.65-4-2.7-3.51-5.79.65-4.25,1.28-8.63,2.9-12.56,4.16-10.14,4.78-20.61,4.09-31.32C596.88,459.55,596.93,457.55,596.9,455.55Z"/><path class="cls-7" d="M5.15,456.51a10.75,10.75,0,0,1,10.39.11,3.23,3.23,0,0,0,4-.1,7.6,7.6,0,0,1,8-.44,6.81,6.81,0,0,0,5.05.5c3.75-.67,4.33-.11,4.34,3.75,0,5.82-.09,11.64,0,17.46a16,16,0,0,0,.91,3.7c2.21,7.31,4.49,14.6,6.59,21.93.78,2.73,1.31,5.58-1.55,7.71-2.35,1.75-4.15,1.69-6.14-.38a5.22,5.22,0,0,1-.92-1.18c-5.63-11.28-12-22.27-11.79-35.54.08-4.43-.64-8.86-1.07-14.28-1.72,3.58-3.15,18.6-1.89,23.46,1.87,7.28,4.43,14.39,6.8,21.89a5,5,0,0,1-5-2.94c-5.67-10.21-11-20.52-10.85-32.69a26.83,26.83,0,0,0-1.42-8.54c-.36,10-3.13,20.2,1.79,29.92C5.6,480.3,3.88,468.72,5.15,456.51Z"/><path class="cls-17" d="M442,541.42c-2.11,2.62-5.11,2.45-7.77,1.85-4.67-1.06-9.14-2.77-12.54-6.5s-6.84-7-11.89-8.61c-3.89-1.24-4.11-6-.5-8.19a31.69,31.69,0,0,1,8.62-3.55,48.37,48.37,0,0,1,23.37-.36,20.33,20.33,0,0,0,3.92.19c5.65,3.78,11.39,7.44,16.92,11.4,2.09,1.49,5,3,3.15,7.45-3.43-4.34-7.11-7.68-12.39-8.86a40.78,40.78,0,0,1,5.06,4.35,16.78,16.78,0,0,1,3.1,5.37c.53,1.52-.37,2.94-2.19,3.28s-1.36-1.33-1.94-2.16a30,30,0,0,0-4.76-5.63c-2.61-2.25-5.56-4.09-8.36-6.11l-.8.77c1.13,1.16,2.24,2.35,3.39,3.48,2.13,2.1,4.37,4.09,6.4,6.28,1.56,1.68,1.81,3.92-.07,5.27-1.62,1.16-3.87,1.46-5.86,2.05-.15,0-.62-.67-.78-1.09-2.64-7-9.48-9.82-14.18-14.77l-.84.73Z"/><path class="cls-18" d="M192,515.5c3.93,1.57,7.72-.57,11.61-.42,8,.29,16.19-.05,23.42,4.45,4.3,2.68,4.24,6.49-.42,8.53a44.22,44.22,0,0,0-14,10.18c-5.4,5.53-11.93,6.46-17.89,3l9.22-11a6.28,6.28,0,0,0,1.52-2.53c-5.33,3.93-11.27,7.15-14.65,13.22-.76,1.37-1.24,2.65-3.18,2.43a6,6,0,0,1-5-3.51c-.9-1.78.1-2.8,1.08-3.94a84.13,84.13,0,0,1,9.81-10.22,16.56,16.56,0,0,0-2.62,1.13c-4.8,3-9.36,6.28-12.13,11.47-.78,1.46-2.6,1.2-3.33-.44-1-2.33,0-4.26,1.6-5.82,2.48-2.37,5.11-4.58,7.49-7.1-5.48,1.67-9.51,5.4-13.1,9.69-1.81-1.24-1.63-2.57-.61-3.57a52.55,52.55,0,0,1,6-5.13C181.87,522.36,187,519,192,515.5Z"/><path class="cls-19" d="M366.16,49.29l-1.89,16.47-.85-.11c-.47-4.67-1.14-9.33-1.36-14-.41-8.53-4-15.65-9.43-21.93a96.49,96.49,0,0,0-9.09-9.11c-6.43-5.67-14.11-8.45-22.61-9.14C307.66,10.38,297.08,15.87,288,25c-2.45,2.47-4.65,5.18-6.91,7.83-6.17,7.21-7.41,16-8.12,25a20.8,20.8,0,0,1-1.82,7.72q-.69-8.64-1.39-17.29C272.65,35,280.74,25,290,15.77c5.62-5.58,12.49-8.7,20.12-10.28,12.9-2.68,24.49.56,34.41,8.88a64.8,64.8,0,0,1,20.65,30.56C365.66,46.34,365.85,47.83,366.16,49.29Z"/><path class="cls-20" d="M623.85,341.38c-.6-.91-1.65-1.77-1.75-2.72-1.77-16.6-7.17-32.17-13.24-47.55-3.37-8.55-7.63-16.57-14.58-22.82-2.06-1.86-4.42-3.38-6.86-5.22.29-.48.64-1,.94-1.52,2-3.53,1.92-3.64-1.18-6-3.95-3-7.87-6-11.72-9.15-1-.76-2.33-1.83-.33-3.07l23.52,13.13a25.83,25.83,0,0,1-2.38,1.84c-1.9,1.08-1.55,2.22-.26,3.55,2.19,2.28,4.38,4.56,6.48,6.92,7.34,8.24,11.66,18.11,14.91,28.47A135,135,0,0,1,623.85,341.38Z"/><path class="cls-21" d="M59,244.2c-.43,4-4,5.5-6.36,7.89a35.44,35.44,0,0,1-5.24,3.74c-1.86,1.27-3,2.73-1.29,4.9,1.5,1.9.37,3.16-1.11,4.13-9.33,6.13-14.49,15.49-18.6,25.29A239.82,239.82,0,0,0,17,317.83c-1.92,6.79-2.64,13.91-4,20.85a16,16,0,0,1-1.81,3.7c-.24-20,3-39.34,11.15-57.73,3.54-8,8.86-14.79,15-21,3.54-3.61,3.52-3.63-1.32-7.17Z"/><path class="cls-22" d="M131.13,167.31c.43,4-1.45,6.08-4.85,8.2a82.74,82.74,0,0,0-28.71,29.76c-2.77,4.91-5.72,9.72-8.75,14.47-2,3.13-3.58,4.21-5.87,4.69,3.47-6.79,7.45-13.38,10.29-20.43,7.12-17.67,19.05-30.95,35.25-40.64.42-.25.85-.5,1.3-.72.13-.06.32,0,1,.06C130.87,164.18,131,165.74,131.13,167.31Z"/><path class="cls-23" d="M554.11,227.34c-1.77,1.43-2.35-.55-2.88-1.29-3.65-5.07-7.52-10.05-10.57-15.47-4.3-7.66-8.86-15.11-14.8-21.53a82.74,82.74,0,0,0-18.64-14.56,20.59,20.59,0,0,1-3.37-3.18c.15-2.79.3-5.58.51-9.38,4.56,3.18,8.5,5.83,12.34,8.6a68.12,68.12,0,0,1,21.86,26.78c4.19,8.87,8.7,17.59,13.12,26.34A36.67,36.67,0,0,0,554.11,227.34Z"/><path class="cls-24" d="M207.8,329.26c1.45,1.6-.56,1.51-1,1.74a83.24,83.24,0,0,0-23,17.13,48.65,48.65,0,0,0-13.58,25.94,10.43,10.43,0,0,1-3.55,6.19c-1.54,1.46-3,3-4.59,4.41-.16.15-.76-.18-1.16-.29,3.82-6.1,5.56-12.88,7.18-19.82,2.22-9.46,8.77-16.16,16-22.13A78.25,78.25,0,0,1,207.8,329.26Z"/><path class="cls-25" d="M475.05,383.4c-.38.14-1,.51-1.12.38-2.28-2.16-4.56-4.33-6.71-6.63a4.43,4.43,0,0,1-1.15-2.63c-.32-8.72-4.93-15.52-9.76-22.23-5.71-7.93-13.47-13.48-21.64-18.55-1.38-.85-2.71-1.77-4.06-2.69a.89.89,0,0,1,.15-.44,1.66,1.66,0,0,1,.38-.31c10.43,4.14,19.78,9.89,27.56,18.11,5.36,5.65,9.37,12,10.67,19.76A44.61,44.61,0,0,0,475.05,383.4Z"/><path class="cls-7" d="M361.94,504.44c2.7.73,5.42,1.4,8.1,2.2,3,.93,3.42,1.88,2,4.69a16.71,16.71,0,0,1-19.54,9c-.71-.19-1.17-1.37-1.74-2.09Z"/><path class="cls-26" d="M285.85,519.41C274.72,523,268.05,518,264.2,511c-1-1.79-.84-3.11,1.34-3.74l9.38-2.72c2.88,3.59,5.81,7.13,8.6,10.78A34,34,0,0,1,285.85,519.41Z"/><path class="cls-1" d="M349.91,187.37c-3.42,2.33-6.82,4.68-10.26,7a29.59,29.59,0,0,1-16.38,5.05c-4.31.06-8.63,0-12.92-.35-7.81-.6-13.88-5-19.83-9.57-1.43-1.11-3-2-4.5-3.06-2.35-2.07-4.69-4.15-7.06-6.21-4.12-3.57-9.29-4.15-14.35-4.77A47.65,47.65,0,0,0,240.83,179c-1.69.67-3.37,1.36-5.05,2.05,5-4.76,11.51-6.26,17.9-7.42,5.41-1,11.05-.74,15.86-1-5.49-7-11.5-14.59-17.5-22.22-1-2.77-2.12-5.52-3-8.33-2.41-7.34-.22-14.43,1.54-21.45,1.17-4.63,3.2-9,4.56-13.65a10.32,10.32,0,0,0,.06-5.15c-.87-3.52-2.13-6.94-3.23-10.4a20.34,20.34,0,0,1,6.55-15.1c1-.94,2.63-2,3.85-1.82,3.07.35,4.86-.85,6.08-3.69,1.17,5,.21,9.65-1.22,14-2.68,8.18-6,16.16-9,24.22s-5.28,16.12-5.63,24.62A25.69,25.69,0,0,0,259,152.49a6.41,6.41,0,0,0,.56,1.86c6.27,9.08,14.15,16.69,22.31,24,2,1.78,4.13,3.36,6.73,5.45a9.54,9.54,0,0,0-.36-1.79c-.5-.86-1.07-1.67-1.57-2.53-4.62-7.85-5.28-15.88-1.07-24.13a34.74,34.74,0,0,1,1.8-3.55c2.2-3.31,1.7-6.4,0-9.83a51.55,51.55,0,0,0-9.91-13.59c-3.63-3.6-6.24-7.88-6.14-13.1.08-3.75,1-7.49,1.49-11.24.06-.48-.59-1-.92-1.57A121.51,121.51,0,0,1,279,92.41a9,9,0,0,1,7.62-3c4.78.32,9.54.77,14.31,1.16,6.84,2.44,13.82,4.88,21.11,3.77,6.43-1,12.69-3.14,19-4.78,1.49-.07,3,0,4.47-.22,7.32-.93,12.47,2.27,16.19,8.31l2.35,3.8c.08,2.81-.41,5.78.33,8.4,1.8,6.42-.13,11.7-3.9,16.67-3.29,4.34-6.9,8.48-9.83,13s-4.1,9.16-.6,14.31c5.24,7.7,4.65,15.87.75,24-.65,1.35-2,2.57-1.11,4.76a22.61,22.61,0,0,0,2.17-1.62c6.13-6.08,12.42-12,18.28-18.36,2.75-3,4.65-6.72,6.94-10.11a28.79,28.79,0,0,0,6.38-23.15,109.18,109.18,0,0,0-9-29.28,95.46,95.46,0,0,1-8.12-30.69c1,1.4,1.88,2.17,2.22,3.12.64,1.8,1.84,2.16,3.49,1.84,2.87-.55,4.77,1,6.38,3,3.28,4.08,5.65,8.56,5.67,14-.43,1.77-.4,3.85-1.37,5.25-3.54,5.1-1.9,9.8,0,14.92,2.74,7.26,5,14.7,5.27,22.61a29.66,29.66,0,0,1-5,17.36L366.5,173.36c4.11,0,8.16-.22,12.19,0,9.44.62,17.86,4.23,25.7,9.35-2-.77-4-1.44-6-2.32-10.4-4.7-21.08-6.64-32.44-4.12a21.09,21.09,0,0,0-10,5.18C353.9,183.39,351.93,185.4,349.91,187.37Zm11-76.8,0-6.16c-.84-8.87-7.68-14.15-16-12.28a95.36,95.36,0,0,0-10.57,2.75,47.85,47.85,0,0,1-30.78.23c-4-1.23-8-2.17-12-3.26-5-1.38-9.22-.16-12.37,4a56.77,56.77,0,0,0-3.31,5.47c-.16,1.87-.37,3.74-.47,5.62s-.1,3.76-.14,5.64c-1.4,5,.07,9.29,3.56,12.79,5.18,5.2,10.08,10.55,12.68,17.77,1.09-4.93,4.2-8.26,7.18-11.8,4.11-4.89,10.24-5.22,15.41-.88,1.62,1.36,3.31,2.64,5,3.95-.66.12-1.53.58-1.95.31-1.8-1.16-3.49-2.52-5.2-3.83-4.37-3.31-6.65-3-10,1.14-1,1.29-2.24,2.46-3.34,3.7-4.05,4.59-4.22,6.73-1.05,11.95,1.23,2,3,3.85,3.59,7.36l-8.12-8.82c-2.43,5.58-4.72,10.86-7,16.15a29.45,29.45,0,0,0-.9,5.21c0,8.74,11.31,24.25,21.13,26.75a44.54,44.54,0,0,0,21.66.52c13.11-3.25,19.5-13.18,23-25.42,1.7-8.87-3.79-15.4-7.38-22.91l-6.86,6.75a3.3,3.3,0,0,1,.59-2.53c5.77-9.06,5.69-9.91-1.67-17.93-4.83-5.25-6.77-5.33-12.52-.71a30.55,30.55,0,0,1-4.09,2.38c1.86-1.87,3.52-4,5.65-5.53a8.64,8.64,0,0,1,11.07.54c4.54,4.07,9,8.34,8.57,15.75,1.81-3.85,3-7.34,5-10.3,2.12-3.14,5-5.74,7.53-8.64A28.27,28.27,0,0,0,360,122C362.09,118.34,362.84,114.53,360.87,110.57ZM258.71,98.82c.79-2.77,1.4-4.8,1.93-6.86a5.17,5.17,0,0,0-.09-1.45c-.25-3.5-.06-3.29,3.05-5.94,1.18-1,1.43-3.24,1.79-5,.16-.78-.26-2.31-.75-2.46a3.76,3.76,0,0,0-3,.44C255.61,82.14,254.11,91.41,258.71,98.82Zm118.35-.73,1.6.11c.64-2.35,1.72-4.67,1.82-7,.25-5.45-2.27-9.91-6.19-13.53a3.12,3.12,0,0,0-2.69-.2c-.47.19-.89,1.46-.75,2.12.52,2.52,1.28,5,2.18,8.32l1.7-4.14,1.06.11Q376.42,91,377.06,98.09Z"/><path class="cls-27" d="M341.05,89.55c-6.33,1.64-12.59,3.79-19,4.78-7.29,1.11-14.27-1.33-21.11-3.77,2.73,0,3.86-1,2.24-3.64-3-4.73-6-9.42-9.26-14.54l8.59,2.76L298,69.35l.68-.71A13.77,13.77,0,0,1,301,69.9c3.09,2.59,6.91,3.37,10.63,3.41a126,126,0,0,0,18.84-1c2.86-.4,5.46-2.59,8.67-4.22-1.34,2.21-2.49,4.08-4.2,6.9l9.22-2.74c-4.56,5.65-9.13,10.17-11.07,17Z"/><path class="cls-6" d="M271.88,102.48c.33.52,1,1.09.92,1.57-.45,3.75-1.41,7.49-1.49,11.24-.1,5.22,2.51,9.5,6.14,13.1A51.55,51.55,0,0,1,287.36,142c1.7,3.43,2.2,6.52,0,9.83a34.74,34.74,0,0,0-1.8,3.55c-4.21,8.25-3.55,16.28,1.07,24.13.5.86,1.07,1.67,1.57,2.53a9.54,9.54,0,0,1,.36,1.79c-2.6-2.09-4.75-3.67-6.73-5.45-8.16-7.32-16-14.93-22.31-24a6.41,6.41,0,0,1-.56-1.86c3.42,2.56,6.85,5.1,10.24,7.7,1.83,1.4,3.55,2.95,5.41,4.31,2.17,1.58,3,1.06,3.37-1.67,1.32-10.53-1.47-19.94-7.64-28.45-5-6.84-5.78-14.24-2.75-22C268.88,109,270.44,105.76,271.88,102.48Z"/><path class="cls-3" d="M377.09,152.55c-2.29,3.39-4.19,7.14-6.94,10.11C364.29,169,358,174.94,351.87,181a22.61,22.61,0,0,1-2.17,1.62c-.87-2.19.46-3.41,1.11-4.76,3.9-8.14,4.49-16.31-.75-24-3.5-5.15-2.24-9.86.6-14.31s6.54-8.71,9.83-13c3.77-5,5.7-10.25,3.9-16.67-.74-2.62-.25-5.59-.33-8.4a9,9,0,0,1,1.84,2.21c1.44,3.69,2.66,7.48,4.07,11.19a15.51,15.51,0,0,1-.73,13c-1.88,3.69-3.84,7.36-6.07,10.85-2.77,4.31-4.52,8.78-4.26,14,.21,4.09,0,8.2,0,12.95C366.63,162.56,370.63,155.82,377.09,152.55Z"/><path class="cls-28" d="M343,57.77c-2.91,1.47-4.16-.22-5.73-1.46-3.64-2.85-7.29-5.7-11.15-8.23-6.42-4.2-12.67-2.82-18.51,1.36-3.36,2.41-6.45,5.18-9.77,7.64-.75.55-1.95.5-2.94.72,0-1-.39-2.29.06-3.07,3.73-6.58,8.49-12.31,15.35-15.78a15.73,15.73,0,0,1,14.45-.29C332.81,42.83,339.36,48.8,343,57.77Z"/><path class="cls-9" d="M350,339.49c-3.29,1.46-6.45,3.44-9.89,4.26-5.57,1.32-11.17,2.57-17.12,1a23.08,23.08,0,0,0-10.39.08c-7.35,1.64-14.17-.13-20.85-2.55a34.14,34.14,0,0,1-18.21-15.48c-2.76-4.7-6.17-9-9.09-13.63-4.41-7-10.4-12.38-16.65-17.66a31.06,31.06,0,0,1-7-8.87c-2.24-4.16-.13-7.09,4.63-7.15,6.83-.08,13.66.09,20.49-.07,4.29-.11,8.57-.66,12.86-.94,1.48-.09,3.15-.25,3.25,2-5,3.14-10.22,6.08-15.08,9.48-3.46,2.43-3.4,3.29-1.27,7a31.73,31.73,0,0,0,2.73,4.13c4.32,5.41,5.05,12.06,6.66,18.44s4.12,12.63,9.66,17l-2.7-6.15c.63.19,1.44.19,1.85.59,5.05,4.92,11.34,7.19,18,8.94,4.19,1.1,7.89-.13,11.45-1.8a5.68,5.68,0,0,0,2.58-3.83,79.35,79.35,0,0,0,1-12.31c0-7.6-2.44-9.3-9.69-7.13-6.7,2-13.4,3.55-20.39,1.53-2.8-.8-5.62-1.54-8.64-2.37-.12,1.29-.22,2.42-.33,3.55-.29-3.05-.57-6.1-.86-9.15a5.31,5.31,0,0,1,1.46.24c10.79,5,21.69,4.85,32.72.87,3.13-1.14,5-3,4.88-6.58-.14-5.15,0-10.3-.1-15.45-.14-5.55-4.23-9-9.6-8a42,42,0,0,0-6.62,2c-9.92,3.6-19.83,7.26-29.74,10.9.57-.93.93-2.16,1.75-2.75a50.93,50.93,0,0,1,6.37-3.86c14.95-7.73,30.47-12.72,47.66-10.49,13.84,1.8,26.74,6,38.35,13.87a12,12,0,0,1,2,2.14,44.48,44.48,0,0,1-6.75-1.3c-9.2-3.28-18.26-6.95-27.51-10.07-6.7-2.27-11.59,1.4-11.84,8.46-.15,4.33,0,8.67,0,13,0,3.52,1.54,6.22,4.87,7.38a97.56,97.56,0,0,0,10.45,2.83c8.82,2.05,17,.07,24.81-4.14l-1,7.09c-1.65.23-3.32.36-5,.69-5.17,1.06-10.25,2.9-15.63,1.84-4.05-.8-8.05-1.81-12.06-2.75-4.72-1.11-6.3,0-6.5,4.86-.14,3.49,0,7,0,10.49,0,7.25,4.62,11.65,11.81,10.57a60.07,60.07,0,0,0,12.75-3.75c3.32-1.3,6.35-3.36,9.51-5.08l-1.11,4.42C351.51,336.74,349.81,337.34,350,339.49Z"/><path class="cls-29" d="M350,339.49c-.19-2.15,1.51-2.75,2.94-3.57,6.54-5.56,8.34-13.51,9.8-21.26a36.74,36.74,0,0,1,5.49-13.7c1.18-1.8,2.57-3.47,3.89-5.18s1.86-3.28-.69-4.75c-5.89-3.39-11.63-7-17.43-10.57.75-.66,1.5-1.9,2.24-1.89,3.79,0,7.57.46,11.35.61,4.48.18,9,.24,13.43.29,3.65,0,7.31-.09,11,0,3.44.09,4.21.71,3.92,4.17a12.74,12.74,0,0,1-2.14,6.34,34.39,34.39,0,0,1-7.34,7.41c-8.78,6.21-14.13,15.12-19.83,23.84a145.31,145.31,0,0,1-9.74,13.68C355.16,336.93,352.32,338,350,339.49Z"/><path class="cls-30" d="M354,280.46c5.8,3.54,11.54,7.18,17.43,10.57,2.55,1.47,2.12,2.91.69,4.75s-2.71,3.38-3.89,5.18a36.74,36.74,0,0,0-5.49,13.7c-1.46,7.75-3.26,15.7-9.8,21.26l1.11-4.42c3.56-5.06,4.58-10.89,5.11-16.87l1-7.09c1.92-3.57,4-7.08,5.71-10.73.8-1.66,1.94-3.54.29-5.43a12,12,0,0,0-2-2.14c-11.61-7.85-24.51-12.07-38.35-13.87-17.19-2.23-32.71,2.76-47.66,10.49a50.93,50.93,0,0,0-6.37,3.86c-.82.59-1.18,1.82-1.75,2.75.34,1.74.36,3.64,1.11,5.19,1.78,3.69,3.9,7.21,5.89,10.81.29,3,.57,6.1.86,9.15L282,330.45l2.7,6.15c-5.54-4.41-8-10.55-9.66-17s-2.34-13-6.66-18.44a31.73,31.73,0,0,1-2.73-4.13c-2.13-3.72-2.19-4.58,1.27-7,4.86-3.4,10-6.34,15.08-9.48,3.12-1.05,6.27-2,9.35-3.19,9.64-3.61,19.42-6.68,29.86-5.8a74.41,74.41,0,0,1,14,2.7C341.57,276,347.75,278.35,354,280.46Z"/><path class="cls-31" d="M412.75,264.3l-5.35,2.25L419.68,252c.77,3.32-1.19,5.67-2.8,8a5.3,5.3,0,0,0-1.22,4.35c.55,4.18-2,7.54-4.71,10.46a12,12,0,0,1-4.23,2.4C408.87,273.15,413.23,270.27,412.75,264.3Z"/><path class="cls-32" d="M217.71,253c4.17,4.74,7.81,8.89,11.88,13.54l-6.53-2.77c.49,4.95,3.63,8.21,6,12.06a10.25,10.25,0,0,1-7.95-9.37,20.12,20.12,0,0,0-2.28-8.46C218.16,256.59,218.11,254.9,217.71,253Z"/><path class="cls-33" d="M252,150.41c6,7.63,12,15.25,17.5,22.22-4.81.26-10.45,0-15.86,1-6.39,1.16-12.89,2.66-17.9,7.42-3.34,2.08-6.66,4.19-10,6.25-1.24.76-2.55,1.41-3.83,2.11,1.88-2.67,3.75-5.34,5.65-8,4.24-5.9,8.79-11.6,12.67-17.73A49.94,49.94,0,0,1,252,150.41Z"/><path class="cls-5" d="M404.39,182.75c-7.84-5.12-16.26-8.73-25.7-9.35-4-.26-8.08,0-12.19,0l16.58-21.83c6.38.51,9.08,5.62,11.85,10.12a169.29,169.29,0,0,0,18.53,24.87,12.91,12.91,0,0,1,1.52,3Z"/><path class="cls-34" d="M318.91,134.49a30.55,30.55,0,0,0,4.09-2.38c5.75-4.62,7.69-4.54,12.52.71,7.36,8,7.44,8.87,1.67,17.93a3.3,3.3,0,0,0-.59,2.53l6.86-6.75c3.59,7.51,9.08,14,7.38,22.91a92.64,92.64,0,0,1-8.77,4.46c-5.91,2.26-12.21,1.17-18,.16-6.8-1.19-13.22.13-19.65,1a23.32,23.32,0,0,1-15.13-3,5.89,5.89,0,0,1-3.35-6.16,23.79,23.79,0,0,0,0-3.48c2.3-5.29,4.59-10.57,7-16.15l8.12,8.82c-.64-3.51-2.36-5.32-3.59-7.36-3.17-5.22-3-7.36,1.05-11.95,1.1-1.24,2.3-2.41,3.34-3.7,3.34-4.17,5.62-4.45,10-1.14,1.71,1.31,3.4,2.67,5.2,3.83.42.27,1.29-.19,1.95-.31Zm-29.3,32.21c3,3.31,3.78,3.79,7.2,3.81,2.65,0,5.3-.35,7.95-.48,5.45-.28,10.91-.78,16.36-.69,5.8.1,11.59.9,17.39,1.16,3.17.15,6.07-.78,7.95-4-5.45,3.26-11.06,1.44-16.5.68a83.42,83.42,0,0,0-26.81.48C298.49,168.55,294.05,169.24,289.61,166.7Zm30.19-16.07,1,.14c.66-4.24,4.36-5,7.24-6.83,2.36-1.48,4.18-1.84,5.29,1.53,1.61-1.77,3.36-3.18,1.61-5.34-1.41-1.74-3.22-4.31-5.53-3.16a25.89,25.89,0,0,0-8.5,6.63C319.63,145.19,320.11,148.23,319.8,150.63Zm-4.21.49c.08-2.91,1.77-5.83-.82-8.09-2.11-1.85-4.47-3.41-6.65-5.2a3.35,3.35,0,0,0-4.49-.12c-3.78,2.54-3.84,4.69-.15,8.11l1.33-3.32C308.77,145.21,314.72,144.64,315.59,151.12Z"/><path class="cls-35" d="M285.91,162.38a23.79,23.79,0,0,1,0,3.48,5.89,5.89,0,0,0,3.35,6.16,23.32,23.32,0,0,0,15.13,3c6.43-.83,12.85-2.15,19.65-1,5.81,1,12.11,2.1,18-.16a92.64,92.64,0,0,0,8.77-4.46c-3.54,12.24-9.93,22.17-23,25.42a44.54,44.54,0,0,1-21.66-.52c-9.82-2.5-21.09-18-21.13-26.75A29.45,29.45,0,0,1,285.91,162.38Z"/><path class="cls-36" d="M275.81,101.33a56.77,56.77,0,0,1,3.31-5.47c3.15-4.17,7.36-5.39,12.37-4,4,1.09,8,2,12,3.26a47.85,47.85,0,0,0,30.78-.23,95.36,95.36,0,0,1,10.57-2.75c8.33-1.87,15.17,3.41,16,12.28-1.46.87-2.85,1.86-4.06-.43a4.86,4.86,0,0,0-5.47-2.48c-2.39.37-4.93.52-7.12,1.44-4.22,1.78-8.19,4.12-12.36,6a19.45,19.45,0,0,1-4.44.92c.43-1.31.89-2.62,1.28-3.94.07-.26-.11-.59-.38-1.77L326,108.24c-.71,1.28-1.35,2.61-2.13,3.84-.48.76-1.2,1.94-1.75,1.92a3.07,3.07,0,0,1-2.11-1.7,45.75,45.75,0,0,1-1.66-5.49c-.89,3.15-.8,6.64-4.55,7.37-1.35-2.93-2.58-5.62-4-8.64v6.83a30.12,30.12,0,0,0-4.25-3.54A92,92,0,0,0,295.8,104a41,41,0,0,0-8-2.4c-4.05-.78-7.78.43-11.37,3.13C276.16,103.23,276,102.28,275.81,101.33Z"/><path class="cls-37" d="M360.87,110.57c2,4,1.22,7.77-.83,11.4a28.27,28.27,0,0,1-3.33,4.34c-2.5,2.9-5.41,5.5-7.53,8.64-2,3-3.17,6.45-5,10.3.39-7.41-4-11.68-8.57-15.75a8.64,8.64,0,0,0-11.07-.54c-2.13,1.5-3.79,3.66-5.65,5.53l.08-.07c-1.65-1.31-3.34-2.59-5-3.95-5.17-4.34-11.3-4-15.41.88-3,3.54-6.09,6.87-7.18,11.8-2.6-7.22-7.5-12.57-12.68-17.77-3.49-3.5-5-7.81-3.56-12.79,3.26,1.8,6.48,3.69,9.8,5.38a27.1,27.1,0,0,0,6.22,2.45c1.81.4,3.8-.14,5.66.11A33.41,33.41,0,0,1,302,122l1-.27c.07.32.31.81.19.93-1.88,1.77-3.81,3.49-5.73,5.22a18.24,18.24,0,0,0,9.45-7.85,27.07,27.07,0,0,1,2.06-2.66l1.5,1.18c-1.73,2.06-.18,3.07,1.38,3.82,4.08,2,8.15,3.48,12.27-.2,1.3-1.15,3.14-1.7,4.74-2.52,5.49,7,6.37,7.69,9.94,8.26-1.93-1.75-3.8-3.44-5.66-5.14,3.78.84,7.06,2.65,11.47,2.45l-7.69-3.58c2.24-2.25,5-.65,7.54-1.14,1.74-.33,3.77-.29,5.12-1.22C353.45,116.58,357.11,113.5,360.87,110.57Z"/><path class="cls-38" d="M302,122a33.41,33.41,0,0,0-5.09-1.46c-1.86-.25-3.85.29-5.66-.11A27.1,27.1,0,0,1,285,118c-3.32-1.69-6.54-3.58-9.8-5.38,0-1.88,0-3.76.14-5.64s.31-3.75.47-5.62c.17,1,.35,1.9.62,3.35,3.59-2.7,7.32-3.91,11.37-3.13a41,41,0,0,1,8,2.4,92,92,0,0,1,9.79,4.88,30.12,30.12,0,0,1,4.25,3.54c-1.93,2.49-3.54.06-5.07-.53-5.67-2.16-11.21-4.67-16.86-6.89a9.28,9.28,0,0,0-6.83.12c3.09,1.6,3.27,1.93,3.88,5.88a2.87,2.87,0,0,0,.5,1.37c3.28,3.71,6.31,7.86,12.21,7.12,1-.12,2,0,3,0C303.11,119.24,302.09,120.84,302,122Z"/><path class="cls-38" d="M360.87,110.57c-3.76,2.93-7.42,6-11.36,8.7-1.35.93-3.38.89-5.12,1.22-2.5.49-5.3-1.11-7.54,1.14l-2.48-1.58,0-1c8.37,2.46,13.09-2.1,16.76-8.74l-1.78-2.47,6.83-2.83a23.72,23.72,0,0,0-2.33-.52c-4.63-.42-8.81,1.19-12.9,3-3.47,1.56-6.81,3.42-10.27,5s-4.17,1.14-4.73-2.78a9.28,9.28,0,0,1,0-1.49l2.28-4.06c.27,1.18.45,1.51.38,1.77-.39,1.32-.85,2.63-1.28,3.94a19.45,19.45,0,0,0,4.44-.92c4.17-1.91,8.14-4.25,12.36-6,2.19-.92,4.73-1.07,7.12-1.44a4.86,4.86,0,0,1,5.47,2.48c1.21,2.29,2.6,1.3,4.06.43Z"/><path class="cls-39" d="M258.71,98.82c-4.6-7.41-3.1-16.68,2.93-21.26a3.76,3.76,0,0,1,3-.44c.49.15.91,1.68.75,2.46-.36,1.75-.61,4-1.79,5-3.11,2.65-3.3,2.44-3.05,5.94a5.17,5.17,0,0,1,.09,1.45C260.11,94,259.5,96.05,258.71,98.82Z"/><path class="cls-40" d="M377.06,98.09q-.63-7.12-1.27-14.25l-1.06-.11L373,87.87c-.9-3.32-1.66-5.8-2.18-8.32-.14-.66.28-1.93.75-2.12a3.12,3.12,0,0,1,2.69.2c3.92,3.62,6.44,8.08,6.19,13.53-.1,2.37-1.18,4.69-1.82,7Z"/><path class="cls-8" d="M366.12,291.38c1.65,1.89.51,3.77-.29,5.43-1.75,3.65-3.79,7.16-5.71,10.73-7.8,4.21-16,6.19-24.81,4.14a97.56,97.56,0,0,1-10.45-2.83c-3.33-1.16-4.86-3.86-4.87-7.38,0-4.33-.12-8.67,0-13,.25-7.06,5.14-10.73,11.84-8.46,9.25,3.12,18.31,6.79,27.51,10.07A44.48,44.48,0,0,0,366.12,291.38Z"/><path class="cls-8" d="M277,308.47c-2-3.6-4.11-7.12-5.89-10.81-.75-1.55-.77-3.45-1.11-5.19,9.91-3.64,19.82-7.3,29.74-10.9a42,42,0,0,1,6.62-2c5.37-1,9.46,2.43,9.6,8,.13,5.15,0,10.3.1,15.45.09,3.58-1.75,5.44-4.88,6.58-11,4-21.93,4.13-32.72-.87A5.31,5.31,0,0,0,277,308.47Z"/><path class="cls-41" d="M359.16,314.63c-.53,6-1.55,11.81-5.11,16.87-3.16,1.72-6.19,3.78-9.51,5.08a60.07,60.07,0,0,1-12.75,3.75C324.6,341.41,320,337,320,329.76c0-3.5-.1-7,0-10.49.2-4.87,1.78-6,6.5-4.86,4,.94,8,1.95,12.06,2.75,5.38,1.06,10.46-.78,15.63-1.84C355.84,315,357.51,314.86,359.16,314.63Z"/><path class="cls-8" d="M282,330.45l-4.16-12.83c.11-1.13.21-2.26.33-3.55,3,.83,5.84,1.57,8.64,2.37,7,2,13.69.48,20.39-1.53,7.25-2.17,9.69-.47,9.69,7.13a79.35,79.35,0,0,1-1,12.31,5.68,5.68,0,0,1-2.58,3.83c-3.56,1.67-7.26,2.9-11.45,1.8-6.65-1.75-12.94-4-18-8.94C283.46,330.64,282.65,330.64,282,330.45Z"/><path class="cls-42" d="M289.61,166.7c4.44,2.54,8.88,1.85,13.54,1a83.42,83.42,0,0,1,26.81-.48c5.44.76,11.05,2.58,16.5-.68-1.88,3.19-4.78,4.12-7.95,4-5.8-.26-11.59-1.06-17.39-1.16-5.45-.09-10.91.41-16.36.69-2.65.13-5.3.49-7.95.48C293.39,170.49,292.61,170,289.61,166.7Z"/><path class="cls-43" d="M319.8,150.63c.31-2.4-.17-5.44,1.13-7a25.89,25.89,0,0,1,8.5-6.63c2.31-1.15,4.12,1.42,5.53,3.16,1.75,2.16,0,3.57-1.61,5.34-1.11-3.37-2.93-3-5.29-1.53-2.88,1.81-6.58,2.59-7.24,6.83Z"/><path class="cls-44" d="M315.59,151.12c-.87-6.48-6.82-5.91-10.78-8.62l-1.33,3.32c-3.69-3.42-3.63-5.57.15-8.11a3.35,3.35,0,0,1,4.49.12c2.18,1.79,4.54,3.35,6.65,5.2C317.36,145.29,315.67,148.21,315.59,151.12Z"/><path class="cls-45" d="M326,108.24a9.28,9.28,0,0,0,0,1.49c.56,3.92,1.23,4.37,4.73,2.78s6.8-3.43,10.27-5c4.09-1.84,8.27-3.45,12.9-3a23.72,23.72,0,0,1,2.33.52l-6.83,2.83,1.78,2.47c-3.67,6.64-8.39,11.2-16.76,8.74l0,1,2.48,1.58,7.69,3.58c-4.41.2-7.69-1.61-11.47-2.45,1.86,1.7,3.73,3.39,5.66,5.14-3.57-.57-4.45-1.31-9.94-8.26-.74-2.17-2.25-3.07-4.54-3.08-1.47,0-3-.69-4.4-.56-3.66.3-7.3.89-11,1.36a27.07,27.07,0,0,0-2.06,2.66,18.24,18.24,0,0,1-9.45,7.85c1.92-1.73,3.85-3.45,5.73-5.22.12-.12-.12-.61-.19-.93l-1,.27c.12-1.15,1.14-2.75-1.33-2.6-1,.06-2-.07-3,0-5.9.74-8.93-3.41-12.21-7.12A2.87,2.87,0,0,1,285,111c-.61-4-.79-4.28-3.88-5.88a9.28,9.28,0,0,1,6.83-.12c5.65,2.22,11.19,4.73,16.86,6.89,1.53.59,3.14,3,5.07.53v-6.83c1.38,3,2.61,5.71,4,8.64,3.75-.73,3.66-4.22,4.55-7.37A45.75,45.75,0,0,0,320,112.3a3.07,3.07,0,0,0,2.11,1.7c.55,0,1.27-1.16,1.75-1.92C324.65,110.85,325.29,109.52,326,108.24Zm7.25,6.13c7.26,3,11.46,1.26,11.19-3.87Zm-42.21-4c1.94,6.2,5.52,7.35,10.85,3.51Z"/><path class="cls-46" d="M308.9,117.36c3.65-.47,7.29-1.06,11-1.36,1.44-.13,2.93.56,4.4.56,2.29,0,3.8.91,4.54,3.08-1.6.82-3.44,1.37-4.74,2.52-4.12,3.68-8.19,2.16-12.27.2-1.56-.75-3.11-1.76-1.38-3.82Z"/><path class="cls-47" d="M333.25,114.37l11.19-3.87C344.71,115.63,340.51,117.38,333.25,114.37Z"/><path class="cls-48" d="M291,110.37l10.85,3.51C296.56,117.72,293,116.57,291,110.37Z"/></svg>