<svg id="Capa_1" data-name="Capa 1" xmlns="http://www.w3.org/2000/svg" viewBox="0 0 571.67 684.58"><defs><style>.cls-1{fill:#080707;}.cls-2{fill:#c1c1c1;}.cls-3{fill:#6d6d6c;}.cls-4{fill:#535353;}.cls-5{fill:#6c6c6b;}.cls-6{fill:#6b6b6b;}.cls-7{fill:#545454;}.cls-8{fill:#545453;}.cls-9{fill:#6d6d6d;}.cls-10{fill:#6d6c6c;}.cls-11{fill:#b2b2b2;}.cls-12{fill:#b3b2b2;}.cls-13{fill:#888;}.cls-14{fill:#b7b6b7;}.cls-15{fill:#b8b8b7;}.cls-16{fill:#b9b8b7;}.cls-17{fill:#b9b9b9;}.cls-18{fill:#525251;}.cls-19{fill:#525252;}.cls-20{fill:#525352;}.cls-21{fill:#525151;}.cls-22{fill:#707070;}.cls-23{fill:#535252;}.cls-24{fill:#6c6c6c;}.cls-25{fill:#858585;}.cls-26{fill:#69686a;}.cls-27{fill:#666667;}.cls-28{fill:#a5a4a4;}.cls-29{fill:#a5a5a6;}.cls-30{fill:#b7b3b1;}.cls-31{fill:#b7b6b4;}.cls-32{fill:#a3a3a2;}.cls-33{fill:#a1a1a1;}.cls-34{fill:#9d9e9e;}.cls-35{fill:#515151;}.cls-36{fill:#515152;}.cls-37{fill:#bab7b5;}.cls-38{fill:#bbb9b7;}.cls-39{fill:#a09f9e;}.cls-40{fill:#a09f9f;}.cls-41{fill:#9e9e9d;}.cls-42{fill:#a1a1a0;}.cls-43{fill:#a4a4a3;}.cls-44{fill:#91908f;}.cls-45{fill:#888787;}.cls-46{fill:#070707;}.cls-47{fill:#060506;}.cls-48{fill:#161715;}.cls-49{fill:#0b0a0a;}.cls-50{fill:#0b0b0b;}.cls-51{fill:#878787;}.cls-52{fill:#0d0d0c;}.cls-53{fill:#0b0a0b;}.cls-54{fill:#aeaead;}.cls-55{fill:#afaead;}.cls-56{fill:#0f0e0e;}.cls-57{fill:#4e4e4e;}.cls-58{fill:#090908;}.cls-59{fill:#0e0d0d;}.cls-60{fill:#0e0f0d;}.cls-61{fill:#121111;}.cls-62{fill:#0a0a0a;}.cls-63{fill:#100f0f;}.cls-64{fill:#111011;}.cls-65{fill:#131211;}.cls-66{fill:#181717;}.cls-67{fill:#131212;}.cls-68{fill:#151313;}.cls-69{fill:#b1b1b1;}.cls-70{fill:#0f0f0e;}.cls-71{fill:#151514;}.cls-72{fill:#7b7b7a;}.cls-73{fill:#10100f;}.cls-74{fill:#121311;}.cls-75{fill:#0c0c0b;}.cls-76{fill:#8a8989;}.cls-77{fill:#1b1c1b;}.cls-78{fill:#161515;}.cls-79{fill:#81807f;}.cls-80{fill:#1a1919;}.cls-81{fill:#7b7a79;}.cls-82{fill:#666565;}.cls-83{fill:#afb0b0;}.cls-84{fill:#aeaeaf;}.cls-85{fill:#979797;}.cls-86{fill:#989898;}.cls-87{fill:#222121;}.cls-88{fill:#201f1f;}.cls-89{fill:#151513;}</style></defs><path class="cls-1" d="M362.07,306.23a54,54,0,0,1,35.31,6.22c7.34,4,13.21,9.48,16.54,17.37a11.09,11.09,0,0,0,2.19,3.28c7,7.31,8.82,16,6,25.42-1.4,4.69-1.1,8.92-.15,13.59,4.08,20.13,2.34,39.45-9.23,57.1-6.47,9.88-12.83,19.84-19.58,29.53a19.13,19.13,0,0,0-3.74,13.5c.73,7.46,1,15,1.43,22.44.52,9.14-1.34,17.89-4.58,26.38-1.83,4.81-4.73,8.38-10.41,8.7a6.5,6.5,0,0,0-2.62,1.19,7.81,7.81,0,0,0-1.47,1.35c-3.42,3.53-8.4.29-12.07,2.78-4.06,2.74-8.11,2.27-12.28.16a4.78,4.78,0,0,0-3.12.18,11.67,11.67,0,0,1-12.37-3.11c-3.45-3.4-3.14-7.53-1.36-11.59s4-8.06,5.82-12.14c2.35-5.17.56-11.71-3.59-14.14-1.73-1-3-.93-4.29.64a38.28,38.28,0,0,1-4.51,4.67c-6.62,5.58-15.23,3.91-19.42-3.69-2.16-3.92-1.86-7.65,1.08-11.09,1.41-1.64,3.09-3,4.56-4.62,2.5-2.67,5.25-5.19,7.35-8.15a48.39,48.39,0,0,1,16.23-14.53c3.72-2.07,5.85-5.12,7.58-8.87a36.52,36.52,0,0,0,1.44-28.16c-1.83-5.34-3.23-10.83-4.72-16.28-.48-1.76-1-2.87-3.21-2.88-11.26,0-21.05-4.35-30-10.83a7.06,7.06,0,0,0-5.92-1.47,69.29,69.29,0,0,1-24.87.15,10.2,10.2,0,0,0-8.66,2.15A51.15,51.15,0,0,1,242.64,401c-.5.07-1,.17-1.48.23-2.26.3-5.06-.12-6.59,1.09-1.37,1.07-1.29,3.95-1.91,6-1.85,6.21-3.95,12.36-5.55,18.64-2.44,9.52.78,18.08,5.35,26.2.83,1.48,2.6,2.54,4.11,3.5,6.68,4.25,12.58,9.23,17,15.93,1.62,2.47,4,4.48,6,6.64,1.38,1.44,2.89,2.76,4.35,4.13,5,4.67,6.08,8.93.93,15.25-4.37,5.36-11.19,6.18-16.47,2.14a36.74,36.74,0,0,1-5.29-5.29c-1.82-2.12-3.53-2-5.55-.36-3.37,2.67-4.56,9.24-2.33,14.31,1.74,4,3.73,7.8,5.53,11.73,1.19,2.6,2.08,5.22,1.06,8.18A11,11,0,0,1,228,535.77a6,6,0,0,0-5.46.21c-3.65,1.78-7.3,1.8-10.77-1a6.1,6.1,0,0,0-4-.82c-3.5.35-6.55-.2-9.23-2.7a6.22,6.22,0,0,0-3.51-1.37c-4.28-.35-7.07-2.58-8.81-6.37-3.17-6.86-5.6-14-5.55-21.59.08-10.15.69-20.31,1.47-30.43.34-4.37-.29-8.11-2.79-11.77-6.66-9.75-13.12-19.64-19.63-29.49-12.23-18.5-14.56-38.59-9.43-59.8A18.5,18.5,0,0,0,150.1,360c-3.31-9.95-1.69-19,5.55-26.9a12.24,12.24,0,0,0,2.24-3.25c5.36-12.36,15.71-18.56,27.87-22.3a51.06,51.06,0,0,1,23.49-1.33,7.14,7.14,0,0,0,.38-1.8c-.34-7.47-1-14.95-1-22.42,0-8.18-2.72-15-8.74-20.43-3.7-3.37-7.37-6.75-11.13-10-9.12-8-16.56-17.28-21.54-28.43a16.49,16.49,0,0,0-1.26-1.91c-10.62,18.35-26,29.43-47.35,31.75.32,1.83.56,3.09.75,4.36,1.14,7.79.59,15.47-3.48,22.29-4.42,7.41-9.41,14.49-14.32,21.6-6.44,9.3-13.25,18.35-19.49,27.78a85.36,85.36,0,0,0-10,22.22c-1,3.17-.49,5.47,2.17,7.38.54.38,1,.93,1.48,1.33a31.48,31.48,0,0,1,12.58,20.26c1,5.67,4,10.5,7.34,15.14,4,5.51,2.33,9.69-4.27,11.4-5.9,1.52-12.63-1.23-16.91-7.09-1.71-2.33-3.17-4.86-5.21-8a67.66,67.66,0,0,0-1.14,24.54c.9,7.07,2.57,14.05,3.88,21.08.48,2.61,1.36,5.25,1.25,7.84a16,16,0,0,1-2,7.54c-3.4,5.48-10.21,5.06-13.16-.8-2.15-4.28-3.68-8.89-5.42-13.37a33.16,33.16,0,0,0-3.34-7.23c.58,4.25,1.18,8.5,1.74,12.76.38,3,.86,5.94,1,8.93.18,3.79-.76,7.3-3.79,9.9a8.33,8.33,0,0,1-13.32-2.86c-.63-1.34-1.11-2.75-1.68-4.17-5.78,4.52-12.51,2.68-15-4.87a22.41,22.41,0,0,1-1.1-3.3c-.54-3.42-1.65-5.53-5.91-5.33-3.18.15-5.33-2.51-6.52-5.45C1,427.55-1,418.14.52,408a189.92,189.92,0,0,0,1.84-21.85c.33-9.9,1.54-19.54,5.54-28.72a13.15,13.15,0,0,0,.88-5.33c-.24-13-.51-26-.93-39-.55-17.35-.58-34.65,3.65-51.66A84.13,84.13,0,0,1,20,240.26c.46-.81,1.1-1.51,2.12-2.89.17,3,.3,5.16.43,7.33l1.05.15c2.39-10.43,4.78-20.85,7-30.73,4.73.25,9.06,1.1,13.23.58C53,213.55,59.8,208,65.14,201c3.59-4.73,6.4-10.09,9.29-15.32,3.22-5.82,5.92-11.92,9.22-17.69a66,66,0,0,1,24.66-24.91c2.21-1.27,3.52-2.69,3.65-5.35a44.29,44.29,0,0,1,1.15-6.38c2.93-14.81,9.58-27.24,23.33-35.61l-2.87-1.94c2.76-3.47,6.7-5.35,10.6-7a81,81,0,0,1,39.51-6.59c6.48.61,10.95-.76,15.65-5.55,9.62-9.81,21.77-15.77,35.07-19.1,3.36-.84,4.72-2.45,5-5.62C241,31.61,251.88,18.66,265.05,7.49c12.08-10.25,29.68-9.81,41.9.29A89,89,0,0,1,326.54,31c3.66,6.13,4.53,13.17,5.78,20,.46,2.55,1.52,3.67,3.89,4.32,15.89,4.37,29.9,12,41.07,24.32,1.27,1.39,2.42,1.19,4,1,14.58-1.34,29-.75,42.78,4.79,5.19,2.09,10,5,15.62,7.9L436,95.74a7.16,7.16,0,0,0,.93,1c11.75,8.33,18.46,19.83,21.36,33.75.75,3.57.64,7.68,2.47,10.55,1.73,2.7,5.56,4,8.39,6.06,9.83,7.09,16.72,16.61,22.22,27.22,3.13,6.06,6,12.24,9.25,18.26a48.05,48.05,0,0,0,14,16.7c6.91,5,14.4,7.66,23,5.31,2.78-.76,3.7.15,4.26,2.92,1.74,8.64,3.81,17.21,5.78,25.81a2.63,2.63,0,0,0,1.39,1.74l.63-6.21.75-.28c1.43,2.73,3,5.41,4.26,8.2,7.17,15.43,9.45,31.86,9.38,48.65-.06,13-.71,26-1.05,39-.17,6.33-.29,12.66-.3,19a10.24,10.24,0,0,0,.84,4.33c4.12,8.61,5.46,17.79,5.63,27.18a183.43,183.43,0,0,0,2,26.35c1.54,9.47-1.11,18.5-5.25,27.05-1.44,3-3.88,4.71-7.22,4.27-2.44-.32-3.17.66-3.61,2.79a29.56,29.56,0,0,1-1.91,5.67c-3.08,7.2-7.75,8.75-14.74,4.76-.37,1.14-.69,2.24-1.09,3.31a7.76,7.76,0,0,1-7,5.57,8.45,8.45,0,0,1-8.5-4.12,15,15,0,0,1-2-10.1c.62-4.62,1.37-9.22,2-13.83a15.58,15.58,0,0,0,0-5.57c-1.46,4.08-2.89,8.17-4.4,12.24-1,2.8-2,5.63-3.31,8.33s-3.41,5-6.9,4.88a7.67,7.67,0,0,1-7.55-5.53,24.77,24.77,0,0,1-.77-9.77c.5-4.27,1.92-8.42,2.88-12.64a90,90,0,0,0,1.56-33.23c-.14-.92-.37-1.81-.77-3.77-1.76,2.81-2.93,4.73-4.15,6.61-2.92,4.53-6.81,7.88-12.21,8.73a15.64,15.64,0,0,1-7.29-.59c-5.18-1.83-6.6-6.28-3.26-10.63a47.49,47.49,0,0,0,9-19.81c1.26-6.23,5.3-10.57,9.94-14.54,6.5-5.56,6.43-5.61,3.79-13.8-4.05-12.54-11.13-23.37-18.88-33.83q-8.78-11.83-17.53-23.69c-.49-.66-.95-1.36-1.42-2-7-10.34-10.65-21.41-7-34.4-10-2.14-19.71-4.31-28.08-10.08s-14.36-13.29-20-22.12c-.55,1-.92,1.65-1.22,2.29-5.13,10.87-12.59,19.93-21.52,27.87-3.86,3.43-7.73,6.86-11.43,10.46a27.24,27.24,0,0,0-8.72,21C362.79,290.53,362.29,298.15,362.07,306.23ZM144.51,236.45c4.26-4.4,9-8.42,12.65-13.28A170.08,170.08,0,0,0,170,203c3-5.5,5.09-11.51,7.57-17.29.91-2.12.16-3.08-2.1-3.19-7.29-.36-14.58-.78-21.87-1.18h0l-2.79-1.9c8.1-.38,15.63-.77,23.16-1.08a54.48,54.48,0,0,1,7.45,0,7.46,7.46,0,0,0,6.56-2.72q7.65-8.46,15.35-16.88c1.69-1.85,3.48-3.61,5.22-5.42l6.48-3c-8.34,8.09-15.29,17.15-22.33,27.17l19.1-4.26.16.74-19.29,6.64-5.49,1.79c5.2,7.58,9.63,14.64,14.68,21.22,5.92,7.7,12.91,14.32,22,18.42a81.36,81.36,0,0,0,25.33,7.09c10.76,1.09,21.28,0,30.56-6.49a21.76,21.76,0,0,1,3.5-1.41,39.77,39.77,0,0,1-2.56,3.78c-4.71,5.22-10.83,7.7-17.62,8.35-15.86,1.5-31.13-.71-45.48-8-16.26-8.49-24.23-24.4-34.05-38.47-4.07,8.66-8,17.17-12.1,25.59-.94,1.91-.5,3.35.13,5.15,4.62,13.16,13.65,23,23.94,31.86a10.75,10.75,0,0,0,1.3,1.46c8.89,6.82,15.48,15.17,17.71,26.45.34,8.28.72,16.56,1,24.84.12,3.8,1.93,5.73,5.5,7.22,12.41,5.2,23.32,12.61,31.52,23.52.38.51.06,1.56.07,2.36-6.42-6.09-12.88-12.13-21-15.93a58.33,58.33,0,0,0-34.9-8.08,43.53,43.53,0,0,0-26.91,11.68c-1.2,1.13-2.15,2.52-3.83,4.5l3.61-.36,4.44.51c-3.2,1.69-6.18,3.09-9,4.78-8.78,5.27-12.67,13.79-9.54,24.71,1.67,5.85,4.09,11.49,6.17,17.22q3.27,7.15,6.53,14.32l-.86.54-11.52-15.48a66.25,66.25,0,0,0-.72,30.45c2.43,11.64,8.57,21.47,15,31.17,5.43,8.15,10.89,16.29,16.07,24.6a14.78,14.78,0,0,1,2,7c.15,4.12-.34,8.26-.56,12.4-.18,1.51-.37,3-.59,4.79l4.2-2.54c.52,2.89,1,5.52,1.5,8.37l4.09-3.77.78,3.28-6.56,5.24c-.32-3.42-.59-6.26-.89-9.41-4.09,3.76-5.21,12.48-3.32,22.95,1.81,10.06,4.25,14.81,8.62,16.57-.66-3.42-1.3-6.78-2-10.14a6.68,6.68,0,0,1,2.85,2.91c1.54,2.76,2.91,5.61,4.53,8.32,2.08,3.5,2.84,3.71,7.47,2.73-1-2.48-2.07-4.9-2.92-7.4s-2.27-4.91-1.55-8.8c1.56,2.76,2.59,4.61,3.66,6.45,2,3.44,4,6.91,6.08,10.3,1.34,2.17,3.16,3.25,5.9,2.49,2.06-.58,2.84-1.35,1.85-3.5-1.73-3.77-3.38-7.58-4.91-11.44a61.14,61.14,0,0,1-1.68-5.89l1.2-.46c1.65,3,3.22,6,5,9a105.49,105.49,0,0,0,6.21,9.64c2,2.66,4.69,2.83,7.52,1,2.37-1.48,2.95-3.32,1.54-6.51-1.74-4-3.69-7.82-5.68-11.65a13.86,13.86,0,0,1-1.65-9.15c.86-4.56,1.8-9.12,2.89-13.63a25,25,0,0,1,1.92-4.36l.75.2c.07,1.7.15,3.41.24,5.42,1.15-.51,2.28-.67,2.89-1.32,2.46-2.64,4.69-1.78,6.9.24,1.72,1.57,3.34,3.25,5.08,4.8a18.49,18.49,0,0,0,3.54,2.73c2.93,1.56,6.51.33,8.69-2.77,1.8-2.57,1.42-3.72-1.45-6.81-4.75-5.11-9.43-10.29-14-15.59-3.51-4.1-7.74-7.07-13-10,.3,7.81,1.27,14.94-2.27,21.92l-6-5.89c-.55,5.08-1,9.44-1.5,13.64-.84.11-1.07.21-1.15.14q-1.8-1.69-3.58-3.41c-2.9-2.76-4.1-4.48-6.61.28-1.19,2.27-2.71,2.74-4.76,1a9,9,0,0,0-1.79-1l-5.9,5.77-2.2-4.63c2.2,1.66,4,1.63,5.44-1.05,1.11-2,2.73-3,4.81-1.08,1.16,1.08,2.07.69,2.94-.32a10.7,10.7,0,0,0,1.86-2.33c1.27-2.8,2.75-2.2,4.58-.58,1.28,1.13,2.74,2.07,4.92,3.69.28-5.12.52-9.36.8-14.24l7.4,6.46c1.87-4.63,1.42-9.13,1.27-13.6a19.89,19.89,0,0,0-3.14-9.12c-6.92-11.42-10.31-23.55-5.7-36.9a172.39,172.39,0,0,0,5.36-18c1.4-6.19,1.52-12.48-2.25-18.15-3.52-8.54-9.63-15.3-15.22-22.54l5.1,2.7c3.58,3.44,7.37,6.7,10.71,10.36,4.43,4.85,7.83,10.41,8.15,17.18.14,2.94,1.25,3.74,3.93,3.52a46.7,46.7,0,0,0,19.77-6.09c6.31-3.65,12.55-7.4,18.87-11,.84-.48,1.93-.52,3.83-1l-6,6.92a143.09,143.09,0,0,0,22.31-.22l-6.88-5.25,1.16-1.53a25.93,25.93,0,0,1,4.94,1.7c5.17,3,10.26,6.1,15.33,9.27a44.82,44.82,0,0,0,20.93,7.16c3.83.26,4.45-.27,4.78-4,.57-6.65,3.78-11.93,8.2-16.61,3-3.15,6.07-6.15,9.11-9.21l6.25-3.54a38.1,38.1,0,0,1-4.77,6.24c-4.35,5.22-8.72,10.45-10.73,17.14-2.16,4.35-3.68,8.73-2.24,13.74,2,7,3.72,14,5.69,21a46.74,46.74,0,0,1,1.88,15.11c-.41,8.2-3.65,15.34-7.67,22.3-1.2,2.08-1.7,4.56-2.53,6.85-2.22,5.34-.36,10.43.46,16l7.34-6.21c.57,4.78,1.07,8.9,1.6,13.26a11.52,11.52,0,0,0,1.71-.87c1.65-1.32,3.24-3.67,4.93-3.74,1.31-.05,2.79,2.66,4.12,4.21.83,1,1.73,1.83,2.86.68,2.48-2.52,3.88-1,5.51,1.08,2,2.46,2.21,2.35,4.32-.24.49-.61,1-1.18,1.65-1.91l4,3.53c.65-2.78,1.22-5.23,1.84-7.92l2.51,1.41a1.24,1.24,0,0,0,.43.24c.12,0,.36-.11.36-.16-.11-2.62-.11-5.24-.41-7.83-.81-6.91-.56-13.38,3.87-19.42,5.58-7.62,10.66-15.61,15.74-23.59,5.25-8.26,10.41-16.64,12.53-26.37.91-4.18.93-8.55,1.83-12.74,1.48-6.84-.28-13.25-1.69-20.57-2.29,3.44-4,6.26-5.94,8.88-4.2,5.6-4.26,5.55-6.95,6.56l6.14-12.32c2.54-7,5.42-13.81,7.51-20.9,1.51-5.13,1.33-10.47-2.41-15a25.15,25.15,0,0,0-15.79-11.22c.13-.57.2-1.6.4-1.63,1.47-.21,3-.22,4.46-.29,1.21.12,2.86.43,1.14-1.5a41.13,41.13,0,0,0-20-12.51c-15.91-4.39-30.89-1.91-45.09,6.19-8.62,4.38-15.71,10.67-22.22,17.69-.75-2.85,1.51-4.34,3-6,8.78-10,19.18-17.85,31.75-22.49,2.16-.8,3.35-1.71,3.48-4.1.52-9.41,1.15-18.82,1.74-28.23a36.16,36.16,0,0,1,10.39-18.75c3.93-3.78,7.82-7.6,11.72-11.4,8.87-7.53,15.78-16.45,20-27.4a9.75,9.75,0,0,0-.35-8.51c-3.21-6.72-6-13.66-8.91-20.5-.47-1.09-1-2.14-1.68-3.45-3.45,5.16-6.46,9.93-9.73,14.51C372,210.4,365,219.61,354.4,225.3c-8.09,3.53-16.29,6.69-25.14,7.71-8.61,1-17.21,1.79-25.75-.51A24.18,24.18,0,0,1,291,224.67a13.12,13.12,0,0,1-1.35-2.64c4.41,1.91,8.38,4.07,12.61,5.39a49.71,49.71,0,0,0,24.18,1c11.55-2.16,22.71-5.39,32-13,11-9,18.16-21,25.73-33.64l-5.69-1.27-22.32-7.42c.08-.29.16-.58.23-.88l21.8,5,.61-.84-23.27-27,6,4,1.93,1.28c2.76,2.59,5.62,5.08,8.25,7.79,4,4.15,7.84,8.51,11.86,12.67a7.65,7.65,0,0,0,3.64,2.3,65.18,65.18,0,0,0,8.84.87c8.2.44,16.41.8,25.4,1.23l-4.16,1.82a187.36,187.36,0,0,0-23.8,2.24,127.09,127.09,0,0,0,21,39.86A50,50,0,0,0,440.67,244c4.35,1.53,9,2.22,13.39,3.65,5.82,1.88,11.55,4.06,17.28,6.21.73.27,1.24,1.13,2.51,2.34-2.4-.34-3.84-.5-5.26-.76s-2.9-.74-4.37-.91c-4.06-.48-5.08-.08-5.36,3.75a41.28,41.28,0,0,0,.59,12.81c2.43,9.89,8.41,17.9,15.05,25.41,6,8.54,12.21,17,18,25.64,6.3,9.43,11.17,19.55,13.62,30.74.69,3.17.33,5.73-2.25,8.06-3.31,3-6.32,6.3-9.46,9.47-2.95,2.77-3.81,6.51-4.69,10.22a41,41,0,0,1-8.8,17.68,13.43,13.43,0,0,0-1.19,2c4.81,2.26,8.78,1.59,12.27-2.36,1.73-2,2.89-4.42,4.27-6.68,2-3.28,4.52-5.78,8.71-5.68,2.11.05,3.4,1,3.5,3.3.35,8.29,1,16.57,1.05,24.85,0,3.06.56,5.23,3.7,6.74-3.05-.39-4.37.81-4.66,3.47a25,25,0,0,1-1.11,5.36c-1,3-.64,5.38,2.71,6.66-1.69.44-4,.54-4.16,1.16a64.53,64.53,0,0,0-1.57,11.15c0,.93,1.36,2.49,2.35,2.72.73.18,2-1.2,2.75-2.13a13,13,0,0,0,1.43-3.16,159.84,159.84,0,0,0,9.61-34c.73-4.41.77-4.17,5.36-4.25a172.29,172.29,0,0,0,17.89-1.08c4.38-.53,8.66-1.93,13.26-3-1.3,2.26-.78,6.38.54,9.89,1.08,2.89,3.69.06,5,1.64-4.31,2.54-4.06,2.55-4.19,7.72-.07,2.49,1.58,2.42,3.48,3.33-4.88.83-4.32,4.71-5.18,7.7-.43,1.48-.35,3.13,1.52,3.71s2.75-.69,3.44-2.12c3.45-7.17,5.67-14.74,4.37-22.67a176.94,176.94,0,0,1-2.81-27.26,26.08,26.08,0,0,0-.89-4.73,40,40,0,0,0-3.77,9.51c-.62,2.09-1.65,2.7-3.61,1.35-1.6-1.11-3.33-2-5.28-3.19-.43,1-.7,1.56-.91,2.15s-.47,1.45-.84,2.56c-1.46-.8-2.62-1.37-3.71-2.05-3.57-2.22-3.56-2.24-6.42,1.19-4.91-2-5.09-2.28-8.12.08-2.4,1.88-3.48.91-4.58-1.13-1.64-3-3.25-6.08-5-9.32-.64,1.36-1.19,2.52-1.73,3.68-.17-5.53,1.22-10.79,2.6-16.06a4.77,4.77,0,0,1,.57,2c.93,5.89,1.67,11.81,4.47,17.24.95,1.85,1.95,2.57,3.85,1.24,1.54-1.07,3.13-1.82,5.06-.58.55.35,2.08.29,2.25-.05,1.78-3.46,3.83-2,6-.58,1.86,1.22,3.64,2,4.47-1.23.12-.47,1.73-1,2.48-.77a14.36,14.36,0,0,1,3.49,1.82c2.51,1.48,2.95,1.41,3.7-1.45.67-2.55.87-5.23,1.53-7.79.23-.92,1.42-2.45,1.78-2.35,2.54.76,2.11-1.1,1.87-2.18-1.11-4.82-2.39-9.61-3.62-14.4-.53-2.06-1.58-4.12-1.58-6.18,0-15.65.27-31.3.32-47,0-9.29.29-18.61-.4-27.85-.48-6.36-2.41-12.61-3.69-18.91l-1.48-5.68c-1.17,3.19-1.91,5.24-2.81,7.69a141,141,0,0,1-11.6-37.7c-.47-2.75-1.46-3.54-4.18-3.38-11,.67-20-3.89-27.64-11.53-6.57-6.57-11-14.54-15.22-22.7-2.88-5.62-5.67-11.3-8.81-16.77a63,63,0,0,0-18.23-19.6c-.75-.54-1.82-2.51-3-.26l-1.27,22.86c-2.84,1.66-1.28-1.2-1.88-1.84q-.92-10.06-1.82-20.15A114.42,114.42,0,0,0,450.58,125c-3.7-11.93-11.62-20.25-22-26.6-2.63-1.61-5.27-3.19-8.41-5.09l6.23-2.53c-13.26-3.93-25.9-6.13-39-4.41l-5.75.38v8.52c-9.12-17.38-33.25-31.17-44.9-33.16,3.43,2.67,4.7,6.45,5.93,10.25a22,22,0,0,1-2.54,11.84c-.62,1.17-.37,2.8-.52,4.22,1.49,5.74,3.06,11.45,4.43,17.21,1.58,6.64,3,13.32-1.32,19.6-.1.14.18.54.51,1.47,5.08-3.55,10-7,15-10.44a26.79,26.79,0,0,1,3.86-1.83c-6.75,7.75-15.12,13.47-23.64,19-6.38,4.15-10.9,10.21-16.3,15.33,7.38-2.39,14.53-5,21.71-7.49a7.09,7.09,0,0,1,2.58.1l-13.09,6.8c-10.5,3.35-20.68,7.24-28,16.11a10.89,10.89,0,0,1-8.14,4.23c-5.95.26-11.9.72-17.85.68A18.5,18.5,0,0,1,264.24,162a25.17,25.17,0,0,0-8.43-6.82c-6.24-3-12.85-5.19-19.31-7.72l-12.1-6c.86-.11,1.84-.54,2.58-.28,5.93,2.05,11.81,4.25,17.72,6.37,1.08.38,2.22.61,3.33.91-5.53-6.34-10.57-12.69-17.75-16.86a83.83,83.83,0,0,1-12.88-9.25c-3.42-3-7.38-5.66-9.07-10.24.54.37,1.1.73,1.63,1.12,5,3.76,10,7.58,15,11.27a25,25,0,0,0,4,1.94l.68-.75c-4.93-7.09-3.58-14.46-1.49-21.93,1.24-4.42,2.1-9,3.14-13.43,1.41-2.72,1-5.12-.35-7.95-1.41-3.05-1.7-6.63-2.48-10l4.7-10.35c-18.66,6.56-34.07,16.68-43.85,34.16-2.15-3.3,1.21-6.13.81-9.28-6.6-1.71-16.46-2-21.85-.7a78.06,78.06,0,0,0-23.6,4.7l6.07,2.55c-4,2.47-7.55,4.59-11,6.82-8.73,5.61-15,13.34-18,23.2-2.35,7.75-3.6,15.85-5.33,23.79q-1,9-2,18c-.29,1.5-.54,3-.87,4.51-.25,1.15-.61,2.28-.91,3.43-.39-7.41-.75-14.83-1.19-22.23,0-.61-.61-1.18-.94-1.77a51.76,51.76,0,0,0-18.87,18c-3.77,6-6.94,12.45-10.2,18.79-3.73,7.25-7.63,14.38-13,20.56C61.63,214.36,53.61,220,43,221c-2.72.26-5.49,0-8.37,0a145.39,145.39,0,0,1-12.12,41.33c-1.93-2.35-1-5.31-3.63-7.35-.58,3.16-1.05,5.75-1.52,8.33-2.87,9.46-3.26,19.26-3.62,29-.3,8.13.39,16.29.52,24.44.19,11.66.35,23.33.3,35a24,24,0,0,1-1.52,7.72c-1.93,5.47-3.76,10.91-3.85,17.06l3-.56c.43,2.28.82,4.56,1.29,6.83s1,4.37,1.55,7a38.65,38.65,0,0,1,5.22-2.94c.89-.33,2.88-.12,3,.32,1.31,3.63,3.21,1.65,5,.75.75-.37,1.52-.68,2.26-1.06,2.55-1.29,2.46,2.49,4.29,2.28s3.12-2.24,5.51-.89c4.47,2.52,4.59,2.34,6.37-2.51a19,19,0,0,0,.82-2.86c.91-4.56,1.78-9.12,2.67-13.68a75.93,75.93,0,0,1,3.23,13.33c0,.24-.63.61-1,.92-.42-.6-.83-1.21-1.26-1.84-2,4.17-3.76,8-5.65,12.05-4.09-2.19-7.28-6.21-11.39-1.83-3.21-3.75-3.21-3.74-6.87-1.39-1.1.71-2.22,1.38-3.32,2.06-3-4.42-3-4.41-7.28-1.34-.64.45-1.35.78-2.68,1.53-1.4-4.53-2.66-8.63-3.92-12.73a5.54,5.54,0,0,0-1.51,3.23c-1.09,9.75-2.11,19.49-3.19,29.24-.89,8,1.22,15.5,4.26,22.78.6,1.43,1.62,2.68,3.46,2.06s2-1.94,1.84-3.62c-.35-3.72-1.63-6.86-5.13-8.4,1.29-.82,3-1.31,3.17-2.13.72-3.36.17-6.48-3.74-7.86,1.81-.71,4.09-.92,4.45-1.87,1.16-3.06,2.71-6.26,1.11-10.05A21.73,21.73,0,0,1,18,404c8.73,3.32,17.8,4,27,3.36,5.81-.4,4.71-.43,6.13,4.66,2.84,10.23,5.62,20.47,8.52,30.69a30.26,30.26,0,0,0,2.49,6c.48.87,1.82,2.07,2.43,1.9,1.08-.3,2.56-1.45,2.7-2.41a23.48,23.48,0,0,0-.09-7.39c-.82-4.51-1.17-4.64-6.88-5,5.55-1.11,4.54-4.21,4-7.12-.19-1-.5-1.93-.72-2.91-.33-1.45-.22-3.27-1.07-4.27s-2.55-.78-4.2-1.2c4.11-2.39,4-2.39,4-6.68,0-5.81.14-11.64.36-17.45.09-2.3,1.16-4.7.76-6.86-.56-3,1.22-3.58,3.18-3.8,3.63-.41,6.46,1.21,8.38,4.3,1.13,1.83,1.81,4,3.23,5.59A26.17,26.17,0,0,0,85,401a5.84,5.84,0,0,0,7.29-1,49.55,49.55,0,0,1-11-22.38c-.5-2.29-2.31-4.29-3.52-6.43-2.86-2.94-5.54-6.09-8.61-8.78-3.55-3.11-4.41-6.89-3.66-11.21a29.24,29.24,0,0,1,1.84-6.15,167.05,167.05,0,0,1,17-30.86c4.34-6.27,8.91-12.38,13.37-18.55a67.62,67.62,0,0,0,14.91-24.35c1.65-4.63,1.35-9.46.3-14.19-.93-4.15-1-4.09-5.29-3.15-2.73.6-5.49,1.06-8.23,1.59L99,254.35a36,36,0,0,1,5.58-2.88q8.46-2.72,17.06-5C129.78,244.32,137.88,242.07,144.51,236.45Zm103-197.06q-2.53,9.72-5.08,19.45l.87.36L247,54.67c.12.51.33.87.24,1.12-6.34,17.47-10.95,35.41-15,53.54-1.51,6.81,0,12.23,4.21,17.58,9,11.61,19.58,21.74,30.22,31.8,2.8,2.64,6,4.79,10.06,4.92,5.79.19,11.59.58,17.36.34a14.5,14.5,0,0,0,9.1-3.5c11.73-10.17,22.18-21.55,32.12-33.42,4.34-5.19,6.42-10.9,4.38-18-3.76-13-6.92-26.25-10.48-39.36-1.33-4.9-3.06-9.69-4.61-14.53L325,55l3,3.83,1-.4-4.35-17.11C320.83,29.5,313.24,20.1,303.83,12.7c-11.5-9-21.77-9.65-34-1.38-4.72,3.21-8.62,7.77-12.48,12.08C253.16,28.1,249.35,33.19,247.47,39.39Zm89.34,444.26c.9,1.23,1.44,1.67,1.58,2.21,1.44,5.61,2.95,11.21,4.15,16.88.67,3.16-.15,6.21-1.64,9.15-2,4-3.9,8.08-5.62,12.22-1.11,2.69-.32,4.38,2.16,5.75,2.74,1.51,5.59,1.12,7.42-1.61,2.77-4.14,5.19-8.51,7.72-12.8,1.11-1.88,2.11-3.82,3.17-5.74-.17,6.3-2.42,11.8-4.73,17.3a17.81,17.81,0,0,0-.71,3.63c1.58.26,3.37,1.1,4.68.63a8.63,8.63,0,0,0,3.94-3.52c2.53-4.09,4.73-8.39,7.11-12.58a22.85,22.85,0,0,1,1.81-2.4l.94.47q-2.55,7.68-5.11,15.36c3.78.78,4.49.73,6.25-2,2.06-3.21,3.78-6.63,5.66-10,.7-1.23,1.41-2.44,2.11-3.66l.79.3c-.69,3.66-1.38,7.32-2.2,11.69,1.45-.89,2.46-1.2,3-1.89a15.83,15.83,0,0,0,2.16-3.9,60.51,60.51,0,0,0,3.75-26.94c-.2-2.21,0-5-3.42-5.73-.31,3-.59,5.74-1,9.24l-5.65-6.56-4.23,5c-.83-1.3-1.41-2.3-2.08-3.23s-1.61-2.07-2.32-3c-5,2.85-5,2.84-8.32-1.16-.51-.61-1.08-1.16-1.92-2.06l-6.93,6.87c-2.87-4.17-1.27-8.89-2.59-13.33-.9.78-1.38,1.22-1.89,1.63l-3.72,3c-.85-1.56-1.76-3.1-2.52-4.7a4.77,4.77,0,0,1-.29-2c0-4.61,0-9.22,0-14.35-5.16,2.61-9.79,5.34-13.12,9.51-4.69,5.85-9.39,11.63-15,16.64-2.26,2-2.17,3.72-.49,6.15,2.44,3.51,6,4.32,9.52,1.86a56.81,56.81,0,0,0,5.57-5c5.13-4.75,5.16-4.76,10.94-1.2.17.1.53-.12,1.08-.25Zm-303-73.59a5.18,5.18,0,0,0-.61,1.09c-3.13,16.22,2.13,31.27,6.63,46.39.83,2.79,3.5,2.92,5.37.58,2.09-2.62,1.58-5.67,1.29-8.64-.47-4.9-.83-5.3-6.26-6.89,5-.59,4.77-3.47,4.24-6.56a22,22,0,0,1-.6-4.94c.19-3.43-1.12-5.58-4.35-5.94,1.58-1.17,4.19-2.12,4.38-3.42.52-3.7.06-7.54,0-11.33l-7.81-.33C35.32,410,34.52,410.06,33.85,410.06Zm497.44,32.76c-1.72.59-4.09.7-4.51,1.66a16.63,16.63,0,0,0-.9,11.7c.55,1.73,1.55,3.48,3.84,3.33,2.11-.13,2.49-1.87,2.93-3.51,1.61-5.93,3.28-11.85,4.84-17.79a63.16,63.16,0,0,0,.77-28.38l-2.59.16c-2.46.1-6.11-.74-7.09.52-1.32,1.7-.71,5-.73,7.61,0,5.47,0,5.47,5.47,6.89-4.52,1.56-4.52,1.56-5.21,7.06-.19,1.49-.42,3-.55,4.46C527.19,440.83,527.2,440.84,531.29,442.82ZM20.64,406.61a8.94,8.94,0,0,0-.94,1.64c-3.4,13.73-.51,27,3.13,40.16a3.83,3.83,0,0,0,.81,1.8c1,.92,2.52,2.51,3.3,2.26a5.13,5.13,0,0,0,3-3.27c.38-2.22-.28-4.59-.32-6.9-.05-3.07-2.7-3.5-5.21-4.51,4.26-1.62,4.25-1.61,3.59-5.32a13.67,13.67,0,0,1-.49-3.44c.28-3.13-.83-5.26-4.53-6,2.18-1.62,5.25-1.27,5.18-4.54-.05-2.48.91-5.11.38-7.43C27.62,406.82,23.2,408.41,20.64,406.61Zm526.68,31.22c-1.41.74-3.71,1.19-4.05,2.26a35.07,35.07,0,0,0-1.47,9.67c0,.88,1.89,2.13,3.13,2.57.6.21,2-.91,2.54-1.75a16.29,16.29,0,0,0,2.15-5c1.58-7.6,3.52-15.19,4.27-22.89.51-5.33-.72-10.83-2.62-16-.76.26-1.22.43-1.69.58-6.6,2.06-6.39,2.05-6.12,8.76.15,3.87,1,6.66,5.81,7-4.35.28-5.17,2.76-4.93,6.13a13,13,0,0,1-.41,2.94C543.22,436.45,543.22,436.45,547.32,437.83ZM336.54,80.07c2.21-3.6,2.81-7.06-.88-10.44C333.16,73.61,335.75,76.76,336.54,80.07Zm-101.45-.23c.15-3,4.14-6.14-.17-9.4C232.7,73.72,233.08,76.76,235.09,79.84Z"/><path class="cls-2" d="M281,657.44c17.65,0,31.15-.13,44.64,0,14,.17,27.91.48,41.85,1,10.92.42,21.85.9,32.7,2,15.24,1.6,30.63,2.21,45.6,5.93a22.12,22.12,0,0,1,4.7,1.54,14.17,14.17,0,0,1,2.81,2.48c-.87.95-1.56,2.38-2.63,2.74a69.58,69.58,0,0,1-11.45,3.13q-14.65,2.31-29.4,4c-5.58.64-11.22.82-16.84,1.08-8.62.4-17.24.69-25.86,1-8.11.32-16.24.49-24.35,1-31.27,2-62.56.64-93.85.89-12.78.1-25.57-.55-38.35-1q-10.42-.33-20.85-1c-9.24-.59-18.52-1-27.7-2.07-11-1.3-21.84-3.19-32.74-5a27.77,27.77,0,0,1-6.61-2.09c-1.12-.49-1.93-1.68-2.87-2.56.85-.89,1.55-2.27,2.58-2.59,4.38-1.4,8.8-3,13.32-3.57,10.81-1.34,21.71-2,32.54-3.19a310.94,310.94,0,0,1,31.71-2c9.12-.09,18.28-.14,27.34-1C246.53,656.39,265.83,658.24,281,657.44Z"/><path class="cls-3" d="M553.6,260.33c1.28,6.3,3.21,12.55,3.69,18.91.69,9.24.44,18.56.4,27.85-.05,15.65-.31,31.3-.32,47,0,2.06,1,4.12,1.58,6.18,1.23,4.79,2.51,9.58,3.62,14.4.24,1.08.67,2.94-1.87,2.18-.36-.1-1.55,1.43-1.78,2.35-.66,2.56-.86,5.24-1.53,7.79-.75,2.86-1.19,2.93-3.7,1.45a14.36,14.36,0,0,0-3.49-1.82c-.75-.19-2.36.3-2.48.77-.83,3.2-2.61,2.45-4.47,1.23-2.19-1.43-4.24-2.88-6,.58-.17.34-1.7.4-2.25.05-1.93-1.24-3.52-.49-5.06.58-1.9,1.33-2.9.61-3.85-1.24-2.8-5.43-3.54-11.35-4.47-17.24a4.77,4.77,0,0,0-.57-2c-1.38,5.27-2.77,10.53-2.6,16.06-.3,1.91-1.44,2.74-3.54,2.89-.5-3.48-.85-6.75-1.46-10a61.21,61.21,0,0,0-2.2-9.12c-1.8-5.07-4-5.8-8.7-3.27-1.3.71-2.47,1.67-3.76,2.39s-2.89,1.41-4.34,2.11c3.14-3.17,6.15-6.49,9.46-9.47,2.58-2.33,2.94-4.89,2.25-8.06-2.45-11.19-7.32-21.31-13.62-30.74-5.81-8.68-12-17.1-18-25.64-.28-1.95-.62-3.89-.83-5.85-.43-3.94-1.19-7.9-1.06-11.82.17-4.82,1-9.66,5.94-12.36l4.17,9.46a2.44,2.44,0,0,0,.62-2.07,81.47,81.47,0,0,1-1-28.75c.27-1.77-.46-3.71-.73-5.57-3.82-1.68-3.77-1.67-2.86-5.26.53-2.1.86-4.25,1.28-6.37l-1-.28c-.81,1.91-1.67,3.8-2.43,5.73a5.29,5.29,0,0,1-4.2,3.73c-2.27.4-4.5,1.21-6.78,1.35a52.46,52.46,0,0,1-33.85-9.34c-5-3.47-9.47-7.73-14.18-11.64-.65-1.14-1.4-2.24-1.95-3.44-1.9-4.17-4.33-8.22-5.44-12.6-1.66-6.58-1.49-12.71,6.45-17.44a26.64,26.64,0,0,0,3-2.46c1.33-.06,2.66-.06,4-.19,5.72-.59,11.41-1.38,17.14-1.78,4-.28,8-.06,11.94-.05,5.4,0,5.4,0,6.78-5.2a3.66,3.66,0,0,0,0-1q.64-11.43,1.27-22.86c.26.59.81,1.21.74,1.75-.51,3.58,1.47,5.44,4.29,7.08a37.11,37.11,0,0,1,5.45,4.29c6.41,5.52,10.79,12.49,14.46,20,4.34,8.95,8.53,18,14.89,25.8,8.9,10.88,20.11,16.81,34.88,15.78-.15,9,0,18.14,3.18,26.84,3.1,8.54,6.6,16.86,12.82,24Z"/><path class="cls-3" d="M97.68,295.66c-4.46,6.17-9,12.28-13.37,18.55a167.05,167.05,0,0,0-17,30.86,29.24,29.24,0,0,0-1.84,6.15c-.75,4.32.11,8.1,3.66,11.21,3.07,2.69,5.75,5.84,8.61,8.78-2.65-2-5.28-3.95-7.94-5.9-3.79-2.78-7.1-2.08-8.73,2.31-1.26,3.38-1.68,7.06-2.55,10.58s-.4,7.43-2.77,11.49c-1.3-2.52-2.26-4.39-3.22-6.27.34-.31,1-.68,1-.92a75.93,75.93,0,0,0-3.23-13.33c-.89,4.56-1.76,9.12-2.67,13.68a19,19,0,0,1-.82,2.86c-1.78,4.85-1.9,5-6.37,2.51-2.39-1.35-3.69.67-5.51.89s-1.74-3.57-4.29-2.28c-.74.38-1.51.69-2.26,1.06-1.83.9-3.73,2.88-5-.75-.16-.44-2.15-.65-3-.32A38.65,38.65,0,0,0,15,389.76c-.58-2.6-1.1-4.78-1.55-7s-.86-4.55-1.29-6.83l-3,.56c.09-6.15,1.92-11.59,3.85-17.06a24,24,0,0,0,1.52-7.72c.05-11.66-.11-23.33-.3-35-.13-8.15-.82-16.31-.52-24.44.36-9.74.75-19.54,3.62-29,1.12,4.56,2.24,9.12,3.67,14.9,2.09-4.13,3.61-7.19,5.2-10.21,6.48-12.32,11.21-25.1,10.26-39.34-.18-2.76,1.13-3.16,3.54-3.34,7.83-.58,15.44-2.21,21.81-7.17A52.09,52.09,0,0,0,75.7,202c4.38-8,8.65-16,13-24,4.19-7.69,9.62-14.39,17.09-19,3.49-2.17,5.46-4.51,4.68-8.68a5.57,5.57,0,0,1,0-1c.33.59.91,1.16.94,1.77.44,7.4.8,14.82,1.19,22.23l.48,3.39c.36,2.57,1.42,3.07,4.3,3,8.76-.18,17.55.41,26.33.81,3.28.15,6.55.61,9.83.93h0a29.56,29.56,0,0,0,3,3.56c2.43,2.12,4.47,4.56,4.82,7.78.76,6.85,0,13.36-3.95,19.4a58.63,58.63,0,0,1-18.93,18.32c-5.05,2-10,4.36-15.17,6.09a36.36,36.36,0,0,1-21,.95c-1.9-.49-3.87-.71-5.81-1.05L93,228.19l-.71.18c.41,2.69.81,5.39,1.21,8.08,0,2-1.17,3-3.11,3.07-1.14,0-1.79.17-1.58,1.66.64,4.69,1.58,9.42,1.55,14.12,0,6.54-.85,13.08-1.38,20.17,3-3.75,3.27-8.11,4.74-12,1-.74,1.8-.65,2.11.7.9,4,2.4,7.89,2.54,11.88C98.61,282.59,98,289.13,97.68,295.66Z"/><path class="cls-4" d="M357.32,276.41c-.59,9.41-1.22,18.82-1.74,28.23-.13,2.39-1.32,3.3-3.48,4.1-12.57,4.64-23,12.46-31.75,22.49-1.46,1.67-3.72,3.16-3,6,.37,3.25.95,6.5,1.07,9.77a15.58,15.58,0,0,0,5.08,10.89c7.37,7.1,16.24,9.48,26.28,7.93a44.42,44.42,0,0,1,4.9-.24c-3,3.06-6.15,6.06-9.11,9.21-4.42,4.68-7.63,10-8.2,16.61-.33,3.72-.95,4.25-4.78,4a44.82,44.82,0,0,1-20.93-7.16c-5.07-3.17-10.16-6.29-15.33-9.27a25.93,25.93,0,0,0-4.94-1.7l-1.16,1.53,6.88,5.25a143.09,143.09,0,0,1-22.31.22l6-6.92c-1.9.47-3,.51-3.83,1-6.32,3.64-12.56,7.39-18.87,11a46.7,46.7,0,0,1-19.77,6.09c-2.68.22-3.79-.58-3.93-3.52-.32-6.77-3.72-12.33-8.15-17.18-3.34-3.66-7.13-6.92-10.71-10.36a11.52,11.52,0,0,1,3.42.35c5.27,2.3,10.66,2,16,.58,8.49-2.31,15.66-6.42,18-15.78a27.65,27.65,0,0,0-.38-14.16c0-.8.31-1.85-.07-2.36-8.2-10.91-19.11-18.32-31.52-23.52-3.57-1.49-5.38-3.42-5.5-7.22-.27-8.28-.65-16.56-1-24.84a55,55,0,0,1,6.59,4.08c11.11,9.16,18.33,21.25,24.33,34,1.93,4.1,5.1,5.6,8.41,7.47,1.46.82,2.58.37,2.7-1.52.4.5.8,1,1.21,1.48a23.09,23.09,0,0,0,18,8.47c2.54,0,3.12-.38,4.76-2.12,3.37-2.29,6.72-1.65,10.05.1,4.77,3.85,9.66,1.78,14.43.12,5.86-2,9-6.86,11.59-12.07,1,2.53,2.79,4.11,5.54,3.85,2.45-.23,2.58-2.65,3.4-4.39,2.11-4.48,4-9.07,6.5-13.35C338.3,292.58,346.42,283.18,357.32,276.41Zm-45.65,69.3c-4.68,3.26-9.62,13.55-9.44,19.8C305.92,358.9,310.05,353.18,311.67,345.71ZM269.46,366c-1.94-11.7-5.52-18.66-10.4-20.24C262.71,352.85,266.09,359.42,269.46,366Z"/><path class="cls-5" d="M208.33,112.16c1.69,4.58,5.65,7.26,9.07,10.24a83.83,83.83,0,0,0,12.88,9.25c7.18,4.17,12.22,10.52,17.75,16.86-1.11-.3-2.25-.53-3.33-.91-5.91-2.12-11.79-4.32-17.72-6.37-.74-.26-1.72.17-2.58.28-.47-.12-1.09-.09-1.39-.39-2.29-2.3-3.94-1.21-5.6.84-2.88,3.53-5.84,7-8.77,10.5a35.14,35.14,0,0,0-5.62,1.82c-9.23,4.75-19.13,6.11-29.32,6.15-8,0-16-.19-24,.09a109,109,0,0,0-14.72,1.7c-7.15,1.25-14.16,3.08-20.26,8.19-.14-2.15-.24-3.63-.34-5.11q1-9,2-18c.11,1.12.23,2.25.39,3.74,2-6.29,3.72-12.22,5.71-18.06a57.91,57.91,0,0,1,14-23.1,60.73,60.73,0,0,1,21.09-13.64,37,37,0,0,0,3.81-2.06l-3.66-2.37L182.72,87l0-.68H168.33c5.39-1.33,15.25-1,21.85.7.4,3.15-3,6-.81,9.28-.06.6-.13,1.2-.32,2.9,1.9-1.82,3.12-3.07,4.42-4.22,4.84-4.27,9.57-8.66,14.6-12.7,6-4.83,13.19-7.44,20.45-9.79.78,3.36,1.07,6.94,2.48,10,1.32,2.83,1.76,5.23.35,7.95a12,12,0,0,0-2.56,1.35c-3.72,3.27-7.27,6.75-11.06,9.93-4,3.32-8.14,6.39-14.28,6.27Z"/><path class="cls-5" d="M346.45,141.38a7.09,7.09,0,0,0-2.58-.1c-7.18,2.5-14.33,5.1-21.71,7.49,5.4-5.12,9.92-11.18,16.3-15.33,8.52-5.55,16.89-11.27,23.64-19l6.23-6c-6.32.18-10.44-3-14.4-6.93-4.55-4.56-9.51-8.72-14.29-13.06.15-1.42-.1-3,.52-4.22a22,22,0,0,0,2.54-11.84,22.47,22.47,0,0,1,2.86.68,83.31,83.31,0,0,1,29.2,19c1.75,1.72,3.79,3.16,5.7,4.74l1.21-1.56V86.74l5.75-.38a42,42,0,0,0,5.92,2c6.91,1.23,13.85,2.25,20.77,3.36l.05,1-3.67,1.42c1.07.66,1.71,1.1,2.39,1.48,5.16,2.94,10.68,5.41,15.42,8.91,8.09,6,14.92,13.26,18.33,23,3,8.63,5.79,17.33,8.61,25.81.1-.49.26-1.28.43-2.07l1.82,20.15c-3.31-4.24-7.93-6.48-12.92-7.79a92.38,92.38,0,0,0-25-3.22c-8.33.13-16.67.23-25,0a64.79,64.79,0,0,1-13.68-1.82,128.17,128.17,0,0,1-14.45-5.16c-1.63-.63-2.88-1.25-3,1.29l-1.93-1.28c.11-.66.55-1.59.27-1.95-2-2.6-4.42-5-6.34-7.64C353.05,140.38,350.21,139.41,346.45,141.38Z"/><path class="cls-6" d="M324.69,41.28,329,58.39l-1,.4L325,55l-.45.23c1.55,4.84,3.28,9.63,4.61,14.53,3.56,13.11,6.72,26.32,10.48,39.36,2,7.07,0,12.78-4.38,18-9.94,11.87-20.39,23.25-32.12,33.42a14.5,14.5,0,0,1-9.1,3.5c-5.77.24-11.57-.15-17.36-.34-4.06-.13-7.26-2.28-10.06-4.92-10.64-10.06-21.18-20.19-30.22-31.8-4.16-5.35-5.72-10.77-4.21-17.58,4-18.13,8.64-36.07,15-53.54.09-.25-.12-.61-.24-1.12l-3.69,4.53-.87-.36q2.55-9.72,5.08-19.45c.07.32.13.65.2,1,.31-.08.78-.06.89-.25a70.67,70.67,0,0,1,24.55-24.86c7.45-4.57,14.81-5,22.62-1.22,11.83,5.82,20.68,14.7,27.21,26.06C323.21,40.57,323,42.56,324.69,41.28ZM299.6,69.52l-3.46-.44c-.07-.38-.14-.76-.2-1.14l14.91-6.89q-5.88-.78-13.74,3.75c-1.76-4.35-1.75-4.33,1.85-6.51,2.09-1.26,4.15-2.59,6.62-4.14-2.23-.26-4.49,0-4.78-.64-2.07-4.64-6.92-6-10.24-9.09-3.05-2.85-6.23-2.48-9.44-.12-4.75,3.48-9.55,6.89-14.43,10.4l8.75,5.49c-2,4-2,3.93-5,2.63-2.65-1.14-5.21-2.76-8.62-2.06.52.62.77,1.24,1.13,1.31,5.54,1.12,9.74,4.83,14.49,7.45.14.08,0,.67,0,1-3.76-.56-7.55-1-11.28-1.72-9.22-1.8-16.35,1.19-20.28,8.75-1.26,2.42-2.09,4.91-.47,7.55,1.4,2.3,1.21,4.58.43,7.15a9.14,9.14,0,0,0,2.1,9.27c3.78,4.15,7.47,8.38,11.76,13.2.43-2.12.76-3.77,1.1-5.42l1.69.07a50.27,50.27,0,0,1-5.09,16.83,15.16,15.16,0,0,0-1.23,3.22c-1.22,5.45-1.47,10.8,2.39,15.44.37.45,1.41.33,2.14.48a5.68,5.68,0,0,1,1.11.95c5.58,8.25,13.82,11.66,23.29,12,10.95.42,19.91-3.86,26.33-13,1.57,1.4,2-.37,2.46-1.07,3.51-5.48,3.43-11.18,1.1-17.14-2.26-5.76-5.66-11.22-5.37-17.77h1.86c.32,1.59.63,3.18,1.14,5.78,2.26-3.15,3.66-5.39,5.35-7.39s3.91-4,5.85-6.09a9.38,9.38,0,0,0,2.42-9.12c-.47-2.27.09-4.78.24-7.18.12-1.76.8-3.63.4-5.25a16.13,16.13,0,0,0-15.4-11.75C307.48,68.47,303.54,69.12,299.6,69.52Z"/><path class="cls-7" d="M187.47,479.43c.22-4.14.71-8.28.56-12.4a14.78,14.78,0,0,0-2-7c-5.18-8.31-10.64-16.45-16.07-24.6-6.46-9.7-12.6-19.53-15-31.17a66.25,66.25,0,0,1,.72-30.45l11.52,15.48.86-.54q-3.27-7.15-6.53-14.32c.76.26,1.66.92,2.26.71,8-2.77,16.49-2.16,24.65-3.72l-3.66,12.19.84.32,6.87-13.51c.75.67,1.4,1.7,2.27,1.94,2.52.68,5.17.87,7.68,1.58a60,60,0,0,1,17.75,8.55c1.53,1.05,3,3.21,5.49,1.76,3.77,5.67,3.65,12,2.25,18.15a172.39,172.39,0,0,1-5.36,18c-4.61,13.35-1.22,25.48,5.7,36.9a19.89,19.89,0,0,1,3.14,9.12,27.51,27.51,0,0,0-16.69-2.13c-9.67,1.56-18,5.16-24,13.22C190.05,478.46,188.58,478.81,187.47,479.43Z"/><path class="cls-8" d="M340.59,464.46c.83-2.29,1.33-4.77,2.53-6.85,4-7,7.26-14.1,7.67-22.3a46.74,46.74,0,0,0-1.88-15.11c-2-7-3.67-14.06-5.69-21-1.44-5,.08-9.39,2.24-13.74a51.46,51.46,0,0,0,5.47-2.25c2.61-1.44,5-3.3,7.6-4.7,6.62-3.56,13.81-5.47,21.1-7.05l5.95,11.63,1-.45q-1.51-5.6-3-11.19c5.16.66,10.36,1.12,15.47,2.05a105.36,105.36,0,0,1,10.34,2.92l-6.14,12.32c2.69-1,2.75-1,6.95-6.56,2-2.62,3.65-5.44,5.94-8.88,1.41,7.32,3.17,13.73,1.69,20.57-.9,4.19-.92,8.56-1.83,12.74-2.12,9.73-7.28,18.11-12.53,26.37-5.08,8-10.16,16-15.74,23.59-4.43,6-4.68,12.51-3.87,19.42.3,2.59.3,5.21.41,7.83,0,0-.24.18-.36.16a1.24,1.24,0,0,1-.43-.24,22.77,22.77,0,0,0-1.56-4.5C373.67,465.42,353.89,461.06,340.59,464.46Z"/><path class="cls-9" d="M225.69,384.25c-2.46,1.45-4-.71-5.49-1.76a60,60,0,0,0-17.75-8.55c-2.51-.71-5.16-.9-7.68-1.58-.87-.24-1.52-1.27-2.27-1.94.24-3.14,2.95-5.92,1.49-10l-5.54,11c-8.16,1.56-16.65.95-24.65,3.72-.6.21-1.5-.45-2.26-.71-2.08-5.73-4.5-11.37-6.17-17.22-3.13-10.92.76-19.44,9.54-24.71,2.81-1.69,5.79-3.09,9-4.78l-4.44-.51c2.54-3.91,6.8-5,10.76-6.65,11.34-4.59,23.09-5.23,35-3.29,4.69.76,9.28,2.12,13.92,3.19,1,.22,2.37,1.25,2.33-1,8.16,3.8,14.62,9.84,21,15.93a27.65,27.65,0,0,1,.38,14.16c-2.3,9.36-9.47,13.47-18,15.78-5.3,1.45-10.69,1.72-16-.58a11.52,11.52,0,0,0-3.42-.35l-5.1-2.7C216.06,369,222.17,375.71,225.69,384.25Zm9.1-61.64c.3,16.53-.2,17.46-8.83,30.93C236.43,346.77,240.77,332.55,234.79,322.61Zm-47.7,8.32c3.09,7.71,6.11,15.23,9.13,22.75C197.65,344.41,195.24,338.37,187.09,330.93Z"/><path class="cls-10" d="M409.36,376.39A105.36,105.36,0,0,0,399,373.47c-5.11-.93-10.31-1.39-15.47-2.05l-6.09-11.58-1,.4q1.59,5.6,3.16,11.19c-7.29,1.58-14.48,3.49-21.1,7.05-2.62,1.4-5,3.26-7.6,4.7a51.46,51.46,0,0,1-5.47,2.25c2-6.69,6.38-11.92,10.73-17.14a38.1,38.1,0,0,0,4.77-6.24l-6.25,3.54a44.42,44.42,0,0,0-4.9.24c-10,1.55-18.91-.83-26.28-7.93A15.58,15.58,0,0,1,318.45,347c-.12-3.27-.7-6.52-1.07-9.77,6.51-7,13.6-13.31,22.22-17.69,1.16.05,2.42.43,3.47.11a75.39,75.39,0,0,1,48.09.88c4.46,1.57,9.19,2.87,12.37,6.83-1.49.07-3,.08-4.46.29-.2,0-.27,1.06-.4,1.63a4.85,4.85,0,0,0-1.45.17c-.91.43-1.76,1-2.63,1.5a8.62,8.62,0,0,0,2.17,1.44,39.19,39.19,0,0,1,14.5,6.88,11.89,11.89,0,0,0,3.2,1.23c3.74,4.51,3.92,9.85,2.41,15C414.78,362.58,411.9,369.43,409.36,376.39Zm-72-53.92c-6.08,7.8-2.09,24.72,6.44,28.45C338.3,342.31,335.62,333.34,337.37,322.47Zm38.3,31c3-7.34,6-14.85,8.9-22C376.94,337.36,373,347.13,375.67,353.44Z"/><path class="cls-11" d="M208.64,152.46c2.93-3.5,5.89-7,8.77-10.5,1.66-2.05,3.31-3.14,5.6-.84.3.3.92.27,1.39.39l12.1,6c12.29,12,22.6,26.18,38.38,34.67-2.5.88-5.16-.69-7.7,1.9l3.55.24,10.72,2.28a4.33,4.33,0,0,1,2,4.13,55.72,55.72,0,0,0,.18,5.91l-13,5.39.09.42,11.58-2.21c3.31,7.74,0,13.57-6.26,17.43-5.44,3.38-11.7,3.28-17.69,3.55a39.29,39.29,0,0,1-13.09-1.93c-5.73-1.77-11.92-2.44-17-6.16,3.39-1.92,4.31-3.59,2.94-5.91a8.09,8.09,0,0,0-6.45-3.9c-2.53-.26-4.5.49-5.43,3.08-2.41-1.61-5.17-2.88-7.16-4.9-6.66-6.79-13-13.84-19.54-20.8L211.92,174l-.16-.74-19.1,4.26c7-10,14-19.08,22.33-27.17l-6.48,3A3.2,3.2,0,0,1,208.64,152.46Z"/><path class="cls-12" d="M346.45,141.38c3.76-2,6.6-1,9,2.42,1.92,2.68,4.3,5,6.34,7.64.28.36-.16,1.29-.27,1.95l-6-4,23.27,27-.61.84-21.8-5c-.07.3-.15.59-.23.88l22.32,7.42c-5.21,8.39-12.79,14.59-19.92,21.16-1.85,1.7-4.54,2.48-6.85,3.69-2.55-2.72-5.52-2.65-8.53-1.06-4,2.12-4.25,5.09-.73,8.34-7.11,4.89-15.37,6.58-23.64,7.63A56.07,56.07,0,0,1,303,220c-6.56-1.06-11.53-5.22-15.44-10.56V200l13,2.44a15.6,15.6,0,0,0-4.56-2.17c-9-3-9-3-8.3-12.74l1.9-.86,10.67-2.37,2.92-.42,0-1-6.67-.66c3.24-1.79,6.19-2.77,8.3-4.69,7.47-6.77,14.74-13.76,21.89-20.87,2.53-2.52,4.49-5.6,6.71-8.43Z"/><path class="cls-13" d="M351.7,205.37c2.31-1.21,5-2,6.85-3.69,7.13-6.57,14.71-12.77,19.92-21.16l5.69,1.27c-7.57,12.61-14.75,24.61-25.73,33.64-9.25,7.61-20.41,10.84-32,13a49.71,49.71,0,0,1-24.18-1c-4.23-1.32-8.2-3.48-12.61-5.39a13.12,13.12,0,0,0,1.35,2.64,24.18,24.18,0,0,0,12.48,7.83c8.54,2.3,17.14,1.5,25.75.51,8.85-1,17.05-4.18,25.14-7.71l1.19.16c-2.08,5-4.62,9.63-9,13-5.22.67-10.44,1.9-15.65,1.86-6.73-.07-13.43-1.26-20.16-1.78A43.28,43.28,0,0,1,289.53,231c-2.55-1.72-4.75-1.62-7.24.16a30.86,30.86,0,0,1-12.66,5.43c-4.36.78-8.65,2-13,2.66-8.68,1.35-17.38,2.07-26.14.42-1.24-.24-2.68.56-4,.88-4.14-4.07-7.82-8.47-10.11-13.88.39-.42.79-.83,1.18-1.24,14.35,7.3,29.62,9.51,45.48,8,6.79-.65,12.91-3.13,17.62-8.35a39.77,39.77,0,0,0,2.56-3.78,21.76,21.76,0,0,0-3.5,1.41c-9.28,6.45-19.8,7.58-30.56,6.49a81.36,81.36,0,0,1-25.33-7.09c-9.06-4.1-16-10.72-22-18.42-5-6.58-9.48-13.64-14.68-21.22l5.49-1.79c6.49,7,12.88,14,19.54,20.8,2,2,4.75,3.29,7.16,4.9.47,5.57,4.77,6.07,8.94,6.73,5,3.72,11.23,4.39,17,6.16a39.29,39.29,0,0,0,13.09,1.93c6-.27,12.25-.17,17.69-3.55,6.22-3.86,9.57-9.69,6.26-17.43,2.17-1.3,2.08.33,2.1,1.67.05,4.32,0,8.65.11,13a7.75,7.75,0,0,0,.89,2.34l.92-.08q.63-3.85,1.28-7.7c3.91,5.34,8.88,9.5,15.44,10.56a56.07,56.07,0,0,0,15.79.3c8.27-1.05,16.53-2.74,23.64-7.63a31.2,31.2,0,0,0,4.45-.25C350.81,211.64,352.21,209.5,351.7,205.37Z"/><path class="cls-14" d="M197.4,489.49l2.2,4.63,5.9-5.77a9,9,0,0,1,1.79,1c2.05,1.77,3.57,1.3,4.76-1,2.51-4.76,3.71-3,6.61-.28q1.78,1.71,3.58,3.41c.08.07.31,0,1.15-.14.47-4.2,1-8.56,1.5-13.64l6,5.89c3.54-7,2.57-14.11,2.27-21.92,5.3,3,9.53,5.94,13,10,4.53,5.3,9.21,10.48,14,15.59,2.87,3.09,3.25,4.24,1.45,6.81-2.18,3.1-5.76,4.33-8.69,2.77a18.49,18.49,0,0,1-3.54-2.73c-1.74-1.55-3.36-3.23-5.08-4.8-2.21-2-4.44-2.88-6.9-.24-.61.65-1.74.81-2.89,1.32-.09-2-.17-3.72-.24-5.42l-.75-.2a25,25,0,0,0-1.92,4.36c-1.09,4.51-2,9.07-2.89,13.63a13.86,13.86,0,0,0,1.65,9.15c2,3.83,3.94,7.7,5.68,11.65,1.41,3.19.83,5-1.54,6.51-2.83,1.78-5.51,1.61-7.52-1a105.49,105.49,0,0,1-6.21-9.64c-1.75-2.93-3.32-6-5-9l-1.2.46a61.14,61.14,0,0,0,1.68,5.89c1.53,3.86,3.18,7.67,4.91,11.44,1,2.15.21,2.92-1.85,3.5-2.74.76-4.56-.32-5.9-2.49-2.09-3.39-4.07-6.86-6.08-10.3-1.07-1.84-2.1-3.69-3.66-6.45-.72,3.89.7,6.32,1.55,8.8s1.93,4.92,2.92,7.4c-4.63,1-5.39.77-7.47-2.73-1.62-2.71-3-5.56-4.53-8.32a6.68,6.68,0,0,0-2.85-2.91c.65,3.36,1.29,6.72,2,10.14-4.37-1.76-6.81-6.51-8.62-16.57-1.89-10.47-.77-19.19,3.32-22.95.3,3.15.57,6,.89,9.41l6.56-5.24Z"/><path class="cls-15" d="M52.52,383.42c1,1.88,1.92,3.75,3.22,6.27,2.37-4.06,1.89-7.95,2.77-11.49s1.29-7.2,2.55-10.58c1.63-4.39,4.94-5.09,8.73-2.31,2.66,1.95,5.29,3.93,7.94,5.9,1.21,2.14,3,4.14,3.52,6.43a49.55,49.55,0,0,0,11,22.38A5.84,5.84,0,0,1,85,401a26.17,26.17,0,0,1-6.71-5.64c-1.42-1.56-2.1-3.76-3.23-5.59-1.92-3.09-4.75-4.71-8.38-4.3-2,.22-3.74.75-3.18,3.8.4,2.16-.67,4.56-.76,6.86-.22,5.81-.34,11.64-.36,17.45,0,4.29.1,4.29-4,6.68,1.65.42,3.47.34,4.2,1.2s.74,2.82,1.07,4.27c.22,1,.53,1.93.72,2.91.55,2.91,1.56,6-4,7.12,5.71.35,6.06.48,6.88,5a23.48,23.48,0,0,1,.09,7.39c-.14,1-1.62,2.11-2.7,2.41-.61.17-2-1-2.43-1.9a30.26,30.26,0,0,1-2.49-6C56.8,432.46,54,422.22,51.18,412c-1.42-5.09-.32-5.06-6.13-4.66-9.21.63-18.28,0-27-3.36a21.73,21.73,0,0,0-3.17-.66c1.6,3.79.05,7-1.11,10.05-.36.95-2.64,1.16-4.45,1.87,3.91,1.38,4.46,4.5,3.74,7.86-.17.82-1.88,1.31-3.17,2.13,3.5,1.54,4.78,4.68,5.13,8.4.15,1.68-.14,3.05-1.84,3.62s-2.86-.63-3.46-2.06c-3-7.28-5.15-14.75-4.26-22.78,1.08-9.75,2.1-19.49,3.19-29.24a5.54,5.54,0,0,1,1.51-3.23c1.26,4.1,2.52,8.2,3.92,12.73,1.33-.75,2-1.08,2.68-1.53,4.33-3.07,4.32-3.08,7.28,1.34,1.1-.68,2.22-1.35,3.32-2.06,3.66-2.35,3.66-2.36,6.87,1.39,4.11-4.38,7.3-.36,11.39,1.83,1.89-4.05,3.69-7.88,5.65-12.05C51.69,382.21,52.1,382.82,52.52,383.42Z"/><path class="cls-16" d="M494.43,370.36c1.45-.7,2.93-1.33,4.34-2.11s2.46-1.68,3.76-2.39c4.7-2.53,6.9-1.8,8.7,3.27a61.21,61.21,0,0,1,2.2,9.12c.61,3.23,1,6.5,1.46,10,2.1-.15,3.24-1,3.54-2.89.54-1.16,1.09-2.32,1.73-3.68,1.74,3.24,3.35,6.29,5,9.32,1.1,2,2.18,3,4.58,1.13,3-2.36,3.21-2.12,8.12-.08,2.86-3.43,2.85-3.41,6.42-1.19,1.09.68,2.25,1.25,3.71,2.05.37-1.11.58-1.85.84-2.56s.48-1.15.91-2.15c1.95,1.16,3.68,2.08,5.28,3.19,2,1.35,3,.74,3.61-1.35a40,40,0,0,1,3.77-9.51,26.08,26.08,0,0,1,.89,4.73,176.94,176.94,0,0,0,2.81,27.26c1.3,7.93-.92,15.5-4.37,22.67-.69,1.43-1.61,2.69-3.44,2.12s-1.95-2.23-1.52-3.71c.86-3,.3-6.87,5.18-7.7-1.9-.91-3.55-.84-3.48-3.33.13-5.17-.12-5.18,4.19-7.72-1.31-1.58-3.92,1.25-5-1.64-1.32-3.51-1.84-7.63-.54-9.89-4.6,1.08-8.88,2.48-13.26,3A172.29,172.29,0,0,1,526,407.39c-4.59.08-4.63-.16-5.36,4.25a159.84,159.84,0,0,1-9.61,34,13,13,0,0,1-1.43,3.16c-.72.93-2,2.31-2.75,2.13-1-.23-2.4-1.79-2.35-2.72A64.53,64.53,0,0,1,506,437c.14-.62,2.47-.72,4.16-1.16-3.35-1.28-3.74-3.65-2.71-6.66a25,25,0,0,0,1.11-5.36c.29-2.66,1.61-3.86,4.66-3.47-3.14-1.51-3.68-3.68-3.7-6.74-.05-8.28-.7-16.56-1.05-24.85-.1-2.33-1.39-3.25-3.5-3.3-4.19-.1-6.7,2.4-8.71,5.68-1.38,2.26-2.54,4.72-4.27,6.68-3.49,3.95-7.46,4.62-12.27,2.36a13.43,13.43,0,0,1,1.19-2,41,41,0,0,0,8.8-17.68C490.62,376.87,491.48,373.13,494.43,370.36Z"/><path class="cls-17" d="M336.81,483.65v6c-.55.13-.91.35-1.08.25-5.78-3.56-5.81-3.55-10.94,1.2a56.81,56.81,0,0,1-5.57,5c-3.51,2.46-7.08,1.65-9.52-1.86-1.68-2.43-1.77-4.14.49-6.15,5.63-5,10.33-10.79,15-16.64,3.33-4.17,8-6.9,13.12-9.51,0,5.13,0,9.74,0,14.35a4.77,4.77,0,0,0,.29,2c.76,1.6,1.67,3.14,2.52,4.7l3.72-3c.51-.41,1-.85,1.89-1.63,1.32,4.44-.28,9.16,2.59,13.33l6.93-6.87c.84.9,1.41,1.45,1.92,2.06,3.35,4,3.34,4,8.32,1.16.71.9,1.55,1.91,2.32,3s1.25,1.93,2.08,3.23l4.23-5,5.65,6.56c.37-3.5.65-6.21,1-9.24,3.4.73,3.22,3.52,3.42,5.73a60.51,60.51,0,0,1-3.75,26.94,15.83,15.83,0,0,1-2.16,3.9c-.52.69-1.53,1-3,1.89.82-4.37,1.51-8,2.2-11.69l-.79-.3c-.7,1.22-1.41,2.43-2.11,3.66-1.88,3.33-3.6,6.75-5.66,10-1.76,2.72-2.47,2.77-6.25,2q2.55-7.68,5.11-15.36l-.94-.47a22.85,22.85,0,0,0-1.81,2.4c-2.38,4.19-4.58,8.49-7.11,12.58a8.63,8.63,0,0,1-3.94,3.52c-1.31.47-3.1-.37-4.68-.63A17.81,17.81,0,0,1,351,527c2.31-5.5,4.56-11,4.73-17.3-1.06,1.92-2.06,3.86-3.17,5.74-2.53,4.29-4.95,8.66-7.72,12.8-1.83,2.73-4.68,3.12-7.42,1.61-2.48-1.37-3.27-3.06-2.16-5.75,1.72-4.14,3.59-8.23,5.62-12.22,1.49-2.94,2.31-6,1.64-9.15-1.2-5.67-2.71-11.27-4.15-16.88C338.25,485.32,337.71,484.88,336.81,483.65Z"/><path class="cls-18" d="M208.64,152.46a3.2,3.2,0,0,0-.13.92c-1.74,1.81-3.53,3.57-5.22,5.42q-7.71,8.41-15.35,16.88a7.46,7.46,0,0,1-6.56,2.72,54.48,54.48,0,0,0-7.45,0c-7.53.31-15.06.7-23.16,1.08l2.79,1.9c-3.28-.32-6.55-.78-9.83-.93-8.78-.4-17.57-1-26.33-.81-2.88.06-3.94-.44-4.3-3l-.48-3.39c.3-1.15.66-2.28.91-3.43.33-1.5.58-3,.87-4.51.1,1.48.2,3,.34,5.11,6.1-5.11,13.11-6.94,20.26-8.19a109,109,0,0,1,14.72-1.7c8-.28,16-.06,24-.09,10.19,0,20.09-1.4,29.32-6.15A35.14,35.14,0,0,1,208.64,152.46Z"/><path class="cls-19" d="M363.49,154.67c.08-2.54,1.33-1.92,3-1.29a128.17,128.17,0,0,0,14.45,5.16,64.79,64.79,0,0,0,13.68,1.82c8.32.28,16.66.18,25,0a92.38,92.38,0,0,1,25,3.22c5,1.31,9.61,3.55,12.92,7.79.6.64-1,3.5,1.88,1.84a3.66,3.66,0,0,1,0,1c-1.38,5.2-1.38,5.2-6.78,5.2-4,0-8-.23-11.94.05-5.73.4-11.42,1.19-17.14,1.78-1.31.13-2.64.13-4,.19l-2.24-.12,4.16-1.82c-9-.43-17.2-.79-25.4-1.23a65.18,65.18,0,0,1-8.84-.87,7.65,7.65,0,0,1-3.64-2.3c-4-4.16-7.83-8.52-11.86-12.67C369.11,159.75,366.25,157.26,363.49,154.67Z"/><path class="cls-20" d="M355.59,225.46l-1.19-.16c10.57-5.69,17.64-14.9,24.39-24.39,3.27-4.58,6.28-9.35,9.73-14.51.64,1.31,1.21,2.36,1.68,3.45,2.95,6.84,5.7,13.78,8.91,20.5a9.75,9.75,0,0,1,.35,8.51c-4.25,10.95-11.16,19.87-20,27.4-.06-1.91-1.45-1.71-2.75-1.84-2.37-.24-4.72-.62-7.08-.94v-4.77l-2.07,1.75-6.74-2.93c0-1.37,1.67-2.87-.29-4.11l-1-1c2.37-1,4.84-1.9,7.08-3.16a9.91,9.91,0,0,0,5-11.42c-.77,1.3-1.38,2.44-2.07,3.51a18.09,18.09,0,0,1-8.91,7.53c-3,1.11-3.35.88-4.27-2.26A4.65,4.65,0,0,0,355.59,225.46Z"/><path class="cls-21" d="M217.52,225.42c-.39.41-.79.82-1.18,1.24-1.59,4.39-2,4.6-6.13,2.67a16,16,0,0,1-8.66-9.1,17.2,17.2,0,0,0-1.31-2.32l-1,.31c.43,2.18.76,4.39,1.32,6.54.94,3.59,4.42,4.66,6.93,6.68l-5.24,6.12c0,2.31,0,4.63,0,6.95-3.36.21-6.08,1.29-6.84,5-10.29-8.88-19.32-18.7-23.94-31.86-.63-1.8-1.07-3.24-.13-5.15,4.11-8.42,8-16.93,12.1-25.59C193.29,201,201.26,216.93,217.52,225.42Z"/><path class="cls-22" d="M369.6,243.48c2.36.32,4.71.7,7.08.94,1.3.13,2.69-.07,2.75,1.84-3.9,3.8-7.79,7.62-11.72,11.4a36.16,36.16,0,0,0-10.39,18.75c-10.9,6.77-19,16.17-25.35,27.17-2.46,4.28-4.39,8.87-6.5,13.35-.82,1.74-1,4.16-3.4,4.39-2.75.26-4.56-1.32-5.54-3.85l.6-2.4c1.45-5.77,3.4-11.48,4.18-17.34.53-4,2-6.36,5.33-8.26,4.6-2.66,9.05-5.57,13.5-8.48,1.63-1.07,3.19-2.34,3.71-4.39L326.7,287.35c-.21-4.49-.44-8.59-.56-12.7a5.52,5.52,0,0,1,.53-2.7c1.17-2.18,2.69-4.2,3.77-6.43.91-1.9,1.91-2.16,3.93-1.66,4.29,1.05,8.69,2.09,13-.24a4.68,4.68,0,0,0,4.8-3.34c1-2.67,2.16-5.31,3.24-8l.4.39c-.14,1.51.66,1.44,1.8,1.21C363.57,252.7,367.1,248.69,369.6,243.48Z"/><path class="cls-23" d="M417.52,217.41c4.71,3.91,9.17,8.17,14.18,11.64a52.46,52.46,0,0,0,33.85,9.34c2.28-.14,4.51-.95,6.78-1.35a5.29,5.29,0,0,0,4.2-3.73c.76-1.93,1.62-3.82,2.43-5.73l1,.28c-.42,2.12-.75,4.27-1.28,6.37-.91,3.59-1,3.58,2.86,5.26a34.8,34.8,0,0,0-4,19.11c.18,2.61.64,5.21,1,7.82-4.9,2.7-5.77,7.54-5.94,12.36-.13,3.92.63,7.88,1.06,11.82.21,2,.55,3.9.83,5.85-6.64-7.51-12.62-15.52-15.05-25.41a41.28,41.28,0,0,1-.59-12.81c.28-3.83,1.3-4.23,5.36-3.75,1.47.17,2.9.65,4.37.91s2.86.42,5.26.76c-1.27-1.21-1.78-2.07-2.51-2.34-5.73-2.15-11.46-4.33-17.28-6.21-4.4-1.43-9-2.12-13.39-3.65a50,50,0,0,1-26.17-20.5Q416,220.44,417.52,217.41Z"/><path class="cls-24" d="M195.44,249.55c.76-3.75,3.48-4.83,6.84-5,2.63,6.15,7.36,9.26,13.95,9.7a40.47,40.47,0,0,0,1.67,5.69c1,2.35,2.64,4.29,5.73,3.65,2.88.34,5.76.89,8.64.95,2.56.06,5.75-1.47,7.53-.41,2.12,1.26,3.08,4.51,4.45,7a5.72,5.72,0,0,1,.91,2.72c-.15,4.32-.46,8.63-.75,13.46L224,274.33a7.57,7.57,0,0,0,2.54,3.08c6.45,4.34,12.9,8.7,19.47,12.85a7.22,7.22,0,0,1,3.59,4.92c2.1,8.82,4.55,17.55,6.87,26.31-.12,1.89-1.24,2.34-2.7,1.52-3.31-1.87-6.48-3.37-8.41-7.47-6-12.75-13.22-24.84-24.33-34a55,55,0,0,0-6.59-4.08c-2.23-11.28-8.82-19.63-17.71-26.45A10.75,10.75,0,0,1,195.44,249.55Z"/><path class="cls-25" d="M289.57,186.64l-1.9.86-1.2-12.2c-2.65,3.91-1.81,8.08-2.13,12.11-.25,3.07-.46,6.14-.69,9.21a55.72,55.72,0,0,1-.18-5.91,4.33,4.33,0,0,0-2-4.13c.47-.43,2.77-.05,1.05-1.45-3.6-2.92-7.73-2.09-11.77-.83l-3.55-.24c2.54-2.59,5.2-1,7.7-1.9-15.78-8.49-26.09-22.66-38.38-34.67,6.46,2.53,13.07,4.73,19.31,7.72a25.17,25.17,0,0,1,8.43,6.82,18.5,18.5,0,0,0,15.12,7.17c5.95,0,11.9-.42,17.85-.68a10.89,10.89,0,0,0,8.14-4.23c7.33-8.87,17.51-12.76,28-16.11-2.22,2.83-4.18,5.91-6.71,8.43-7.15,7.11-14.42,14.1-21.89,20.87-2.11,1.92-5.06,2.9-8.3,4.69l6.67.66,0,1-2.92.42a13.8,13.8,0,0,0-10.45,0C288.48,184.83,287.82,185.69,289.57,186.64Z"/><path class="cls-19" d="M96.55,236.42c1.94.34,3.91.56,5.81,1.05a36.36,36.36,0,0,0,21-.95c5.16-1.73,10.12-4,15.17-6.09,3.08.93,4.48,3.54,6,6-6.63,5.62-14.73,7.87-22.89,10q-8.59,2.28-17.06,5A36,36,0,0,0,99,254.35l.39,1.21c2.74-.53,5.5-1,8.23-1.59,4.26-.94,4.36-1,5.29,3.15,1,4.73,1.35,9.56-.3,14.19a67.62,67.62,0,0,1-14.91,24.35c.28-6.53.93-13.07.69-19.58-.14-4-1.64-7.92-2.54-11.88-.31-1.35-1.08-1.44-2.11-.7.18-3.76.94-7.6.39-11.25-.65-4.33-2.43-8.5-3.72-12.73,1.94-.12,3.07-1.05,3.11-3.07,2.45,3.3,2.76,8,7,11.08C99,243.34,97.78,239.88,96.55,236.42Z"/><path class="cls-26" d="M340.59,464.46c13.3-3.4,33.08,1,41.3,14.75a22.77,22.77,0,0,1,1.56,4.5l-2.51-1.41c-.62,2.69-1.19,5.14-1.84,7.92l-4-3.53c-.63.73-1.16,1.3-1.65,1.91-2.11,2.59-2.35,2.7-4.32.24-1.63-2.06-3-3.6-5.51-1.08-1.13,1.15-2,.28-2.86-.68-1.33-1.55-2.81-4.26-4.12-4.21-1.69.07-3.28,2.42-4.93,3.74a11.52,11.52,0,0,1-1.71.87c-.53-4.36-1-8.48-1.6-13.26l-7.34,6.21C340.23,474.89,338.37,469.8,340.59,464.46Z"/><path class="cls-27" d="M187.47,479.43c1.11-.62,2.58-1,3.28-1.9,6-8.06,14.31-11.66,24-13.22a27.51,27.51,0,0,1,16.69,2.13c.15,4.47.6,9-1.27,13.6l-7.4-6.46c-.28,4.88-.52,9.12-.8,14.24-2.18-1.62-3.64-2.56-4.92-3.69-1.83-1.62-3.31-2.22-4.58.58a10.7,10.7,0,0,1-1.86,2.33c-.87,1-1.78,1.4-2.94.32-2.08-1.93-3.7-1-4.81,1.08-1.46,2.68-3.24,2.71-5.44,1.05l0,.07c-.21-.87-.42-1.75-.78-3.28l-4.09,3.77c-.51-2.85-1-5.48-1.5-8.37l-4.2,2.54C187.1,482.46,187.29,480.94,187.47,479.43Z"/><path class="cls-28" d="M553.6,260.33,551.35,276c-6.22-7.11-9.72-15.43-12.82-24-3.16-8.7-3.33-17.8-3.18-26.84-14.77,1-26-4.9-34.88-15.78-6.36-7.78-10.55-16.85-14.89-25.8-3.67-7.55-8.05-14.52-14.46-20a37.11,37.11,0,0,0-5.45-4.29c-2.82-1.64-4.8-3.5-4.29-7.08.07-.54-.48-1.16-.74-1.75,1.17-2.25,2.24-.28,3,.26a63,63,0,0,1,18.23,19.6c3.14,5.47,5.93,11.15,8.81,16.77,4.19,8.16,8.65,16.13,15.22,22.7,7.64,7.64,16.59,12.2,27.64,11.53,2.72-.16,3.71.63,4.18,3.38a141,141,0,0,0,11.6,37.7c.9-2.45,1.64-4.5,2.81-7.69Z"/><path class="cls-29" d="M110.49,149.24a5.57,5.57,0,0,0,0,1c.78,4.17-1.19,6.51-4.68,8.68-7.47,4.65-12.9,11.35-17.09,19-4.37,8-8.64,16-13,24a52.09,52.09,0,0,1-13.82,16.14c-6.37,5-14,6.59-21.81,7.17-2.41.18-3.72.58-3.54,3.34.95,14.24-3.78,27-10.26,39.34-1.59,3-3.11,6.08-5.2,10.21-1.43-5.78-2.55-10.34-3.67-14.9.47-2.58.94-5.17,1.52-8.33,2.59,2,1.7,5,3.63,7.35A145.39,145.39,0,0,0,34.67,221c2.88,0,5.65.22,8.37,0,10.57-1,18.59-6.6,25.35-14.33,5.4-6.18,9.3-13.31,13-20.56,3.26-6.34,6.43-12.76,10.2-18.79A51.76,51.76,0,0,1,110.49,149.24Z"/><path class="cls-23" d="M144.51,236.45c-1.53-2.48-2.93-5.09-6-6a58.63,58.63,0,0,0,18.93-18.32c3.9-6,4.71-12.55,3.95-19.4-.35-3.22-2.39-5.66-4.82-7.78a29.56,29.56,0,0,1-3-3.56c7.29.4,14.58.82,21.87,1.18,2.26.11,3,1.07,2.1,3.19C175.05,191.52,173,197.53,170,203a170.08,170.08,0,0,1-12.8,20.14C153.52,228,148.77,232.05,144.51,236.45Z"/><path class="cls-30" d="M33.85,410.06c.67,0,1.47,0,2.27,0l7.81.33c.07,3.79.53,7.63,0,11.33-.19,1.3-2.8,2.25-4.38,3.42,3.23.36,4.54,2.51,4.35,5.94a22,22,0,0,0,.6,4.94c.53,3.09.72,6-4.24,6.56,5.43,1.59,5.79,2,6.26,6.89.29,3,.8,6-1.29,8.64-1.87,2.34-4.54,2.21-5.37-.58-4.5-15.12-9.76-30.17-6.63-46.39A5.18,5.18,0,0,1,33.85,410.06Z"/><path class="cls-31" d="M531.29,442.82c-4.09-2-4.1-2-3.73-6.29.13-1.49.36-3,.55-4.46.69-5.5.69-5.5,5.21-7.06-5.45-1.42-5.51-1.42-5.47-6.89,0-2.61-.59-5.91.73-7.61,1-1.26,4.63-.42,7.09-.52l2.59-.16a63.16,63.16,0,0,1-.77,28.38c-1.56,5.94-3.23,11.86-4.84,17.79-.44,1.64-.82,3.38-2.93,3.51-2.29.15-3.29-1.6-3.84-3.33a16.63,16.63,0,0,1,.9-11.7C527.2,443.52,529.57,443.41,531.29,442.82Z"/><path class="cls-32" d="M455.67,151.27c-.17.79-.33,1.58-.43,2.07-2.82-8.48-5.61-17.18-8.61-25.81-3.41-9.79-10.24-17.07-18.33-23-4.74-3.5-10.26-6-15.42-8.91-.68-.38-1.32-.82-2.39-1.48l3.67-1.42-.05-1c-6.92-1.11-13.86-2.13-20.77-3.36a42,42,0,0,1-5.92-2c13.09-1.72,25.73.48,39,4.41l-6.23,2.53c3.14,1.9,5.78,3.48,8.41,5.09,10.37,6.35,18.29,14.67,22,26.6A114.42,114.42,0,0,1,455.67,151.27Z"/><path class="cls-33" d="M168.33,86.27H182.7l0,.68-24.91,4.89,3.66,2.37a37,37,0,0,1-3.81,2.06,60.73,60.73,0,0,0-21.09,13.64,57.91,57.91,0,0,0-14,23.1c-2,5.84-3.73,11.77-5.71,18.06-.16-1.49-.28-2.62-.39-3.74,1.73-7.94,3-16,5.33-23.79,3-9.86,9.29-17.59,18-23.2,3.48-2.23,7-4.35,11-6.82L144.73,91A78.06,78.06,0,0,1,168.33,86.27Z"/><path class="cls-19" d="M417.52,217.41q-1.5,3-3,6a127.09,127.09,0,0,1-21-39.86,187.36,187.36,0,0,1,23.8-2.24l2.24.12a26.64,26.64,0,0,1-3,2.46c-7.94,4.73-8.11,10.86-6.45,17.44,1.11,4.38,3.54,8.43,5.44,12.6C416.12,215.17,416.87,216.27,417.52,217.41Z"/><path class="cls-34" d="M324.69,41.28c-1.66,1.28-1.48-.71-1.75-1.18C316.41,28.74,307.56,19.86,295.73,14c-7.81-3.83-15.17-3.35-22.62,1.22a70.67,70.67,0,0,0-24.55,24.86c-.11.19-.58.17-.89.25-.07-.33-.13-.66-.2-1,1.88-6.2,5.69-11.29,9.9-16,3.86-4.31,7.76-8.87,12.48-12.08,12.21-8.27,22.48-7.66,34,1.38C313.24,20.1,320.83,29.5,324.69,41.28Z"/><path class="cls-35" d="M339.64,88.41c4.78,4.34,9.74,8.5,14.29,13.06,4,4,8.08,7.11,14.4,6.93l-6.23,6a26.79,26.79,0,0,0-3.86,1.83c-5,3.39-9.9,6.89-15,10.44-.33-.93-.61-1.33-.51-1.47,4.28-6.28,2.9-13,1.32-19.6C342.7,99.86,341.13,94.15,339.64,88.41Z"/><path class="cls-36" d="M208.33,112.16l-4.88-4.23c6.14.12,10.32-3,14.28-6.27,3.79-3.18,7.34-6.66,11.06-9.93a12,12,0,0,1,2.56-1.35c-1,4.48-1.9,9-3.14,13.43-2.09,7.47-3.44,14.84,1.49,21.93l-.68.75a25,25,0,0,1-4-1.94c-5.06-3.69-10-7.51-15-11.27C209.43,112.89,208.87,112.53,208.33,112.16Z"/><path class="cls-37" d="M20.64,406.61c2.56,1.8,7,.21,7.92,4.41.53,2.32-.43,5-.38,7.43.07,3.27-3,2.92-5.18,4.54,3.7.78,4.81,2.91,4.53,6a13.67,13.67,0,0,0,.49,3.44c.66,3.71.67,3.7-3.59,5.32,2.51,1,5.16,1.44,5.21,4.51,0,2.31.7,4.68.32,6.9a5.13,5.13,0,0,1-3,3.27c-.78.25-2.27-1.34-3.3-2.26a3.83,3.83,0,0,1-.81-1.8C19.19,435.23,16.3,422,19.7,408.25A8.94,8.94,0,0,1,20.64,406.61Z"/><path class="cls-38" d="M547.32,437.83c-4.1-1.38-4.1-1.38-3.39-5.75a13,13,0,0,0,.41-2.94c-.24-3.37.58-5.85,4.93-6.13-4.83-.35-5.66-3.14-5.81-7-.27-6.71-.48-6.7,6.12-8.76.47-.15.93-.32,1.69-.58,1.9,5.2,3.13,10.7,2.62,16-.75,7.7-2.69,15.29-4.27,22.89a16.29,16.29,0,0,1-2.15,5c-.51.84-1.94,2-2.54,1.75-1.24-.44-3.15-1.69-3.13-2.57a35.07,35.07,0,0,1,1.47-9.67C543.61,439,545.91,438.57,547.32,437.83Z"/><path class="cls-39" d="M381.67,95.26l-1.21,1.56c-1.91-1.58-3.95-3-5.7-4.74a83.31,83.31,0,0,0-29.2-19,22.47,22.47,0,0,0-2.86-.68c-1.23-3.8-2.5-7.58-5.93-10.25C348.42,64.09,372.55,77.88,381.67,95.26Z"/><path class="cls-40" d="M228.52,72.44c-7.26,2.35-14.44,5-20.45,9.79-5,4-9.76,8.43-14.6,12.7-1.3,1.15-2.52,2.4-4.42,4.22.19-1.7.26-2.3.32-2.9,9.78-17.48,25.19-27.6,43.85-34.16Z"/><path class="cls-41" d="M231.49,319.47c0,2.24-1.36,1.21-2.33,1-4.64-1.07-9.23-2.43-13.92-3.19-11.93-1.94-23.68-1.3-35,3.29-4,1.6-8.22,2.74-10.76,6.65l-3.61.36c1.68-2,2.63-3.37,3.83-4.5a43.53,43.53,0,0,1,26.91-11.68A58.33,58.33,0,0,1,231.49,319.47Z"/><path class="cls-42" d="M403.53,327.37c-3.18-4-7.91-5.26-12.37-6.83a75.39,75.39,0,0,0-48.09-.88c-1.05.32-2.31-.06-3.47-.11,14.2-8.1,29.18-10.58,45.09-6.19a41.13,41.13,0,0,1,20,12.51C406.39,327.8,404.74,327.49,403.53,327.37Z"/><path class="cls-43" d="M414.46,340.51a11.89,11.89,0,0,1-3.2-1.23,39.19,39.19,0,0,0-14.5-6.88,8.62,8.62,0,0,1-2.17-1.44c.87-.51,1.72-1.07,2.63-1.5a4.85,4.85,0,0,1,1.45-.17A25.15,25.15,0,0,1,414.46,340.51Z"/><path class="cls-44" d="M336.54,80.07c-.79-3.31-3.38-6.46-.88-10.44C339.35,73,338.75,76.47,336.54,80.07Z"/><path class="cls-45" d="M235.09,79.84c-2-3.08-2.39-6.12-.17-9.4C239.23,73.7,235.24,76.81,235.09,79.84Z"/><path class="cls-46" d="M478.55,266.42c-.33-2.61-.79-5.21-1-7.82a34.8,34.8,0,0,1,4-19.11c.27,1.86,1,3.8.73,5.57a81.47,81.47,0,0,0,1,28.75,2.44,2.44,0,0,1-.62,2.07Z"/><path class="cls-47" d="M90.39,239.52c1.29,4.23,3.07,8.4,3.72,12.73.55,3.65-.21,7.49-.39,11.25-1.47,3.86-1.77,8.22-4.74,12,.53-7.09,1.34-13.63,1.38-20.17,0-4.7-.91-9.43-1.55-14.12C88.6,239.69,89.25,239.48,90.39,239.52Z"/><path class="cls-48" d="M96.55,236.42c1.23,3.46,2.47,6.92,4,11.11-4.26-3.13-4.57-7.78-7-11.08-.4-2.69-.8-5.39-1.21-8.08l.71-.18Z"/><path class="cls-49" d="M256.48,321.49c-2.32-8.76-4.77-17.49-6.87-26.31a7.22,7.22,0,0,0-3.59-4.92c-6.57-4.15-13-8.51-19.47-12.85a7.57,7.57,0,0,1-2.54-3.08l20.4,12.9c.29-4.83.6-9.14.75-13.46a5.72,5.72,0,0,0-.91-2.72c-1.37-2.45-2.33-5.7-4.45-7-1.78-1.06-5,.47-7.53.41-2.88-.06-5.76-.61-8.64-.95,8-.75,15.32-3,20.59-9.67a28.26,28.26,0,0,1,2.11-2.13c9.27-9.42,21.33-11,34.16-12.48-.78.81-1,1.14-1.23,1.24a17.64,17.64,0,0,1-2.83.92c-11.78,2.55-22.57,6.87-30.33,16.72a4.92,4.92,0,0,1-1.51,1.29c-1.69.94-1.64,2.18-1,3.77,3.1,7.52,4.85,8.51,12.88,7.09.82-.15,1.61-.42,2.43-.57,6.83-1.27,13.65-2.67,20.7-1.78-10.56,2.39-20.75,6.61-32.16,6.09-.08,1-.24,1.94-.23,2.91a18.18,18.18,0,0,0,.29,4c2.1,8.74,6.74,12.77,14.22,12.8,4.14,0,8.29-.5,12.43-.82,2.28-.17,4.56-.42,6.84-.63,0,.33.07.66.1,1-9.2,2.54-18.3,6-29.11,1.38,1.07,4.12,1.8,7,2.54,9.78a4.93,4.93,0,0,0,.14,1.45c3.66,8.92,12.47,12.24,23,8.69l5.8-1.08c-3.19,3.69-7.72,4.52-12.07,4.66s-8.95-.91-13.43-1.45c.25,2.78,1.88,5.15,4.14,7.2,5.24,4.75,11.29,6.74,18.33,5.42-1.64,1.74-2.22,2.13-4.76,2.12a23.09,23.09,0,0,1-18-8.47C257.28,322.49,256.88,322,256.48,321.49Z"/><path class="cls-50" d="M347.34,263.62c-4.28,2.33-8.68,1.29-13,.24-2-.5-3-.24-3.93,1.66-1.08,2.23-2.6,4.25-3.77,6.43a5.52,5.52,0,0,0-.53,2.7c.12,4.11.35,8.21.56,12.7l17.15-10.75c-.52,2-2.08,3.32-3.71,4.39-4.45,2.91-8.9,5.82-13.5,8.48-3.3,1.9-4.8,4.31-5.33,8.26-.78,5.86-2.73,11.57-4.18,17.34l-.6,2.4c-2.63,5.21-5.73,10-11.59,12.07-4.77,1.66-9.66,3.73-14.43-.12a22.32,22.32,0,0,0,17.4-4.14,11.69,11.69,0,0,0,5.29-9.44c-9.26,3.88-17.73,3.79-25.65-2.25,4.73.59,9.46,1.63,14.2,1.68,11,.12,17.74-8.3,16.15-19.58-11.51,2-21.07.95-27.74-3.42,2.5.3,4.46.66,6.43.76,5,.27,10,1.07,14.86.49,9.15-1.08,14.44-10.08,11.9-19.16-7.37-.13-22.26-3.3-30.92-6.78a69.26,69.26,0,0,1,9.78.39c4.94.69,9.81,1.86,14.75,2.57,6.2.89,6.64.58,9.37-4.8.74-1.46,1.37-3,2-4.44-5.5-5.09-9.67-11.5-16.8-14.22-6.7-2.55-13.56-4.69-20.35-7,13.53.35,26.33,2.71,35.66,13.66A27.2,27.2,0,0,0,347.34,263.62Z"/><path class="cls-51" d="M287.55,313.59c7.92,6,16.39,6.13,25.65,2.25a11.69,11.69,0,0,1-5.29,9.44,22.32,22.32,0,0,1-17.4,4.14c-3.33-1.75-6.68-2.39-10.05-.1-7,1.32-13.09-.67-18.33-5.42-2.26-2-3.89-4.42-4.14-7.2,4.48.54,9,1.6,13.43,1.45s8.88-1,12.07-4.66l1.17-5.23,1.71,1C286.76,310.69,287.16,312.14,287.55,313.59Z"/><path class="cls-52" d="M311.67,345.71c-1.62,7.47-5.75,13.19-9.44,19.8C302.05,359.26,307,349,311.67,345.71Z"/><path class="cls-53" d="M269.46,366c-3.37-6.57-6.75-13.14-10.4-20.24C263.94,347.33,267.52,354.29,269.46,366Z"/><path class="cls-54" d="M311.38,145.37c-6.42,9.11-15.38,13.39-26.33,13-9.47-.37-17.71-3.78-23.29-12a5.68,5.68,0,0,0-1.11-.95c-1.54-3.28-3.79-6.41-3.12-10.29,1.11-6.38,4-12,6.9-18.1,1.48,1.4,2.38,2.39,3.43,3.19s2.25,1.47,3.39,2.19a19.46,19.46,0,0,0-3.45-5.59c-3.39-4.43-3.33-6.4.38-10.4,1.35-1.46,2.78-2.86,4.22-4.23,2.1-2,4.3-2.21,6.72-.45,1.9,1.38,3.92,2.61,5.89,3.9-2.77-4.23-6.26-7.24-12.51-6.94l5-4.19c4.35,4.57,8.84,5.35,14,2.54a29.85,29.85,0,0,1,4-1.52l2.31,2.58c-7.21,2-7.53,2.19-9.84,6.44a10.72,10.72,0,0,0,1.38-.65c7-4.6,8.21-4.47,13.9,1.5.46.47.88,1,1.32,1.48,2.27,2.56,2.64,5.31.63,8.15-1.68,2.38-3.49,4.66-5.25,7l.5.67,7.18-5.21c1.35,3.06,2.63,6.06,4,9C314.5,132.79,315.33,139.1,311.38,145.37Zm-50.16-10.08c16.6-5.86,33-5.34,49.55,0C300.56,126.08,271.42,126.17,261.22,135.29Zm21.6-18.35,1.17-.3c-.23-1.42,0-3.29-.78-4.15a36.19,36.19,0,0,0-6.87-5.57c-1.81-1.16-5.45,1-5.83,3.07-.33,1.83,2.81,4.75,3.17,3.92,1.33-3.09,2.76-.45,3.63-.14A33.1,33.1,0,0,1,282.82,116.94Zm18.51-6.6c.06-2.14-4-4.43-6-3.21a67.19,67.19,0,0,0-5.59,4.09c-1.48,1.13-3.11,2.39-1.53,4.45s2.79-.38,4.13-.77c1.65-.48,3.21-1.74,4.81-1.75C299.24,113.14,301.27,112.22,301.33,110.34Zm-6.55,27,.07-.76H277.11v.76Z"/><path class="cls-55" d="M262.44,109.39l-1.69-.07c-2.81-2.79-5.44-5.8-8.47-8.32s-4.64-5.38-3.61-9.53a9,9,0,0,0-.29-5.24c-2.35-5.59,1.21-9.18,4.08-13,2.75-3.59,6.51-3.43,10.43-2.31,4.62,1.32,9.28,2.52,13.9,3.84a30.11,30.11,0,0,0,18.61-.12c3.91-1.35,8-2.29,11.93-3.5C314.58,69,318,70,322.74,78.07a8.33,8.33,0,0,1,.7,8c-.68,1.57-1.16,3.72-.63,5.23,1.64,4.76-.53,7.57-4.07,10.11-3,2.13-6,4.28-7.31,7.94h-1.86l-8.63-10.61,6.92,1.61c.05-.22.1-.43.14-.65l-5.27-2.53a40.12,40.12,0,0,0,4.8-.63c1.94-.49,3.81-1.27,5.59-1.88l-1.58-3.23c.69-1.28,1.87-2.53,1.94-3.84.14-2.49,1.33-3.12,3.48-3.06a16.24,16.24,0,0,0,2.43-.36c-2.28-3.14-5-3.18-7.79-2.14-5.11,1.91-10.11,4.14-15.23,6-5.75,2.11-6.21,1.69-6.45-4.76,0-.15-.45-.28-.93-.56-.79,2.28-1.58,4.51-2.77,7.92l-3.05-7.85a3.8,3.8,0,0,0-.73,2.12c-.51,4.59-1.27,5.13-5.69,3.77-2.05-.64-4.07-1.4-6.05-2.24-3.36-1.41-6.64-3-10-4.37-2.37-1-4.82-1.29-7.11.35-2.34,1.17-2.76,2.63-.77,4.56a6.73,6.73,0,0,1,1.73,2.21c1.92,5.2,5.88,7.15,11.11,7.33a13,13,0,0,1,2.73.68l-5.49,2.14.44,1.2,7.87-1.92Z"/><path class="cls-56" d="M262.44,109.39l8.75-10.72-7.87,1.92-.44-1.2,5.49-2.14,3.72-2a19.28,19.28,0,0,0-5.35-1.11c-3.21-.54-6-1.92-7.64-4.91a12,12,0,0,0-5.27-5.39c-.25-.12-.18-.92-.26-1.4,2.29-1.64,4.74-1.31,7.11-.35,3.38,1.37,6.66,3,10,4.37,2,.84,4,1.6,6.05,2.24,4.42,1.36,5.18.82,5.69-3.77a3.8,3.8,0,0,1,.73-2.12l3.05,7.85c1.19-3.41,2-5.64,2.77-7.92.48.28.92.41.93.56.24,6.45.7,6.87,6.45,4.76,5.12-1.88,10.12-4.11,15.23-6,2.78-1,5.51-1,7.79,2.14a16.24,16.24,0,0,1-2.43.36c-2.15-.06-3.34.57-3.48,3.06-.07,1.31-1.25,2.56-1.94,3.84-3.41,2.59-7.46,3.22-12.6,3.47l3.79,2.27L308,99.74c0,.22-.09.43-.14.65l-6.92-1.61,8.63,10.61c-.29,6.55,3.11,12,5.37,17.77,2.33,6,2.41,11.66-1.1,17.14-.45.7-.89,2.47-2.46,1.07,3.95-6.27,3.12-12.58.2-18.93-1.36-3-2.64-6-4-9l-7.18,5.21-.5-.67c1.76-2.33,3.57-4.61,5.25-7,2-2.84,1.64-5.59-.63-8.15-.44-.49-.86-1-1.32-1.48-5.69-6-6.89-6.1-13.9-1.5a10.72,10.72,0,0,1-1.38.65c2.31-4.25,2.63-4.46,9.84-6.44l-2.31-2.58c-3.26-3.71-7.58-4.19-12-3.36-2,.38-4.84-.57-6,2.34l-5,4.19c6.25-.3,9.74,2.71,12.51,6.94-2-1.29-4-2.52-5.89-3.9-2.42-1.76-4.62-1.53-6.72.45-1.44,1.37-2.87,2.77-4.22,4.23-3.71,4-3.77,6-.38,10.4a19.46,19.46,0,0,1,3.45,5.59c-1.14-.72-2.33-1.37-3.39-2.19s-1.95-1.79-3.43-3.19c-2.86,6.06-5.79,11.72-6.9,18.1-.67,3.88,1.58,7,3.12,10.29-.73-.15-1.77,0-2.14-.48-3.86-4.64-3.61-10-2.39-15.44a15.16,15.16,0,0,1,1.23-3.22A50.27,50.27,0,0,0,262.44,109.39ZM270.1,91c.09-.37.18-.75.28-1.12-1.78-.7-3.53-1.48-5.35-2.06a1.65,1.65,0,0,0-1.52.56,2,2,0,0,0,.35,1.75C265.72,92,267.9,91.76,270.1,91Zm38.74-2.91c-3.42-.58-5.49.56-8.24,2.86C304.32,91.76,306.76,91.85,308.84,88.09Z"/><path class="cls-57" d="M277.39,70.54c0-.35.18-.94,0-1-4.75-2.62-8.95-6.33-14.49-7.45-.36-.07-.61-.69-1.13-1.31,3.41-.7,6,.92,8.62,2.06,3,1.3,3,1.34,5-2.63l-8.75-5.49c4.88-3.51,9.68-6.92,14.43-10.4,3.21-2.36,6.39-2.73,9.44.12,3.32,3.1,8.17,4.45,10.24,9.09.29.63,2.55.38,4.78.64-2.47,1.55-4.53,2.88-6.62,4.14-3.6,2.18-3.61,2.16-1.85,6.51q7.84-4.53,13.74-3.75l-14.91,6.89c.06.38.13.76.2,1.14l3.46.44c-3.3.69-6.67,1.17-9.9,2.11C285.39,72.88,281.42,71.74,277.39,70.54Z"/><path class="cls-58" d="M277.39,70.54c4,1.2,8,2.34,12.31,1.09,3.23-.94,6.6-1.42,9.9-2.11,3.94-.4,7.88-1,11.83-1.13a16.13,16.13,0,0,1,15.4,11.75c.4,1.62-.28,3.49-.4,5.25-.15,2.4-.71,4.91-.24,7.18a9.38,9.38,0,0,1-2.42,9.12c-1.94,2-4,4-5.85,6.09s-3.09,4.24-5.35,7.39c-.51-2.6-.82-4.19-1.14-5.78,1.34-3.66,4.35-5.81,7.31-7.94,3.54-2.54,5.71-5.35,4.07-10.11-.53-1.51-.05-3.66.63-5.23a8.33,8.33,0,0,0-.7-8C318,70,314.58,69,307.33,71.19c-4,1.21-8,2.15-11.93,3.5a30.11,30.11,0,0,1-18.61.12c-4.62-1.32-9.28-2.52-13.9-3.84-3.92-1.12-7.68-1.28-10.43,2.31-2.87,3.77-6.43,7.36-4.08,13a9,9,0,0,1,.29,5.24c-1,4.15.48,6.93,3.61,9.53s5.66,5.53,8.47,8.32c-.34,1.65-.67,3.3-1.1,5.42-4.29-4.82-8-9-11.76-13.2a9.14,9.14,0,0,1-2.1-9.27c.78-2.57,1-4.85-.43-7.15-1.62-2.64-.79-5.13.47-7.55C249.76,70,256.89,67,266.11,68.82,269.84,69.55,273.63,70,277.39,70.54Z"/><path class="cls-59" d="M188.45,371.42l5.54-11c1.46,4.1-1.25,6.88-1.49,10l-6.87,13.51-.84-.32Z"/><path class="cls-60" d="M379.63,371.43q-1.58-5.6-3.16-11.19l1-.4,6.09,11.58q1.51,5.59,3,11.19l-1,.45Z"/><path class="cls-61" d="M234.79,322.61c6,9.94,1.64,24.16-8.83,30.93C234.59,340.07,235.09,339.14,234.79,322.61Z"/><path class="cls-62" d="M187.09,330.93c8.15,7.44,10.56,13.48,9.13,22.75C193.2,346.16,190.18,338.64,187.09,330.93Z"/><path class="cls-63" d="M337.37,322.47c-1.75,10.87.93,19.84,6.44,28.45C335.28,347.19,331.29,330.27,337.37,322.47Z"/><path class="cls-59" d="M375.67,353.44c-2.69-6.31,1.27-16.08,8.9-22C381.67,338.59,378.64,346.1,375.67,353.44Z"/><path class="cls-64" d="M283.65,196.62c.23-3.07.44-6.14.69-9.21.32-4-.52-8.2,2.13-12.11l1.2,12.2c-.73,9.76-.73,9.75,8.3,12.74a15.6,15.6,0,0,1,4.56,2.17l-13-2.44v9.45q-.65,3.84-1.28,7.7l-.92.08a7.75,7.75,0,0,1-.89-2.34c-.11-4.32-.06-8.65-.11-13,0-1.34.07-3-2.1-1.67l-11.58,2.21-.09-.42Z"/><path class="cls-65" d="M228.27,213.11c-4.17-.66-8.47-1.16-8.94-6.73.93-2.59,2.9-3.34,5.43-3.08a8.09,8.09,0,0,1,6.45,3.9C232.58,209.52,231.66,211.19,228.27,213.11Zm.82-4c-.3-2.15-3.05-4.07-5-3.59a2.51,2.51,0,0,0-1.5,1.9c.13,1.75,3.11,3.41,5,2.89C228.25,210.17,228.72,209.45,229.09,209.14Z"/><path class="cls-66" d="M270.73,184.3c4-1.26,8.17-2.09,11.77.83,1.72,1.4-.58,1-1.05,1.45Z"/><path class="cls-67" d="M351.7,205.37c.51,4.13-.89,6.27-4.81,7a31.2,31.2,0,0,1-4.45.25c-3.52-3.25-3.31-6.22.73-8.34C346.18,202.72,349.15,202.65,351.7,205.37Zm-7.3,5c2.37-.09,5.14-2.37,4.57-3.53a3.24,3.24,0,0,0-2.31-1.39c-2-.2-4.54,2-4,3.41C342.92,209.57,344,210,344.4,210.35Z"/><path class="cls-68" d="M289.57,186.64c-1.75-.95-1.09-1.81.22-2.35a13.8,13.8,0,0,1,10.45,0Z"/><path class="cls-69" d="M287.55,313.59c-.39-1.45-.79-2.9-1.18-4.35,0-3.9,2.77-7.94-.63-11.93-2.83,3.55-1.11,7.34-1.08,10.95l-1.17,5.23-5.8,1.08c-3.67-1.33-7.42-2.47-11-4s-6.62-3.5-9.94-5.24a18.84,18.84,0,0,0-2.24-.86c-.74-2.83-1.47-5.66-2.54-9.78,10.81,4.58,19.91,1.16,29.11-1.38,0-.33-.07-.66-.1-1-2.28.21-4.56.46-6.84.63-4.14.32-8.29.85-12.43.82-7.48,0-12.12-4.06-14.22-12.8a18.18,18.18,0,0,1-.29-4c0-1,.15-1.93.23-2.91,11.41.52,21.6-3.7,32.16-6.09-7.05-.89-13.87.51-20.7,1.78-.82.15-1.61.42-2.43.57-8,1.42-9.78.43-12.88-7.09-.66-1.59-.71-2.83,1-3.77a4.92,4.92,0,0,0,1.51-1.29c7.76-9.85,18.55-14.17,30.33-16.72a17.64,17.64,0,0,0,2.83-.92c.27-.1.45-.43,1.23-1.24-12.83,1.49-24.89,3.06-34.16,12.48a28.26,28.26,0,0,0-2.11,2.13c-5.27,6.64-12.57,8.92-20.59,9.67-3.09.64-4.68-1.3-5.73-3.65a40.47,40.47,0,0,1-1.67-5.69l-.93-1.58a11.93,11.93,0,0,1-.46-2.85c.12-1.51.52-3,.79-4.51l6.38,2.44.2-.67-6-5.61,5.45-2.19c1.78,1.11,3.55,2.23,6.32,4l-1.51-2.68c1.34-.32,2.78-1.12,4-.88,8.76,1.65,17.46.93,26.14-.42,4.37-.67,8.66-1.88,13-2.66a30.86,30.86,0,0,0,12.66-5.43c2.49-1.78,4.69-1.88,7.24-.16a43.28,43.28,0,0,0,21.22,7.53c6.73.52,13.43,1.71,20.16,1.78,5.21,0,10.43-1.19,15.65-1.86L343,243l.46.49,6.05-4c2.46.95,2,3.08,2,5l-4.06,3a14.87,14.87,0,0,0,9.07-3c1.21,2.85-.71,5.24-1.15,7.85-1.08,2.66-2.2,5.3-3.24,8a4.68,4.68,0,0,1-4.8,3.34,27.2,27.2,0,0,1-20.47-9.89c-9.33-10.95-22.13-13.31-35.66-13.66,6.79,2.32,13.65,4.46,20.35,7,7.13,2.72,11.3,9.13,16.8,14.22-.66,1.46-1.29,3-2,4.44-2.73,5.38-3.17,5.69-9.37,4.8-4.94-.71-9.81-1.88-14.75-2.57a69.26,69.26,0,0,0-9.78-.39c8.66,3.48,23.55,6.65,30.92,6.78,2.54,9.08-2.75,18.08-11.9,19.16-4.86.58-9.9-.22-14.86-.49-2-.1-3.93-.46-6.43-.76,6.67,4.37,16.23,5.46,27.74,3.42,1.59,11.28-5.16,19.7-16.15,19.58C297,315.22,292.28,314.18,287.55,313.59Zm-1.83-41.78c-2.62,5-2.39,14.21.43,17.73C288,281,288,277.29,285.72,271.81Zm-.22-24.92c-1.44,5.91-1.81,11.81.34,17.68C287.69,258.65,288.22,252.75,285.5,246.89Z"/><path class="cls-70" d="M349.5,239.43l-6.05,4L343,243l3.57-4.51c4.41-3.35,6.95-8,9-13a4.65,4.65,0,0,1,.77,1.19c.92,3.14,1.31,3.37,4.27,2.26a18.09,18.09,0,0,0,8.91-7.53c.69-1.07,1.3-2.21,2.07-3.51a9.91,9.91,0,0,1-5,11.42c-2.24,1.26-4.71,2.12-7.08,3.16-3-.43-5.42.15-6.93,3.2A21.56,21.56,0,0,1,349.5,239.43Z"/><path class="cls-71" d="M226.45,240.54l1.51,2.68c-2.77-1.75-4.54-2.87-6.32-4-2.7-4.09-5.32-8.25-11.35-7.12-.86.16-1.85-.43-2.79-.68-2.51-2-6-3.09-6.93-6.68-.56-2.15-.89-4.36-1.32-6.54l1-.31a17.2,17.2,0,0,1,1.31,2.32,16,16,0,0,0,8.66,9.1c4.15,1.93,4.54,1.72,6.13-2.67C218.63,232.07,222.31,236.47,226.45,240.54Z"/><path class="cls-22" d="M355.38,252.31c.44-2.61,2.36-5,1.15-7.85l4.26-6.93,6.74,2.93c-1.63,6.28-6.2,9.73-11.75,12.24Z"/><path class="cls-72" d="M349.5,239.43a21.56,21.56,0,0,0,3.1-3.78c1.51-3.05,3.93-3.63,6.93-3.2l1,1c-2.64,4-4.07,8.92-9,11C351.52,242.51,352,240.38,349.5,239.43Z"/><path class="cls-73" d="M355.78,252.7c5.55-2.51,10.12-6,11.75-12.24l2.07-1.75v4.77c-2.5,5.21-6,9.22-12,10.43C356.44,254.14,355.64,254.21,355.78,252.7Z"/><path class="cls-74" d="M351.52,244.46c4.91-2.12,6.34-7.08,9-11,2,1.24.29,2.74.29,4.11l-4.26,6.93a14.87,14.87,0,0,1-9.07,3Z"/><path class="cls-24" d="M207.5,231.44c.94.25,1.93.84,2.79.68,6-1.13,8.65,3,11.35,7.12l-5.45,2.19-5.66-6.75c-.09,4.77,2.31,7.78,5.1,10.59-.27,1.51-.67,3-.79,4.51a11.93,11.93,0,0,0,.46,2.85c-7-2.71-10.86-8.18-13-15.07Z"/><path class="cls-75" d="M202.26,237.56c2.18,6.89,6,12.36,13,15.07l.93,1.58c-6.59-.44-11.32-3.55-13.95-9.7C202.27,242.19,202.27,239.87,202.26,237.56Z"/><path class="cls-76" d="M254.54,304.43a18.84,18.84,0,0,1,2.24.86c3.32,1.74,6.52,3.72,9.94,5.24s7.3,2.71,11,4c-10.54,3.55-19.35.23-23-8.69A4.93,4.93,0,0,1,254.54,304.43Z"/><path class="cls-77" d="M284.66,308.26c0-3.61-1.75-7.4,1.08-10.95,3.4,4,.59,8,.63,11.93Z"/><path class="cls-78" d="M261.22,135.29c10.2-9.12,39.34-9.21,49.55,0C294.27,130,277.82,129.43,261.22,135.29Z"/><path class="cls-79" d="M277.51,94.45c1.12-2.91,3.95-2,6-2.34,4.41-.83,8.73-.35,12,3.36a29.85,29.85,0,0,0-4,1.52C286.35,99.8,281.86,99,277.51,94.45Z"/><path class="cls-63" d="M282.82,116.94a33.1,33.1,0,0,0-5.51-3.17c-.87-.31-2.3-3-3.63.14-.36.83-3.5-2.09-3.17-3.92.38-2.1,4-4.23,5.83-3.07a36.19,36.19,0,0,1,6.87,5.57c.81.86.55,2.73.78,4.15Z"/><path class="cls-67" d="M301.33,110.34c-.06,1.88-2.09,2.8-4.17,2.81-1.6,0-3.16,1.27-4.81,1.75-1.34.39-2.45,2.95-4.13.77s0-3.32,1.53-4.45a67.19,67.19,0,0,1,5.59-4.09C297.32,105.91,301.39,108.2,301.33,110.34Z"/><path class="cls-80" d="M294.78,137.36H277.11v-.76h17.74Z"/><path class="cls-81" d="M253.57,82.47c.08.48,0,1.28.26,1.4a12,12,0,0,1,5.27,5.39c1.63,3,4.43,4.37,7.64,4.91a19.28,19.28,0,0,1,5.35,1.11l-3.72,2a13,13,0,0,0-2.73-.68c-5.23-.18-9.19-2.13-11.11-7.33A6.73,6.73,0,0,0,252.8,87C250.81,85.1,251.23,83.64,253.57,82.47Z"/><path class="cls-82" d="M302.73,97.21l-3.79-2.27c5.14-.25,9.19-.88,12.6-3.47l1.58,3.23c-1.78.61-3.65,1.39-5.59,1.88A40.12,40.12,0,0,1,302.73,97.21Z"/><path class="cls-83" d="M270.1,91c-2.2.76-4.38,1-6.24-.87a2,2,0,0,1-.35-1.75,1.65,1.65,0,0,1,1.52-.56c1.82.58,3.57,1.36,5.35,2.06C270.28,90.25,270.19,90.63,270.1,91Z"/><path class="cls-84" d="M308.84,88.09c-2.08,3.76-4.52,3.67-8.24,2.86C303.35,88.65,305.42,87.51,308.84,88.09Z"/><path class="cls-85" d="M229.09,209.14c-.37.31-.84,1-1.46,1.2-1.93.52-4.91-1.14-5-2.89a2.51,2.51,0,0,1,1.5-1.9C226,205.07,228.79,207,229.09,209.14Z"/><path class="cls-86" d="M344.4,210.35c-.42-.34-1.48-.78-1.76-1.51-.52-1.41,2-3.61,4-3.41a3.24,3.24,0,0,1,2.31,1.39C349.54,208,346.77,210.26,344.4,210.35Z"/><path class="cls-87" d="M285.72,271.81c2.23,5.48,2.32,9.15.43,17.73C283.33,286,283.1,276.85,285.72,271.81Z"/><path class="cls-88" d="M285.5,246.89c2.72,5.86,2.19,11.76.34,17.68C283.69,258.7,284.06,252.8,285.5,246.89Z"/><path class="cls-89" d="M215.63,245.27c-2.79-2.81-5.19-5.82-5.1-10.59l5.66,6.75,6,5.61-.2.67Z"/></svg>