<svg id="Capa_1" data-name="Capa 1" xmlns="http://www.w3.org/2000/svg" viewBox="0 0 654.03 666.93"><defs><style>.cls-1{fill:#040404;}.cls-2{fill:#393938;}.cls-3{fill:#5d5d5c;}.cls-4{fill:#5d5c5c;}.cls-5{fill:#383838;}.cls-6{fill:#868586;}.cls-7{fill:#858485;}.cls-8{fill:#606060;}.cls-9{fill:#5d5d5e;}.cls-10{fill:#888;}.cls-11{fill:#878888;}.cls-12{fill:#878787;}.cls-13{fill:#616061;}.cls-14{fill:#616161;}.cls-15{fill:#858585;}.cls-16{fill:#868686;}.cls-17{fill:#3a3a3a;}.cls-18{fill:#3c3c3c;}.cls-19{fill:#878786;}.cls-20{fill:#858584;}.cls-21{fill:#898888;}.cls-22{fill:#848484;}.cls-23{fill:#828282;}.cls-24{fill:#868584;}.cls-25{fill:#3a3b3a;}.cls-26{fill:#464645;}.cls-27{fill:#686766;}.cls-28{fill:#666565;}.cls-29{fill:#5c5a58;}.cls-30{fill:#060606;}.cls-31{fill:#0a0909;}.cls-32{fill:#090909;}.cls-33{fill:#050505;}.cls-34{fill:#050605;}.cls-35{fill:#050404;}.cls-36{fill:#363637;}.cls-37{fill:#383737;}.cls-38{fill:#363635;}.cls-39{fill:#3a393a;}.cls-40{fill:#595959;}.cls-41{fill:#070707;}.cls-42{fill:#878887;}.cls-43{fill:#888787;}.cls-44{fill:#757574;}.cls-45{fill:#606160;}.cls-46{fill:#4f4e4e;}.cls-47{fill:#555454;}.cls-48{fill:#7a7978;}.cls-49{fill:#7f7d7c;}.cls-50{fill:#424140;}.cls-51{fill:#070606;}.cls-52{fill:#080708;}.cls-53{fill:#5c5b5c;}.cls-54{fill:#060605;}.cls-55{fill:#b8b9b8;}.cls-56{fill:#b0afad;}</style></defs><path class="cls-1" d="M403.55,521.79a135,135,0,0,1-29.73-7.3c-10.67-3.94-20.56-9.39-30.22-15.31-2.83-1.74-5.74-3.36-8.7-4.87a18,18,0,0,0-18.11.57c-4.32,2.51-8.47,5.3-12.73,7.9a131.41,131.41,0,0,1-49.37,18c-1.15.18-2.31.37-3.45.6a5.4,5.4,0,0,0-1.12.71c5.89,8.14,6.69,17.81,8,27.34,1.46,10.67,5.15,20.21,13.35,27.73a34.9,34.9,0,0,1,11.8,26.1c.05,3.11,1.54,5.4,3.35,7.58,2.55,3.07,5.37,5.93,7.84,9.07,4.68,6,4,11.26-1.88,16-7.34,5.95-15.87,6.09-23.7-.44-3.33-2.78-5.88-3-9.17-.68-2.33,1.6-4.95,2.81-7.12,4.59-9.91,8.13-21.44,12-34,13a12.53,12.53,0,0,0-9.31,4.86,33.35,33.35,0,0,1-6.71,5.94c-7.81,5.37-16.58,4.78-23.94-1.2a5.62,5.62,0,0,0-3.47-1.2c-4,.21-7.55-.55-10.69-3.23a7.65,7.65,0,0,0-3.6-1.22,11.77,11.77,0,0,1-7.66-4.22,14.42,14.42,0,0,0-3.37-2.72c-4.16-2.77-5.24-7.35-1.87-11.12a42.6,42.6,0,0,1,9.22-7.5c13.4-8.38,23.74-20.24,36-30.63C172,585.28,150.46,571.76,135,551.27c-2.24,1.36-4.5,2.62-6.63,4.06a7.43,7.43,0,0,0-2.72,2.58c-3.31,6.9-9.15,9.53-16.29,9.46-7.31-.07-14.64-.57-21.94-1.11-4-.3-7.9-1.16-11.87-1.65-6.39-.79-11.41-3.65-14.2-9.61C56,543.41,50.08,532,45.51,520.08c-3.85-10.05-6.2-20.68-9-31.1-.5-1.88-1-3.33-2.65-4.49a15.18,15.18,0,0,1-6.57-10.79c-1.41-12.15-6.43-23-11.8-33.72C8.15,425.3,2.75,410,.9,393.57c-2-18.18-1-35.91,6.89-52.78.27-.58.44-1.22.75-2.08A14.18,14.18,0,0,0,7,337.61c-3.15-1.7-3.44-1.87-1.64-4.76a69.89,69.89,0,0,1,7.68-10.39c7.46-8.08,15-16.12,22.86-23.78A74.42,74.42,0,0,0,54.41,270c2-5.48,4-10.93,5.77-16.47a105.84,105.84,0,0,1,37.35-53.62,7.46,7.46,0,0,0,3.38-6.62c-.07-33.5,15.42-58.42,42.69-76.75.54-.37,1-.81,1.53-1.2-2-4.4-2-4.66,2.28-6.54,9-4,18.53-5.45,28.18-6,8-.48,16-.2,24-.08,2.11,0,3.71-.28,5.26-1.94,13.08-14,28.8-24.05,46.42-31.32,2-.82,3.91-1.84,5.92-2.63a6.37,6.37,0,0,0,4.16-4.59c.5-1.93,1.26-3.79,1.79-5.71,4.64-16.88,14-30.89,26.73-42.58,15-13.74,38.43-18.63,60.69-8.66a48.12,48.12,0,0,1,14.74,10.11c11.32,11.41,20.16,24.31,24.53,40,.26,1,.69,1.89.87,2.86,1,5.44,4.27,8.46,9.37,10.54,13,5.3,25.55,11.42,36.31,20.61,4.05,3.46,7.95,7.11,11.75,10.84a7.48,7.48,0,0,0,6.49,2.54,132.91,132.91,0,0,1,41.7,2.9c4.84,1.15,9.64,2.47,14.06,5.42l-1.75,3.59c6.11,5.14,12.42,9.59,17.68,15.05,12.81,13.31,22.23,28.68,25.41,47.21a95.16,95.16,0,0,1,1.27,15.9,8.08,8.08,0,0,0,3.42,7.12c11.08,8.75,21,18.69,27.44,31.36,4.37,8.56,7.7,17.66,11.31,26.59,2.56,6.31,4.7,12.8,7.24,19.12,3.15,7.83,8.1,14.47,14,20.46Q628.33,309.58,640,321.9c3.89,4.1,7.6,8.4,9.55,14.26l-4.42,2.14a12.63,12.63,0,0,0,.55,1.87c9.54,19.78,9.85,40.46,6,61.55-2.6,14.41-8,27.8-14.69,40.7-5,9.68-9,19.67-10.56,30.51a18.2,18.2,0,0,1-6.75,11.85,7.49,7.49,0,0,0-2.34,4.07c-4.51,22.91-13.22,44.23-24,64.81-3.55,6.77-8.52,10.87-16.28,11.4-10.62.74-21.23,1.77-31.86,2.31-7.55.39-13.58-2.57-17.44-9.43a9.84,9.84,0,0,0-3.13-2.91c-1.9-1.3-3.94-2.4-6.24-3.78-15.22,20.31-36.62,33.93-57.19,48.37.13.53.1.94.29,1.12,11.76,10.79,22.57,22.68,36.46,31a31.61,31.61,0,0,1,7.28,6c4.14,4.64,3.2,9-2.23,12.14-.56.33-1.31.61-1.57,1.12-2.09,4.07-6.15,4.26-9.79,5.82-4.89,2.1-9.26,5-14.91,4.09-.58-.09-1.33.86-2,1.38-6.61,5.43-14.93,6.21-22.22,1.64a43.34,43.34,0,0,1-8.4-7c-2.53-2.68-5.13-4.46-9-4.6-3.14-.11-6.24-1-9.37-1.43A47,47,0,0,1,406.63,643c-4.82-3.25-9.82-6.23-14.74-9.34-2.07-1.3-3.8-1.34-5.73.58a23.47,23.47,0,0,1-5.72,4,17.23,17.23,0,0,1-21.86-5.12c-2.94-3.9-3.34-7.43-.47-11.51a98.51,98.51,0,0,1,8.7-10.26c2.34-2.53,3.86-5.06,3.9-8.75a32.85,32.85,0,0,1,11.08-24.85c9.32-8.36,12.82-19.18,14.33-31C397.22,538.15,398.71,529.69,403.55,521.79ZM384.48,57.52c-1.23-4-2.05-8.09-3.77-11.81C376,35.47,369.08,26.75,361,18.94,345.38,4,318.3.88,300.46,13A77.27,77.27,0,0,0,269.24,55.6c-2,5.23-3.9,10.51-6,15.69-1.45,3.52-3.25,6.9-4.89,10.33l-1.17-1,2.14-8.19c-3.22,1.54-5.55,2.77-8,3.8a146.59,146.59,0,0,0-42,27.46c-2.79,2.58-5.91,4.81-8.91,7.17-.14.11-.54-.09-.92-.17l.4-2.89c-15.77-.68-31.21,0-46.64,4.48l3.23,3.7a11.46,11.46,0,0,1-1.82,1.33c-12,5.11-21.2,13.58-29.15,23.64-9.67,12.25-16.4,25.82-18.17,41.5a138.48,138.48,0,0,0,2.1,43.17l-.44,2.55-.68.08-5-13.63c-.67-3.24-1.34-6.49-2.1-10.15C87.36,215.82,76.5,228.38,70.26,244.5q-7.55,19.5-15.18,39c-6.14,10.78-14.78,19.46-23.44,28.14Q23,320.23,14.55,329a45.3,45.3,0,0,0-3.21,4.26c5.45.69,5.45.69,4.88,4.32a80.29,80.29,0,0,0-7.91,20.09c-.37,1.61-.87,3.2-1.1,4.84a119.73,119.73,0,0,0,1.57,42.07c2.81,12.74,7.78,24.66,13.66,36.23,4.23,8.31,8.29,16.74,9.28,26.11.63,6.09,2.44,11.28,7.2,15.27.33.28.35.92.51,1.38,4.94,14.7,9.47,29.55,15,44,3.44,9.09,8.28,17.66,12.54,26.44.88,1.82,2,3.53,4.37,3.53a34.79,34.79,0,0,0,5.6,1.95,175.46,175.46,0,0,0,34.72,2.18c4.19-.1,7.08-2,9.12-5.73L88,551.4l.09-1.07c7.44.29,14.88.59,22.32.85,4.31.16,8.65.55,12.94.31a9.66,9.66,0,0,0,9-8c.2-1.79-.28-2.65-2.32-2.89-7.55-.92-15.08-2-22.6-3.17-3.17-.48-6.3-1.3-9.44-2a48.08,48.08,0,0,1,12-.39q10.92.72,21.82,1.57a6.8,6.8,0,0,0,6.55-2.83c2.17-3.26,3.91-6.79,5.84-10.21.05-1.65.57-3.46.08-4.92q-3-9-6.6-17.7a6.28,6.28,0,0,0-3.22-2.92c-3-1.31-6.24-2.28-9.4-3.29a2.5,2.5,0,0,0-3.5,1.8c-.35,1.09-.66,2.19-1,3.37,3.84,2.92,8.77,4.45,11.12,9.09L112.2,502c1.71-2.76,3.76-5.3,4.92-8.19s1.53-6.33,2.38-10.12c.72,2.15,1.2,3.6,1.68,5,3.11.94,6.19,2,9.33,2.79,7.46,1.94,12.67,6.19,14.82,13.82a34.38,34.38,0,0,0,2.1,4.56c2-2.09,3.93-3.14,3.46-5.88s-.53-5.59-.77-8.38c.33-.94.61-1.9,1-2.82,1.3-3.16.72-5.81-2-8-.65-.51-1.16-1.2-1.8-1.72a71.39,71.39,0,0,1-17-19.41,8.4,8.4,0,0,0-5.83-4.28c-1.67-.63-3.39-1.16-5-1.9q-10.31-4.68-20.56-9.49a11.13,11.13,0,0,1-2.25-1.9l.41-.67,5.16,1.2,6.59,2.2a22.7,22.7,0,0,0,.38-3.51,44.19,44.19,0,0,1,3.68-19.85c4.47-10.69,9.2-21.28,13.92-31.86,5.37-12,6.89-24.47,3.73-37.26-1.61-6.56-4-12.94-6.09-19.38-1.12-3.39-2-3.86-5.43-3.15-2.69.57-5.37,1.18-8.06,1.78,3.61-4.09,8.49-5.77,13.08-7.71,16.62-7,31.14-16.62,42.55-30.93s19.21-29.62,21.79-47.68c.49-3.49,1.61-6.88,2.44-10.32l1.16,0c.64,1.77,1.29,3.53,2,5.58l9.25-3,15-2,0,.47-18,6.6c-.93.29-1.86.62-2.81.86-4.41,1.14-5.39,4.48-3.26,9a12.87,12.87,0,0,0,1,1.74C200,265.59,204.46,273,209.53,280a108.06,108.06,0,0,0,21.64,22.59c12,9.2,26.23,12.73,40.89,13.86,16.25,1.25,32.52.81,48.17-4.84a7.65,7.65,0,0,1,.38.82s-.23.18-.37.26c-9,5.05-18.88,7.25-29,7.83-11.74.68-23.58.79-35.17-1.88-9.4-2.17-18.52-5.19-26.38-11A115.13,115.13,0,0,1,203,279.06c-3.76-5.59-7.37-11.29-11.34-17.38-3,10-6.8,19.15-12.27,27.5-1.16,1.77-.83,3.38-.14,5.14,5.29,13.57,12.19,26.12,22.64,36.49,4.14,4.1,8.31,8.17,12.31,12.41,3.12,3.31,6,6.86,8.58,9.86-1.08,1.09-2.38,1.8-2.44,2.6a33.62,33.62,0,0,0,.13,8c1.22,7.82,2.37,15.67,5.28,23.13.31.81-.37,2-.58,3-2-2.19-4.35-2.32-7.23-1.64-7.69,1.8-15.57,2.84-22.72,6.48a98.6,98.6,0,0,0-32,18.69c-8.64,7.6-15.57,16.48-17.57,28.12a48.92,48.92,0,0,1-6.68,18c-2.8,3.7-2.87,3.76-.29,7.09,1.93,2.48,4,4.87,6.15,7.14,2.85,3,5.87,5.86,8.81,8.8s4,6.48,2.67,10.85a21,21,0,0,0-.55,9.2c.68,3.93-.16,7.17-3.2,9.26-3.36,2.32-4.05,4.82-2.49,8.36a8.23,8.23,0,0,1,.27,2.46c-1.2,3-2,6.31-3.72,9.06s-4.18,5.11-6.42,7.53c-3,3.2-3.51,6.26-.6,9.35,6.58,7,13.1,14.12,20.36,20.37,8.27,7.11,17.16,13.53,26.06,19.84,5.49,3.9,10.5,8.81,17.36,10.43,5.6,1.32,11.28,2.32,16.9,3.59.7.16,1.21,1.16,1.81,1.77-7.3.18-14.65.94-21.73-1.71-2.07-.77-3.41.4-4.8,1.75-4.55,4.39-9.17,8.7-13.79,13-2.17,2-4.39,4-6.58,6-5.48,3.77-11,7.48-16.42,11.33a74.27,74.27,0,0,0-6.52,5.39c-1.38,1.25-1.58,2.71,0,4.53a37,37,0,0,1,16.46-11.75,33.58,33.58,0,0,1-4.4,4.44,56.62,56.62,0,0,0-5.9,5.34c-3.26,3.85-2.72,5.69,2,8.33,4.89-8.19,13.25-15.42,17.16-15.88l-10.32,11.34c-2.35,4.3-1.85,6.16,2.21,8.14,3.74,1.83,5.24,1.25,7.13-2.72.43-.88.93-1.73,1.39-2.6,5.26-5.59,11.43-10,17.83-14.26-1.88,2.71-4.21,5-6.25,7.47-2.88,3.55-5.54,7.28-8.29,10.93-1.85,2-.07,3.48,1.09,4.52a12.6,12.6,0,0,0,10.63,3c5.75-.88,10.15-4.23,13.59-8.6,3.16-4,7.24-5.44,12-5.88.5-.05,1,0,1.49-.08,9.89-1,19.17-3.56,27.06-10.11a56.73,56.73,0,0,1,9.28-5.81c5.35-2.92,5.39-2.83,4-9.11a11,11,0,0,1,.2-2.32c1.28,1.62,2.16,2.69,3,3.8,3.41,4.62,7.45,8.48,12.85,10.73,4.78,2,10.88.72,14.11-3.17,1.5-1.81,2.89-3.79.91-6.19-1.14-1.57-2.22-3.18-3.42-4.7-2.93-3.71-5.91-7.38-8.87-11.06l-1.91-6c.31-8.49-3.23-15.3-8.83-21.42a95.1,95.1,0,0,1-10.14-12.81c-5.12-8-6.06-17.37-7-26.61-1.1-10.41-5.64-18.94-14.12-25.22-4.35-3.24-8.79-6.36-14-10.09,6.41,1.4,11.73,3.17,16.19,6.67,3.35,2.62,7,3,10.8,2.3,4.54-.78,9.08-1.73,13.54-2.9,12-3.15,23.77-7.09,34.44-13.78a168.52,168.52,0,0,1,17.37-9.68c7.74-3.65,15.75-3.69,23.43.44,4.81,2.59,9.42,5.56,14.15,8.3,15.65,9,32.3,15.29,50.27,17.72,3.27.44,6.47.27,9.42-2,4.9-3.81,10.78-5.43,17.15-6.25-.16.76-.85.87-1.38,1.22-4.15,2.71-8.38,5.32-12.38,8.25a28.54,28.54,0,0,0-11.1,15.52c-1.75,6.49-2.51,13.25-3.78,19.88-1.86,9.78-5.27,18.77-12.74,25.85a68.17,68.17,0,0,0-7.1,8.33c-4.56,6-5.21,13.09-5.16,20.31l-1,2-13.18,15.8c-1.73,2-.72,3.67.57,5.31,4.05,5.19,10.71,6.84,16.4,3.12,4.09-2.66,7.4-6.53,11-9.94,1.27-1.21,2.32-2.67,3.47-4l.88.46c-.94,2.88-1.89,5.75-2.66,8.11,5.26,3.13,10.53,5.67,15.13,9.1a51.69,51.69,0,0,0,28.06,10.12c4.75.33,8.75,1.91,12,5.79a31.54,31.54,0,0,0,8.52,6.72,14.76,14.76,0,0,0,14.28.31c2.42-1.18,4-2.95,3.39-5.93-1.37-1.82-2.65-3.72-4.14-5.44-3.72-4.27-7.53-8.44-11.3-12.66l1-1c5.58,4.68,11.25,9.25,16.67,14.09,1.39,1.24,2,3.35,3,5,.38.65.64,1.61,1.21,1.87,2,.89,6.19-.69,7.6-2.66,1.58-2.22,1.41-4.1-1-6.65-2.05-2.18-4.34-4.12-6.53-6.17-1.09-1-2.22-2-3.27-3.08s-1.75-1.93-2.62-2.89c7.95,4.31,16.35,8,19.31,17.39,4.81-2.27,5.57-5.21,2.43-8.86a36.58,36.58,0,0,0-3.34-3c-1.61-1.46-3.2-2.93-4.79-4.4l.76-.93c2.45,1.57,5.06,2.94,7.33,4.74s4.23,4.05,6.32,6.08c2.37-1.62,1.38-3.35,0-4.65a58.86,58.86,0,0,0-6.87-5.74c-5.43-3.82-11-7.48-16.49-11.2-2.32-2.1-4.69-4.16-6.94-6.33Q465,611,458.66,604.67c-1.49-1.49-3-2.74-5.22-1.92-7.54,2.8-15.35,2-23.11,1.8a15.23,15.23,0,0,1-3.22-.82,7.26,7.26,0,0,1,2.13-1c3.77-.43,7.6-.49,11.33-1.15,6.35-1.12,12.57-2.66,18-6.51,12.27-8.71,24.95-16.89,36-27.22,6.76-6.33,13.22-13,19.65-19.66,2.2-2.29,1.9-5.84-.16-8.31a14.72,14.72,0,0,0-1.77-1.76c-4.62-3.86-7.2-9-9.12-14.55a20,20,0,0,1,.61-3.92c1.17-3.22.63-5.59-2.39-7.6-2.31-1.53-3.17-4-3.22-6.93a119.56,119.56,0,0,0-.93-12.82c-.6-4.62.41-8.55,3.87-11.75a92,92,0,0,0,6.88-6.49c2.91-3.34,5.5-7,8.22-10.48a32.1,32.1,0,0,0-1.7-5,49,49,0,0,1-5.5-14.8,44.24,44.24,0,0,0-8.26-19.5c-11.64-15.41-27.54-24.5-45.4-30.69-7.3-2-14.57-4.07-21.91-5.87-1.23-.31-2.75.57-4.14.9-.56-.44-1.66-1-1.6-1.29a33,33,0,0,1,1.36-4.23,81.16,81.16,0,0,0,4.16-30L430,354.46a90.77,90.77,0,0,1,8.74-10.71c6.35-6.8,13-13.32,19.14-20.31a86.26,86.26,0,0,0,16.41-29.28,6.82,6.82,0,0,0-.55-6c-3.74-7.38-7-15-10.38-22.56-.53-1.16-.95-2.37-1.64-4.09-.82,1.28-1.36,2.07-1.85,2.89-7.91,13.09-16.15,25.94-27.46,36.42a68,68,0,0,1-22.65,14.07c-13.45,5-27.36,6-41.54,5.78a90.37,90.37,0,0,1-31.46-6.1c-1.94-.75-1.93-.77-3.5-3,21.24,6.83,42.7,6.88,64.3,2a64.86,64.86,0,0,0,34.14-19.29,185.92,185.92,0,0,0,25.7-34.76c4.57-8,4.19-9.31-4.28-12.62l-15.39-5.78.11-.49h6.38l15.57,4.51c.62-2.44,1.08-4.31,1.55-6.17l1.07-.07c.61,2.32,1.23,4.62,1.83,6.94,1.72,6.71,3.06,13.55,5.23,20.12,3.29,10,8.54,19.05,14.77,27.51,5.65,7.65,11.95,14.72,19.74,20.26,10.34,7.35,22,12.26,33.35,17.76,1.9.92,3.67,2.11,5.5,3.18a28.85,28.85,0,0,1-10-1.38c-2.16-.68-3-.13-3.59,1.92-1.2,4.13-2.62,8.19-3.87,12.3-4.38,14.51-5.27,29.06.55,43.35,4,9.83,8.66,19.38,13,29.08a63.9,63.9,0,0,1,5.81,29l5.57-2.34,7.4-1.87a46.26,46.26,0,0,1-15.46,9.65c-3.93,1.58-8,2.75-12,4.11-3.81.53-6.1,3.06-8,6.11-3.72,6.14-8.09,11.79-13.81,16.11s-7.88,9.11-4.94,15.81c-.09,2.49-.13,5-.29,7.47-.17,2.68.81,4.39,3.68,4.92.88-2.27,1.83-4.38,2.53-6.58a13.3,13.3,0,0,1,8.58-9c4.2-1.5,8.37-3.12,12.64-4.41,1.93-.58,3-1.31,2.51-3.41.2-.58.39-1.16.58-1.74,1.5,3.15,1.87,6.47,3,9.48s3.26,6,4.72,8.55l-19.33,6.79a20.79,20.79,0,0,1,8.85-7.34c1.87-.89,2.9-1.69,1.83-4.13s-2-3.64-4.7-2.59c-2.31.91-4.67,1.69-7,2.48a9.31,9.31,0,0,0-6.12,6c-1.71,4.84-3.56,9.63-5.16,14.5-.77,2.32-1.45,4.79.21,7.11,1.07,2.23,2,4.52,3.25,6.65,2.07,3.57,5.09,5.6,9.43,5.22,6.78-.6,13.55-1.26,20.33-1.67,4.07-.24,8.16,0,12.24,0-10.41,2.4-20.86,4.05-31.31,5.67-2.93.45-3.33,1-2.35,3.89,1.6,4.62,5.08,7.27,10.27,7.06,9.12-.37,18.23-1.11,27.35-1.62,2.16-.12,4.34.05,6.52.08v1.24l-33.18,4.57c3.8,5.05,5.06,5.93,10.54,5.81,10.3-.23,20.61-.54,30.89-1.21,3.31-.21,7.11-.25,9.4-3.62,3.89-1.07,5-4.72,6.53-7.66a248.27,248.27,0,0,0,16.31-39.33c2.62-8,4.67-16.11,7-24.17,1.43-2.18,2.62-4.57,4.35-6.47a14.07,14.07,0,0,0,3.66-8,71.84,71.84,0,0,1,5.68-21c3.39-7.39,7.21-14.6,10.27-22.12,5.27-12.92,9.28-26.15,10.42-40.24a98.45,98.45,0,0,0-2.52-33q-3.39-8.61-6.79-17.2l-.82-3.7,5.11-.92c-1.51-1.73-2.5-3-3.62-4.15-5.93-6-12-11.91-17.82-18.05-7.83-8.26-16.22-16.07-21.88-26.15L586.15,250.8c-4.48-11.51-9.76-22.56-18.11-31.86a139.09,139.09,0,0,0-15.48-14.74c-.91,4.22-1.68,7.75-2.45,11.28-1.49,3.78-3,7.56-4.53,11.3-.17.41-1,.56-1.47.82.57-3.77,1.16-7.54,1.71-11.31,1.52-10.41,2.25-20.89,1.12-31.35-2-18.46-10-34.28-22.21-48.07-7.14-8-15.1-15-25.26-19.05a35.74,35.74,0,0,1-3.3-1.87l4.92-3.64a162.69,162.69,0,0,0-44.43-4.79c-2.45,0-3,1.06-3,3.77-2.59-2.05-4.73-3.56-6.67-5.31-9.17-8.26-18.76-16-29.61-21.91-7-3.85-14.36-7.18-22.51-11.21,1,4.36,1.74,7.55,2.47,10.73-.11.13-.19.3-.33.37s-.42.09-.46,0c-.79-1.43-1.65-2.84-2.31-4.34C391,72.29,387.73,64.9,384.48,57.52ZM520,458.15c2.21-1.46,3.48-2.69,5-3.23,3.43-1.22,7-2.1,10.51-3.12,4.05-1.17,4.05-1.16,4-5.45-.14-9.17-2.89-17.67-6.75-25.88-3.18-6.76-6.42-13.5-9.61-20.27-9.26-19.63-9.53-39.48-1.4-59.53a41.12,41.12,0,0,0,2.23-6.61,3.35,3.35,0,0,0-1.24-2.61,16,16,0,0,0-3.57-1.75,96.39,96.39,0,0,1-36.71-28.51c-.85-1.09-1.82-2.09-2.93-3.36-.84,1.92-1.55,3.42-2.15,4.95a79.28,79.28,0,0,1-15,24.61c-5.27,5.78-10.75,11.4-16.55,16.64-4.52,4.09-7.08,8.63-6.73,14.79a26.72,26.72,0,0,1-.54,6c-1,5.85-2.14,11.69-3.29,17.88,1.41.3,2.82.67,4.25.9,20,3.33,37.91,11.2,53.45,24.22,11.72,9.81,19.83,21.78,22.3,37.28C516,449.37,518.27,453.43,520,458.15ZM174.11,298c-.29.13-.46.16-.54.26-.95,1.16-1.9,2.31-2.83,3.48a97.6,97.6,0,0,1-35,27.6c-7,3.32-7.11,3.35-4,10.53,8.44,19.73,8.83,39.35-.43,58.93-3.84,8.11-7.74,16.19-11.42,24.38a63.75,63.75,0,0,0-5.59,23.64c-.13,3,.84,4.39,3.82,5.24,5.15,1.47,10.67,2.15,14.9,6.23,3-4.68,5.49-9.24,6.13-14.44,1.4-11.37,6.54-20.76,14.34-29,16.55-17.42,37-27.17,60.46-31.33,1.54-.27,3.07-.59,4.18-.81-1.17-7.26-3-13.8-3.1-20.36-.12-9.52-4.25-16-11.33-22-13-11-23-24.43-28.63-40.76A9.2,9.2,0,0,0,174.11,298Z"/><path class="cls-2" d="M222.15,604.52c-.6-.61-1.11-1.61-1.81-1.77-5.62-1.27-11.3-2.27-16.9-3.59-6.86-1.62-11.87-6.53-17.36-10.43-8.9-6.31-17.79-12.73-26.06-19.84-7.26-6.25-13.78-13.38-20.36-20.37-2.91-3.09-2.37-6.15.6-9.35,2.24-2.42,4.72-4.75,6.42-7.53s2.52-6,3.72-9.06c4.46,2.07,9.24,1.34,13.73.79,6.3-.76,11.37-3.76,14.38-10,6.12-12.73,4.4-24.68-2.42-36.44a41.55,41.55,0,0,0-11.9-13,24.82,24.82,0,0,1,14.63,7.85c6.62,7.85,10.33,16.87,10.44,27.24,0,3.08,0,6.17,0,10,2-1,3.09-1.57,4.25-2.09,4.68-2.06,9.22-4.63,14.09-6,8.55-2.45,17.34-4.05,26-6.24,15-3.8,29.69-8.27,42.27-17.76q5.94-4.47,11.78-9.08c1.43-1.13,2-2.46,1-4.35-3.69-7.24-7.07-14.6-13.3-20.26-6.44-5.86-9.81-6.17-15.25.3-5.22,6.2-11.67,10.76-18.44,14.86-4.25,2.57-9,4.23-13.59,6.3l-.57-.9c3-2.9,6-5.73,8.89-8.71,8-8.27,14.27-17.61,15.57-29.26.76-6.74.21-13.66-5.74-18.62-3.43-2.86-6.83-5.75-10.27-8.59s-7.17-5.82-10.75-8.72c.21-1,.89-2.21.58-3-2.91-7.46-4.06-15.31-5.28-23.13a33.62,33.62,0,0,1-.13-8c.06-.8,1.36-1.51,2.44-2.6-2.59-3-5.46-6.55-8.58-9.86-4-4.24-8.17-8.31-12.31-12.41-10.45-10.37-17.35-22.92-22.64-36.49-.69-1.76-1-3.37.14-5.14,5.47-8.35,9.22-17.5,12.27-27.5,4,6.09,7.58,11.79,11.34,17.38a115.13,115.13,0,0,0,26.69,28.48c7.86,5.86,17,8.88,26.38,11,11.59,2.67,23.43,2.56,35.17,1.88,10.08-.58,20-2.78,29-7.83.14-.08.38-.22.37-.26a7.65,7.65,0,0,0-.38-.82c4.36-3.3,8.71-4,13,0,1.57,2.24,1.56,2.26,3.5,3a90.37,90.37,0,0,0,31.46,6.1c14.18.24,28.09-.74,41.54-5.78a68,68,0,0,0,22.65-14.07c11.31-10.48,19.55-23.33,27.46-36.42.49-.82,1-1.61,1.85-2.89.69,1.72,1.11,2.93,1.64,4.09,3.41,7.54,6.64,15.18,10.38,22.56a6.82,6.82,0,0,1,.55,6,86.26,86.26,0,0,1-16.41,29.28c-6.12,7-12.79,13.51-19.14,20.31A90.77,90.77,0,0,0,430,354.46l3.16-1.31a81.16,81.16,0,0,1-4.16,30,33,33,0,0,0-1.36,4.23c-.06.31,1,.85,1.6,1.29-6.09,5-12.26,10-18.25,15.17-3.22,2.77-7.2,5.15-8.13,9.72-1.41,7-1.86,14.16.9,20.91A60.7,60.7,0,0,0,418,455.88c2.73,2.59,5.33,5.32,8,8a53.33,53.33,0,0,1-12.49-4.77c-8.83-4.82-16.58-11-22.17-19.49-1.41-2.14-3.1-2.51-5.07-1.38-2.86,1.64-5.89,3.19-8.28,5.38-5.46,5-9.07,11.37-12.18,18-1.21,2.58-.85,4.39,1.34,6.46,10.42,9.89,22.65,16.76,36,21.54,13.86,4.95,28.28,7.91,42.65,11,5.55,1.19,10.85,3,15.46,6.45a32.77,32.77,0,0,0,3,1.73c0-2.83-.12-5,0-7.09a78.51,78.51,0,0,1,1-9.83,40.22,40.22,0,0,1,13.84-23.58,15.22,15.22,0,0,1,9.74-4.07c-1.75,2.3-3.94,4.09-5.85,6.14-9.52,10.24-13.55,22.27-10.57,36.06,2,9.1,7.21,15.24,16.95,17.38,4.8,1.06,9.17.22,13.73-.26,1.92,5.55,4.5,10.69,9.12,14.55a14.72,14.72,0,0,1,1.77,1.76c2.06,2.47,2.36,6,.16,8.31-6.43,6.67-12.89,13.33-19.65,19.66-11,10.33-23.69,18.51-36,27.22-5.43,3.85-11.65,5.39-18,6.51-3.73.66-7.56.72-11.33,1.15a7.26,7.26,0,0,0-2.13,1c-2.11-.37-4.2-.88-6.33-1.06-6.24-.54-10.71,5.06-8.58,10.92a35.22,35.22,0,0,0,3.93,7.36c1.68,2.52,3.72,4.8,6.37,8.15a30.38,30.38,0,0,1-4.65-1.71A56.18,56.18,0,0,1,401,612.14c-5.21-7.34-17.39-12-24.75-5.5,0-7.22.6-14.3,5.16-20.31a68.17,68.17,0,0,1,7.1-8.33c7.47-7.08,10.88-16.07,12.74-25.85,1.27-6.63,2-13.39,3.78-19.88a28.54,28.54,0,0,1,11.1-15.52c4-2.93,8.23-5.54,12.38-8.25.53-.35,1.22-.46,1.38-1.22-6.37.82-12.25,2.44-17.15,6.25-2.95,2.3-6.15,2.47-9.42,2-18-2.43-34.62-8.68-50.27-17.72-4.73-2.74-9.34-5.71-14.15-8.3-7.68-4.13-15.69-4.09-23.43-.44a168.52,168.52,0,0,0-17.37,9.68c-10.67,6.69-22.4,10.63-34.44,13.78-4.46,1.17-9,2.12-13.54,2.9-3.83.66-7.45.32-10.8-2.3-4.46-3.5-9.78-5.27-16.19-6.67,5.19,3.73,9.63,6.85,14,10.09,8.48,6.28,13,14.81,14.12,25.22,1,9.24,1.92,18.56,7,26.61a95.1,95.1,0,0,0,10.14,12.81c5.6,6.12,9.14,12.93,8.83,21.42-1,0-2,0-3,0-9.13-.25-16.24,3.25-21.6,10.81a44,44,0,0,1-8.39,8.47c-3.38,2.72-6.86,5.53-12,6.67.76-1,1.14-1.49,1.47-2,2.59-3.82,5.46-7.48,7.64-11.53,1.59-2.94,1.78-6.39-.58-9.31s-5.51-4.4-9.57-3.16C228.3,603.48,225.19,603.89,222.15,604.52Zm150.21-267c-4.79-1.83-9.49-3.95-14.38-5.44-7.73-2.36-15.47-5.22-23.41-6.22-12.47-1.56-24.74.61-36.5,5.29-4.9,1.94-9.91,3.62-14.87,5.42-.73-2.14-2.06-3.29-4.48-2.91-2,.31-3.93.52-5.9.65-7.11.47-14.22.88-21.33,1.3a6.71,6.71,0,0,1-1-.08c-3.46-.28-6.91-.78-10.37-.8-6.25,0-9.28,5.39-5.55,10.55,3,4.12,6.8,7.68,10.49,11.24,3,2.86,6.94,4.87,9.35,8.1,6.24,8.33,12.18,16.92,17.66,25.77,6.46,10.43,14.83,18.17,26.79,21.56a54.78,54.78,0,0,0,24.1,1,22.19,22.19,0,0,1,7.45,0c13.32,2.39,25.69.3,37.13-7.08,7.24-4.67,11.69-11.69,15.92-18.8,8.07-13.53,17.61-25.66,30.56-34.94a18,18,0,0,0,6.76-9.59c1.45-4.91-.61-7.79-5.61-7.82-9.17,0-18.33,0-27.5,0-1.5,0-3,0-4.49-.17-3.73-.33-7.46-.72-11.33-1.09C372.08,335.21,372.22,336.35,372.36,337.5ZM434,332.27c5.21-3,9.33-7.42,9.69-13.31.23-3.8,1.69-6.36,3.45-9.22,2.15-3.53,2.19-4.15,1.47-6.84l-15.81,17.75,8.45-3.77C440.94,323.52,436.34,327.32,434,332.27Zm-212.87.2c-4.29-5.33-8.62-9.72-9.59-16.17l9.7,4.63c-2.44-3.08-5.47-5.19-7.91-7.85s-4.42-6-6.59-9l-.95.35c.59,2.32,1.18,4.64,1.79,6.95.53,2.05,1.44,4.07,1.55,6.13C209.51,323.57,214.25,329.92,221.17,332.47ZM472.89,526c9.61,13.29,23.87,13.09,31.13,5.59C492.52,534.44,482.42,532,472.89,526Zm-292.6-.25c-9.66,6.34-19.3,10.09-30.45,6.23C159.1,540.6,174,537.05,180.29,525.73Z"/><path class="cls-3" d="M599.29,284.61c5.66,10.08,14.05,17.89,21.88,26.15,5.82,6.14,11.89,12,17.82,18.05,1.12,1.15,2.11,2.42,3.62,4.15l-5.11.92c.29,1.28.55,2.49.82,3.7-.67,5.23-1.45,10.45-2,15.69-1.25,12.3-5.05,23.88-9.5,35.31-.55,1.41-.9,2.9-1.34,4.36,7.69-10.61,14.38-21.59,17.79-34.24a24.4,24.4,0,0,1,1.83-3.92,98.45,98.45,0,0,1,2.52,33c-1.14,14.09-5.15,27.32-10.42,40.24-3.06,7.52-6.88,14.73-10.27,22.12a71.84,71.84,0,0,0-5.68,21,14.07,14.07,0,0,1-3.66,8c-1.73,1.9-2.92,4.29-4.35,6.47a8.46,8.46,0,0,0-1.18,1.53q-8.49,18.79-16.94,37.6c-.86,1.92-1.89,3.77-2.84,5.66-5.13-2.75-1.1-6.91-2.27-10.08-4,1.49-4.58,1.15-4.75-2.89-.06-1.31,0-2.62,0-3.92-3.41-.14-3.53-.12-4.08-2.74-.6-2.87-1-5.8-1.42-8.7-4.46,1.6-4.44,1.59-6.51-3a9.27,9.27,0,0,0-6-5.54c-3.76-1.1-5.25-3.79-5-7.56q.29-4.87.59-9.73c-6.37,5.61-7.32,13.55-3.8,20.67,2,4.11,5.05,7.73,7.44,11.68.7,1.15,1.37,2.82,1.06,4-.58,2.18-2.68,1.07-4.19,1.12-1.14-2-2.21-4-3.41-5.94-3.42-5.46-7-10.88-8.21-17.32-.76-4-1-8.15-1.39-12.23-1.13-10.66-8.19-18.13-20.16-19.63,4-1.36,8.12-2.53,12-4.11a46.26,46.26,0,0,0,15.46-9.65l-7.4,1.87a6.86,6.86,0,0,1-.2-2.51c1.49-4.55,3.32-9,4.67-13.59A86.76,86.76,0,0,0,558,398.36c-2,3.89-3.46,6.84-5,9.8a216.14,216.14,0,0,1-6.87-23A3.88,3.88,0,0,0,545,383.1c-2.59-1.94-1.88-4.26-.94-6.64a17,17,0,0,0,1.18-2.67c1.41-6.77,2.3-13.67,4.18-20.3,2.44-8.57,5.11-17.08,9.78-24.87,4.93-8.23,9.86-16.55,11.68-26.2a14.68,14.68,0,0,0-.15-3,22.63,22.63,0,0,0-2.1,1.44c-4.64,4.28-9.32,8.51-13.88,12.87-4.73,4.53-9.9,6.52-16.25,3.54-2.7-1.27-5.45-2.42-8.23-3.5-9.07-3.52-17-8.93-24.36-15.15-8.59-7.31-14.88-16.48-19.5-26.75-3.09-6.9-4.81-14.11-4.1-21.74.38-4.07,2-7.54,6-8.94,3.4-1.17,7-2.42,10.51-2.42,11.45,0,22.89.63,34.34.88,5.13.12,6.66-1.58,6.06-6.6a12.86,12.86,0,0,0-1.7-4.57c-4-7.19-10.91-10.55-18.3-12.76a82.82,82.82,0,0,0-24-3,133.79,133.79,0,0,1-25.19-2c-12.83-2.41-24.94-6.44-35.56-14.31C419.92,185.62,419.7,176.88,422.2,161c1.2-7.66,5.83-14,10.41-20.16,2.73-3.66,5.65-7.17,8.89-11.26-7.47-3.85-14.44-7.3-21.26-11-5.23-2.85-10.4-5.87-13.84-11-.42-7.31-4.42-12.8-9.13-17.92l1-5c9.25,4.46,18.69,8.58,27.69,13.5,8.13,4.44,15.81,9.71,23.61,14.75,2.87,1.85,5.23,2.92,9.17,2,6-1.34,12.23,0,17.93,2.54,4.84,2.15,9.52,4.65,14.23,7.07,7.57,3.89,14.18,9.15,20.49,14.79,7.29,6.52,12.38,14.68,16.79,23.28,8.07,15.75,11.24,32.73,12,50.23.21,4.66-.05,9.34.13,14,.06,1.58-1.17,4,1.45,4.46.54.1,1.52-2.38,2.3-3.67.51-.26,1.3-.41,1.47-.82,1.57-3.74,3-7.52,4.53-11.3A30.46,30.46,0,0,0,553,218,72.67,72.67,0,0,1,569.83,234c7.11,9.22,11.69,19.86,16.56,30.35,3.05,6.57,6.83,12.81,10.41,19.12C597.17,284.09,598.44,284.23,599.29,284.61Z"/><path class="cls-3" d="M39.43,483.57c-.16-.46-.18-1.1-.51-1.38-4.76-4-6.57-9.18-7.2-15.27-1-9.37-5-17.8-9.28-26.11-5.88-11.57-10.85-23.49-13.66-36.23a119.73,119.73,0,0,1-1.57-42.07c.23-1.64.73-3.23,1.1-4.84.68.56,1.64,1,2,1.71,3.08,6.77,5.79,13.73,9.13,20.36,2.55,5.06,5.86,9.74,8.83,14.58l.9-.42a147.62,147.62,0,0,1-12.92-56.32c.57-3.63.57-3.63-4.88-4.32A45.3,45.3,0,0,1,14.55,329q8.47-8.76,17.09-17.4c8.66-8.68,17.3-17.36,23.44-28.14,1.47,1.61,2.12-.17,2.52-.87,3.25-5.55,6.57-11.08,9.46-16.82,2.82-5.59,5-11.52,7.74-17.12a83.34,83.34,0,0,1,26.33-31c1-.69,1.45-2,2.16-3l5,13.63.68-.08.44-2.55c.32,1.2.61,2.4,1,3.59.44,1.51.6,3.29,2.78,3.38.54,6.52,3.66,9.3,10.27,7.94,9.53-1.95,19.12-1.8,28.73-1.95a34.82,34.82,0,0,1,11.67,2c4.77,1.58,6.84,5.1,7.36,9.67,1.08,9.43-1.43,18.23-6,26.25-5.65,9.81-12.47,18.75-21.79,25.57a110.82,110.82,0,0,1-29.73,15.86c-4.07,1.39-7.84,1.09-11.17-1.75-3.53-3-7-6.09-10.42-9.25-2.76-2.57-5.37-5.31-8-8l-.93.45c.29,2.22.15,4.62,1,6.63,2.24,5.51,4.75,10.92,7.39,16.25,2,4,4.8,7.66,6.39,11.8,3,7.87,5.63,15.91,8,24a150.6,150.6,0,0,1,4.18,17.76,10.89,10.89,0,0,1-1.51,8.47c-2.21,3.38-2.18,8.18-3.32,12.31-1.09,3.92-2.45,7.77-4,12.79-2.08-4.18-3.6-7.21-5.11-10.24-1.4,11,.34,21.42,2.88,31.7a116.46,116.46,0,0,0,4.73,13.56c.66,1.72-.05,2.08-1.44,2.23l-5.16-1.2-.41.67a11.13,11.13,0,0,0,2.25,1.9q10.24,4.83,20.56,9.49c1.62.74,3.34,1.27,5,1.9-11.67.89-18.86,7.36-20.9,17.76a47.24,47.24,0,0,0-1.2,9.8c.1,6-2.55,10.79-5.48,15.67-2.36,3.92-4.27,8.09-6.38,12.15-.36-.68-.07-2.46-1.67-1.14a16.06,16.06,0,0,0-2,2.57c-2.86-4.16-2.88-4.2-.08-7.43,1.2-1.38,2.62-2.56,3.79-4,3.35-4,5.94-8.25,6.1-13.75.15-5.35-3.09-13-7-15.56a65.82,65.82,0,0,0,2,7.57c1.25,3.16.14,5.51-2,7.63-1.15,1.16-2.62,2-3.83,3.12a44.77,44.77,0,0,0-4.37,4.45c-1,1.26-1.64,2.9-2.72,4.12a3.27,3.27,0,0,1-2.5.54,12.08,12.08,0,0,1-3-1.32,48.21,48.21,0,0,1-.09,7c-.21,1.31-1.54,3.62-1.9,3.53-4.07-1-2.78,2-3,3.78-.14,1.32,0,2.66-.26,4-.37,2.26-1.82,2.18-3.48,1.32-.49,5.66-.49,5.66-2.65,8.41a17.55,17.55,0,0,1-2-2.73c-4.59-9.9-9.06-19.85-13.67-29.73C44.12,492.59,41.72,488.11,39.43,483.57Z"/><path class="cls-4" d="M257.14,80.6l1.17,1c1.64-3.43,3.44-6.81,4.89-10.33,2.14-5.18,4-10.46,6-15.69q0,7.23.05,14.47a29,29,0,0,0,.17,4.48,34.57,34.57,0,0,0,1.24,4.27c1.29-5.43,1.75-10.85,2.63-16.19.71-4.37,1.34-8.91,3-13,5.07-12.12,13.81-21.34,24.7-28.43,14.81-9.63,30.36-10.23,46.35-3.08,7.89,3.53,14,9.19,19.62,15.62,7.75,8.87,12.94,18.69,13.28,30.74.12,4.45.64,8.89.93,13.34.12,1.94,1.13,1,2,.7.65,2.7,1.31,5.4,2,8.1,1.37,9.18,3.39,18.2,7.08,26.75,5.11,11.85,9.94,23.76,12.61,36.47,2.51,11.94,1.35,23-6.55,32.8-.63.16-1.42.13-1.87.5-2.81,2.32-5.51,4.78-8.33,7.09-3.9,3.18-7.89,6.27-12.41,9.85a33.51,33.51,0,0,1-.41-4.27c.27-4.78.87-9.56.9-14.35,0-4.53,1.67-8.37,3.86-12.14,2.73-4.74,5.58-9.43,8-14.35,1.41-2.93,3-6.35,2.78-9.39a51.46,51.46,0,0,0-8.51-25,31.64,31.64,0,0,0-2.44-3.64c-3.55-4-6.72-8.48-12.55-9.42a9.94,9.94,0,0,0-2.67-.95c-6.35-.38-12.7-.66-19.33-1,2-7.77,7.76-13.28,13.13-19l-.75-.81-10.94,4.06,5.49-8.35a6.22,6.22,0,0,0-3.43,1.34c-3.62,3.12-7.8,4-12.5,3.83a155.06,155.06,0,0,0-16,0c-6.21.35-11.89-.55-16.74-4.74-.11-.1-.56.19-1.2.44l4.49,6.79c-4,1.66-6.51-3.4-10.71-1.82,5.76,5.95,11.49,11.5,12.79,19.41l-8.69.88c-2.63-.29-5.26-.65-7.9-.86-9.24-.74-14.78,4.6-19.17,11.79-2.84,1.61-3.78,4.53-4.81,7.29-1.45,3.85-2.64,7.8-4,11.69a19.78,19.78,0,0,0,.19,14.54c2,4.69,4,9.56,6.9,13.67,7.3,10.19,7.34,21.51,6.5,33.28a4.77,4.77,0,0,1-1.6-.44c-5.6-4.34-11.15-8.75-16.76-13.07-1.38-1.07-2.94-1.91-4.42-2.86-5.94-7.29-8.72-15.7-7.62-25a117.41,117.41,0,0,1,9.72-34.25c4.35-9.71,7.92-19.65,9.57-30.19.48-3,.67-6.12,1-9.18-1.39.53-2,1.18-2.17,1.92-.5,2.68-1.83,3.4-4.48,2.64-2.48-.72-4.6.66-6.28,2.28-5,4.78-7.95,10.52-7.8,17.61-3.59,2.85-6.92,6.13-10.84,8.44-6.83,4-14,7.46-21.05,11.18a26.66,26.66,0,0,0-2.72,1.88c2.24,2.72,4.3,5.09,6.21,7.58,6.39,8.3,11.87,16.9,14,27.55,2.4,11.86-1.85,21.11-10.21,28.42-15,13.07-33.39,17.57-52.69,19-9.09.67-18.28.28-27.32,1.28-12.31,1.38-22,7.75-29.19,17.82-.5-15.44.09-30.76,3.87-45.86,4.9-19.54,13.08-37,29.26-50a127.47,127.47,0,0,1,27.62-17.49c6.58-3,13.8-5.22,20.73-3.35,4.69,1.27,7.14-.76,10.27-2.61,2-1.18,3.89-2.52,5.82-3.81,12.54-8.41,25.26-16.51,39.53-21.73C253.73,85.59,256.26,84.14,257.14,80.6ZM357,68.42,356.18,67a53.32,53.32,0,0,0-18.4-19.14c-4.89-3-10.31-4.51-15.75-2.91-11.16,3.27-18.24,11.59-23.94,21.23-.39.65-.33,2.35.05,2.54a3.84,3.84,0,0,0,3.06.24,41.73,41.73,0,0,0,4.41-3.19c4.35-3,8.59-6.21,13.15-8.85,5.23-3,10.85-2.68,16.1,0a82.06,82.06,0,0,1,9.51,6.26c3,2.11,5.72,4.51,8.7,6.59C354.78,71,356.86,70.33,357,68.42Z"/><path class="cls-3" d="M503.13,523.56c-4.56.48-8.93,1.32-13.73.26-9.74-2.14-15-8.28-16.95-17.38-3-13.79,1.05-25.82,10.57-36.06,1.91-2.05,4.1-3.84,5.85-6.14a15.22,15.22,0,0,0-9.74,4.07,40.22,40.22,0,0,0-13.84,23.58,78.51,78.51,0,0,0-1,9.83c-.14,2.12,0,4.26,0,7.09a32.77,32.77,0,0,1-3-1.73c-4.61-3.46-9.91-5.26-15.46-6.45-14.37-3.08-28.79-6-42.65-11-13.39-4.78-25.62-11.65-36-21.54-2.19-2.07-2.55-3.88-1.34-6.46,3.11-6.66,6.72-13,12.18-18,2.39-2.19,5.42-3.74,8.28-5.38,2-1.13,3.66-.76,5.07,1.38,5.59,8.51,13.34,14.67,22.17,19.49a53.33,53.33,0,0,0,12.49,4.77c-2.65-2.67-5.25-5.4-8-8a60.7,60.7,0,0,1-14.18-21.45c-2.76-6.75-2.31-13.9-.9-20.91.93-4.57,4.91-6.95,8.13-9.72,6-5.17,12.16-10.13,18.25-15.17,1.39-.33,2.91-1.21,4.14-.9,7.34,1.8,14.61,3.88,21.91,5.87-.13.1-.3.19-.37.33s-.07.44,0,.46c2.09,1,4.26,1.77,6.29,2.86,11.63,6.21,22.17,13.75,30.47,24.23,7,8.87,12.27,18.41,13.61,29.82a5.53,5.53,0,0,0,1.3,3.06c3.1,3.16,6.37,6.16,9.57,9.21-2.72,3.51-5.31,7.14-8.22,10.48a92,92,0,0,1-6.88,6.49c-3.46,3.2-4.47,7.13-3.87,11.75a119.56,119.56,0,0,1,.93,12.82c.05,2.91.91,5.4,3.22,6.93,3,2,3.56,4.38,2.39,7.6A20,20,0,0,0,503.13,523.56Z"/><path class="cls-3" d="M225.21,389.79c3.58,2.9,7.18,5.79,10.75,8.72s6.84,5.73,10.27,8.59c6,5,6.5,11.88,5.74,18.62-1.3,11.65-7.61,21-15.57,29.26-2.88,3-5.92,5.81-8.89,8.71l.57.9c4.55-2.07,9.34-3.73,13.59-6.3,6.77-4.1,13.22-8.66,18.44-14.86,5.44-6.47,8.81-6.16,15.25-.3,6.23,5.66,9.61,13,13.3,20.26,1,1.89.39,3.22-1,4.35q-5.85,4.61-11.78,9.08c-12.58,9.49-27.3,14-42.27,17.76-8.62,2.19-17.41,3.79-26,6.24-4.87,1.4-9.41,4-14.09,6-1.16.52-2.29,1.12-4.25,2.09,0-3.79,0-6.88,0-10-.11-10.37-3.82-19.39-10.44-27.24a24.82,24.82,0,0,0-14.63-7.85,41.55,41.55,0,0,1,11.9,13c6.82,11.76,8.54,23.71,2.42,36.44-3,6.27-8.08,9.27-14.38,10-4.49.55-9.27,1.28-13.73-.79a8.23,8.23,0,0,0-.27-2.46c-1.56-3.54-.87-6,2.49-8.36,3-2.09,3.88-5.33,3.2-9.26a21,21,0,0,1,.55-9.2c1.29-4.37.4-7.78-2.67-10.85s-6-5.79-8.81-8.8c-2.16-2.27-4.22-4.66-6.15-7.14-2.58-3.33-2.51-3.39.29-7.09a6.77,6.77,0,0,0,.67.65c2.93-2.36,5.87-4.72,8.7-7.2a3.53,3.53,0,0,0,.83-2.24c.57-8.22,4.22-15.23,8.44-22,6.86-11.06,16.11-19.73,27-26.64,3.64-2.3,7.54-4.17,11.32-6.23l-.76-1.1c7.15-3.64,15-4.68,22.72-6.48C220.86,387.47,223.17,387.6,225.21,389.79Z"/><path class="cls-5" d="M406.4,107.55c3.44,5.15,8.61,8.17,13.84,11,6.82,3.72,13.79,7.17,21.26,11-3.24,4.09-6.16,7.6-8.89,11.26C428,147,423.4,153.35,422.2,161c-2.5,15.87-2.28,24.61,12.24,35.36,10.62,7.87,22.73,11.9,35.56,14.31a133.79,133.79,0,0,0,25.19,2,82.82,82.82,0,0,1,24,3c7.39,2.21,14.28,5.57,18.3,12.76a12.86,12.86,0,0,1,1.7,4.57c.6,5-.93,6.72-6.06,6.6-11.45-.25-22.89-.87-34.34-.88-3.51,0-7.11,1.25-10.51,2.42-4.07,1.4-5.65,4.87-6,8.94-.71,7.63,1,14.84,4.1,21.74,4.62,10.27,10.91,19.44,19.5,26.75,7.33,6.22,15.29,11.63,24.36,15.15,2.78,1.08,5.53,2.23,8.23,3.5,6.35,3,11.52,1,16.25-3.54,4.56-4.36,9.24-8.59,13.88-12.87a22.63,22.63,0,0,1,2.1-1.44,14.68,14.68,0,0,1,.15,3c-1.82,9.65-6.75,18-11.68,26.2-4.67,7.79-7.34,16.3-9.78,24.87-1.88,6.63-2.77,13.53-4.18,20.3a17,17,0,0,1-1.18,2.67c-.94,2.38-1.65,4.7.94,6.64a3.88,3.88,0,0,1,1.21,2.06,216.14,216.14,0,0,0,6.87,23c1.49-3,3-5.91,5-9.8a86.76,86.76,0,0,1-3.22,32.23c-1.35,4.59-3.18,9-4.67,13.59a6.86,6.86,0,0,0,.2,2.51L544.73,449a63.9,63.9,0,0,0-5.81-29c-4.31-9.7-9-19.25-13-29.08-5.82-14.29-4.93-28.84-.55-43.35,1.25-4.11,2.67-8.17,3.87-12.3.59-2.05,1.43-2.6,3.59-1.92a28.85,28.85,0,0,0,10,1.38c-1.83-1.07-3.6-2.26-5.5-3.18-11.34-5.5-23-10.41-33.35-17.76-7.79-5.54-14.09-12.61-19.74-20.26C478,285.06,472.78,276,469.49,266c-2.17-6.57-3.51-13.41-5.23-20.12-.6-2.32-1.22-4.62-1.83-6.94l-1.07.07c-.47,1.86-.93,3.73-1.55,6.17l-15.57-4.51a47.4,47.4,0,0,1,4.83-1c2.58-.25,2.71-1.59,1.54-3.33-2-3-4.18-5.9-6.29-8.84A10.24,10.24,0,0,0,443,225a184.64,184.64,0,0,1-20.88-27.63c-4.1-6.69-9-12.67-15.91-16.74a35.51,35.51,0,0,0,4.82-24.4,105.87,105.87,0,0,0-8.76-29.35,6.51,6.51,0,0,1,0-5.62C403.9,116.76,405.05,112.12,406.4,107.55Z"/><path class="cls-5" d="M113.33,231.68c7.2-10.07,16.88-16.44,29.19-17.82,9-1,18.23-.61,27.32-1.28,19.3-1.41,37.72-5.91,52.69-19,8.36-7.31,12.61-16.56,10.21-28.42-2.15-10.65-7.63-19.25-14-27.55-1.91-2.49-4-4.86-6.21-7.58a26.66,26.66,0,0,1,2.72-1.88c7-3.72,14.22-7.14,21.05-11.18,3.92-2.31,7.25-5.59,10.84-8.44.94,3.49,1.79,7,2.82,10.48.85,2.85,1.92,5.49.85,8.67-2.56,7.66-5,15.38-7.1,23.18-2.78,10.32-1.82,20.33,3.59,29.74a42.51,42.51,0,0,0-13.39,13.56c-6.38,9.77-12.47,19.75-20.69,28.19-2,2.06-3.36,4.76-5,7.16-2.07,2.69-4.26,5.3-6.16,8.11-1.06,1.57-1.59,3.43,1.25,4l-9.25,3c-.75-2.05-1.4-3.81-2-5.58l-1.16,0c-.83,3.44-1.95,6.83-2.44,10.32-2.58,18.06-10.49,33.52-21.79,47.68S140.66,320.9,124,327.92c-4.59,1.94-9.47,3.62-13.08,7.71,2.69-.6,5.37-1.21,8.06-1.78,3.41-.71,4.31-.24,5.43,3.15,2.11,6.44,4.48,12.82,6.09,19.38,3.16,12.79,1.64,25.23-3.73,37.26-4.72,10.58-9.45,21.17-13.92,31.86a44.19,44.19,0,0,0-3.68,19.85,22.7,22.7,0,0,1-.38,3.51l-6.59-2.2c1.39-.15,2.1-.51,1.44-2.23A116.46,116.46,0,0,1,99,430.87c-2.54-10.28-4.28-20.71-2.88-31.7,1.51,3,3,6.06,5.11,10.24,1.6-5,3-8.87,4-12.79,1.14-4.13,1.11-8.93,3.32-12.31a10.89,10.89,0,0,0,1.51-8.47,150.6,150.6,0,0,0-4.18-17.76c-2.41-8.08-5-16.12-8-24-1.59-4.14-4.41-7.79-6.39-11.8C88.81,317,86.3,311.55,84.06,306c-.81-2-.67-4.41-1-6.63L84,299c2.67,2.67,5.28,5.41,8,8,3.4,3.16,6.89,6.23,10.42,9.25,3.33,2.84,7.1,3.14,11.17,1.75a110.82,110.82,0,0,0,29.73-15.86c9.32-6.82,16.14-15.76,21.79-25.57,4.62-8,7.13-16.82,6-26.25-.52-4.57-2.59-8.09-7.36-9.67a34.82,34.82,0,0,0-11.67-2c-9.61.15-19.2,0-28.73,1.95-6.61,1.36-9.73-1.42-10.27-7.94C113.23,232.27,113.27,232,113.33,231.68Z"/><path class="cls-6" d="M203.27,241.64c-2.84-.57-2.31-2.43-1.25-4,1.9-2.81,4.09-5.42,6.16-8.11.56-.34,1.12-.66,1.66-1L225,218.26c11.69-5.52,23.78-9,36.92-7.72,7.55.75,14.65,2.36,20.16,8.19a69.54,69.54,0,0,0,6.06,5.13c.16,1.14,0,2.5.54,3.39,4.7,7.41,9.35,15,15.84,20.94,4.6,4.22,10.07,7.48,15.12,11.2.9.67,2.06,1.38,2.4,2.32,2.38,6.56-.38,11.22-7.45,13-2.05.51-4.07,1.11-6.1,1.68a42.51,42.51,0,0,0,11,2.15c2.36.13,3.53,1.41,3.62,3.28a58,58,0,0,1-.27,11.42,13.66,13.66,0,0,1-7.79,10.4c-8.52,4.1-17.82,5.12-27.1,4.79a97.44,97.44,0,0,1-18.53-2.88c-11.46-2.68-22.67-6.17-32.71-12.68a98.53,98.53,0,0,1-29.77-30.25c-3.08-4.85-6.06-9.9-6.62-15.87l18-6.6,0-.47Z"/><path class="cls-7" d="M444.32,227.55c2.11,2.94,4.28,5.83,6.29,8.84,1.17,1.74,1,3.08-1.54,3.33a47.4,47.4,0,0,0-4.83,1h-6.38l-.11.49L453.14,247a15.21,15.21,0,0,1-.3,2.44c-2.18,7.08-6.22,13.17-10.52,19.06-8.62,11.79-18.81,22-32.25,28.12a162.49,162.49,0,0,1-24.73,8.75,89.33,89.33,0,0,1-21,3.1,63.8,63.8,0,0,1-22.88-3.5,15.43,15.43,0,0,1-9.66-9.29c-1.74-4.24-1.88-8.75-1.49-13.22.31-3.57,1.86-4.73,5.63-4.77,3.2,0,6.41,0,9.62,0l.12-1c-.84-.33-1.65-.71-2.51-1-2.2-.66-4.45-1.18-6.63-1.91-3.05-1-5-3-5.33-6.44-.32-3.79.6-6.61,4.11-8.79,7.61-4.73,14.8-10,20.08-17.49,3.7-5.25,8.12-10,9.78-16.48,2.93-2.69,5.95-5.28,8.76-8.09s6.09-4,9.67-4.73A60.4,60.4,0,0,1,420.22,215c4.11,1.72,8.29,3.29,12.43,4.93A32.76,32.76,0,0,0,444.32,227.55Z"/><path class="cls-8" d="M365.2,224.54c-1.66,6.44-6.08,11.23-9.78,16.48-5.28,7.48-12.47,12.76-20.08,17.49-3.51,2.18-4.43,5-4.11,8.79.29,3.48,2.28,5.41,5.33,6.44,2.18.73,4.43,1.25,6.63,1.91.86.25,1.67.63,2.51,1l-.12,1c-3.21,0-6.42,0-9.62,0-3.77,0-5.32,1.2-5.63,4.77-.39,4.47-.25,9,1.49,13.22a15.43,15.43,0,0,0,9.66,9.29,63.8,63.8,0,0,0,22.88,3.5,89.33,89.33,0,0,0,21-3.1,162.49,162.49,0,0,0,24.73-8.75c13.44-6.11,23.63-16.33,32.25-28.12,4.3-5.89,8.34-12,10.52-19.06a15.21,15.21,0,0,0,.3-2.44c8.47,3.31,8.85,4.57,4.28,12.62a185.92,185.92,0,0,1-25.7,34.76,64.86,64.86,0,0,1-34.14,19.29c-21.6,4.86-43.06,4.81-64.3-2-4.34-4.05-8.69-3.34-13,0-15.65,5.65-31.92,6.09-48.17,4.84-14.66-1.13-28.85-4.66-40.89-13.86A108.06,108.06,0,0,1,209.53,280c-5.07-7-9.58-14.36-14.32-21.57a12.87,12.87,0,0,1-1-1.74c-2.13-4.56-1.15-7.9,3.26-9,.95-.24,1.88-.57,2.81-.86.56,6,3.54,11,6.62,15.87a98.53,98.53,0,0,0,29.77,30.25c10,6.51,21.25,10,32.71,12.68a97.44,97.44,0,0,0,18.53,2.88c9.28.33,18.58-.69,27.1-4.79a13.66,13.66,0,0,0,7.79-10.4,58,58,0,0,0,.27-11.42c-.09-1.87-1.26-3.15-3.62-3.28a42.51,42.51,0,0,1-11-2.15c2-.57,4.05-1.17,6.1-1.68,7.07-1.77,9.83-6.43,7.45-13-.34-.94-1.5-1.65-2.4-2.32-5.05-3.72-10.52-7-15.12-11.2-6.49-6-11.14-13.53-15.84-20.94-.56-.89-.38-2.25-.54-3.39,2.14,1.54,4.26,3.11,6.43,4.61,6,4.14,11.79,9,19.3,10a107.38,107.38,0,0,0,19.37,1,38.15,38.15,0,0,0,21.7-7.79C358.25,229.09,361.78,226.89,365.2,224.54Z"/><path class="cls-9" d="M222.15,604.52c3-.63,6.15-1,9.11-1.94,4.06-1.24,7.1.1,9.57,3.16s2.17,6.37.58,9.31c-2.18,4.05-5,7.71-7.64,11.53-.33.5-.71,1-1.47,2,5.12-1.14,8.6-4,12-6.67a44,44,0,0,0,8.39-8.47c5.36-7.56,12.47-11.06,21.6-10.81,1,0,2,0,3,0l1.91,6c-3.75,1.06-7.55,2-11.24,3.22-3,1-3.23,2-1.6,4.83,3.16,5.44,7.28,9.49,13.77,11.08,4.72,1.16,8.27.11,11.36-3.37,2,2.4.59,4.38-.91,6.19-3.23,3.89-9.33,5.17-14.11,3.17-5.4-2.25-9.44-6.11-12.85-10.73-.83-1.11-1.71-2.18-3-3.8a11,11,0,0,0-.2,2.32c1.43,6.28,1.39,6.19-4,9.11a56.73,56.73,0,0,0-9.28,5.81c-7.89,6.55-17.17,9.06-27.06,10.11-.49,0-1,0-1.49.08-4.73.44-8.81,1.86-12,5.88-3.44,4.37-7.84,7.72-13.59,8.6a12.6,12.6,0,0,1-10.63-3c-1.16-1-2.94-2.5-1.09-4.52,8.3,2.18,16.1,2,22.35-4.94,4.62-5.09,9.68-9.17,16.49-11.32,6.19-1.95,6.43-5.86,1.31-10-.39-.31-.84-.53-1.25-.81-5.08-3.54-11.09-4.5-16.9-4.78-8-.38-16.23-1.24-24.13,1.62-1.18.43-2.63.14-3.95.19,2.19-2,4.41-4,6.58-6,4.62-4.33,9.24-8.64,13.79-13,1.39-1.35,2.73-2.52,4.8-1.75C207.5,605.46,214.85,604.7,222.15,604.52Z"/><path class="cls-10" d="M530.19,458.58c12,1.5,19,9,20.16,19.63.43,4.08.63,8.21,1.39,12.23,1.22,6.44,4.79,11.86,8.21,17.32,1.2,1.93,2.27,4,3.41,5.94.31,1.31.62,2.63.94,3.94-4.46,4.65-10.53,5-16.31,5.91-8.42,1.27-17,1.65-25.32,3.36a16.74,16.74,0,0,1-12.62-2.15c-1.66-2.32-1-4.79-.21-7.11,1.6-4.87,3.45-9.66,5.16-14.5a9.31,9.31,0,0,1,6.12-6c2.35-.79,4.71-1.57,7-2.48,2.69-1.05,3.67.24,4.7,2.59s0,3.24-1.83,4.13a20.79,20.79,0,0,0-8.85,7.34l19.33-6.79c-1.46-2.59-3.49-5.42-4.72-8.55s-1.55-6.33-3-9.48c-.19.58-.38,1.16-.58,1.74-1.38.13-2.75.28-4.13.39-2.08.15-4.7-.48-6.15.55-6.11,4.29-13.74,6.63-17.87,13.84-.6-1.5-1.05-2.64-1.5-3.78-2.94-6.7-.64-11.58,4.94-15.81s10.09-10,13.81-16.11C524.09,461.64,526.38,459.11,530.19,458.58Z"/><path class="cls-9" d="M376.27,606.64c7.36-6.53,19.54-1.84,24.75,5.5a56.18,56.18,0,0,0,16.83,15.25,30.38,30.38,0,0,0,4.65,1.71c-2.65-3.35-4.69-5.63-6.37-8.15a35.22,35.22,0,0,1-3.93-7.36c-2.13-5.86,2.34-11.46,8.58-10.92,2.13.18,4.22.69,6.33,1.06a15.23,15.23,0,0,0,3.22.82c7.76.18,15.57,1,23.11-1.8,2.22-.82,3.73.43,5.22,1.92Q465,611,471.44,617.22c2.25,2.17,4.62,4.23,6.94,6.33-3.56-.64-7.12-1.79-10.68-1.8-7.61,0-15.24.38-22.83.93a20.84,20.84,0,0,0-11.78,4.77c-4.36,3.58-4.24,7.94.62,9.7,6.7,2.41,11.57,6.92,16.39,11.78,6.58,6.66,14.59,6.93,23,4.67.63,3-1,4.75-3.39,5.93a14.76,14.76,0,0,1-14.28-.31A31.54,31.54,0,0,1,447,652.5c-3.27-3.88-7.27-5.46-12-5.79a51.69,51.69,0,0,1-28.06-10.12c-4.6-3.43-9.87-6-15.13-9.1.77-2.36,1.72-5.23,2.66-8.11l-.88-.46c-1.15,1.34-2.2,2.8-3.47,4-3.58,3.41-6.89,7.28-11,9.94-5.69,3.72-12.35,2.07-16.4-3.12-1.29-1.64-2.3-3.34-.57-5.31a8.7,8.7,0,0,0,9.6,3.88c7.18-1.75,13-5.38,16.54-12.14,1.31-2.5,1.08-3.46-1.63-4.29-3.76-1.15-7.55-2.17-11.33-3.25Z"/><path class="cls-11" d="M90.53,514.8c2.11-4.06,4-8.23,6.38-12.15,2.93-4.88,5.58-9.68,5.48-15.67a47.24,47.24,0,0,1,1.2-9.8c2-10.4,9.23-16.87,20.9-17.76a8.4,8.4,0,0,1,5.83,4.28,71.39,71.39,0,0,0,17,19.41c.64.52,1.15,1.21,1.8,1.72,2.72,2.16,3.3,4.81,2,8-.38.92-.66,1.88-1,2.82l-1.56,2.63c-1-.57-2-1.12-2.93-1.72-4.77-3-9.45-6.06-14.32-8.85-3.48-2-7.07-2.41-10.13,1-.48-1.45-1-2.9-1.68-5-.85,3.79-1.18,7.13-2.38,10.12s-3.21,5.43-4.92,8.19L131.62,509c-2.35-4.64-7.28-6.17-11.12-9.09.36-1.18.67-2.28,1-3.37a2.5,2.5,0,0,1,3.5-1.8c3.16,1,6.35,2,9.4,3.29a6.28,6.28,0,0,1,3.22,2.92q3.59,8.73,6.6,17.7c.49,1.46,0,3.27-.08,4.92-2.93,2.14-5.88,4.09-9.83,3.58-7.15-.92-14.31-1.68-21.46-2.55-5.36-.66-10.74-1.2-16.06-2.14-3.2-.56-5.74-2.38-6.55-5.87Z"/><path class="cls-10" d="M113.33,231.68c-.06.3-.1.59-.13.89-2.18-.09-2.34-1.87-2.78-3.38-.36-1.19-.65-2.39-1-3.59a138.48,138.48,0,0,1-2.1-43.17c1.77-15.68,8.5-29.25,18.17-41.5,8-10.06,17.18-18.53,29.15-23.64a11.46,11.46,0,0,0,1.82-1.33l-3.23-3.7c15.43-4.5,30.87-5.16,46.64-4.48l-.4,2.89c.38.08.78.28.92.17,3-2.36,6.12-4.59,8.91-7.17a146.59,146.59,0,0,1,42-27.46c2.41-1,4.74-2.26,8-3.8l-2.14,8.19c-.88,3.54-3.41,5-6.71,6.2-14.27,5.22-27,13.32-39.53,21.73-1.93,1.29-3.83,2.63-5.82,3.81-3.13,1.85-5.58,3.88-10.27,2.61-6.93-1.87-14.15.39-20.73,3.35a127.47,127.47,0,0,0-27.62,17.49c-16.18,13-24.36,30.49-29.26,50C113.42,200.92,112.83,216.24,113.33,231.68Z"/><path class="cls-12" d="M544.11,227.6c-.78,1.29-1.76,3.77-2.3,3.67-2.62-.46-1.39-2.88-1.45-4.46-.18-4.66.08-9.34-.13-14-.79-17.5-4-34.48-12-50.23-4.41-8.6-9.5-16.76-16.79-23.28-6.31-5.64-12.92-10.9-20.49-14.79-4.71-2.42-9.39-4.92-14.23-7.07-5.7-2.53-12-3.88-17.93-2.54-3.94.88-6.3-.19-9.17-2-7.8-5-15.48-10.31-23.61-14.75-9-4.92-18.44-9-27.69-13.5l-1-1c-.73-3.18-1.46-6.37-2.47-10.73,8.15,4,15.47,7.36,22.51,11.21C428.23,90,437.82,97.72,447,106c1.94,1.75,4.08,3.26,6.67,5.31,0-2.71.55-3.72,3-3.77a162.69,162.69,0,0,1,44.43,4.79L496.17,116a35.74,35.74,0,0,0,3.3,1.87c10.16,4.05,18.12,11,25.26,19.05C537,150.66,545,166.48,546.94,184.94c1.13,10.46.4,20.94-1.12,31.35C545.27,220.06,544.68,223.83,544.11,227.6Z"/><path class="cls-13" d="M510.05,524.76a16.74,16.74,0,0,0,12.62,2.15c8.32-1.71,16.9-2.09,25.32-3.36,5.78-.87,11.85-1.26,16.31-5.91.6,1.5,1.58,3,1.71,4.49.18,2.24-1,4.9-.2,6.69s3.48,2.62,5.33,3.87c4.16,3.93,6.74,8.31,4.34,14.27-.1.25,1.1,1,1.69,1.56,3.47,1.72,5.79,4.3,6.26,8.27-2.29,3.37-6.09,3.41-9.4,3.62-10.28.67-20.59,1-30.89,1.21-5.48.12-6.74-.76-10.54-5.81l33.18-4.57V550c-2.18,0-4.36-.2-6.52-.08-9.12.51-18.23,1.25-27.35,1.62-5.19.21-8.67-2.44-10.27-7.06-1-2.84-.58-3.44,2.35-3.89,10.45-1.62,20.9-3.27,31.31-5.67-4.08,0-8.17-.2-12.24,0-6.78.41-13.55,1.07-20.33,1.67-4.34.38-7.36-1.65-9.43-5.22C512.06,529.28,511.12,527,510.05,524.76Z"/><path class="cls-14" d="M90.26,516.63c.81,3.49,3.35,5.31,6.55,5.87,5.32.94,10.7,1.48,16.06,2.14,7.15.87,14.31,1.63,21.46,2.55,3.95.51,6.9-1.44,9.83-3.58-1.93,3.42-3.67,6.95-5.84,10.21a6.8,6.8,0,0,1-6.55,2.83q-10.91-.84-21.82-1.57a48.08,48.08,0,0,0-12,.39c3.14.66,6.27,1.48,9.44,2,7.52,1.16,15.05,2.25,22.6,3.17,2,.24,2.52,1.1,2.32,2.89a9.66,9.66,0,0,1-9,8c-4.29.24-8.63-.15-12.94-.31-7.44-.26-14.88-.56-22.32-.85L88,551.4,120.74,556c-2,3.71-4.93,5.63-9.12,5.73a175.46,175.46,0,0,1-34.72-2.18,34.79,34.79,0,0,1-5.6-1.95,7,7,0,0,1,4.11-8.23c2.77-1.24,3.19-2.82,2.87-5.29a10.23,10.23,0,0,1,3.83-9.73c.63-.52,1.06-1.29,1.69-1.82,1.42-1.21,2.91-2.34,4.82-3.85C88.59,525.14,87.27,520.61,90.26,516.63Z"/><path class="cls-15" d="M473.14,653.6c-8.45,2.26-16.46,2-23-4.67-4.82-4.86-9.69-9.37-16.39-11.78-4.86-1.76-5-6.12-.62-9.7a20.84,20.84,0,0,1,11.78-4.77c7.59-.55,15.22-1,22.83-.93,3.56,0,7.12,1.16,10.68,1.8,5.5,3.72,11.06,7.38,16.49,11.2a58.86,58.86,0,0,1,6.87,5.74c1.34,1.3,2.33,3,0,4.65-2.09-2-4-4.27-6.32-6.08s-4.88-3.17-7.33-4.74l-.76.93c1.59,1.47,3.18,2.94,4.79,4.4a36.58,36.58,0,0,1,3.34,3c3.14,3.65,2.38,6.59-2.43,8.86-3-9.42-11.36-13.08-19.31-17.39.87,1,1.71,2,2.62,2.89s2.18,2.06,3.27,3.08c2.19,2,4.48,4,6.53,6.17,2.42,2.55,2.59,4.43,1,6.65-1.41,2-5.64,3.55-7.6,2.66-.57-.26-.83-1.22-1.21-1.87-1-1.7-1.58-3.81-3-5-5.42-4.84-11.09-9.41-16.67-14.09l-1,1c3.77,4.22,7.58,8.39,11.3,12.66C470.49,649.88,471.77,651.78,473.14,653.6Z"/><path class="cls-16" d="M175.25,623.62c1.32,0,2.77.24,3.95-.19,7.9-2.86,16.1-2,24.13-1.62,5.81.28,11.82,1.24,16.9,4.78.41.28.86.5,1.25.81,5.12,4.13,4.88,8-1.31,10-6.81,2.15-11.87,6.23-16.49,11.32-6.25,6.89-14.05,7.12-22.35,4.94,2.75-3.65,5.41-7.38,8.29-10.93,2-2.5,4.37-4.76,6.25-7.47-6.4,4.22-12.57,8.67-17.83,14.26-2.41,0-4.82.07-7.23.13-2,0-3.48-.6-3.5-2.95l10.32-11.34c-3.91.46-12.27,7.69-17.16,15.88-4.69-2.64-5.23-4.48-2-8.33a56.62,56.62,0,0,1,5.9-5.34,33.58,33.58,0,0,0,4.4-4.44,37,37,0,0,0-16.46,11.75c-1.61-1.82-1.41-3.28,0-4.53a74.27,74.27,0,0,1,6.52-5.39C164.25,631.1,169.77,627.39,175.25,623.62Z"/><path class="cls-17" d="M90.26,516.63c-3,4-1.67,8.51-1.64,12-1.91,1.51-3.4,2.64-4.82,3.85-.63.53-1.06,1.3-1.69,1.82a10.23,10.23,0,0,0-3.83,9.73c.32,2.47-.1,4.05-2.87,5.29a7,7,0,0,0-4.11,8.23c-2.4,0-3.49-1.71-4.37-3.53-4.26-8.78-9.1-17.35-12.54-26.44-5.49-14.49-10-29.34-15-44,2.29,4.54,4.69,9,6.84,13.62,4.61,9.88,9.08,19.83,13.67,29.73a17.55,17.55,0,0,0,2,2.73c2.16-2.75,2.16-2.75,2.65-8.41,1.66.86,3.11.94,3.48-1.32.21-1.3.12-2.64.26-4,.19-1.81-1.1-4.77,3-3.78.36.09,1.69-2.22,1.9-3.53a48.21,48.21,0,0,0,.09-7,12.08,12.08,0,0,0,3,1.32,3.27,3.27,0,0,0,2.5-.54c1.08-1.22,1.68-2.86,2.72-4.12a44.77,44.77,0,0,1,4.37-4.45c1.21-1.12,2.68-2,3.83-3.12,2.11-2.12,3.22-4.47,2-7.63a65.82,65.82,0,0,1-2-7.57c3.94,2.52,7.18,10.21,7,15.56-.16,5.5-2.75,9.77-6.1,13.75-1.17,1.4-2.59,2.58-3.79,4-2.8,3.23-2.78,3.27.08,7.43a16.06,16.06,0,0,1,2-2.57c1.6-1.32,1.31.46,1.67,1.14Z"/><path class="cls-18" d="M583.43,556.79c-.47-4-2.79-6.55-6.26-8.27a29.47,29.47,0,0,0,1.35-2.62,10.64,10.64,0,0,0-6.29-14c-.24-.09-.72.51-1.09.78-1.85-1.25-4.51-2.13-5.33-3.87s.38-4.45.2-6.69c-.13-1.53-1.11-3-1.71-4.49-.32-1.31-.63-2.63-.94-3.94,1.51-.05,3.61,1.06,4.19-1.12.31-1.17-.36-2.84-1.06-4-2.39-3.95-5.4-7.57-7.44-11.68-3.52-7.12-2.57-15.06,3.8-20.67q-.3,4.86-.59,9.73c-.21,3.77,1.28,6.46,5,7.56a9.27,9.27,0,0,1,6,5.54c2.07,4.61,2,4.62,6.51,3,.46,2.9.82,5.83,1.42,8.7.55,2.62.67,2.6,4.08,2.74,0,1.3,0,2.61,0,3.92.17,4,.73,4.38,4.75,2.89,1.17,3.17-2.86,7.33,2.27,10.08,1-1.89,2-3.74,2.84-5.66q8.49-18.79,16.94-37.6a8.46,8.46,0,0,1,1.18-1.53c-2.31,8.06-4.36,16.21-7,24.17A248.27,248.27,0,0,1,590,549.13C588.39,552.07,587.32,555.72,583.43,556.79Z"/><path class="cls-19" d="M383.21,78.57c-.85.31-1.86,1.24-2-.7-.29-4.45-.81-8.89-.93-13.34C380,52.48,374.77,42.66,367,33.79c-5.62-6.43-11.73-12.09-19.62-15.62-16-7.15-31.54-6.55-46.35,3.08-10.89,7.09-19.63,16.31-24.7,28.43-1.68,4-2.31,8.58-3,13C272.45,68,272,73.39,270.7,78.82a34.57,34.57,0,0,1-1.24-4.27,29,29,0,0,1-.17-4.48q0-7.23-.05-14.47A77.27,77.27,0,0,1,300.46,13C318.3.88,345.38,4,361,18.94c8.11,7.81,15,16.53,19.74,26.77,1.72,3.72,2.54,7.86,3.77,11.81Q383.85,68,383.21,78.57Z"/><path class="cls-20" d="M599.29,284.61c-.85-.38-2.12-.52-2.49-1.18-3.58-6.31-7.36-12.55-10.41-19.12-4.87-10.49-9.45-21.13-16.56-30.35A72.67,72.67,0,0,0,553,218a30.46,30.46,0,0,1-2.93-2.54c.77-3.53,1.54-7.06,2.45-11.28A139.09,139.09,0,0,1,568,218.94c8.35,9.3,13.63,20.35,18.11,31.86Z"/><path class="cls-21" d="M103.29,214.6c-.71,1-1.21,2.32-2.16,3a83.34,83.34,0,0,0-26.33,31c-2.79,5.6-4.92,11.53-7.74,17.12-2.89,5.74-6.21,11.27-9.46,16.82-.4.7-1.05,2.48-2.52.87q7.59-19.47,15.18-39c6.24-16.12,17.1-28.68,30.93-40.05C102,208.11,102.62,211.36,103.29,214.6Z"/><path class="cls-22" d="M195.26,394.63l.76,1.1c-3.78,2.06-7.68,3.93-11.32,6.23-10.92,6.91-20.17,15.58-27,26.64-4.22,6.8-7.87,13.81-8.44,22a3.53,3.53,0,0,1-.83,2.24c-2.83,2.48-5.77,4.84-8.7,7.2a6.77,6.77,0,0,1-.67-.65,48.92,48.92,0,0,0,6.68-18c2-11.64,8.93-20.52,17.57-28.12A98.6,98.6,0,0,1,195.26,394.63Z"/><path class="cls-23" d="M516.17,463.57c-3.2-3.05-6.47-6.05-9.57-9.21a5.53,5.53,0,0,1-1.3-3.06c-1.34-11.41-6.59-20.95-13.61-29.82-8.3-10.48-18.84-18-30.47-24.23-2-1.09-4.2-1.9-6.29-2.86-.06,0-.05-.33,0-.46s.24-.23.37-.33c17.86,6.19,33.76,15.28,45.4,30.69a44.24,44.24,0,0,1,8.26,19.5,49,49,0,0,0,5.5,14.8A32.1,32.1,0,0,1,516.17,463.57Z"/><path class="cls-16" d="M375.28,608.64c3.78,1.08,7.57,2.1,11.33,3.25,2.71.83,2.94,1.79,1.63,4.29-3.55,6.76-9.36,10.39-16.54,12.14a8.7,8.7,0,0,1-9.6-3.88Z"/><path class="cls-24" d="M291.46,624.44c-3.09,3.48-6.64,4.53-11.36,3.37-6.49-1.59-10.61-5.64-13.77-11.08-1.63-2.82-1.36-3.83,1.6-4.83,3.69-1.24,7.49-2.16,11.24-3.22,3,3.68,5.94,7.35,8.87,11.06C289.24,621.26,290.32,622.87,291.46,624.44Z"/><path class="cls-18" d="M16.22,337.58A147.62,147.62,0,0,0,29.14,393.9l-.9.42c-3-4.84-6.28-9.52-8.83-14.58-3.34-6.63-6.05-13.59-9.13-20.36-.33-.72-1.29-1.15-2-1.71A80.29,80.29,0,0,1,16.22,337.58Z"/><path class="cls-25" d="M645.11,354.78a24.4,24.4,0,0,0-1.83,3.92c-3.41,12.65-10.1,23.63-17.79,34.24.44-1.46.79-2.95,1.34-4.36,4.45-11.43,8.25-23,9.5-35.31.54-5.24,1.32-10.46,2-15.69Q641.73,346.18,645.11,354.78Z"/><path class="cls-26" d="M383.21,78.57q.63-10.53,1.27-21c3.25,7.38,6.47,14.77,9.76,22.13.66,1.5,1.52,2.91,2.31,4.34,0,.06.33,0,.46,0s.22-.24.33-.37l1,1-1,5-8.68-1.17-2.36-4.53-.76.36-.3,2.38C384.52,84,383.86,81.27,383.21,78.57Z"/><path class="cls-27" d="M503.49,496.61c.45,1.14.9,2.28,1.5,3.78,4.13-7.21,11.76-9.55,17.87-13.84,1.45-1,4.07-.4,6.15-.55,1.38-.11,2.75-.26,4.13-.39.45,2.1-.58,2.83-2.51,3.41-4.27,1.29-8.44,2.91-12.64,4.41a13.3,13.3,0,0,0-8.58,9c-.7,2.2-1.65,4.31-2.53,6.58-2.87-.53-3.85-2.24-3.68-4.92C503.36,501.59,503.4,499.1,503.49,496.61Z"/><path class="cls-28" d="M121.18,488.71c3.06-3.44,6.65-3,10.13-1,4.87,2.79,9.55,5.89,14.32,8.85,1,.6,2,1.15,2.93,1.72l1.56-2.63c.24,2.79.3,5.62.77,8.38s-1.46,3.79-3.46,5.88a34.38,34.38,0,0,1-2.1-4.56c-2.15-7.63-7.36-11.88-14.82-13.82C127.37,490.68,124.29,489.65,121.18,488.71Z"/><path class="cls-29" d="M167.31,646.69c0,2.35,1.46,3,3.5,2.95,2.41-.06,4.82-.09,7.23-.13-.46.87-1,1.72-1.39,2.6-1.89,4-3.39,4.55-7.13,2.72C165.46,652.85,165,651,167.31,646.69Z"/><path class="cls-8" d="M372.36,337.5c-.14-1.15-.28-2.29-.5-4.13,3.87.37,7.6.76,11.33,1.09,1.49.13,3,.17,4.49.17,9.17,0,18.33,0,27.5,0,5,0,7.06,2.91,5.61,7.82a18,18,0,0,1-6.76,9.59c-12.95,9.28-22.49,21.41-30.56,34.94-4.23,7.11-8.68,14.13-15.92,18.8-11.44,7.38-23.81,9.47-37.13,7.08a22.19,22.19,0,0,0-7.45,0,54.78,54.78,0,0,1-24.1-1c-12-3.39-20.33-11.13-26.79-21.56-5.48-8.85-11.42-17.44-17.66-25.77-2.41-3.23-6.38-5.24-9.35-8.1-3.69-3.56-7.5-7.12-10.49-11.24-3.73-5.16-.7-10.6,5.55-10.55,3.46,0,6.91.52,10.37.8a6.71,6.71,0,0,0,1,.08c7.11-.42,14.22-.83,21.33-1.3,2-.13,3.95-.34,5.9-.65,2.42-.38,3.75.77,4.48,2.91-1.32.7-2.66,1.35-3.95,2.1-4.3,2.51-8.68,4.91-12.85,7.62-4.56,3-5,5-2.57,9.55a78.18,78.18,0,0,0,4.44,7.2,34.31,34.31,0,0,1,5.15,12.77,103.25,103.25,0,0,0,5,16.58A23.37,23.37,0,0,0,287,403.58c-1.21-2.34-2.41-4.68-3.62-7a35.56,35.56,0,0,1,4.31,2.06c7.7,5,15.4,9.72,25.19,9.06,7.43-.51,10.38-3,11.41-10.25.07-.49.19-1,.3-1.46a33.69,33.69,0,0,0-.38-15.72c-.66-2.69-2.43-4-5.1-3.59-2.44.35-4.8,1.19-7.23,1.58-5.19.82-10.45,2.3-15.6,2-5.95-.34-11.8-2.29-17.82-3.57l-.34,2.07q-.93-5.56-1.87-11.13c3.24,1.61,6.37,3.53,9.76,4.74,2.75,1,5.83,1,8.72,1.59,9.37,2,18-.64,26.38-4.31a4.7,4.7,0,0,0,3.14-4.62c-.05-7,.2-14-.08-20.94-.24-6.27-5.47-10.12-11.6-8.65-4.62,1.12-9.16,2.62-13.66,4.18-8.26,2.88-16.48,5.9-24.7,8.9-2.46.9-5.11,1.7-5,5.14-1.93-2.56-1.34-4.57,1.3-6.18,2.12-1.3,4.17-2.73,6.35-3.93,16.54-9.13,34.07-14.78,53.17-13.86,6.39.31,12.77,1.74,19.08,3a87.39,87.39,0,0,1,33.53,14.51c2.65,1.85,3.46,3.83,1.78,6.66.12-3.06-1.69-4.46-4.38-5.14-1.11-.28-2.24-.51-3.32-.9-11.22-4-22.4-8.17-33.65-12.09-7.75-2.7-13.81,1.89-13.86,10.29,0,5.17,0,10.33,0,15.5,0,5.35,2,8.33,7.09,10,9.59,3.12,19.35,4.54,29.23,1.46,3.93-1.22,7.71-2.91,11.55-4.38l-1.77,11.17c-.06-2.48-.62-3.49-3.6-2.47a50.19,50.19,0,0,1-11.55,2.28,60.9,60.9,0,0,1-24.46-2.91c-3.91-1.27-5.7.71-6.59,4.72-1.25,5.66-.09,11.16.14,16.72.21,4.9,4.84,9.21,9.83,9.55,8.25.57,15.61-2.19,22.66-6.05,2.87-1.57,5.65-3.3,8.47-5-1,2.13-1.93,4.27-2.9,6.4a11.6,11.6,0,0,0,4.1-3.69,47.32,47.32,0,0,0,8.52-22c1-7.3,4.23-13.12,8.65-18.63,1.45-1.81,2.69-3.78,4-5.7,1.17-1.71.86-3-1-4.1C385.19,345.12,378.78,341.3,372.36,337.5Z"/><path class="cls-30" d="M276.29,367.63q.93,5.56,1.87,11.13a45.11,45.11,0,0,0,5.26,17.81c1.21,2.33,2.41,4.67,3.62,7a23.37,23.37,0,0,1-8.58-11.21,103.25,103.25,0,0,1-5-16.58A34.31,34.31,0,0,0,268.27,363a78.18,78.18,0,0,1-4.44-7.2c-2.46-4.59-2-6.57,2.57-9.55,4.17-2.71,8.55-5.11,12.85-7.62,1.29-.75,2.63-1.4,3.95-2.1,5-1.8,10-3.48,14.87-5.42,11.76-4.68,24-6.85,36.5-5.29,7.94,1,15.68,3.86,23.41,6.22,4.89,1.49,9.59,3.61,14.38,5.44,6.42,3.8,12.83,7.62,19.28,11.37,1.84,1.08,2.15,2.39,1,4.1-1.31,1.92-2.55,3.89-4,5.7-4.42,5.51-7.69,11.33-8.65,18.63a47.32,47.32,0,0,1-8.52,22,11.6,11.6,0,0,1-4.1,3.69c1-2.13,1.93-4.27,2.9-6.4,3.17-5.18,4.41-10.95,5.1-16.88l1.77-11.17,7.34-14.73c1.68-2.83.87-4.81-1.78-6.66a87.39,87.39,0,0,0-33.53-14.51c-6.31-1.25-12.69-2.68-19.08-3-19.1-.92-36.63,4.73-53.17,13.86-2.18,1.2-4.23,2.63-6.35,3.93-2.64,1.61-3.23,3.62-1.3,6.18Z"/><path class="cls-31" d="M434,332.27c2.3-4.95,6.9-8.75,7.25-15.39l-8.45,3.77,15.81-17.75c.72,2.69.68,3.31-1.47,6.84-1.76,2.86-3.22,5.42-3.45,9.22C443.37,324.85,439.25,329.24,434,332.27Z"/><path class="cls-32" d="M221.17,332.47c-6.92-2.55-11.66-8.9-12-15-.11-2.06-1-4.08-1.55-6.13-.61-2.31-1.2-4.63-1.79-6.95l.95-.35c2.17,3,4.09,6.27,6.59,9s5.47,4.77,7.91,7.85l-9.7-4.63C212.55,322.75,216.88,327.14,221.17,332.47Z"/><path class="cls-33" d="M472.89,526c9.53,6,19.63,8.46,31.13,5.59C496.76,539.07,482.5,539.27,472.89,526Z"/><path class="cls-34" d="M180.29,525.73C174,537.05,159.1,540.6,149.84,532,161,535.82,170.63,532.07,180.29,525.73Z"/><path class="cls-35" d="M385.17,86.67l.3-2.38.76-.36,2.36,4.53,8.68,1.17c4.71,5.12,8.71,10.61,9.13,17.92-1.35,4.57-2.5,9.21-4.13,13.68a6.51,6.51,0,0,0,0,5.62,105.87,105.87,0,0,1,8.76,29.35,35.51,35.51,0,0,1-4.82,24.4l-20.7,26.93c3.22,0,6.31-.05,9.41,0,13.84.25,26.19,5.06,37.71,12.38-4.14-1.64-8.32-3.21-12.43-4.93a60.4,60.4,0,0,0-36.59-3.26c-3.58.76-6.95,2-9.67,4.73s-5.83,5.4-8.76,8.09c-3.42,2.35-6.95,4.55-10.22,7.09a38.15,38.15,0,0,1-21.7,7.79,107.38,107.38,0,0,1-19.37-1c-7.51-1-13.28-5.83-19.3-10-2.17-1.5-4.29-3.07-6.43-4.61a69.54,69.54,0,0,1-6.06-5.13c-5.51-5.83-12.61-7.44-20.16-8.19-13.14-1.31-25.23,2.2-36.92,7.72.61-.76,1.06-1.83,1.84-2.21,10.2-5,20.77-8.71,32.35-8.55,3.11,0,6.23,0,9,0l-20.91-26.89c-5.41-9.41-6.37-19.42-3.59-29.74,2.1-7.8,4.54-15.52,7.1-23.18,1.07-3.18,0-5.82-.85-8.67-1-3.47-1.88-7-2.82-10.48-.15-7.09,2.84-12.83,7.8-17.61,1.68-1.62,3.8-3,6.28-2.28,2.65.76,4,0,4.48-2.64.14-.74.78-1.39,2.17-1.92-.31,3.06-.5,6.14-1,9.18-1.65,10.54-5.22,20.48-9.57,30.19a117.41,117.41,0,0,0-9.72,34.25c-1.1,9.27,1.68,17.68,7.62,25a7.27,7.27,0,0,0,.62,1.86c8.84,13,20.2,23.72,32.1,33.87a21.88,21.88,0,0,0,3.4,1.86c-1.94-3.75-3.62-6.79-5.11-9.92-3.56-7.47-4-14.93.29-22.34,1-1.72,1.67-3.65,2.77-5.29,2.62-3.92,2.1-7.69.21-11.75-2.83-6.12-7.13-11.11-11.46-16.15s-8.43-10.49-7.66-17.71c.66-6.21,1.85-12.36,2.81-18.53,4.39-7.19,9.93-12.53,19.17-11.79,2.64.21,5.27.57,7.9.86,3.46.88,6.93,1.71,10.37,2.63,11.22,3,22.49,3.52,33.69.15a67.87,67.87,0,0,1,23-2.87c5.83.94,9,5.44,12.55,9.42a31.64,31.64,0,0,1,2.44,3.64c0,3.48-.71,7.18.21,10.42,2.53,9-.44,16.1-5.93,22.92-3.93,4.87-8.34,9.34-11.19,15.12-2.76,5.63-3.79,10.8.19,16.15a3,3,0,0,1,.25.43c5.58,10.08,4.39,20-.79,29.79-.62,1.18-1.1,2.43-1.65,3.65l.89.56c4.52-4,9.19-8,13.54-12.21a156.33,156.33,0,0,0,11.12-12c3.35-4.06,6.28-8.48,9.39-12.73,7.9-9.8,9.06-20.86,6.55-32.8-2.67-12.71-7.5-24.62-12.61-36.47C388.56,104.87,386.54,95.85,385.17,86.67Zm-123,12.92a12,12,0,0,0,.91-3.31,19.64,19.64,0,0,0-.86-4c-1.46.43-3.48.4-4.26,1.37a38,38,0,0,0-5.49,8.69c-2.35,5.51-.68,10.73,2.24,16.77,1.07-3.18,1.79-5.33,2.51-7.49Zm115.88,27.94c1.41-11.4-7.53-19.85-18.57-17.41-5,1.11-10,2.31-15,3.85a55.93,55.93,0,0,1-33.39.28c-5.41-1.6-10.93-2.8-16.37-4.3-6.79-1.87-12.13.18-16.14,5.81a45.19,45.19,0,0,0-3.28,5.59,6.16,6.16,0,0,0,0,6.21c.92,3.82.92,3.82-1,9.11-1,5,.66,9.19,3.89,12.86,2.52,2.88,5.26,5.56,7.76,8.44a35,35,0,0,1,9,20.55c-1.14,2.17-2.43,4.27-3.38,6.52-1.61,3.77-3,7.63-4.49,11.46-2.08,4.39-.22,8.44,1.28,12.39,2.79,7.32,8.15,12.79,13.55,18.25a25,25,0,0,0,13.39,7.2,59.23,59.23,0,0,0,24.15-.52,25.22,25.22,0,0,0,13.91-8.09,68.86,68.86,0,0,0,5.13-6.09c3.59-5.18,7-10.5,7.57-17,1.42-10.44-4.67-18.2-9.23-26.69L348,186.12l-.78-.62c1.79-2.94,3.54-5.91,5.39-8.82,2.6-4.11,2.74-8.08-.55-11.88-2.27-2.64-4.71-5.14-6.86-7.87-2-2.54-4.41-2.85-7.05-1.56a55.17,55.17,0,0,0-5.39,3.45c-1.5,1-3,1.88-4.52,2.82a45.66,45.66,0,0,1,3.2-4.42c3.4-3.73,7.66-5.58,12.48-3.51,7.42,3.19,11.69,9.38,14.28,16.8a9.76,9.76,0,0,1,0,2.48,15.48,15.48,0,0,0,.3,1.91c2.47-7.81,6.9-14.1,12.16-19.93a68.77,68.77,0,0,0,6.93-8.44c2.82-4.37,3.84-9.11.72-13.93Zm20.56-9.79C403.93,110,402.06,98,395,92.88c-.92-.66-3-1.2-3.43-.75A5,5,0,0,0,390.52,96c.72,3.07,1.94,6,3,9a5.39,5.39,0,0,0,1-2.58c.23-.89.63-1.74,1.19-3.25C399.39,105.22,395.06,111.87,398.65,117.74Z"/><path class="cls-36" d="M367.29,107.57a67.87,67.87,0,0,0-23,2.87c-11.2,3.37-22.47,2.85-33.69-.15-3.44-.92-6.91-1.75-10.37-2.63l8.69-.88c-1.3-7.91-7-13.46-12.79-19.41,4.2-1.58,6.7,3.48,10.71,1.82l-4.49-6.79c.64-.25,1.09-.54,1.2-.44,4.85,4.19,10.53,5.09,16.74,4.74a155.06,155.06,0,0,1,16,0c4.7.21,8.88-.71,12.5-3.83a6.22,6.22,0,0,1,3.43-1.34l-5.49,8.35,10.94-4.06.75.81c-5.37,5.72-11.09,11.23-13.13,19,6.63.32,13,.6,19.33,1A9.94,9.94,0,0,1,367.29,107.57Z"/><path class="cls-37" d="M273.17,118.59c-1,6.17-2.15,12.32-2.81,18.53-.77,7.22,3.28,12.63,7.66,17.71s8.63,10,11.46,16.15c1.89,4.06,2.41,7.83-.21,11.75-1.1,1.64-1.78,3.57-2.77,5.29-4.25,7.41-3.85,14.87-.29,22.34,1.49,3.13,3.17,6.17,5.11,9.92a21.88,21.88,0,0,1-3.4-1.86c-11.9-10.15-23.26-20.82-32.1-33.87a7.27,7.27,0,0,1-.62-1.86c1.48.95,3,1.79,4.42,2.86,5.61,4.32,11.16,8.73,16.76,13.07a4.77,4.77,0,0,0,1.6.44c.84-11.77.8-23.09-6.5-33.28-2.94-4.11-4.88-9-6.9-13.67a19.78,19.78,0,0,1-.19-14.54c1.33-3.89,2.52-7.84,4-11.69C269.39,123.12,270.33,120.2,273.17,118.59Z"/><path class="cls-38" d="M398.31,182.69c-3.11,4.25-6,8.67-9.39,12.73a156.33,156.33,0,0,1-11.12,12c-4.35,4.24-9,8.16-13.54,12.21l-.89-.56c.55-1.22,1-2.47,1.65-3.65,5.18-9.81,6.37-19.71.79-29.79a3,3,0,0,0-.25-.43c-4-5.35-2.95-10.52-.19-16.15,2.85-5.78,7.26-10.25,11.19-15.12,5.49-6.82,8.46-13.94,5.93-22.92-.92-3.24-.19-6.94-.21-10.42a51.46,51.46,0,0,1,8.51,25c.26,3-1.37,6.46-2.78,9.39-2.38,4.92-5.23,9.61-8,14.35-2.19,3.77-3.83,7.61-3.86,12.14,0,4.79-.63,9.57-.9,14.35a33.51,33.51,0,0,0,.41,4.27c4.52-3.58,8.51-6.67,12.41-9.85,2.82-2.31,5.52-4.77,8.33-7.09C396.89,182.82,397.68,182.85,398.31,182.69Z"/><path class="cls-39" d="M357,68.42c-.15,1.91-2.23,2.62-3.94,1.42-3-2.08-5.74-4.48-8.7-6.59A82.06,82.06,0,0,0,334.86,57c-5.25-2.72-10.87-3.07-16.1,0-4.56,2.64-8.8,5.85-13.15,8.85A41.73,41.73,0,0,1,301.2,69a3.84,3.84,0,0,1-3.06-.24c-.38-.19-.44-1.89-.05-2.54,5.7-9.64,12.78-18,23.94-21.23,5.44-1.6,10.86,0,15.75,2.91A53.32,53.32,0,0,1,356.18,67Z"/><path class="cls-40" d="M432.65,219.91c-11.52-7.32-23.87-12.13-37.71-12.38-3.1-.05-6.19,0-9.41,0l20.7-26.93c6.9,4.07,11.81,10.05,15.91,16.74A184.64,184.64,0,0,0,443,225a10.24,10.24,0,0,1,1.3,2.58A32.76,32.76,0,0,1,432.65,219.91Z"/><path class="cls-40" d="M247.28,180.62l20.91,26.89c-2.73,0-5.85,0-9,0-11.58-.16-22.15,3.54-32.35,8.55-.78.38-1.23,1.45-1.84,2.21l-15.2,10.25c-.54.36-1.1.68-1.66,1,1.66-2.4,3-5.1,5-7.16,8.22-8.44,14.31-18.42,20.69-28.19A42.51,42.51,0,0,1,247.28,180.62Z"/><path class="cls-41" d="M571.14,532.69c.37-.27.85-.87,1.09-.78a10.64,10.64,0,0,1,6.29,14,29.47,29.47,0,0,1-1.35,2.62c-.59-.53-1.79-1.31-1.69-1.56C577.88,541,575.3,536.62,571.14,532.69Z"/><path class="cls-10" d="M276.29,367.63l-7-14c-.11-3.44,2.54-4.24,5-5.14,8.22-3,16.44-6,24.7-8.9,4.5-1.56,9-3.06,13.66-4.18,6.13-1.47,11.36,2.38,11.6,8.65.28,7,0,14,.08,20.94a4.7,4.7,0,0,1-3.14,4.62c-8.42,3.67-17,6.3-26.38,4.31-2.89-.62-6-.62-8.72-1.59C282.66,371.16,279.53,369.24,276.29,367.63Z"/><path class="cls-42" d="M384.46,353.85l-7.34,14.73c-3.84,1.47-7.62,3.16-11.55,4.38-9.88,3.08-19.64,1.66-29.23-1.46-5.13-1.66-7.07-4.64-7.09-10,0-5.17,0-10.33,0-15.5.05-8.4,6.11-13,13.86-10.29,11.25,3.92,22.43,8.06,33.65,12.09,1.08.39,2.21.62,3.32.9C382.77,349.39,384.58,350.79,384.46,353.85Z"/><path class="cls-43" d="M375.35,379.75c-.69,5.93-1.93,11.7-5.1,16.88-2.82,1.66-5.6,3.39-8.47,5-7,3.86-14.41,6.62-22.66,6.05-5-.34-9.62-4.65-9.83-9.55-.23-5.56-1.39-11.06-.14-16.72.89-4,2.68-6,6.59-4.72a60.9,60.9,0,0,0,24.46,2.91,50.19,50.19,0,0,0,11.55-2.28C374.73,376.26,375.29,377.27,375.35,379.75Z"/><path class="cls-12" d="M283.42,396.57a45.11,45.11,0,0,1-5.26-17.81l.34-2.07c6,1.28,11.87,3.23,17.82,3.57,5.15.29,10.41-1.19,15.6-2,2.43-.39,4.79-1.23,7.23-1.58,2.67-.37,4.44.9,5.1,3.59a33.69,33.69,0,0,1,.38,15.72c-.11.49-.23,1-.3,1.46-1,7.29-4,9.74-11.41,10.25-9.79.66-17.49-4.09-25.19-9.06A35.56,35.56,0,0,0,283.42,396.57Z"/><path class="cls-15" d="M287.16,196.5c1.48-3.83,2.88-7.69,4.49-11.46,1-2.25,2.24-4.35,3.38-6.52l3.52,0,7.37,8.25c0-1.08.12-1.45,0-1.69-1.74-3-3.56-6-5.26-9-2.51-4.44-2.07-7.88,1.31-11.77,1.85-2.12,3.73-4.23,5.46-6.45,3.06-3.92,4.17-4.41,8.69-2.12,2.76,1.41,5.18,3.49,7.75,5.27,1.39,1,2.66,2.78,4.47.61l-.11,0c1.51-.94,3-1.87,4.52-2.82a55.17,55.17,0,0,1,5.39-3.45c2.64-1.29,5-1,7.05,1.56,2.15,2.73,4.59,5.23,6.86,7.87,3.29,3.8,3.15,7.77.55,11.88-1.85,2.91-3.6,5.88-5.39,8.82l.78.62,8.94-10.2c4.56,8.49,10.65,16.25,9.23,26.69-5.43,5.11-11.67,7.81-19.33,7.12-6.41-.59-12.86-.72-19.29-1a26.8,26.8,0,0,0-2.94.28c-7.23.54-14.46,1.5-21.68,1.47a18.94,18.94,0,0,1-13.29-5.77C287,202.2,287.47,199.37,287.16,196.5Zm43.11-13.86a8.39,8.39,0,0,1,6.45-3c3.87,0,6.55-1.82,8.57-4.92,2.79-3.55,2.95-5.42.69-7.78-3.05-3.19-4.46-3.28-8.32-.56-1.36.95-2.76,1.84-4.09,2.83C327.86,173.44,327.31,175.69,330.27,182.64Zm30.61,17.81c-4.35,1.85-8.65,2.79-13.25,1.83a102.8,102.8,0,0,0-42.07,0c-3.9.81-7.94,1.09-11.62-1.27-.34-.22-1,0-2,0,2.59,2.82,5.29,4,8.39,3.91,3.49-.06,7-.45,10.45-.65,5.62-.32,11.26-1,16.87-.79,7.13.24,14.23,1.3,21.35,1.81C353.69,205.56,358,204.45,360.88,200.45ZM308.4,175.2c1.58-.81.18-4.4,2.7-3.26,4.57,2.06,10.65,2.55,11.78,9.17a6.48,6.48,0,0,0,1.38.17,47.24,47.24,0,0,0-.07-6,5.65,5.65,0,0,0-1.54-3.4c-2.95-2.42-6.09-4.6-9.24-6.76a3,3,0,0,0-2.32-.34,8.15,8.15,0,0,0-5.6,5.26C304.71,172.65,306.9,173.8,308.4,175.2Z"/><path class="cls-44" d="M298.55,178.5l-3.52,0A35,35,0,0,0,286,158c-2.5-2.88-5.24-5.56-7.76-8.44-3.23-3.67-4.9-7.88-3.89-12.86.29-.16.69-.52.86-.43,3.15,1.58,7.58.8,9.32,5.07.27.64,1.24,1.08,2,1.41a21.35,21.35,0,0,0,15.8,1.06h3.87c-2.67,3.84-6.58,4.83-10.42,6.48,4.74.77,8.08-2.67,12.51-2.8l-9.48,7.59c5-1.57,9.28-3.91,12-8.38,1.22-2,2.58-3.83,3.88-5.75.72-1,1.62-2,2.79-.76,5.49,5.69,11.49,4.87,17.63,1.42,1.88-1.06,2.92-.76,4,1a32.41,32.41,0,0,0,12.31,12.09,11.24,11.24,0,0,0,2.27.67,35.36,35.36,0,0,0-5.28-4.77c-1.63-1.35-3.14-2.86-4.7-4.29,10.21,4.1,10.21,4.1,14,3.76l-10.3-5.54.37-.95h5.46c.55.58,1.21,1.72,1.63,1.64,4.32-.82,9-.48,12.69-3.48s7.15-6.09,10.71-9.14c3.12,4.82,2.1,9.56-.72,13.93a68.77,68.77,0,0,1-6.93,8.44c-5.26,5.83-9.69,12.12-12.16,19.93a15.48,15.48,0,0,1-.3-1.91,9.76,9.76,0,0,0,0-2.48c-2.59-7.42-6.86-13.61-14.28-16.8-4.82-2.07-9.08-.22-12.48,3.51a45.66,45.66,0,0,0-3.2,4.42l.11,0c-2.9.36-3.86-2.24-5.45-3.74-6.8-6.41-14.69-6.05-20.63,1.07-.84,1-1.76,2-2.67,2.94C294.14,167.73,293.87,172.1,298.55,178.5Z"/><path class="cls-45" d="M287.16,196.5c.31,2.87-.15,5.7,2.45,8.21a18.94,18.94,0,0,0,13.29,5.77c7.22,0,14.45-.93,21.68-1.47a26.8,26.8,0,0,1,2.94-.28c6.43.28,12.88.41,19.29,1,7.66.69,13.9-2,19.33-7.12-.6,6.53-4,11.85-7.57,17a68.86,68.86,0,0,1-5.13,6.09,25.22,25.22,0,0,1-13.91,8.09,59.23,59.23,0,0,1-24.15.52,25,25,0,0,1-13.39-7.2c-5.4-5.46-10.76-10.93-13.55-18.25C286.94,204.94,285.08,200.89,287.16,196.5Z"/><path class="cls-15" d="M275.34,127.56a6.16,6.16,0,0,1,0-6.21,45.19,45.19,0,0,1,3.28-5.59c4-5.63,9.35-7.68,16.14-5.81,5.44,1.5,11,2.7,16.37,4.3a55.93,55.93,0,0,0,33.39-.28c4.91-1.54,9.94-2.74,15-3.85,11-2.44,20,6,18.57,17.41-1.12-.62-2.64-1-3.27-1.92-3.05-4.56-7.55-4.27-12.06-3.84a17.37,17.37,0,0,0-4.73,1.46c-6,2.44-11.9,5-17.9,7.39-.84.34-2,0-3-.07l.92-3.56-1-.41c-1.2,2.64-2.44,5.27-3.59,7.94-.95,2.22-2.44,2.67-3.88.85a9.93,9.93,0,0,1-1.35-3.6c-.34-1.31-.48-2.66-.71-4-1.4,2.05-1.64,4.22-2.57,6.05-.56,1.11-2.17,1.7-3.3,2.53a19.61,19.61,0,0,1-1.47-2.74c-1-2.84-1.74-5.78-5.38-8.28.83,1.81,1.16,2.54,1.5,3.27-.08,1.34-.52,2.33-2.12,1.9a28.79,28.79,0,0,1-3.74-1.25c-4.7-2-9.3-4.23-14.08-6-7.19-2.66-14.21-3.44-19.78,3.51A4.64,4.64,0,0,1,275.34,127.56Z"/><path class="cls-46" d="M275.34,127.56a4.64,4.64,0,0,0,1.23-.79c5.57-7,12.59-6.17,19.78-3.51,4.78,1.77,9.38,4,14.08,6a28.79,28.79,0,0,0,3.74,1.25c1.6.43,2-.56,2.12-1.9.3.39.8.74.86,1.16.94,5.79-.21,6.88-5.59,4.81-4.33-1.67-8.39-4-12.71-5.7a129,129,0,0,0-12.76-4c-1-.26-2.16.38-3.24.6a3.08,3.08,0,0,0,1.53,1.32c2.1,1,5.44,1.51,2.29,5a1.9,1.9,0,0,0,.14,1.78c3.15,4.25,5.86,9.07,12.17,9.2a13.45,13.45,0,0,1,3.35.94,21.35,21.35,0,0,1-15.8-1.06c-.74-.33-1.71-.77-2-1.41-1.74-4.27-6.17-3.49-9.32-5.07-.17-.09-.57.27-.86.43C276.26,131.38,276.26,131.38,275.34,127.56Z"/><path class="cls-47" d="M337.17,130.55c1,0,2.12.41,3,.07,6-2.39,11.93-5,17.9-7.39a17.37,17.37,0,0,1,4.73-1.46c4.51-.43,9-.72,12.06,3.84.63,1,2.15,1.3,3.27,1.92l.21,5.07c-3.56,3.05-7.07,6.17-10.71,9.14s-8.37,2.66-12.69,3.48c-.42.08-1.08-1.06-1.63-1.64a12.47,12.47,0,0,1,2.21-.86c4.46-.78,11.15-6,10.38-9.93-1-4.94,1.84-5,4.59-6,.17-.07.18-.57.28-1-5.73-1.25-10.81.9-15.86,3-4.6,1.91-9.09,4.07-13.69,5.95-1.08.44-2.95.72-3.57.14C336.51,133.87,335.49,132.16,337.17,130.55Z"/><path class="cls-48" d="M398.65,117.74c-3.59-5.87.74-12.52-3-18.6-.56,1.51-1,2.36-1.19,3.25a5.39,5.39,0,0,1-1,2.58c-1-3-2.24-6-3-9a5,5,0,0,1,1.06-3.82c.39-.45,2.51.09,3.43.75C402.06,98,403.93,110,398.65,117.74Z"/><path class="cls-49" d="M257.26,111.63c-.72,2.16-1.44,4.31-2.51,7.49-2.92-6-4.59-11.26-2.24-16.77A38,38,0,0,1,258,93.66c.78-1,2.8-.94,4.26-1.37a19.64,19.64,0,0,1,.86,4,12,12,0,0,1-.91,3.31c-4.56.71-7.11,2.75-6.83,6.07C255.55,107.69,256.6,109.64,257.26,111.63Z"/><path class="cls-50" d="M257.26,111.63c-.66-2-1.71-3.94-1.88-6-.28-3.32,2.27-5.36,6.83-6.07Z"/><path class="cls-32" d="M360.88,200.45c-2.92,4-7.19,5.11-11.88,4.77-7.12-.51-14.22-1.57-21.35-1.81-5.61-.2-11.25.47-16.87.79-3.49.2-7,.59-10.45.65-3.1.06-5.8-1.09-8.39-3.91,1,0,1.66-.19,2,0,3.68,2.36,7.72,2.08,11.62,1.27a102.8,102.8,0,0,1,42.07,0C352.23,203.24,356.53,202.3,360.88,200.45Z"/><path class="cls-35" d="M298.55,178.5c-4.68-6.4-4.41-10.77,1-16.62.91-1,1.83-1.93,2.67-2.94,5.94-7.12,13.83-7.48,20.63-1.07,1.59,1.5,2.55,4.1,5.45,3.74-1.81,2.17-3.08.36-4.47-.61-2.57-1.78-5-3.86-7.75-5.27-4.52-2.29-5.63-1.8-8.69,2.12-1.73,2.22-3.61,4.33-5.46,6.45-3.38,3.89-3.82,7.33-1.31,11.77,1.7,3,3.52,6,5.26,9,.14.24,0,.61,0,1.69Z"/><path class="cls-51" d="M308.4,175.2c-1.5-1.4-3.69-2.55-2.91-5.12a8.15,8.15,0,0,1,5.6-5.26,3,3,0,0,1,2.32.34c3.15,2.16,6.29,4.34,9.24,6.76a5.65,5.65,0,0,1,1.54,3.4,47.24,47.24,0,0,1,.07,6,6.48,6.48,0,0,1-1.38-.17c-1.13-6.62-7.21-7.11-11.78-9.17C308.58,170.8,310,174.39,308.4,175.2Z"/><path class="cls-52" d="M330.27,182.64c-3-6.95-2.41-9.2,3.3-13.41,1.33-1,2.73-1.88,4.09-2.83,3.86-2.72,5.27-2.63,8.32.56,2.26,2.36,2.1,4.23-.69,7.78-.34-.5-1-1-1-1.52,0-2.88-1.31-3-3.42-1.78s-4,2.28-6.06,3.28C331.47,176.34,329.85,178.88,330.27,182.64Z"/><path class="cls-53" d="M330.27,182.64c-.42-3.76,1.2-6.3,4.56-7.92,2.06-1,4.07-2.14,6.06-3.28s3.41-1.1,3.42,1.78c0,.51.64,1,1,1.52-2,3.1-4.7,4.95-8.57,4.92A8.39,8.39,0,0,0,330.27,182.64Z"/><path class="cls-54" d="M337.17,130.55c-1.68,1.61-.66,3.32.44,4.34.62.58,2.49.3,3.57-.14,4.6-1.88,9.09-4,13.69-5.95,5.05-2.1,10.13-4.25,15.86-3-.1.38-.11.88-.28,1-2.75,1.07-5.55,1.1-4.59,6,.77,3.91-5.92,9.15-10.38,9.93a12.47,12.47,0,0,0-2.21.86h-5.46l-.37.95,10.3,5.54c-3.76.34-3.76.34-14-3.76,1.56,1.43,3.07,2.94,4.7,4.29a35.36,35.36,0,0,1,5.28,4.77,11.24,11.24,0,0,1-2.27-.67,32.41,32.41,0,0,1-12.31-12.09c-1.1-1.79-2.14-2.09-4-1C329,145,323,145.85,317.52,140.16c-1.17-1.21-2.07-.29-2.79.76-1.3,1.92-2.66,3.79-3.88,5.75-2.76,4.47-7.07,6.81-12,8.38l9.48-7.59c-4.43.13-7.77,3.57-12.51,2.8,3.84-1.65,7.75-2.64,10.42-6.48h-3.87a13.45,13.45,0,0,0-3.35-.94c-6.31-.13-9-5-12.17-9.2a1.9,1.9,0,0,1-.14-1.78c3.15-3.51-.19-4-2.29-5a3.08,3.08,0,0,1-1.53-1.32c1.08-.22,2.28-.86,3.24-.6a129,129,0,0,1,12.76,4c4.32,1.67,8.38,4,12.71,5.7,5.38,2.07,6.53,1,5.59-4.81-.06-.42-.56-.77-.86-1.16-.34-.73-.67-1.46-1.5-3.27,3.64,2.5,4.4,5.44,5.38,8.28a19.61,19.61,0,0,0,1.47,2.74c1.13-.83,2.74-1.42,3.3-2.53.93-1.83,1.17-4,2.57-6.05.23,1.33.37,2.68.71,4a9.93,9.93,0,0,0,1.35,3.6c1.44,1.82,2.93,1.37,3.88-.85,1.15-2.67,2.39-5.3,3.59-7.94l1,.41Zm23.47,1.6L346,136.89C352.48,141.38,356.3,140.32,360.64,132.15Zm-67.78,0c3.67,7.73,7.54,8.9,14.1,4.86Zm24.88,6.48c5.53,4.83,8.57,5.11,14.38,1.83-2.18-.81-4.95-2.68-5.82-2C323.67,140.39,321.28,139.14,317.74,138.6Z"/><path class="cls-55" d="M360.64,132.15c-4.34,8.17-8.16,9.23-14.6,4.74Z"/><path class="cls-56" d="M292.86,132.12,307,137C300.4,141,296.53,139.85,292.86,132.12Z"/><path class="cls-44" d="M317.74,138.6c3.54.54,5.93,1.79,8.56-.19.87-.66,3.64,1.21,5.82,2C326.31,143.71,323.27,143.43,317.74,138.6Z"/></svg>