<svg id="Capa_1" data-name="Capa 1" xmlns="http://www.w3.org/2000/svg" viewBox="0 0 309.52 327.16"><defs><style>.cls-1{fill:#1b9599;}.cls-2{fill:#452c6b;}.cls-3{fill:#4e2068;}.cls-4{fill:#1e5e6c;}.cls-5{fill:#39376b;}.cls-6{fill:#373768;}.cls-7{fill:#47518e;}.cls-8{fill:#60398b;}.cls-9{fill:#46568d;}.cls-10{fill:#64378a;}.cls-11{fill:#238898;}.cls-12{fill:#5b428b;}.cls-13{fill:#16a4a3;}.cls-14{fill:#3f3773;}.cls-15{fill:#57468d;}.cls-16{fill:#54468b;}.cls-17{fill:#3e5b8f;}.cls-18{fill:#238a9c;}.cls-19{fill:#4c709d;}.cls-20{fill:#432f6c;}.cls-21{fill:#415a91;}.cls-22{fill:#333d6d;}.cls-23{fill:#564189;}.cls-24{fill:#323e6c;}.cls-25{fill:#2999a6;}.cls-26{fill:#4586a0;}.cls-27{fill:#2f4069;}.cls-28{fill:#2e4065;}.cls-29{fill:#327997;}.cls-30{fill:#3b6591;}.cls-31{fill:#3c6491;}.cls-32{fill:#387197;}.cls-33{fill:#2d7d96;}.cls-34{fill:#307a95;}.cls-35{fill:#495b94;}.cls-36{fill:#2c5175;}.cls-37{fill:#3c467a;}.cls-38{fill:#3a497d;}.cls-39{fill:#2d4e6c;}.cls-40{fill:#2e5071;}.cls-41{fill:#225e77;}.cls-42{fill:#3c9fae;}.cls-43{fill:#3ba6b0;}.cls-44{fill:#326c88;}.cls-45{fill:#3a6986;}.cls-46{fill:#18e1da;}.cls-47{fill:#1bded9;}</style></defs><path class="cls-1" d="M103.85,38.13a10.93,10.93,0,0,1,3-8.64q7.28-8.49,14.48-17a14.35,14.35,0,0,1,7-4.48c7.56-2.37,15-5,22.55-7.58a8.6,8.6,0,0,1,2-.15c1.94,2.21,1.28,4.46.27,6.82-.49,1.16-1.24,2.75-.83,3.68,2.73,6.1,1.24,12.71,2.49,19,.76,3.86,2.14,6.18,5.81,6.83,3.47.62,5.86,2.59,8.24,5a6.14,6.14,0,0,0,4.32,1.67c3.84-.35,7.33-1.75,9.54-5.26a9,9,0,0,1,2-2.75,72.09,72.09,0,0,0,13.2-10.86,1.49,1.49,0,0,0,.26.42,22.32,22.32,0,0,1,8.37,17.48c.07,3.23,2.34,5.67,2.53,8.78-1.59,4-2.57,4.37-5.29,1.6-.91-.93-1.43-2.25-2.37-3.12a7.53,7.53,0,0,0-2.58-1,10,10,0,0,0,.06,2.51,11.39,11.39,0,0,0,1.26,2.09c1.32,2.36.7,3.93-1.86,4.2a23.62,23.62,0,0,1-14.16-3.19A54.45,54.45,0,0,0,177,51.34c-5.88-3.94-11.75-7.9-17.65-11.81-1.91-1.26-3.76-2.81-6.34-2.17-1.45.6-2.94,1.13-4.35,1.82-2,1-3.91,2.65-6,3-2.27.38-4.08.55-5.23,2.9-.36.73-2,1.27-3,1.17-2.89-.3-5.08.83-7.22,3.17-.88-1.38-1.52-2.5-2.28-3.52-.44-.59-1.09-1.5-1.59-1.46-3.79.24-7.75-2.23-11.41.75-.81.66-2.15.66-3.17.93C107.06,43.4,105.45,40.77,103.85,38.13Z"/><path class="cls-2" d="M130.91,245.34c6.75,6.89,13.48,13.8,20.27,20.66,3.23,3.27,3.54,3.31,6.77,0q22.17-22.68,44.23-45.45c6.59-6.78,13.14-13.61,20-20.7A24.2,24.2,0,0,1,226,209.2l-24.1,41.13c-3.1,5.18-6.14,10.39-9.31,15.52-1.78,2.89-3.78,5.66-5.69,8.48-.27-4.47-1.23-5.84-4.09-4.74-2.68,1-4.33,0-6.39-1.12a6.24,6.24,0,0,0-4.07-.74c-2.53.58-4.89,1.92-7.41,2.55-5.6,1.39-11.24,2.42-16.69-.74a3.32,3.32,0,0,0-2.69-.4c-3.13,1.79-6.49.89-9.74,1.23-3.75.39-6.81-.54-9.11-3.69-1.37-1.88-3.46-3.25-5.51-2-1,.59-.91,3.08-1.31,4.72-1-1.23-2-2.41-2.86-3.69-1.42-2.08-2.76-4.22-4.13-6.33q-2-4-4-8c.27-4.55.8-5.29,3.61-4.69C118.81,248,124.94,247.91,130.91,245.34Z"/><path class="cls-3" d="M119.93,269.36c.4-1.64.3-4.13,1.31-4.72,2.05-1.21,4.14.16,5.51,2,2.3,3.15,5.36,4.08,9.11,3.69,3.25-.34,6.61.56,9.74-1.23a3.32,3.32,0,0,1,2.69.4c5.45,3.16,11.09,2.13,16.69.74,2.52-.63,4.88-2,7.41-2.55a6.24,6.24,0,0,1,4.07.74c2.06,1.15,3.71,2.14,6.39,1.12,2.86-1.1,3.82.27,4.09,4.74-5.4,9.81-10.73,19.66-16.22,29.42a151.76,151.76,0,0,1-8.21,13.36,7,7,0,0,0-1.44,5.48c-6,6.1-6.19,6.1-12.23-.07.63-3.22-1.05-5.76-2.59-8.28-1.71-2.79-3.71-5.41-5.4-8.21q-6.94-11.59-13.72-23.3C124.61,278.34,122.32,273.82,119.93,269.36Z"/><path class="cls-4" d="M153,37.36c2.58-.64,4.43.91,6.34,2.17,5.9,3.91,11.77,7.87,17.65,11.81,3,2,5.9,4,8.92,6,3.17,2,3.41,2.48,1.21,5.57-2.76,3.87-5.84,7.51-8.53,11.43-2,2.92-5.23,5.14-5.56,9.08a80.07,80.07,0,0,1-35.16.09C133,77,128.15,70.58,123.36,64.1c-3.09-4.18-3-4.21,1.23-7.08,4.94-3.3,9.92-6.53,14.81-9.9C144,44,148.45,40.62,153,37.36Z"/><path class="cls-5" d="M36.9,161.34q8.77,6.54,17.53,13.07c7.29,5.48,14.47,11.1,21.89,16.4,2.24,1.6,2.46,2.92,1.52,5.31-7,17.75-13.91,35.54-20.84,53.33-2,5.25-4,10.54-6.14,15.76-.84,2.1-2,4.08-3,6.12-2.74-.14-1.85-2.25-1.91-3.71Q45.4,254,45,240.45c-.38-12-.69-24.07-1-36.11,0-2,.05-4,0-6-.11-3.3.2-6.73-.56-9.88-1.35-5.59-3.36-11-5.12-16.5-1-3-2-5.92-2.88-8.93C35.26,162.64,36.36,161.91,36.9,161.34Z"/><path class="cls-6" d="M261.68,271.48c-3.79-9.37-7.66-18.72-11.34-28.13-6-15.18-11.77-30.4-17.64-45.61-2.22-5.77-2.3-4.6,2.26-8.09,12.52-9.6,25.24-18.94,37.89-28.38,1.24.17,2.26.29,1.6,2.13-1.69,4.79-3.25,9.63-4.77,14.48-1.31,4.21-3.15,8.39-3.6,12.71-.82,7.87-.79,15.82-1.11,23.74q-.53,25-1.06,49.92a40.5,40.5,0,0,1-.68,6.12C263.15,270.82,262.22,271.11,261.68,271.48Z"/><path class="cls-7" d="M265,214.33c.32-7.92.29-15.87,1.11-23.74.45-4.32,2.29-8.5,3.6-12.71,1.52-4.85,3.08-9.69,4.77-14.48.66-1.84-.36-2-1.6-2.13,1.69-2.47,4.1-2.68,6.61-1.79,9.35,3.35,18.66,6.8,28,10.24,1.71.63,2.69,1.37,1.66,3.64C303,186.94,297,200.6,291,214.22a7.41,7.41,0,0,1-.85,1.19,79.12,79.12,0,0,1-8.24.77c-3,0-6.26,1.25-9-1.23-.36-.33-1.18-.14-1.79-.19Z"/><path class="cls-8" d="M161.07,322.59a7,7,0,0,1,1.44-5.48,151.76,151.76,0,0,0,8.21-13.36c5.49-9.76,10.82-19.61,16.22-29.42,1.91-2.82,3.91-5.59,5.69-8.48,3.17-5.13,6.21-10.34,9.31-15.52.13,2.35,1.69,3.18,3.65,4.06,5.36,2.41,11,2.08,16.54,1.87,2.38-.09,4.73-1,7.09-1.59,1.4-.34,2.78-1,4.18-1.06,2.1,0,4.22.74,6.3.65a4.79,4.79,0,0,1,4.12,2.06c-.56,1.09-.85,2.53-1.73,3.22Q202.12,291,162,322.27A3.07,3.07,0,0,1,161.07,322.59Z"/><path class="cls-9" d="M36.9,161.34c-.54.57-1.64,1.3-1.53,1.69.83,3,1.92,6,2.88,8.93,1.76,5.49,3.77,10.91,5.12,16.5.76,3.15.45,6.58.56,9.88.06,2,0,4,0,6a50,50,0,0,1-5.32,2c-3.39.86-6.45-2-9.38-1.62-3.11.4-6.12,2-9.47,1.69a30.63,30.63,0,0,0-3.94.17Q10,193.93,4.13,181.31c-1-2.26-2-4.54-3.07-6.8-1.63-3.53-1.64-3.69,1.87-5,7.78-2.88,15.59-5.67,23.39-8.49a31.48,31.48,0,0,0,3.74-1.38C32.89,158.17,35.12,158.75,36.9,161.34Z"/><path class="cls-10" d="M119.93,269.36c2.39,4.46,4.68,9,7.2,13.37q6.75,11.72,13.72,23.3c1.69,2.8,3.69,5.42,5.4,8.21,1.54,2.52,3.22,5.06,2.59,8.28-3.57-2.67-7.18-5.29-10.7-8q-22.42-17.44-44.78-35c-6.24-4.89-12.37-9.9-18.55-14.85-.6-1.27-1.29-2.51-1.78-3.82-.31-.79-.72-1.92-.39-2.51.75-1.32,1.76-.77,2.88,0A9.9,9.9,0,0,0,80,260.25c8.88.5,17.77.89,26.66,1,2.1,0,4.22-1.23,6.33-1.9,1.37,2.11,2.71,4.25,4.13,6.33C118,267,119,268.13,119.93,269.36Z"/><path class="cls-11" d="M153,37.36c-4.52,3.26-9,6.59-13.57,9.76-4.89,3.37-9.87,6.6-14.81,9.9-4.28,2.87-4.32,2.9-1.23,7.08C128.15,70.58,133,77,137.84,83.48c-6.22-.46-12.48-.6-18.63-1.51-4-.58-7.09-.28-9.44,3.21a7,7,0,0,1-1.49,1.25,7.27,7.27,0,0,1-2.33.69c-6.56-.41-6.56-.44-5,6a4.67,4.67,0,0,1,0,1l-2.08,3.26a11.32,11.32,0,0,1-7-9.24c1-4.5,1.85-9,2.9-13.5q4.08-17.37,8.3-34.71a10.53,10.53,0,0,1,.8-1.75c1.6,2.64,3.21,5.27,4.88,8,1-.27,2.36-.27,3.17-.93,3.66-3,7.62-.51,11.41-.75.5,0,1.15.87,1.59,1.46.76,1,1.4,2.14,2.28,3.52,2.14-2.34,4.33-3.47,7.22-3.17,1,.1,2.61-.44,3-1.17,1.15-2.35,3-2.52,5.23-2.9,2.11-.36,4-2,6-3C150,38.49,151.52,38,153,37.36Z"/><path class="cls-12" d="M112.94,259.34c-2.11.67-4.23,1.92-6.33,1.9-8.89-.1-17.78-.49-26.66-1a9.9,9.9,0,0,1-4.43-1.92c-1.12-.74-2.13-1.29-2.88,0-.33.59.08,1.72.39,2.51.49,1.31,1.18,2.55,1.78,3.82-1.47-1.06-2.93-2.14-4.41-3.19-4.8-3.41-5.89-2.63-2.86-10.57,5-13,9.87-26.05,14.83-39.07a21.61,21.61,0,0,1,1.42-2.57c.54.37,1.28.62,1.57,1.14,3.8,6.72,7.45,13.53,11.3,20.23,4,6.94,8.18,13.78,12.28,20.67Q110.94,255.33,112.94,259.34Z"/><path class="cls-13" d="M197.89,24.34a72.09,72.09,0,0,1-13.2,10.86,9,9,0,0,0-2,2.75c-2.21,3.51-5.7,4.91-9.54,5.26a6.14,6.14,0,0,1-4.32-1.67c-2.38-2.38-4.77-4.35-8.24-5-3.67-.65-5.05-3-5.81-6.83-1.25-6.29.24-12.9-2.49-19-.41-.93.34-2.52.83-3.68,1-2.36,1.67-4.61-.27-6.82,1.38,0,2.88-.46,4.14-.08,8.84,2.69,17.63,5.52,26.42,8.38a6.71,6.71,0,0,1,2.95,1.74C190.25,14.91,194,19.64,197.89,24.34Z"/><path class="cls-14" d="M179.12,190.21c2,.3,4,.46,5.87.95,3,.77,3.38,1.36,1.72,4.1-4.4,7.25-9,14.39-13.68,21.46a6.12,6.12,0,0,1-3.32,1.86,57.07,57.07,0,0,1-30.08-.13,6.51,6.51,0,0,1-3.35-2.59c-4.25-6.36-8.38-12.8-12.46-19.27-1.84-2.92-1.61-3.67,1-5.33,3.12.25,6.44-.09,9.32.87a141,141,0,0,1,17.18,7.08,8.33,8.33,0,0,0,7.58,0C165.68,196.29,172.39,193.22,179.12,190.21Z"/><path class="cls-15" d="M243.82,256.32a4.79,4.79,0,0,0-4.12-2.06c-2.08.09-4.2-.65-6.3-.65-1.4,0-2.78.72-4.18,1.06-2.36.58-4.71,1.5-7.09,1.59-5.57.21-11.18.54-16.54-1.87-2-.88-3.52-1.71-3.65-4.06L226,209.2c4,10.29,8.06,20.55,12,30.87C240.08,245.44,241.9,250.9,243.82,256.32Z"/><path class="cls-16" d="M15.83,206.54a30.63,30.63,0,0,1,3.94-.17c3.35.27,6.36-1.29,9.47-1.69,2.93-.38,6,2.48,9.38,1.62a50,50,0,0,0,5.32-2c.33,12,.64,24.07,1,36.11q.42,13.59,1,27.17c.06,1.46-.83,3.57,1.91,3.71l-1.12,4-1.09.08c-1.38-3.27-2.7-6.57-4.13-9.82Q28.93,237,16.29,208.43A11.85,11.85,0,0,1,15.83,206.54Z"/><path class="cls-17" d="M225.73,119.3c2.67,10.75,4.93,21.63,8.15,32.21,2,6.41.57,10.51-4.42,14.85-8.22,7.16-15.75,15.11-23.57,22.73,1.68-7.63,3.44-15.24,5-22.88,1.91-9.25,3.62-18.55,5.55-27.79.29-1.41.79-2.54-.85-3.31,2.41-2.21,2.94-4.86,2-8a28.22,28.22,0,0,1-.66-3.82,47.19,47.19,0,0,0,5-3.58C223.23,118.57,224.3,118.12,225.73,119.3Z"/><path class="cls-18" d="M173,83.39c.33-3.94,3.55-6.16,5.56-9.08,2.69-3.92,5.77-7.56,8.53-11.43,2.2-3.09,2-3.55-1.21-5.57-3-1.92-5.95-4-8.92-6a54.45,54.45,0,0,1,7.15,2.75,23.62,23.62,0,0,0,14.16,3.19c2.56-.27,3.18-1.84,1.86-4.2A11.39,11.39,0,0,1,198.87,51a10,10,0,0,1-.06-2.51,7.53,7.53,0,0,1,2.58,1c.94.87,1.46,2.19,2.37,3.12,2.72,2.77,3.7,2.44,5.29-1.6l6,25.09c-1.75,4.51-2.07,4.59-6.1,2.86-1.27-.55-2.79-.53-4.72-.86a10.32,10.32,0,0,0,.81,2.28,3,3,0,0,1-.53,4.4c-1.51,1.24-3,.47-4.4-.77a17.63,17.63,0,0,0-2.87-1.76c-4.6.16-9.2.27-13.8.48C179.93,82.9,176.47,83.17,173,83.39Z"/><path class="cls-19" d="M178.08,166.28a2.38,2.38,0,0,1,.8-.05c-1.86,5.15-4,10.23-3.91,15.87-9.39-.21-18.78-.51-28.18-.59-3.94,0-7.89.42-11.84.65.19-1.23.73-2.54.48-3.67a74.65,74.65,0,0,0-2.5-8.51,24.87,24.87,0,0,0-2-3.65,5.2,5.2,0,0,0,.61-1.83,21.91,21.91,0,0,0-.69-3.15c1,.64,2,1.35,3.1,1.9a14.34,14.34,0,0,0,2.38.75,16.42,16.42,0,0,1-.31-2.07c0-1,0-2,.07-3,1.78-1.07,3.3-.6,5,.44,3.49,2.12,7.14,4,10.72,5.95.36-.47,1-.92,1-1.42.16-1.38.26-2.55,2.13-2.51s1.79,1.32,2,2.64c.11.75.83,1.41,1.27,2.12l12.64-7.82c2.07,1.45,1.71,3.12.57,5a8.53,8.53,0,0,0-.64,2.37c.9.13,1.8.32,2.7.39C175.05,166.16,176.56,166.2,178.08,166.28Z"/><path class="cls-20" d="M108.94,251.33c-4.1-6.89-8.28-13.73-12.28-20.67-3.85-6.7-7.5-13.51-11.3-20.23-.29-.52-1-.77-1.57-1.14,1-2.94,1.91-5.88,3-9.32a27.55,27.55,0,0,1,2.67,2q20.28,20.82,40.52,41.68a7.48,7.48,0,0,1,.9,1.65c-6,2.57-12.1,2.64-18.36,1.3C109.74,246,109.21,246.78,108.94,251.33Z"/><path class="cls-21" d="M92.61,133.43,94,135.29c.63,5.06,1.14,10.14,1.93,15.17,1,6.14,1.44,12.48,3.44,18.29,2.33,6.76,2.91,13.75,4.52,20.58-9.31-9.15-18.66-18.25-27.87-27.5a5,5,0,0,1-1.19-4c1.63-7.54,3.55-15,5.37-22.53a6.43,6.43,0,0,1,2.33.55C88.3,140.07,90.18,139.63,92.61,133.43Z"/><path class="cls-22" d="M103.92,189.33c-1.61-6.83-2.19-13.82-4.52-20.58-2-5.81-2.48-12.15-3.44-18.29-.79-5-1.3-10.11-1.93-15.17A33,33,0,0,1,97.5,138c6.53,6.63,12.91,13.4,19.53,19.92,2,2,2.24,3.73,1.19,6.16-1.72,4-3,8.1-4.86,12a10.34,10.34,0,0,0-.2,8.6,150.25,150.25,0,0,1,6,20.25Z"/><path class="cls-23" d="M265,214.33l6.13.43c.61.05,1.43-.14,1.79.19,2.74,2.48,6,1.23,9,1.23a79.12,79.12,0,0,0,8.24-.77l-23.3,53.75c-.91,2.1-1.86,4.17-2.79,6.26l-1.06,0c-.43-1.31-.86-2.62-1.3-3.92.54-.37,1.47-.66,1.55-1.11a40.5,40.5,0,0,0,.68-6.12Q264.48,239.29,265,214.33Z"/><path class="cls-24" d="M215.61,135.11c1.64.77,1.14,1.9.85,3.31-1.93,9.24-3.64,18.54-5.55,27.79-1.58,7.64-3.34,15.25-5,22.88l-14.51,14.17-.67-.23c1.16-3.64,2.27-7.29,3.48-10.92,4.74-14.23,5.09-8.58-.35-22.51-4.31-11-5-7.43,3.47-16.22C203.29,147.18,209.5,141.19,215.61,135.11Z"/><path class="cls-25" d="M110.2,94.36c1-1.27,2.1-2.52,3.1-3.81a5.85,5.85,0,0,1,5.64-2.36c9.2,1,18.4,2,27.62,2.81a65.38,65.38,0,0,0,11.26.45c9.71-.79,19.44-1.62,29.06-3.09,5.82-.89,9.51,1.11,12.24,5.89-3,.7-6.05,1.61-9.13,2-6,.86-12.09,1.37-18.12,2.19-3,.42-6,1.2-9,1.81-3.24.35-6.48.95-9.72,1a62.71,62.71,0,0,1-8.24-1c-.21-.23-.4-.65-.64-.69-5.79-.78-11.6-1.42-17.37-2.3C121.34,96.45,115.78,95.36,110.2,94.36Z"/><path class="cls-26" d="M158.27,166.12c-.44-.71-1.16-1.37-1.27-2.12-.21-1.32-.09-2.59-2-2.64s-2,1.13-2.13,2.51c-.06.5-.67.95-1,1.42,0-3.31.27-6.63.09-9.93a5.31,5.31,0,0,0-1.7-3.66A55.65,55.65,0,0,0,142.1,147a4,4,0,0,0-3.18,0c-4.8,2.69-5.66,6-3.15,11a8,8,0,0,1,.34.93c0,1-.11,2-.07,3a16.42,16.42,0,0,0,.31,2.07,14.34,14.34,0,0,1-2.38-.75c-1.08-.55-2.07-1.26-3.1-1.9-1.08-2.92-2.3-5.8-3.17-8.78a3.61,3.61,0,0,1,.87-2.92c2.91-3,6.09-5.64,9-8.59,1.58-1.6,2.91-1.57,4.78-.53,2.31,1.28,5,1.92,7.22,3.29a9.51,9.51,0,0,0,10.63.1c2.12-1.23,4.69-1.69,6.85-2.88,2.74-1.51,4.7-.81,6.5,1.41.52.64,1.2,1.15,1.78,1.75,2.39,2.49,6.13,4.69,6.79,7.58s-1.8,6.49-2.83,9.79c-.48,1.55-.81,3.14-1.21,4.71-1.52-.08-3-.12-4.54-.24-.9-.07-1.8-.26-2.7-.39a8.53,8.53,0,0,1,.64-2.37c1.14-1.86,1.5-3.53-.57-5l3,.17c.11-.2.5-.91.83-1.65,1.79-4,1.74-4.3-1.26-7.36-.58-.59-1.26-1.09-1.78-1.72-1.28-1.56-2.7-1.65-4.37-.66-2.41,1.43-4.84,2.83-7.3,4.16a3.82,3.82,0,0,0-2.24,4C158,158.86,158.11,162.49,158.27,166.12Z"/><path class="cls-27" d="M72.87,137.42c-1.45,6.17-2.6,12-4.22,17.67a12.58,12.58,0,0,0,.73,9.61c2,4.18,3.65,8.57,5.4,12.89.41,1,.62,2.12,1,3.58-9.93-7.33-19.45-14.31-28.9-21.38-2.87-2.14-2.88-2.63-.44-4.38,8.11-5.83,16.27-11.59,24.42-17.36A9.75,9.75,0,0,1,72.87,137.42Z"/><path class="cls-28" d="M265.56,157.61l-31.94,23.83c2.16-5.31,3.59-9.88,5.82-14a17.91,17.91,0,0,0,1.31-14.8c-1.5-4.71-2.4-9.6-3.6-14.57C240.81,139.09,259,151.62,265.56,157.61Z"/><path class="cls-29" d="M197.2,82.26A17.63,17.63,0,0,1,200.07,84c1.37,1.24,2.89,2,4.4.77a3,3,0,0,0,.53-4.4,10.32,10.32,0,0,1-.81-2.28c1.93.33,3.45.31,4.72.86,4,1.73,4.35,1.65,6.1-2.86.74,2.52,1.58,5,2.19,7.55,2.88,11.87,5.69,23.76,8.53,35.64-1.43-1.18-2.5-.73-3.79.45a47.19,47.19,0,0,1-5,3.58c-1.63-6.73-3.47-13.41-4.82-20.19A20.29,20.29,0,0,0,206,91.64C202.85,88.73,200.11,85.41,197.2,82.26Z"/><path class="cls-30" d="M182.7,124.17q7.65-.45,15.31-.88c1.15-.07,2.32,0,3.48-.1,3-.28,3.31-.75,2.4-3.7-.73-2.36-1.37-4.76-2-7.14l5.06-2c1.27,4.94,2.57,9.88,3.77,14.84.42,1.75.88,3.51-.87,5-7.1,6.27-14.12,12.62-21.65,19.36l-10.45-14.15c1.21,0,2.55.35,3.58-.07a57,57,0,0,0,6.13-3.24q6.51-3.6,13-7.23l-.25-.73Z"/><path class="cls-31" d="M107,114.55c-.42,1.74-.79,3.5-1.29,5.22-.75,2.61-.44,3.31,2.25,3.43,5.09.25,10.19.25,15.29.43a28.79,28.79,0,0,1,3.77.63H110.56l-.32,1.17c3.93,2.16,7.82,4.35,11.78,6.44,3,1.6,6.1,3.07,9.16,4.59-2.7,3.57-5.46,7.1-8.07,10.73-1.19,1.67-2.25,1.63-3.65.39q-9.49-8.47-19-16.88A4.13,4.13,0,0,1,99,126.26c1.36-5.63,2.68-11.27,4-16.91C105.34,110.32,107.45,111.45,107,114.55Z"/><path class="cls-32" d="M92.61,133.43c-2.43,6.2-4.31,6.64-10,2.46a6.43,6.43,0,0,0-2.33-.55c1.36-6.14,2.64-12.3,4.1-18.42,2.08-8.71,4.29-17.4,6.47-26.08a25.48,25.48,0,0,1,1-2.75,11.32,11.32,0,0,0,7,9.24c-2.15,9.64-4.41,19.25-6.37,28.93C92,128.54,92.54,131,92.61,133.43Z"/><path class="cls-33" d="M206.91,110.34l-5.06,2c-.79-1.78-1.63-3.55-2.34-5.36-1.59-4-1.74-4.21-6-3.34-8.69,1.77-17.37,3.62-26.06,5.41a16.55,16.55,0,0,1-2.45.13c1.82-5,1.41-6.77-2.06-8.9,3-.61,6-1.39,9-1.81,6-.82,12.1-1.33,18.12-2.19,3.08-.43,6.09-1.34,9.13-2C205,98,206.41,104,206.91,110.34Z"/><path class="cls-34" d="M107,114.55c.42-3.1-1.69-4.23-4-5.2.37-6,2-11.33,7.2-15,5.58,1,11.14,2.09,16.74,3,5.77.88,11.58,1.52,17.37,2.3.24,0,.43.46.64.69-1.82,3-1.31,6,0,9-4.68-.84-9.38-1.63-14-2.54-5.17-1-10.3-2.29-15.49-3.16-3.94-.67-4-.47-5.33,3.21C109.06,109.37,108,112,107,114.55Z"/><path class="cls-35" d="M179.12,190.21c-6.73,3-13.44,6.08-20.2,9a8.33,8.33,0,0,1-7.58,0,141,141,0,0,0-17.18-7.08c-2.88-1-6.2-.62-9.32-.87,6.64-1.18,13.23-2.79,19.92-3.46a110,110,0,0,1,32.12,1.55A12.75,12.75,0,0,1,179.12,190.21Z"/><path class="cls-36" d="M169.35,134.25c-4.8,1.91-8.61,3.51-12.49,4.91a5.47,5.47,0,0,1-3.37.09c-3.62-1.21-7.19-2.59-10.7-4.09-.66-.28-1.55-1.8-1.35-2.11,2.66-4.11,4-9.21,8.64-11.9s9-2.12,12.25,2.1C164.84,126.48,166.77,130.16,169.35,134.25Z"/><path class="cls-37" d="M131,166.33a24.87,24.87,0,0,1,2,3.65,74.65,74.65,0,0,1,2.5,8.51c.25,1.13-.29,2.44-.48,3.67-4.16,1.08-8.32,2.14-12.47,3.23-1.83.48-2.93-.28-3.25-2-.23-1.29-.6-2.77-.21-3.92,2.16-6.38,4.52-12.68,7.13-19.87Z"/><path class="cls-38" d="M175,182.1c-.09-5.64,2.05-10.72,3.91-15.87l4.58-6.63c2.73,7.24,5.15,13.4,7.34,19.63.41,1.15,0,2.62-.16,3.92-.27,1.72-1.23,2.66-3.14,2.16C183.33,184.22,179.15,183.17,175,182.1Z"/><path class="cls-39" d="M182.7,124.17h17.45l.25.73q-6.48,3.61-13,7.23a57,57,0,0,1-6.13,3.24c-1,.42-2.37.07-3.58.07l-8-9.93C174.5,123.89,178.66,124.56,182.7,124.17Z"/><path class="cls-40" d="M131.18,136.46c-3.06-1.52-6.14-3-9.16-4.59-4-2.09-7.85-4.28-11.78-6.44l.32-1.17h16.49c4.19.32,8.49-.3,13.26,1.33Z"/><path class="cls-41" d="M144.91,109.25c-1.27-3-1.78-6,0-9a62.71,62.71,0,0,0,8.24,1c3.24,0,6.48-.63,9.72-1,3.47,2.13,3.88,3.92,2.06,8.9-2.57-.29-5.13-.66-7.71-.86a29,29,0,0,0-4.66.06C150,108.6,147.47,109,144.91,109.25Z"/><path class="cls-42" d="M71.81,94.24c2.35-6,4.68-12,7-18A2.2,2.2,0,0,1,82,74.78a16.62,16.62,0,0,0,2.92.6c1.6.26,3.22.82,2.68,2.74-.46,1.64.18,4.54-3,4.22-2.2-.22-2.93,1.07-3.58,2.67-1.34,3.35-3.82,6.32-3.33,10.26Z"/><path class="cls-43" d="M232.91,93.29c-1.4-2.8-2.83-5.6-4.19-8.42-.76-1.59-1.6-2.75-3.71-2.47-2.94.39-2.17-2.37-2.78-3.79s.57-2.44,1.91-2.88,2.58-.57,3.83-1c1.65-.55,2.53.23,3.07,1.61,2.35,6,4.66,11.94,7,17.91Z"/><path class="cls-44" d="M232.91,93.29l5.12,1c-.84,2.29-1.52,4.64-2.54,6.83-1.3,2.79-2.88,5.45-4.68,8.78-2.23-3.44-2.64-6.35-1.32-9.42C230.53,98,231.76,95.67,232.91,93.29Z"/><path class="cls-45" d="M71.81,94.24l5.92,1c2.48,4,4.88,7.94,2.41,12.83a16.38,16.38,0,0,1-1.32,1.69C76.54,104.24,72.42,100.12,71.81,94.24Z"/><path class="cls-46" d="M186,111.72c-1.58,6.69-1.58,6.7-7,6.78-2.13,0-4.25,0-7.2,0,1-1.5,1.56-3.47,2.69-3.87C177.91,113.4,181.61,112.76,186,111.72Z"/><path class="cls-47" d="M124.55,112.09c3.49.73,7,1.25,10.43,2.29,1.12.34,1.84,2,3.13,3.52a21.75,21.75,0,0,1-11.2.14c-1.4-.31-2.26-3.07-3.36-4.71Z"/><path class="cls-32" d="M100.92,94.07a4.67,4.67,0,0,0,0-1c-1.52-6.4-1.52-6.37,5-6a7.27,7.27,0,0,0,2.33-.69Z"/></svg>