<svg id="Layer_1" data-name="Layer 1" xmlns="http://www.w3.org/2000/svg" xmlns:xlink="http://www.w3.org/1999/xlink" viewBox="0 0 2704.28 2933.19"><defs><style>.cls-1{opacity:0.2;}.cls-2{fill:#575757;}.cls-3{opacity:0.6;}.cls-4{fill:#fff;}.cls-5{fill:url(#Degradado_sin_nombre);}.cls-6{fill:#adadad;}.cls-7{fill:#606060;}</style><linearGradient id="Degradado_sin_nombre" x1="2645.97" y1="2529.19" x2="3311.29" y2="2529.19" gradientUnits="userSpaceOnUse"><stop offset="0" stop-color="#fff"/><stop offset="1"/></linearGradient></defs><g class="cls-1"><ellipse cx="1352.14" cy="2804.21" rx="1352.14" ry="128.98"/></g><path class="cls-2" d="M3311.29,2809.53v.06q-2.79,19-6.29,36.8c-36.38,186.41-124.31,280.51-124.31,280.51s2.34,42.2,18.76,96.14,23.5,91.47-4.68,112.56-68-11.69-68-11.69,4.74,39.86-65.63,37.52c-58.8-2-71.81-30.15-74.44-39.38,1.8,10.13,3.6,44-52.21,44-65.69,0-117.3-56.28-117.3-56.28s-7,44.53-65.69,21.1-68-98.48-11.69-225.19c0,0-145.41-401.05,7-766.92,0,0-68-61-100.82-225.19,0,0-1.44,31.83-15.4,81.16-25.83,91.77-95,244-278.48,364.79-52.45,34.4-114.18,66.35-187,93.5,0,0,7.37,118.86-32.43,243.41-28.71,90-82.06,182.87-180.48,236.1a340.5,340.5,0,0,1-56.94,24.46c-29.49,9.71-62.16,16.3-98.42,19.06v61s53,19.84,81.28,59.52c13.73,19.24-.72,46-24.39,46H1818s-2.4,30.45-150.15,30.45c-101.72,0-157.88-13.31-183-21.64a29.11,29.11,0,0,1-19.48-22.66c-13.37-74.8-55.74-388.16,148.11-489.16h-.12l-.42.12c-11,2.46-157.22,33.45-242.93-34.23,0,0-37.52,164.17-234.54,201.69,0,0-51.61,84.45-37.58,211.1,0,0,101.06,33.63,83.43,121a65.78,65.78,0,0,1-64.49,52.57H796.8a58.06,58.06,0,0,1-57.3-48.73,1952.67,1952.67,0,0,1-22.3-210.5l-.06-.06c-8.69-165.61.36-386.3,75.94-587.4,41.24-109.81,93.26-204.69,150.09-285.13,143.49-203.07,317.67-314.2,426.88-341.11,0,0,91.47-215.78,150.09-401,38.36-121.26,88.89-212.36,168.19-283.87a532.56,532.56,0,0,1,58.32-45.61c28.11-19.06,59.22-36.56,93.74-52.81,26.49-12.47,52.15-29.07,77-48.73h.06c84.27-66.65,158.78-168,223-259.17.12-.12.12-.18.12-.18,41.48-58.86,78.64-113.4,111.43-151.64,63.06-73.54,166.51-91.47,265-53.94A154.65,154.65,0,0,1,2555,642.62c39.44,29.37,54.84,72.23,70.61,109.57l.06.06c8.51,20.14,17.08,38.72,29.67,52.69,29.13,32.31,102.85,95.9,134.26,160a.74.74,0,0,0,.12.18c14.09,28.71,19.6,57.54,8.75,83.67l-.06.06s51.61-4.68,77.38,46.93-18.76,114.9-18.76,114.9,39.56,16.42,26.79,56.28c0,0,99.86,39.86,88.17,157.16,0,0,127.43,183.77-121.2,268.17a2.52,2.52,0,0,0,.3.12c3.6,1.26,39,14.56,81.46,48.07a2.5,2.5,0,0,0,.48.36,385.29,385.29,0,0,1,53.46,51.79.19.19,0,0,0,.06.12c.06.06.12.06.12.12,37.46,44.11,72.47,105.49,89.55,189.29,7.37,36.14,22.18,70.43,44.59,99.74,59.52,77.74,173.58,257.38,195.94,514.93,2.22,25.05,3.36,49.27,3.6,72.59v.36A865.94,865.94,0,0,1,3311.29,2809.53Z" transform="translate(-695.72 -587.68)"/><g class="cls-1"><path d="M2090.1,1051.41c9.37,15.09,13.74,31.87,15.11,48.38,3.58,43-33.2,78.7-76,73.47-102.17-12.46-245.55,18.93-326.36,62.28,0,0-5.39-.54-14.51-1.5a532.56,532.56,0,0,1,58.32-45.61c28.11-19.06,59.22-36.56,93.74-52.81,26.49-12.47,52.15-29.07,77-48.73h.06c84.27-66.65,158.78-168,223-259.17C2137.45,833.59,2055.57,995.91,2090.1,1051.41Z" transform="translate(-695.72 -587.68)"/></g><g class="cls-3"><path class="cls-4" d="M1746.71,1188.49s-129.64,109.73-203.12,367.74c-53.66,188.43-120.79,433.69-248.28,477.69l47.29-63.36s-150.81,41.9-399.43,304.73v-15.22c143.49-203.07,317.67-314.2,426.88-341.11,0,0,91.47-215.78,150.09-401,47-148.65,112.32-252,226.51-329.48Z" transform="translate(-695.72 -587.68)"/></g><g class="cls-3"><path class="cls-4" d="M2625.59,752.2c-3.06-3.9-49.27-66.59-84.39-85.65-32.31-17.56-69.53-24.57-105.37-24.93a15.81,15.81,0,0,1,1.32,3.54c3.78,16.18-17.62,35.06-47.83,42.14s-57.72-.36-61.56-16.54a17.41,17.41,0,0,1,.9-10.43c-18,7.07-31.07,16-38.54,23.44-120.36,120-307.91,403.15-372.7,403.15,149.58-129.92,251-313.48,334.52-411,63.06-73.54,166.51-91.47,265-53.94A154.65,154.65,0,0,1,2555,642.66C2594.42,672,2609.83,714.85,2625.59,752.2Z" transform="translate(-695.72 -587.68)"/></g><g class="cls-1"><path d="M2513.21,1668.79S2313.64,1330.3,2067,1312.7c0,0,145,201.55,73.51,396.88,0,0,86.26,149.57,63.65,280.34C2204.16,1989.93,2450.83,1929.89,2513.21,1668.79Z" transform="translate(-695.72 -587.68)"/></g><g class="cls-3"><path class="cls-4" d="M3311.29,2809.53v.06q-2.79,19-6.29,36.8c-2.22,1.68-3.36,2.58-3.36,2.58,15.2-454.57-182.13-709.94-237.85-772.71a57.71,57.71,0,0,1-14.35-37.43c-2.37-143.7-60.31-239.77-62.85-246h.08c37.46,44.11,72.47,105.49,89.55,189.29,7.37,36.14,22.18,70.43,44.59,99.74,59.52,77.74,173.58,257.38,195.94,514.93,2.22,25.05,3.36,49.27,3.6,72.59v.36A868.11,868.11,0,0,1,3311.29,2809.53Z" transform="translate(-695.72 -587.68)"/></g><g class="cls-1"><path class="cls-5" d="M3180.68,3126.91s99.5-106.51,130.61-317.32c-33.86,164.77-146.67,336-339.31,235.2-251-131.33-30.51-929.65-30.51-929.65-98.48-249.46,45.19-322.29,45.19-322.29s-.12-.18-.18-.24c-13.61-19.3-33.27-36.86-53.46-51.79a2.5,2.5,0,0,1-.48-.36c-38.12-28-77.8-46.39-81.46-48.07a2.52,2.52,0,0,1-.3-.12L2646,2113.64c32.79,164.17,100.82,225.19,100.82,225.19-152.42,365.87-7,766.92-7,766.92-56.28,126.71-46.93,201.75,11.69,225.19s65.69-21.1,65.69-21.1,51.61,56.28,117.3,56.28c55.8,0,54-33.93,52.21-44,2.64,9.23,15.64,37.4,74.44,39.38,70.37,2.34,65.63-37.52,65.63-37.52s39.92,32.79,68,11.69,21.1-58.62,4.68-112.56S3180.68,3126.91,3180.68,3126.91Zm-394.15,30.62c-7.91,23.44-25.59,38.66-39.38,34s-18.52-27.51-10.55-50.95,25.59-38.66,39.38-34S2794.5,3134,2786.53,3157.53Zm154.28,129.59c-27.51,4.68-55.62-25.47-62.76-67.31s9.47-79.6,37-84.27,55.68,25.47,62.76,67.31S2968.38,3282.45,2940.81,3287.12Zm123.83,0c-27.51,4.68-55.62-25.47-62.76-67.31s9.47-79.6,37-84.27,55.68,25.47,62.76,67.31S3092.21,3282.45,3064.64,3287.12Zm97.4-35.66c-18.22,3.12-36.8-16.84-41.54-44.53s6.29-52.63,24.45-55.68,36.8,16.84,41.54,44.47S3180.26,3248.34,3162,3251.46Z" transform="translate(-695.72 -587.68)"/></g><g class="cls-1"><path d="M1762.53,2420.53c-16.48,324.63,190.54,392.9,370.18,476-28.71,90-82.06,182.87-180.48,236.1a340.5,340.5,0,0,1-56.94,24.46c-29.49,9.71-62.16,16.3-98.42,19.06v61s53,19.86,81.27,59.53c13.73,19.26-.74,46-24.39,46H1818s-2.4,30.45-150.15,30.45c-101.72,0-157.88-13.31-183-21.64a29.11,29.11,0,0,1-19.48-22.66c-13.37-74.8-55.74-388.16,148.11-489.16h-.12l-.42.12c-11,2.46-157.22,33.45-242.93-34.23,0,0-37.52,164.17-234.54,201.69,0,0-51.61,84.45-37.58,211.1,0,0,101.06,33.63,83.43,121a65.78,65.78,0,0,1-64.49,52.57H796.8a58.06,58.06,0,0,1-57.3-48.73,1952.67,1952.67,0,0,1-22.3-210.5c3.42,2.16,127.31,78.7,262.47-122.81,0,0-174.42-72.95-131.27-260.55,0,0,88.23,117.24,255.64,0s200.38-220.51,266-272.06-61-203.37,70.37-291.66c124.49-83.73,201.75-242.63,209.79-449.42.54-11.39.78-22.9.78-34.52v-.18c.22-89.24,23.53-152.79,51.46-196.93,22.19-35.07,77-16.74,73.72,24.63-3.67,46.22-.81,96.69,20.71,130.82,65.69,104.23,275.06,100.58,372.88,337.45C2169.76,1997.42,1786.15,1954.8,1762.53,2420.53Z" transform="translate(-695.72 -587.68)"/></g><path class="cls-6" d="M2646,2113.64s-16.42,365.93-480.83,539.45c-362,172.8-551.5,186.53-551.5,186.53l-.12.06h-.12l-.42.12c-11,2.46-157.22,33.45-242.93-34.23,40.64-115.74,56.28-175.14,56.28-175.14,71.93-125.09,181.37-131.33,331.46-304.49s332.3-267.81,332.3-267.81c-18-262.65,183.71-384.63,307.91-397.15s232.32,97,232.32,97c56.76-43.58,125.33-54.48,170.59-56.28,28.59-1.14,53.82,19.12,58,47.47C2902.39,2040.7,2646,2113.64,2646,2113.64Z" transform="translate(-695.72 -587.68)"/><path d="M2157.37,2130c71.22,60.35,186.6,46.6,268.75,17.56,66.84-23.24,126.73-66.29,171.81-120.72a366.4,366.4,0,0,0,40.63-58.65,6.28,6.28,0,0,1,11.62,4.75,238.62,238.62,0,0,1-15.69,34.54c-68.41,127.41-214.17,202.07-357.58,189.74-22.23-2.74-44.49-7.4-65.17-16.18-23.62-10.13-46-23.52-62.31-44.67-3.79-5.3,3.51-11.29,7.94-6.37Z" transform="translate(-695.72 -587.68)"/><path d="M2649.59,2128.18c-18.52,3.22-37.52.39-55.15-5.22-16.85-5.59-32.12-14.38-46-25.24a11,11,0,0,1-2.39-15.29,11.06,11.06,0,0,1,15.39-2.38c23.33,15.42,52.42,24.89,80.3,19.23,19.43-5.12,27.4,23.3,7.85,28.9Z" transform="translate(-695.72 -587.68)"/><g class="cls-1"><path d="M2858.93,1749.16c-4.2-28.35-29.43-48.61-58-47.47-45.25,1.8-127.91,12.71-184.67,56.28,0,0,39.86,45.13-15.76,71.93-45.55,21.88-121.86-68.81-226.63-26.61-99.2,40-133.66,47-167.65-52.33-71.57,64.67-125.81,165.43-116.1,307.19,0,0-182.15,94.7-332.3,267.81s-259.53,179.4-331.46,304.49c0,0-15.64,59.4-56.28,175.14,85.71,67.67,231.9,36.68,242.93,34.23l.42-.12h.12l.12-.06s189.53-13.73,551.5-186.53c464.4-173.52,480.83-539.45,480.83-539.45S2902.39,2040.7,2858.93,1749.16Zm-309.88,612.45c-40.1,49.51-102.67,72.29-139.78,50.89s-34.64-78.94,5.45-128.45,102.74-72.23,139.84-50.83S2589.21,2312.1,2549.05,2361.61Z" transform="translate(-695.72 -587.68)"/></g><path d="M1523,2864.05c-51.9,0-115-9.44-162.26-46.71a15,15,0,0,1-4.85-16.73c39.91-113.67,55.77-173.4,55.93-174a15.09,15.09,0,0,1,1.5-3.65c38.5-67,87.8-101.68,144.87-141.88,54.49-38.38,116.26-81.88,188.25-165,133.57-154,289.72-245.45,328.11-266.65-12.43-254.49,179.53-389,321.92-403.41,109.65-11.09,205.28,65.62,235.06,92.46,57.05-39.34,122.61-50,168.75-51.83,36.69-1.37,68.14,24.45,73.44,60.25,23.41,157-38.63,252.39-94.79,304.73-47.44,44.21-97.89,65.52-118.89,73.07-3,27.67-15.55,106.67-67.23,200.75C2535,2430.91,2414.79,2575.64,2171,2666.9c-347.92,166-535.6,185.9-554.88,187.56A457.62,457.62,0,0,1,1523,2864.05Zm90.5-24.37h0ZM1387.87,2800c81.12,54.89,213.46,27,221.66,25.18l.15,0a15.28,15.28,0,0,1,2.88-.51c1.86-.14,191.71-15.91,546.12-185.1.4-.19.8-.36,1.21-.52,235.59-88,351.19-226.94,406.67-328C2626.35,2202.22,2631,2113.85,2631,2113a15,15,0,0,1,10.86-13.74c1.25-.37,62.5-18.58,117.54-70.28,73.39-68.94,101.88-162.33,84.7-277.59-3.05-20.64-21.36-35.45-42.6-34.71-44.63,1.77-109,12.44-162,53.2a15,15,0,0,1-19.79-1.35c-1-1-104.8-104.22-220.16-92.61C2295.62,1686.36,2087,1793.33,2105,2057.1a15,15,0,0,1-8,14.32c-1.8.93-181.5,95.55-327.9,264.33-74.39,85.83-137.74,130.45-193.64,169.82s-100.13,70.53-135.18,130.64C1437.33,2647.18,1422.08,2701.84,1387.87,2800Z" transform="translate(-695.72 -587.68)"/><path class="cls-7" d="M2850.78,1692.27s-181.37,43.76-306.47-7.85-122-167.29-93.8-231.36c0,0,45.31-12.53,79.72-61,0,0-32.85,4.68-71.93-6.23,0,0,26.61-18.76,46.93-37.52,0,0-95.42,12.47-142.29-65.69s-11-179.82,48.49-209.55,120.72-25,184.67,0c49.23,19.31,142.7-5.52,183-17.93,35.65-11,75.16,3,93.81,35.33,1,1.7,1.94,3.47,2.86,5.32,25.83,51.61-18.76,114.9-18.76,114.9s39.56,16.42,26.79,56.28c0,0,99.86,39.86,88.17,157.16C2972,1424.11,3099.41,1607.88,2850.78,1692.27Z" transform="translate(-695.72 -587.68)"/><path class="cls-6" d="M2850.78,1692.27s-181.37,43.76-306.47-7.85-122-167.29-93.8-231.36c0,0,45.31-12.53,79.72-61,0,0-32.85,4.68-71.93-6.23,0,0,26.61-18.76,46.93-37.52,0,0-95.42,12.47-142.29-65.69a151.13,151.13,0,0,1-19.6-54.3c-10.25-65.33,21.76-132.11,68.09-155.24,59.4-29.67,120.72-25,184.67,0,49.21,19.3,142.71-5.51,183-17.92,27.87-8.57,58-1.92,78.82,16.78,1.68,1.5,3.3,3.12,4.85,4.8a72.53,72.53,0,0,1,10.13,13.73c1,1.74,2,3.48,2.88,5.33,25.83,51.61-18.76,114.9-18.76,114.9s39.56,16.42,26.79,56.28c0,0,99.86,39.86,88.17,157.16C2972,1424.11,3099.41,1607.88,2850.78,1692.27Z" transform="translate(-695.72 -587.68)"/><g class="cls-3"><path class="cls-4" d="M2862.77,1076.7c-40.54-23.11-141.77,38.59-216.8,37.17-113.84-2.15-107.92-47.09-200.17-20.48s-102.46,134.89-102.46,134.89c-10.25-65.33,21.76-132.11,68.09-155.24,59.4-29.67,120.72-25,184.67,0,49.21,19.3,142.71-5.51,183-17.92,27.87-8.57,58-1.92,78.82,16.78C2859.59,1073.41,2861.21,1075,2862.77,1076.7Z" transform="translate(-695.72 -587.68)"/></g><g class="cls-1"><path d="M2850.78,1692.27s-181.37,43.76-306.47-7.85-122-167.29-93.8-231.36c0,0-22.48,189.17,222.49,175.08,142.41-8.15,202.58-36.27,228-58.39,12.48-10.86,4.67-31.47-11.87-31.61-20.3-.18-48.36,2.71-76.58,15.64-20.46,9.37-39.26-15.91-24-32.4,20.71-22.3,57.53-40,123-34.32,20.7,1.8,31.25-24.17,15.09-37.24-29.27-23.68-93.86-40.12-236.37,5,0,0,49.82-72.6,189.85-83.41,33.42-2.58,38.11-49.61,5.73-58.26q-1-.27-2-.51c-45.55-10.55-94.76,0-94.76,0s-38.84-31.65-88.65,20c0,0-53-4.74-63.83-52,0,0-31.89,13.73-81.64,0s-61.44-50.41-141.16-29.67c0,0,19.83-165.81,294.65-81.8a45,45,0,0,0,43.54-9.87c13.06-12,34.21-27.69,65.19-40.07,50.05-20,43.7-41.48,40.76-47.29a75.44,75.44,0,0,1,15,18.52c1,1.74,2,3.48,2.88,5.33,25.83,51.61-18.76,114.9-18.76,114.9s39.56,16.42,26.79,56.28c0,0,99.86,39.86,88.17,157.16C2972,1424.11,3099.41,1607.88,2850.78,1692.27Z" transform="translate(-695.72 -587.68)"/></g><path class="cls-4" d="M2694.1,1202.63c-117.74,81.53-180.3-14.15-180.3-14.15l-.6-.78c20.44-5.21,44.83-8.63,73.3-8.33C2626.79,1179.8,2662.63,1194.54,2694.1,1202.63Z" transform="translate(-695.72 -587.68)"/><path class="cls-4" d="M2857,1148.69c-15.76,85.67-91.94,52-95,50.55a80.87,80.87,0,0,0,10.6-9.61c29.73-31.72,61-40.21,84.3-41Z" transform="translate(-695.72 -587.68)"/><path d="M2603.69,1250.54a122.58,122.58,0,0,1-23.53-2.27c-48.52-9.49-74.94-45.8-78.52-51l-.32-.42a15,15,0,0,1,8.18-23.65c24-6.12,50-9,77.17-8.79,32.16.34,61.25,9.07,86.91,16.78,8.51,2.55,16.55,5,24.26,6.95a15,15,0,0,1,4.8,26.84C2668.45,1238.63,2635.27,1250.54,2603.69,1250.54Zm-61.5-53.33c10.12,8.63,25,18.07,44.12,21.73,21.81,4.15,45.33.26,70.21-11.59-22.3-6.61-45.38-12.73-70.16-13A281,281,0,0,0,2542.19,1197.21Z" transform="translate(-695.72 -587.68)"/><path d="M2798.06,1221.89a110,110,0,0,1-42.37-9.08,15,15,0,0,1-2.67-25.55,66.14,66.14,0,0,0,8.64-7.84c34.05-36.33,70.33-44.94,94.77-45.77a15.07,15.07,0,0,1,15.31,17.74c-5.68,30.88-19.21,52-40.22,62.85A72.27,72.27,0,0,1,2798.06,1221.89Zm-6.11-30.26c8.38.82,17.75.19,25.93-4.05,7.69-4,13.78-11,18.22-20.82C2820.34,1171,2805.58,1179.28,2792,1191.63Z" transform="translate(-695.72 -587.68)"/><path d="M1116.88,3406.88H796.8a72.83,72.83,0,0,1-72.09-61.29c-22.7-138.34-62.84-493.77,54.35-805.66,146.77-390.58,424.11-591.12,580.05-633.61,15.93-38.07,94.79-228.74,146.74-392.93,62.6-197.83,157.67-311.2,328.16-391.32,121.88-57.32,227.92-208.53,313.12-330,33.54-47.84,65.23-93,93.42-125.9,66-77,173.91-99.27,281.7-58.2,70.73,26.94,94.34,83.65,113.3,129.21,9.32,22.4,18.13,43.55,30.91,57.76,6.68,7.43,16,16.74,26.77,27.52,52.38,52.41,137.23,137.31,124.62,212.71,20.73,3.53,52.1,15.43,71.32,53.92,22,44,1.24,93.16-11.58,116.55,13.5,10.5,26.4,28.34,23.32,53.2,27.46,15.42,93.75,63.15,86.43,161.47,11.29,18.28,48,85.73,24.68,156.56-16.23,49.2-57.48,88.36-122.81,116.69,56.29,30.46,166.57,111,201.95,286.93a225.67,225.67,0,0,0,41.51,92.28c64.71,84.54,176.62,264.86,199,522.76,28.27,326-108.09,504.26-135.53,536.51a462.74,462.74,0,0,0,17.64,86.66c16.47,54.1,27.08,101.14-10,128.93-21.68,16.28-48.25,10.23-68.08,0a46.76,46.76,0,0,1-5.94,8c-13.68,14.89-37,21.9-69.13,20.83-32.41-1.09-53.12-9.69-66.33-19.69-.86,1.27-1.81,2.54-2.85,3.79-11.45,13.66-30.62,20.59-57,20.59-49.72,0-91.27-28.39-112.73-46.5a46.59,46.59,0,0,1-13.51,11.58c-16.14,9.18-37.1,8.74-62.31-1.33-23.79-9.51-40.65-26.14-50.12-49.41-17.59-43.26-8.2-107.28,27.9-190.34-8-23.52-37.27-115.75-52.45-243.86-15.74-132.84-18.2-329.81,58-519-15.77-17.49-52.67-65.44-80.58-156.44-9.5,37.15-26.27,86-55.78,139.72-57.12,104-174.92,246.34-412.31,337.77.85,33.54,0,137-35.77,244.64-55.72,167.56-170.68,264.77-332.91,281.88v37.43c17.68,8.1,55.23,28.11,78.49,60.74a43.55,43.55,0,0,1,3.15,45.4,44.58,44.58,0,0,1-39.74,24.31h-27.28c-13.59,14.79-53,30.45-158.59,30.45-104.59,0-162.5-14-187.71-22.4a44,44,0,0,1-29.52-34.28c-6.75-37.77-21-136.79-7.5-239.31,13.42-101.87,49.65-178.58,108-229-50,3.12-118.9-.59-173.12-33.82-17.77,46.46-76.06,158.51-232.7,191.26-10.1,19.59-41.77,89.88-33.37,187,40,16.62,98.95,61.23,84.13,134.67A80.94,80.94,0,0,1,1116.88,3406.88ZM2416.78,617.73c-60.5,0-115.28,23.36-153.47,67.91-27.24,31.78-58.52,76.38-91.63,123.6-87.24,124.4-195.81,279.22-324.91,339.94-164.2,77.17-251.77,181.82-312.34,373.25-58.16,183.82-149.66,400.21-150.58,402.38a15,15,0,0,1-10.21,8.7c-84,20.69-190.25,87.36-284.31,178.33-84.13,81.37-201.39,223.52-282.22,438.63C692.46,2855.6,732,3204.78,754.29,3340.74a43,43,0,0,0,42.51,36.17h320.07a50.94,50.94,0,0,0,49.81-40.57c14.75-73.09-69.9-102.54-73.51-103.76A15,15,0,0,1,1083,3220c-14.42-130.24,37.47-216.94,39.69-220.57a15,15,0,0,1,10-6.91c184.5-35.14,221.27-184,222.74-190.35a15,15,0,0,1,23.89-8.39c80,63.18,221.76,33.26,230.19,31.4a15.14,15.14,0,0,1,18.52,11,15,15,0,0,1-7.88,16.85c-196.34,97.28-151.08,411.16-140,473.1a14.11,14.11,0,0,0,9.41,11.06c23.53,7.81,77.93,20.89,178.31,20.89,110.32,0,133-17.49,136-20.39a15,15,0,0,1,14.16-10.06h35.72a14.53,14.53,0,0,0,13.1-8.06,13.45,13.45,0,0,0-.91-14.27c-25.19-35.34-73.86-54-74.35-54.21a15,15,0,0,1-9.71-14v-61a15,15,0,0,1,13.85-14.94c158.52-12.1,266.3-100.24,320.34-262,41-122.79,34.18-244,34.11-245.21a15,15,0,0,1,9.71-15c234.78-87.72,350.31-226,405.89-326.55,60.27-109,65.17-198.66,65.21-199.56a15,15,0,0,1,29.67-2.24c31.21,156.28,95.53,216.42,96.17,217a15.08,15.08,0,0,1,3.78,16.88c-148.33,356-8.19,752.09-6.76,756a15,15,0,0,1-.4,11.19c-43.14,97.13-40.08,147.32-29.92,172.32,6.37,15.65,17.32,26.41,33.48,32.87,15.91,6.36,28.41,7.49,36.14,3.24,7.46-4.09,9.16-12.61,9.23-13a15.17,15.17,0,0,1,10.64-11.74,15,15,0,0,1,15.17,4.16c.46.5,48.15,51.43,106.26,51.43,16.83,0,28.59-3.41,34-9.87,4.76-5.68,4-13.49,3.45-16.58a15,15,0,0,1,29.16-6.74c1.28,4.46,10.2,26.83,60.54,28.52,22,.72,38.16-3.08,45.64-10.71,4.73-4.83,4.6-9.92,4.57-10.49-1.12-6.18,1.83-11.74,7.24-14.93s12.33-2,17.19,2c.28.23,31.52,24.79,49.53,11.28,19.71-14.76,15.24-44-.67-96.22-16.76-55-19.29-97.88-19.39-99.68a15,15,0,0,1,4-11.06c1.61-1.73,161.59-178.28,132.08-518.57-21.71-250.33-130.19-425.18-192.92-507.13a255.78,255.78,0,0,1-47.09-104.58c-43.72-217.33-214.22-279.36-215.94-280a15,15,0,0,1,.1-28.34c75.45-25.61,121.72-62.76,137.54-110.42,22.22-66.93-23.39-134.38-23.85-135.05a15,15,0,0,1-2.58-10c10.38-104.21-75.21-140.29-78.86-141.78a15,15,0,0,1-8.67-18.47c8-25-13.9-36-18.37-37.92a15.07,15.07,0,0,1-6.4-22.43c.38-.54,39.06-56.71,17.61-99.56-21-42-62.22-38.76-62.63-38.72a15,15,0,0,1-14.81-21.51C2809.32,981,2723.43,895,2672,843.61c-11.07-11.08-20.64-20.65-27.85-28.67-16.2-18-26-41.47-36.29-66.29-18.49-44.43-37.61-90.37-96.3-112.72C2479.46,623.71,2447.39,617.73,2416.78,617.73ZM1803.1,3341.47a.08.08,0,0,1,0,0A.08.08,0,0,0,1803.1,3341.47Zm0,0v0S1803.11,3341.44,1803.11,3341.43Zm0,0Zm1.15-4Z" transform="translate(-695.72 -587.68)"/><path class="cls-2" d="M2465.14,3283.53c-4.92,44.11-53.29,69.65-92.13,48.25-.48-.3-1-.54-1.5-.84,0,0-56.28,49.27-117.24-2.34,0,0-104.17,36.14-245.75,7.19a62.41,62.41,0,0,1-36-22.06c-28.35-35.18-88-115.5-77.2-156.68,14.21-53.65,56.94-24.46,56.94-24.46s-24-38.54-24-106.57c0,0-248.63-107.89-314.32-363.53s4.68-389.36,30.51-485.5,65.69-178.26,35.18-281.47c-13.67-46.27-28.29-98.72-29.43-159.38q-.36-16.82.78-34.52v-.18c4.5-66.65,26.55-142.59,82.6-230.4l283.87-171.24c16.12.84,32.85,5.15,49.57,12.89,122.28,56.46,245.09,294.78,137.14,677.25q-6.12,21.68-13.25,44s9,20.14,23,55a1.05,1.05,0,0,0,.06.3c36.26,90.09,105.49,278.06,138.1,470.4,13.07,77,20.26,154.76,17.08,227.23-10.13,233.52,66.41,313.24,90.45,411.78,1.86,7.61,3.42,15.34,4.56,23.26A236.6,236.6,0,0,1,2465.14,3283.53Z" transform="translate(-695.72 -587.68)"/><g class="cls-1"><path d="M2204.16,1989.93c13.43-77.76-11.61-162.15-34.12-217.8-16.05-39.68-19.94-83-13.56-125.28,26.13-173.47-89.46-334.17-89.46-334.17C2189.3,1369.14,2312.11,1607.46,2204.16,1989.93Z" transform="translate(-695.72 -587.68)"/></g><g class="cls-3"><path class="cls-4" d="M2330.87,2830.57c.78-143.85-13.31-218.9-32.07-340.87-18.4-119.7-82.42-390.38-84.81-400.51,36.26,90.09,105.49,278.06,138.1,470.4,13.07,77,20.26,154.76,17.08,227.23-10.13,233.52,66.41,313.24,90.45,411.78,1.86,7.61,3.42,15.34,4.56,23.26C2360.42,3095.2,2330.15,2959.86,2330.87,2830.57Z" transform="translate(-695.72 -587.68)"/></g><g class="cls-1"><path d="M2465.14,3283.53c-4.92,44.11-53.29,69.65-92.13,48.25-.48-.3-1-.54-1.5-.84,0,0-56.28,49.27-117.24-2.34,0,0-104.17,36.14-245.75,7.19a62.41,62.41,0,0,1-36-22.06c-28.35-35.18-88-115.5-77.2-156.68,14.21-53.65,56.94-24.46,56.94-24.46s-24-38.54-24-106.57c0,0-248.63-107.89-314.32-363.53s4.68-389.36,30.51-485.5,65.69-178.26,35.18-281.47c-13.67-46.27-28.29-98.72-29.43-159.38.54-11.39.78-22.9.78-34.52v-.18c.38-158.76,73.87-236.19,116.39-267.72,8.74-6.48,20.54,2.24,17,12.54-15.47,45.14-34.47,133,12.49,213.71,61.94,106.51,275.06,100.58,372.88,337.45,0,0-383.61-42.62-407.22,423.11-16.48,324.63,187.78,358.25,367.42,441.32,34.09,15.75,70.15,35.18,102.83,58.91,45.89,33.32,28.77,105.19-27.27,113.89-39.37,6.11-81.39,19.75-115.41,47.66,0,0-4.74,126.65,50.41,129s50.41-68.75,50.41-68.75,48.13,87.93,112.62,68.75c62.28-18.52,29.73-99.86,27.45-105.25,3.12,6,50.89,95.36,128.63,92.55A237.65,237.65,0,0,1,2465.14,3283.53Z" transform="translate(-695.72 -587.68)"/></g><path d="M2017.78,1293.36c75.41,1.16,135.25,61.08,172,121.88,99.24,171.47,83.32,388.42,31.09,572.62-3.72,14-11.29,36.34-15.69,50.62l-.6-10.69c23.9,54.81,45,110,64.77,165.94,58.21,168.06,106.15,342.28,114.64,520.82,2.09,26,0,63-.35,89.42-1.56,57.77,2.15,115.8,14.66,172.17a604.59,604.59,0,0,0,24.72,82.66c20.46,55.84,50.65,109.46,57.2,170.7a251.52,251.52,0,0,1-.79,59l-1.22,6.72-2,6.56c-14.69,45.36-71.15,66.89-112.12,42.17l17.3-1.73c-33.84,28.41-85.18,33.46-122.23,8.46-5.15-3.23-9.74-7.08-14.59-10.64l14.59,2.72c-56.53,17.23-116,21.24-174.67,18.16-16.63-1.06-35.65-3.25-52.25-5.62-10.87-2.24-25.48-3.81-36-7.31-31.2-10.18-47.31-41-66.09-65.49-20-29.41-40.14-60.08-49-95.83-9.91-37.38,15-86.88,59-75.29a66.2,66.2,0,0,1,20.47,8.88l-21.17,20.29c-5.29-9-9.13-18.5-12.54-28.22-9.58-27.76-13.59-57.05-13.73-86.29l9,13.75c-17.53-7.8-33.13-16.42-49.43-25.92-118.42-70.3-219.32-177.81-263.9-309.77a489.31,489.31,0,0,1-15-53.34c-6-25.82-12.17-54.59-15.88-80.73-13.53-90.81-10.61-184.87,13.09-273.81,11.26-44.27,27.09-86.17,39-129.2,21.75-78.1,57.07-160.37,40.31-242.6l-1.1-6.24-1.56-6.16-3.12-12.33-3.75-13c-40.6-134.09-35.42-250.61,37.6-373.27,8.3-14.8,20.25-31.54,30-45.57a6,6,0,0,1,10.26,6.15c-27.13,51.08-50.5,103.24-63.34,159.48-20.45,86.72-8,173.31,19,257.46a291.37,291.37,0,0,1,11.43,98.55c-3.06,53.4-21.48,109.72-36.73,160.71-4.08,14.54-10.6,37.06-14.73,51.93-58.05,168.47-67.45,292.91-21.24,466.3,41.94,151.8,162.19,274.75,301.54,344.16a15.44,15.44,0,0,1,8.52,13.54,260.49,260.49,0,0,0,5.24,51.69c3.67,16.46,8.57,32.71,16.77,47.43,7.59,13.37-8.54,28.51-21.43,19.82-2.89-2.11-7.35-3.56-10.73-4.53-10.12-3.08-16.57,2.82-20.14,11.6-18.44,35.53,40,110.79,61.66,140.11,9.72,13.35,20.64,26.42,37.75,29.09l8.17,1.46c11.66,2.36,29.23,4.73,41,6.18,41.21,4.19,83,4.21,124.1-1.17a430.21,430.21,0,0,0,48.56-9c9.84-1.57,19.82-8.81,28.71-2.3,29.77,25.93,68.24,27.72,99.5,2.65A14.43,14.43,0,0,1,2379,3318c1.45.88,2.65,1.3,3.94,1.94a46.64,46.64,0,0,0,20.15,4.62c21.28-.23,41-15.52,46.06-36.37,3.07-18.26,3.12-37.11,1.32-55.44-5.69-55-34.8-107-55.47-163.39a633.58,633.58,0,0,1-39.12-176.14c-5.57-58.22.81-119.12-1.78-177.39-8.39-175.43-55.73-346.75-113-512.07-19.53-55.21-40.59-110.3-63.84-163.61a14.36,14.36,0,0,1-.82-10c16-53.8,29.69-108.73,39.09-164.11,23.55-145.54,22.22-304.35-50.56-436.26-31.91-56.42-80.6-113.25-147.85-123.48a6.48,6.48,0,0,1,.64-12.9Z" transform="translate(-695.72 -587.68)"/><path d="M2177.82,2041.16c-27.36-54.54-57.32-108.44-92.23-158.57-4-5.82,4.22-12.33,9-7,40.59,47.37,76.08,98.42,109.5,151.06,10.46,18-16.51,33-26.23,14.49Z" transform="translate(-695.72 -587.68)"/><path d="M1966.28,3127.37c16.92,48.05,45.43,93.73,85.5,125.86,6,5.1-.87,14.54-7.57,10.24-46.88-30.09-82.19-75.53-106-125.58-7.87-19.54,21.11-30.48,28.07-10.52Z" transform="translate(-695.72 -587.68)"/><path d="M2243.66,3318c-.55.55-.34.31-.42.38s0-.1.07-.16l.33-.59c7.36-13.74,10.46-29.56,13.42-45,.74-6,4-14.51-1.41-19.45-.51-.61-2.45-2.14-3-2.72-22.21-20.49-43-43-53.66-72.22-3-8.85,9.35-14.72,14.29-6.79,13.25,21.06,33.36,38.31,53.1,53.62,1.48,1.11,5.12,3.9,6.56,4.94a40.21,40.21,0,0,1,16.45,34.86c-2.57,25.32-6.79,52.27-23.16,72.87-13.51,16.09-36.87-4.25-22.54-19.75Z" transform="translate(-695.72 -587.68)"/><path d="M2343.91,3135.13a314.68,314.68,0,0,0,53.61,63.34,40.77,40.77,0,0,1,14.24,27.92c3,33.8-2.23,71-23,99a69,69,0,0,1-10.73,11.47c-6,5.16-14.82-2.43-10.67-9.09,17.73-29.23,18.65-65.39,13.94-98.62a10.07,10.07,0,0,0-3.05-5.47c-24.63-20.44-45.82-45.08-60.38-73.78-8.17-17,15.71-30.52,26.07-14.77Z" transform="translate(-695.72 -587.68)"/><path d="M2733.1,2332.74a551.57,551.57,0,0,1,105-141.48c13.85-13.81,29.12-26.14,44.56-38.07a7.91,7.91,0,0,1,9.79,12.43,467,467,0,0,0-58.9,60.42c-29,36.25-54.45,76.41-73,118.88-8.23,18.87-35.91,6.7-27.39-12.18Z" transform="translate(-695.72 -587.68)"/><path d="M2855,1706.67c-94.14,20.18-209.52,28.63-301.67-3.13-50.22-16.76-96.92-50.78-118.59-100.55-22-49.65-18.77-106.66,2.1-156a14.43,14.43,0,0,1,8.6-8c23.23-5.11,45-17,63.14-32.53a177.48,177.48,0,0,0,17.59-17.33l4.81,7.89c-26,5.86-53,7.65-79.42,2.34-11.82-3.49-13-20.74-1.85-25.8a500.68,500.68,0,0,0,51.86-29.27s4.4,9.39,4.41,9.39c-133,23-215.27-105.57-164.59-223.85,10.2-23.9,26.4-46.7,48.43-62.59,36.05-24.21,81.4-33.7,124.33-31,28.44,2.07,55.64,8.65,81.86,18.57a110.09,110.09,0,0,0,41,8.18c39.85.86,81.14-8.47,120-19,9.72-2.67,22.73-7.18,33-8.5,52-8,104,30.45,109,83.45,3.79,36.36-10,70.62-29.68,100.28l-6.5-22.47c29,12.54,46.06,43.93,35.32,74.69l-8.71-18.49c16.88,7.36,30.94,17.33,44.59,29.28,34.9,30.76,54.61,77.44,53.81,123.77,0,4.27-.81,15.15-.87,19.52l-2.6-10c2.62,3.88,4.44,7,6.45,10.52,39,68,42.22,152.75-16,211.11-32.64,33.55-76.1,54.28-119.81,69.47Zm-8.34-28.79c115.61-38.83,182.6-117,118.07-237-3-6-8.16-10.75-7.64-17.53l0-.74.47-11.09c2.86-43.79-17-87.51-52.06-114a159.4,159.4,0,0,0-18.2-12.07c-3-1.73-6.6-3.49-9-4.56a15.57,15.57,0,0,1-8.82-18.08c3.93-11.75,1.54-23.4-8.08-31.52a43.67,43.67,0,0,0-10.12-6.77,15.54,15.54,0,0,1-7.45-20.68c16.63-27.08,30.57-61.74,20.7-93.29-9.39-28.47-40.31-46.28-69.94-41.63-7.46,1.11-20.81,5.42-28.44,7.61a650.46,650.46,0,0,1-63.55,14.66c-37.08,6.06-78.08,10.88-114.89-3.11-51.23-20.25-109.93-27.35-161-4-26.17,10.58-44.88,32.33-56.52,58.44-23.89,51.94-15.6,119.27,25.8,159.93,27.06,27.23,68.81,40,109.48,40.43,4.85-.1,7.09,6.36,3.52,9.38-6.46,8.08-13.27,15.86-20.27,23.44s-14.14,15-21.72,22.32l-4.6-26.68a186.62,186.62,0,0,0,67.19,15.69,4.78,4.78,0,0,1,5.82,3.44,5.28,5.28,0,0,1-1,4.45c-18.44,31.33-45.89,58.32-79.83,72.55l9.72-8.41c-17.49,41-20.62,90.69-2.14,131.74,58.54,126.77,270,111.59,384.54,87.07Z" transform="translate(-695.72 -587.68)"/><path d="M2877.43,1162.52c-37.13-11.51-71.27,4.3-93.87,34.43-33,40.4-87.07,24.36-127.88,12.4-28.5-8.13-54.91-14-83.72-13.07-48.54,1-96.57,9.23-140.31,32.3-.38.28-.92-.25-.63-.63,38.83-52.1,110.11-68.51,172.16-64.93,40.72,2.68,79.88,22.21,117.45,29,17.26,2.59,31.4-.84,43.19-13.21,1.34-1.29,3.92-4,5.21-5.37,28.31-31.33,77.15-47,115.51-24.56,8.09,5.05,1.76,17.3-7.11,13.68Z" transform="translate(-695.72 -587.68)"/><path d="M2849.88,1223.84c-23.37-7.4-43.69,17.4-66.81,22.32-28.5,7.06-58.52,0-86.26-1.37-9.58,0-19.62.79-28.48,4.47-16.75,6.58-31.77,24.2-23.36,43.17,1.7,3.46-3.24,6.72-5.78,3.94-20.4-21-2.73-54.86,20.36-65.53,36.48-18.81,79-1.41,116.56-11.82,15-5.13,27.61-17.92,43.54-22.66,14-4.8,30.62-5.74,44.51,1.13,17.1,9.85,3.37,35.32-14.28,26.35Z" transform="translate(-695.72 -587.68)"/><path d="M2677.37,1287.45c19.36-24.83,55.5-26.12,82.69-15.84,9.83,3.1,18.34,8.49,27.68,12.38.35.11.91.34.77.21.08-.42-.31-.72-.75-.71,5.09-12.38,18.19-25.45,32.55-28.92a12.77,12.77,0,1,1,8.52,24.06c-6.06,1.28-12.56-.54-18.11,2.58-4.35,1.93-7.78,5.38-12.89,10.57a11.61,11.61,0,0,1-13.38,2.64,42.34,42.34,0,0,0-10.76-4.6c-22.91-7.3-57.12-11.36-70.72,12.94-9.32,16.18-35.33,3.07-25.6-15.31Z" transform="translate(-695.72 -587.68)"/><path d="M2897.44,1273.17a65.37,65.37,0,0,1-31.33,23.89,51.26,51.26,0,0,1-12.3,2.61c-5.82.72-8.53-7.34-3.58-10.31a40.47,40.47,0,0,0,8.07-6.06c5.94-6,10.76-14.4,11.87-22.58,8.65-17.76,35-5.74,27.27,12.45Z" transform="translate(-695.72 -587.68)"/><path d="M2968.66,1438.72c-83.92-18.6-173.78-15-255.34,12.76-6.17,2.5-22,8.55-28,11.12-6.24,3.05-21.1,10.38-27.44,13.48-4.31,2.16-8-4.38-3.67-6.87,6.18-3.61,20.88-12.07,26.79-15.51a438.56,438.56,0,0,1,127.38-42.37c55-9.44,111.71-10.7,166.94-1.85,20.23,4.35,13.69,34-6.62,29.24Z" transform="translate(-695.72 -587.68)"/><path d="M2807.86,1521.05c17.87-40.46,78.13-55.19,111.71-25.8-37.76,13.23-71.79,21.74-111.71,25.8Z" transform="translate(-695.72 -587.68)"/><path d="M1383.9,1924.7A450.79,450.79,0,0,1,1304,2034.12c-10.41,10.73-21.87,20.4-33.43,29.72a3.94,3.94,0,0,1-5.2-5.91c10.07-10.48,19.88-21.11,28.58-32.68a431.52,431.52,0,0,0,62.36-112.4c7.84-19.54,36.36-7.38,27.56,11.85Z" transform="translate(-695.72 -587.68)"/><path d="M1797.67,3191.08c-44.24-.8-88.11-2.94-132-9.27a6.88,6.88,0,0,1,1.24-13.69c43,.84,86.46-2.42,129.2-7,21-1.55,22.6,29.34,1.51,29.94Z" transform="translate(-695.72 -587.68)"/><path d="M1803.22,3344.9c-3.66-32.64-24-67.14-59.08-71.88-11.41-1.8-23.59-1.19-35.63,1.18a6,6,0,0,1-3-11.61c26-8.68,57-9.17,81.12,6.81,24.75,16.39,39.57,43.13,46.33,71.42,3.5,20.93-27.43,25.23-29.72,4.08Z" transform="translate(-695.72 -587.68)"/><path d="M1137.76,3022.08c-32.81,2.12-64.86-.66-97-5.92a9,9,0,0,1,1.9-17.81c30.18,1.05,61.36-.21,90.83-5.95,20.81-3.56,25.32,27.17,4.3,29.68Z" transform="translate(-695.72 -587.68)"/><path d="M1071.54,3374.08c29.67-36.76,33.27-83.06-8.5-112.51-3.89-2.78,0-9,4.17-6.68,46.92,23.44,57.13,72.28,37.64,118.45a122,122,0,0,1-9.39,18.88c-12.29,17.9-37.85-1.44-23.92-18.14Z" transform="translate(-695.72 -587.68)"/><path d="M982.34,3380.8c19.11-15.64,26.1-42.58,19.34-66.55-6.29-25.56-29.53-46.69-57.47-40.31a3.57,3.57,0,0,1-2.09-6.79,56.58,56.58,0,0,1,23.58-4.25c25.6,1.24,46.55,21.63,55.77,44.42,13.61,31.5,6.65,71.79-19,95.67-15.08,13.92-35.47-8.48-20.15-22.19Z" transform="translate(-695.72 -587.68)"/><path d="M2802.62,3313.47c-4.49-34.16-4.37-68.19-.81-102.22a5.22,5.22,0,0,1,10.39.15,429.7,429.7,0,0,0,7.11,48.45,373.43,373.43,0,0,0,12.41,46.41c6.42,20.9-25,28.74-29.1,7.21Z" transform="translate(-695.72 -587.68)"/><path d="M2972.26,3326.2c-2.53-27.4,1.28-54.81,7-81.33a1.33,1.33,0,0,1,2.6.13,296.78,296.78,0,0,0,12.56,56.38c1.85,5.35,4.15,11.88,6.65,16.55,11,23-25.65,33.73-28.81,8.27Z" transform="translate(-695.72 -587.68)"/><path d="M3113.48,3330.91c-8.49-26.46-11.47-54.22-12.3-81.67a2.19,2.19,0,0,1,4.24-.78,344.55,344.55,0,0,0,15.36,36.2,264.58,264.58,0,0,0,14.14,25.06,86.77,86.77,0,0,0,5.07,7.22,15.3,15.3,0,0,1-1.94,21.56c-8.22,7.17-21.75,2.84-24.57-7.59Z" transform="translate(-695.72 -587.68)"/><path d="M2630.57,2194.8c9.41-49.81,15.4-81.16,15.4-81.16S2644.53,2145.47,2630.57,2194.8Z" transform="translate(-695.72 -587.68)"/><g class="cls-1"><path d="M2789.58,964.92c-2.28-3.3-41.18-57.36-143.61-54.48a326.47,326.47,0,0,1-80.56-7.48c-39.9-9-58.95-54.92-37.42-89.68,54-87.2,26.93-170.65,26.93-170.65h.06c60.78,45.25,64.49,122.45,100.34,162.31C2684.45,837.25,2758.18,900.84,2789.58,964.92Z" transform="translate(-695.72 -587.68)"/></g><g class="cls-3"><ellipse class="cls-4" cx="1994.54" cy="346.88" rx="50.4" ry="19.41"/></g></svg>